%TF.GenerationSoftware,KiCad,Pcbnew,(5.1.6-0-10_14)*%
%TF.CreationDate,2020-11-03T23:38:41+01:00*%
%TF.ProjectId,panel_x3,70616e65-6c5f-4783-932e-6b696361645f,rev?*%
%TF.SameCoordinates,Original*%
%TF.FileFunction,Paste,Top*%
%TF.FilePolarity,Positive*%
%FSLAX46Y46*%
G04 Gerber Fmt 4.6, Leading zero omitted, Abs format (unit mm)*
G04 Created by KiCad (PCBNEW (5.1.6-0-10_14)) date 2020-11-03 23:38:41*
%MOMM*%
%LPD*%
G01*
G04 APERTURE LIST*
%ADD10R,0.650000X1.560000*%
%ADD11R,7.875000X2.000000*%
%ADD12R,2.000000X3.800000*%
%ADD13R,2.000000X1.500000*%
%ADD14R,0.900000X0.800000*%
G04 APERTURE END LIST*
%TO.C,R19*%
G36*
G01*
X156347320Y-74998000D02*
X156347320Y-75343000D01*
G75*
G02*
X156199820Y-75490500I-147500J0D01*
G01*
X155904820Y-75490500D01*
G75*
G02*
X155757320Y-75343000I0J147500D01*
G01*
X155757320Y-74998000D01*
G75*
G02*
X155904820Y-74850500I147500J0D01*
G01*
X156199820Y-74850500D01*
G75*
G02*
X156347320Y-74998000I0J-147500D01*
G01*
G37*
G36*
G01*
X157317320Y-74998000D02*
X157317320Y-75343000D01*
G75*
G02*
X157169820Y-75490500I-147500J0D01*
G01*
X156874820Y-75490500D01*
G75*
G02*
X156727320Y-75343000I0J147500D01*
G01*
X156727320Y-74998000D01*
G75*
G02*
X156874820Y-74850500I147500J0D01*
G01*
X157169820Y-74850500D01*
G75*
G02*
X157317320Y-74998000I0J-147500D01*
G01*
G37*
%TD*%
%TO.C,R20*%
G36*
G01*
X156760480Y-73511660D02*
X156760480Y-73166660D01*
G75*
G02*
X156907980Y-73019160I147500J0D01*
G01*
X157202980Y-73019160D01*
G75*
G02*
X157350480Y-73166660I0J-147500D01*
G01*
X157350480Y-73511660D01*
G75*
G02*
X157202980Y-73659160I-147500J0D01*
G01*
X156907980Y-73659160D01*
G75*
G02*
X156760480Y-73511660I0J147500D01*
G01*
G37*
G36*
G01*
X155790480Y-73511660D02*
X155790480Y-73166660D01*
G75*
G02*
X155937980Y-73019160I147500J0D01*
G01*
X156232980Y-73019160D01*
G75*
G02*
X156380480Y-73166660I0J-147500D01*
G01*
X156380480Y-73511660D01*
G75*
G02*
X156232980Y-73659160I-147500J0D01*
G01*
X155937980Y-73659160D01*
G75*
G02*
X155790480Y-73511660I0J147500D01*
G01*
G37*
%TD*%
%TO.C,R21*%
G36*
G01*
X163427500Y-78020000D02*
X163772500Y-78020000D01*
G75*
G02*
X163920000Y-78167500I0J-147500D01*
G01*
X163920000Y-78462500D01*
G75*
G02*
X163772500Y-78610000I-147500J0D01*
G01*
X163427500Y-78610000D01*
G75*
G02*
X163280000Y-78462500I0J147500D01*
G01*
X163280000Y-78167500D01*
G75*
G02*
X163427500Y-78020000I147500J0D01*
G01*
G37*
G36*
G01*
X163427500Y-78990000D02*
X163772500Y-78990000D01*
G75*
G02*
X163920000Y-79137500I0J-147500D01*
G01*
X163920000Y-79432500D01*
G75*
G02*
X163772500Y-79580000I-147500J0D01*
G01*
X163427500Y-79580000D01*
G75*
G02*
X163280000Y-79432500I0J147500D01*
G01*
X163280000Y-79137500D01*
G75*
G02*
X163427500Y-78990000I147500J0D01*
G01*
G37*
%TD*%
D10*
%TO.C,U3*%
X188366020Y-98466960D03*
X190266020Y-98466960D03*
X190266020Y-101166960D03*
X189316020Y-101166960D03*
X188366020Y-101166960D03*
%TD*%
%TO.C,U5*%
G36*
G01*
X163303500Y-105418000D02*
X163153500Y-105418000D01*
G75*
G02*
X163078500Y-105343000I0J75000D01*
G01*
X163078500Y-104018000D01*
G75*
G02*
X163153500Y-103943000I75000J0D01*
G01*
X163303500Y-103943000D01*
G75*
G02*
X163378500Y-104018000I0J-75000D01*
G01*
X163378500Y-105343000D01*
G75*
G02*
X163303500Y-105418000I-75000J0D01*
G01*
G37*
G36*
G01*
X163803500Y-105418000D02*
X163653500Y-105418000D01*
G75*
G02*
X163578500Y-105343000I0J75000D01*
G01*
X163578500Y-104018000D01*
G75*
G02*
X163653500Y-103943000I75000J0D01*
G01*
X163803500Y-103943000D01*
G75*
G02*
X163878500Y-104018000I0J-75000D01*
G01*
X163878500Y-105343000D01*
G75*
G02*
X163803500Y-105418000I-75000J0D01*
G01*
G37*
G36*
G01*
X164303500Y-105418000D02*
X164153500Y-105418000D01*
G75*
G02*
X164078500Y-105343000I0J75000D01*
G01*
X164078500Y-104018000D01*
G75*
G02*
X164153500Y-103943000I75000J0D01*
G01*
X164303500Y-103943000D01*
G75*
G02*
X164378500Y-104018000I0J-75000D01*
G01*
X164378500Y-105343000D01*
G75*
G02*
X164303500Y-105418000I-75000J0D01*
G01*
G37*
G36*
G01*
X164803500Y-105418000D02*
X164653500Y-105418000D01*
G75*
G02*
X164578500Y-105343000I0J75000D01*
G01*
X164578500Y-104018000D01*
G75*
G02*
X164653500Y-103943000I75000J0D01*
G01*
X164803500Y-103943000D01*
G75*
G02*
X164878500Y-104018000I0J-75000D01*
G01*
X164878500Y-105343000D01*
G75*
G02*
X164803500Y-105418000I-75000J0D01*
G01*
G37*
G36*
G01*
X165303500Y-105418000D02*
X165153500Y-105418000D01*
G75*
G02*
X165078500Y-105343000I0J75000D01*
G01*
X165078500Y-104018000D01*
G75*
G02*
X165153500Y-103943000I75000J0D01*
G01*
X165303500Y-103943000D01*
G75*
G02*
X165378500Y-104018000I0J-75000D01*
G01*
X165378500Y-105343000D01*
G75*
G02*
X165303500Y-105418000I-75000J0D01*
G01*
G37*
G36*
G01*
X165803500Y-105418000D02*
X165653500Y-105418000D01*
G75*
G02*
X165578500Y-105343000I0J75000D01*
G01*
X165578500Y-104018000D01*
G75*
G02*
X165653500Y-103943000I75000J0D01*
G01*
X165803500Y-103943000D01*
G75*
G02*
X165878500Y-104018000I0J-75000D01*
G01*
X165878500Y-105343000D01*
G75*
G02*
X165803500Y-105418000I-75000J0D01*
G01*
G37*
G36*
G01*
X166303500Y-105418000D02*
X166153500Y-105418000D01*
G75*
G02*
X166078500Y-105343000I0J75000D01*
G01*
X166078500Y-104018000D01*
G75*
G02*
X166153500Y-103943000I75000J0D01*
G01*
X166303500Y-103943000D01*
G75*
G02*
X166378500Y-104018000I0J-75000D01*
G01*
X166378500Y-105343000D01*
G75*
G02*
X166303500Y-105418000I-75000J0D01*
G01*
G37*
G36*
G01*
X166803500Y-105418000D02*
X166653500Y-105418000D01*
G75*
G02*
X166578500Y-105343000I0J75000D01*
G01*
X166578500Y-104018000D01*
G75*
G02*
X166653500Y-103943000I75000J0D01*
G01*
X166803500Y-103943000D01*
G75*
G02*
X166878500Y-104018000I0J-75000D01*
G01*
X166878500Y-105343000D01*
G75*
G02*
X166803500Y-105418000I-75000J0D01*
G01*
G37*
G36*
G01*
X167303500Y-105418000D02*
X167153500Y-105418000D01*
G75*
G02*
X167078500Y-105343000I0J75000D01*
G01*
X167078500Y-104018000D01*
G75*
G02*
X167153500Y-103943000I75000J0D01*
G01*
X167303500Y-103943000D01*
G75*
G02*
X167378500Y-104018000I0J-75000D01*
G01*
X167378500Y-105343000D01*
G75*
G02*
X167303500Y-105418000I-75000J0D01*
G01*
G37*
G36*
G01*
X167803500Y-105418000D02*
X167653500Y-105418000D01*
G75*
G02*
X167578500Y-105343000I0J75000D01*
G01*
X167578500Y-104018000D01*
G75*
G02*
X167653500Y-103943000I75000J0D01*
G01*
X167803500Y-103943000D01*
G75*
G02*
X167878500Y-104018000I0J-75000D01*
G01*
X167878500Y-105343000D01*
G75*
G02*
X167803500Y-105418000I-75000J0D01*
G01*
G37*
G36*
G01*
X168303500Y-105418000D02*
X168153500Y-105418000D01*
G75*
G02*
X168078500Y-105343000I0J75000D01*
G01*
X168078500Y-104018000D01*
G75*
G02*
X168153500Y-103943000I75000J0D01*
G01*
X168303500Y-103943000D01*
G75*
G02*
X168378500Y-104018000I0J-75000D01*
G01*
X168378500Y-105343000D01*
G75*
G02*
X168303500Y-105418000I-75000J0D01*
G01*
G37*
G36*
G01*
X168803500Y-105418000D02*
X168653500Y-105418000D01*
G75*
G02*
X168578500Y-105343000I0J75000D01*
G01*
X168578500Y-104018000D01*
G75*
G02*
X168653500Y-103943000I75000J0D01*
G01*
X168803500Y-103943000D01*
G75*
G02*
X168878500Y-104018000I0J-75000D01*
G01*
X168878500Y-105343000D01*
G75*
G02*
X168803500Y-105418000I-75000J0D01*
G01*
G37*
G36*
G01*
X170803500Y-103418000D02*
X169478500Y-103418000D01*
G75*
G02*
X169403500Y-103343000I0J75000D01*
G01*
X169403500Y-103193000D01*
G75*
G02*
X169478500Y-103118000I75000J0D01*
G01*
X170803500Y-103118000D01*
G75*
G02*
X170878500Y-103193000I0J-75000D01*
G01*
X170878500Y-103343000D01*
G75*
G02*
X170803500Y-103418000I-75000J0D01*
G01*
G37*
G36*
G01*
X170803500Y-102918000D02*
X169478500Y-102918000D01*
G75*
G02*
X169403500Y-102843000I0J75000D01*
G01*
X169403500Y-102693000D01*
G75*
G02*
X169478500Y-102618000I75000J0D01*
G01*
X170803500Y-102618000D01*
G75*
G02*
X170878500Y-102693000I0J-75000D01*
G01*
X170878500Y-102843000D01*
G75*
G02*
X170803500Y-102918000I-75000J0D01*
G01*
G37*
G36*
G01*
X170803500Y-102418000D02*
X169478500Y-102418000D01*
G75*
G02*
X169403500Y-102343000I0J75000D01*
G01*
X169403500Y-102193000D01*
G75*
G02*
X169478500Y-102118000I75000J0D01*
G01*
X170803500Y-102118000D01*
G75*
G02*
X170878500Y-102193000I0J-75000D01*
G01*
X170878500Y-102343000D01*
G75*
G02*
X170803500Y-102418000I-75000J0D01*
G01*
G37*
G36*
G01*
X170803500Y-101918000D02*
X169478500Y-101918000D01*
G75*
G02*
X169403500Y-101843000I0J75000D01*
G01*
X169403500Y-101693000D01*
G75*
G02*
X169478500Y-101618000I75000J0D01*
G01*
X170803500Y-101618000D01*
G75*
G02*
X170878500Y-101693000I0J-75000D01*
G01*
X170878500Y-101843000D01*
G75*
G02*
X170803500Y-101918000I-75000J0D01*
G01*
G37*
G36*
G01*
X170803500Y-101418000D02*
X169478500Y-101418000D01*
G75*
G02*
X169403500Y-101343000I0J75000D01*
G01*
X169403500Y-101193000D01*
G75*
G02*
X169478500Y-101118000I75000J0D01*
G01*
X170803500Y-101118000D01*
G75*
G02*
X170878500Y-101193000I0J-75000D01*
G01*
X170878500Y-101343000D01*
G75*
G02*
X170803500Y-101418000I-75000J0D01*
G01*
G37*
G36*
G01*
X170803500Y-100918000D02*
X169478500Y-100918000D01*
G75*
G02*
X169403500Y-100843000I0J75000D01*
G01*
X169403500Y-100693000D01*
G75*
G02*
X169478500Y-100618000I75000J0D01*
G01*
X170803500Y-100618000D01*
G75*
G02*
X170878500Y-100693000I0J-75000D01*
G01*
X170878500Y-100843000D01*
G75*
G02*
X170803500Y-100918000I-75000J0D01*
G01*
G37*
G36*
G01*
X170803500Y-100418000D02*
X169478500Y-100418000D01*
G75*
G02*
X169403500Y-100343000I0J75000D01*
G01*
X169403500Y-100193000D01*
G75*
G02*
X169478500Y-100118000I75000J0D01*
G01*
X170803500Y-100118000D01*
G75*
G02*
X170878500Y-100193000I0J-75000D01*
G01*
X170878500Y-100343000D01*
G75*
G02*
X170803500Y-100418000I-75000J0D01*
G01*
G37*
G36*
G01*
X170803500Y-99918000D02*
X169478500Y-99918000D01*
G75*
G02*
X169403500Y-99843000I0J75000D01*
G01*
X169403500Y-99693000D01*
G75*
G02*
X169478500Y-99618000I75000J0D01*
G01*
X170803500Y-99618000D01*
G75*
G02*
X170878500Y-99693000I0J-75000D01*
G01*
X170878500Y-99843000D01*
G75*
G02*
X170803500Y-99918000I-75000J0D01*
G01*
G37*
G36*
G01*
X170803500Y-99418000D02*
X169478500Y-99418000D01*
G75*
G02*
X169403500Y-99343000I0J75000D01*
G01*
X169403500Y-99193000D01*
G75*
G02*
X169478500Y-99118000I75000J0D01*
G01*
X170803500Y-99118000D01*
G75*
G02*
X170878500Y-99193000I0J-75000D01*
G01*
X170878500Y-99343000D01*
G75*
G02*
X170803500Y-99418000I-75000J0D01*
G01*
G37*
G36*
G01*
X170803500Y-98918000D02*
X169478500Y-98918000D01*
G75*
G02*
X169403500Y-98843000I0J75000D01*
G01*
X169403500Y-98693000D01*
G75*
G02*
X169478500Y-98618000I75000J0D01*
G01*
X170803500Y-98618000D01*
G75*
G02*
X170878500Y-98693000I0J-75000D01*
G01*
X170878500Y-98843000D01*
G75*
G02*
X170803500Y-98918000I-75000J0D01*
G01*
G37*
G36*
G01*
X170803500Y-98418000D02*
X169478500Y-98418000D01*
G75*
G02*
X169403500Y-98343000I0J75000D01*
G01*
X169403500Y-98193000D01*
G75*
G02*
X169478500Y-98118000I75000J0D01*
G01*
X170803500Y-98118000D01*
G75*
G02*
X170878500Y-98193000I0J-75000D01*
G01*
X170878500Y-98343000D01*
G75*
G02*
X170803500Y-98418000I-75000J0D01*
G01*
G37*
G36*
G01*
X170803500Y-97918000D02*
X169478500Y-97918000D01*
G75*
G02*
X169403500Y-97843000I0J75000D01*
G01*
X169403500Y-97693000D01*
G75*
G02*
X169478500Y-97618000I75000J0D01*
G01*
X170803500Y-97618000D01*
G75*
G02*
X170878500Y-97693000I0J-75000D01*
G01*
X170878500Y-97843000D01*
G75*
G02*
X170803500Y-97918000I-75000J0D01*
G01*
G37*
G36*
G01*
X168803500Y-97093000D02*
X168653500Y-97093000D01*
G75*
G02*
X168578500Y-97018000I0J75000D01*
G01*
X168578500Y-95693000D01*
G75*
G02*
X168653500Y-95618000I75000J0D01*
G01*
X168803500Y-95618000D01*
G75*
G02*
X168878500Y-95693000I0J-75000D01*
G01*
X168878500Y-97018000D01*
G75*
G02*
X168803500Y-97093000I-75000J0D01*
G01*
G37*
G36*
G01*
X168303500Y-97093000D02*
X168153500Y-97093000D01*
G75*
G02*
X168078500Y-97018000I0J75000D01*
G01*
X168078500Y-95693000D01*
G75*
G02*
X168153500Y-95618000I75000J0D01*
G01*
X168303500Y-95618000D01*
G75*
G02*
X168378500Y-95693000I0J-75000D01*
G01*
X168378500Y-97018000D01*
G75*
G02*
X168303500Y-97093000I-75000J0D01*
G01*
G37*
G36*
G01*
X167803500Y-97093000D02*
X167653500Y-97093000D01*
G75*
G02*
X167578500Y-97018000I0J75000D01*
G01*
X167578500Y-95693000D01*
G75*
G02*
X167653500Y-95618000I75000J0D01*
G01*
X167803500Y-95618000D01*
G75*
G02*
X167878500Y-95693000I0J-75000D01*
G01*
X167878500Y-97018000D01*
G75*
G02*
X167803500Y-97093000I-75000J0D01*
G01*
G37*
G36*
G01*
X167303500Y-97093000D02*
X167153500Y-97093000D01*
G75*
G02*
X167078500Y-97018000I0J75000D01*
G01*
X167078500Y-95693000D01*
G75*
G02*
X167153500Y-95618000I75000J0D01*
G01*
X167303500Y-95618000D01*
G75*
G02*
X167378500Y-95693000I0J-75000D01*
G01*
X167378500Y-97018000D01*
G75*
G02*
X167303500Y-97093000I-75000J0D01*
G01*
G37*
G36*
G01*
X166803500Y-97093000D02*
X166653500Y-97093000D01*
G75*
G02*
X166578500Y-97018000I0J75000D01*
G01*
X166578500Y-95693000D01*
G75*
G02*
X166653500Y-95618000I75000J0D01*
G01*
X166803500Y-95618000D01*
G75*
G02*
X166878500Y-95693000I0J-75000D01*
G01*
X166878500Y-97018000D01*
G75*
G02*
X166803500Y-97093000I-75000J0D01*
G01*
G37*
G36*
G01*
X166303500Y-97093000D02*
X166153500Y-97093000D01*
G75*
G02*
X166078500Y-97018000I0J75000D01*
G01*
X166078500Y-95693000D01*
G75*
G02*
X166153500Y-95618000I75000J0D01*
G01*
X166303500Y-95618000D01*
G75*
G02*
X166378500Y-95693000I0J-75000D01*
G01*
X166378500Y-97018000D01*
G75*
G02*
X166303500Y-97093000I-75000J0D01*
G01*
G37*
G36*
G01*
X165803500Y-97093000D02*
X165653500Y-97093000D01*
G75*
G02*
X165578500Y-97018000I0J75000D01*
G01*
X165578500Y-95693000D01*
G75*
G02*
X165653500Y-95618000I75000J0D01*
G01*
X165803500Y-95618000D01*
G75*
G02*
X165878500Y-95693000I0J-75000D01*
G01*
X165878500Y-97018000D01*
G75*
G02*
X165803500Y-97093000I-75000J0D01*
G01*
G37*
G36*
G01*
X165303500Y-97093000D02*
X165153500Y-97093000D01*
G75*
G02*
X165078500Y-97018000I0J75000D01*
G01*
X165078500Y-95693000D01*
G75*
G02*
X165153500Y-95618000I75000J0D01*
G01*
X165303500Y-95618000D01*
G75*
G02*
X165378500Y-95693000I0J-75000D01*
G01*
X165378500Y-97018000D01*
G75*
G02*
X165303500Y-97093000I-75000J0D01*
G01*
G37*
G36*
G01*
X164803500Y-97093000D02*
X164653500Y-97093000D01*
G75*
G02*
X164578500Y-97018000I0J75000D01*
G01*
X164578500Y-95693000D01*
G75*
G02*
X164653500Y-95618000I75000J0D01*
G01*
X164803500Y-95618000D01*
G75*
G02*
X164878500Y-95693000I0J-75000D01*
G01*
X164878500Y-97018000D01*
G75*
G02*
X164803500Y-97093000I-75000J0D01*
G01*
G37*
G36*
G01*
X164303500Y-97093000D02*
X164153500Y-97093000D01*
G75*
G02*
X164078500Y-97018000I0J75000D01*
G01*
X164078500Y-95693000D01*
G75*
G02*
X164153500Y-95618000I75000J0D01*
G01*
X164303500Y-95618000D01*
G75*
G02*
X164378500Y-95693000I0J-75000D01*
G01*
X164378500Y-97018000D01*
G75*
G02*
X164303500Y-97093000I-75000J0D01*
G01*
G37*
G36*
G01*
X163803500Y-97093000D02*
X163653500Y-97093000D01*
G75*
G02*
X163578500Y-97018000I0J75000D01*
G01*
X163578500Y-95693000D01*
G75*
G02*
X163653500Y-95618000I75000J0D01*
G01*
X163803500Y-95618000D01*
G75*
G02*
X163878500Y-95693000I0J-75000D01*
G01*
X163878500Y-97018000D01*
G75*
G02*
X163803500Y-97093000I-75000J0D01*
G01*
G37*
G36*
G01*
X163303500Y-97093000D02*
X163153500Y-97093000D01*
G75*
G02*
X163078500Y-97018000I0J75000D01*
G01*
X163078500Y-95693000D01*
G75*
G02*
X163153500Y-95618000I75000J0D01*
G01*
X163303500Y-95618000D01*
G75*
G02*
X163378500Y-95693000I0J-75000D01*
G01*
X163378500Y-97018000D01*
G75*
G02*
X163303500Y-97093000I-75000J0D01*
G01*
G37*
G36*
G01*
X162478500Y-97918000D02*
X161153500Y-97918000D01*
G75*
G02*
X161078500Y-97843000I0J75000D01*
G01*
X161078500Y-97693000D01*
G75*
G02*
X161153500Y-97618000I75000J0D01*
G01*
X162478500Y-97618000D01*
G75*
G02*
X162553500Y-97693000I0J-75000D01*
G01*
X162553500Y-97843000D01*
G75*
G02*
X162478500Y-97918000I-75000J0D01*
G01*
G37*
G36*
G01*
X162478500Y-98418000D02*
X161153500Y-98418000D01*
G75*
G02*
X161078500Y-98343000I0J75000D01*
G01*
X161078500Y-98193000D01*
G75*
G02*
X161153500Y-98118000I75000J0D01*
G01*
X162478500Y-98118000D01*
G75*
G02*
X162553500Y-98193000I0J-75000D01*
G01*
X162553500Y-98343000D01*
G75*
G02*
X162478500Y-98418000I-75000J0D01*
G01*
G37*
G36*
G01*
X162478500Y-98918000D02*
X161153500Y-98918000D01*
G75*
G02*
X161078500Y-98843000I0J75000D01*
G01*
X161078500Y-98693000D01*
G75*
G02*
X161153500Y-98618000I75000J0D01*
G01*
X162478500Y-98618000D01*
G75*
G02*
X162553500Y-98693000I0J-75000D01*
G01*
X162553500Y-98843000D01*
G75*
G02*
X162478500Y-98918000I-75000J0D01*
G01*
G37*
G36*
G01*
X162478500Y-99418000D02*
X161153500Y-99418000D01*
G75*
G02*
X161078500Y-99343000I0J75000D01*
G01*
X161078500Y-99193000D01*
G75*
G02*
X161153500Y-99118000I75000J0D01*
G01*
X162478500Y-99118000D01*
G75*
G02*
X162553500Y-99193000I0J-75000D01*
G01*
X162553500Y-99343000D01*
G75*
G02*
X162478500Y-99418000I-75000J0D01*
G01*
G37*
G36*
G01*
X162478500Y-99918000D02*
X161153500Y-99918000D01*
G75*
G02*
X161078500Y-99843000I0J75000D01*
G01*
X161078500Y-99693000D01*
G75*
G02*
X161153500Y-99618000I75000J0D01*
G01*
X162478500Y-99618000D01*
G75*
G02*
X162553500Y-99693000I0J-75000D01*
G01*
X162553500Y-99843000D01*
G75*
G02*
X162478500Y-99918000I-75000J0D01*
G01*
G37*
G36*
G01*
X162478500Y-100418000D02*
X161153500Y-100418000D01*
G75*
G02*
X161078500Y-100343000I0J75000D01*
G01*
X161078500Y-100193000D01*
G75*
G02*
X161153500Y-100118000I75000J0D01*
G01*
X162478500Y-100118000D01*
G75*
G02*
X162553500Y-100193000I0J-75000D01*
G01*
X162553500Y-100343000D01*
G75*
G02*
X162478500Y-100418000I-75000J0D01*
G01*
G37*
G36*
G01*
X162478500Y-100918000D02*
X161153500Y-100918000D01*
G75*
G02*
X161078500Y-100843000I0J75000D01*
G01*
X161078500Y-100693000D01*
G75*
G02*
X161153500Y-100618000I75000J0D01*
G01*
X162478500Y-100618000D01*
G75*
G02*
X162553500Y-100693000I0J-75000D01*
G01*
X162553500Y-100843000D01*
G75*
G02*
X162478500Y-100918000I-75000J0D01*
G01*
G37*
G36*
G01*
X162478500Y-101418000D02*
X161153500Y-101418000D01*
G75*
G02*
X161078500Y-101343000I0J75000D01*
G01*
X161078500Y-101193000D01*
G75*
G02*
X161153500Y-101118000I75000J0D01*
G01*
X162478500Y-101118000D01*
G75*
G02*
X162553500Y-101193000I0J-75000D01*
G01*
X162553500Y-101343000D01*
G75*
G02*
X162478500Y-101418000I-75000J0D01*
G01*
G37*
G36*
G01*
X162478500Y-101918000D02*
X161153500Y-101918000D01*
G75*
G02*
X161078500Y-101843000I0J75000D01*
G01*
X161078500Y-101693000D01*
G75*
G02*
X161153500Y-101618000I75000J0D01*
G01*
X162478500Y-101618000D01*
G75*
G02*
X162553500Y-101693000I0J-75000D01*
G01*
X162553500Y-101843000D01*
G75*
G02*
X162478500Y-101918000I-75000J0D01*
G01*
G37*
G36*
G01*
X162478500Y-102418000D02*
X161153500Y-102418000D01*
G75*
G02*
X161078500Y-102343000I0J75000D01*
G01*
X161078500Y-102193000D01*
G75*
G02*
X161153500Y-102118000I75000J0D01*
G01*
X162478500Y-102118000D01*
G75*
G02*
X162553500Y-102193000I0J-75000D01*
G01*
X162553500Y-102343000D01*
G75*
G02*
X162478500Y-102418000I-75000J0D01*
G01*
G37*
G36*
G01*
X162478500Y-102918000D02*
X161153500Y-102918000D01*
G75*
G02*
X161078500Y-102843000I0J75000D01*
G01*
X161078500Y-102693000D01*
G75*
G02*
X161153500Y-102618000I75000J0D01*
G01*
X162478500Y-102618000D01*
G75*
G02*
X162553500Y-102693000I0J-75000D01*
G01*
X162553500Y-102843000D01*
G75*
G02*
X162478500Y-102918000I-75000J0D01*
G01*
G37*
G36*
G01*
X162478500Y-103418000D02*
X161153500Y-103418000D01*
G75*
G02*
X161078500Y-103343000I0J75000D01*
G01*
X161078500Y-103193000D01*
G75*
G02*
X161153500Y-103118000I75000J0D01*
G01*
X162478500Y-103118000D01*
G75*
G02*
X162553500Y-103193000I0J-75000D01*
G01*
X162553500Y-103343000D01*
G75*
G02*
X162478500Y-103418000I-75000J0D01*
G01*
G37*
%TD*%
%TO.C,R3*%
G36*
G01*
X193138500Y-60577000D02*
X192793500Y-60577000D01*
G75*
G02*
X192646000Y-60429500I0J147500D01*
G01*
X192646000Y-60134500D01*
G75*
G02*
X192793500Y-59987000I147500J0D01*
G01*
X193138500Y-59987000D01*
G75*
G02*
X193286000Y-60134500I0J-147500D01*
G01*
X193286000Y-60429500D01*
G75*
G02*
X193138500Y-60577000I-147500J0D01*
G01*
G37*
G36*
G01*
X193138500Y-61547000D02*
X192793500Y-61547000D01*
G75*
G02*
X192646000Y-61399500I0J147500D01*
G01*
X192646000Y-61104500D01*
G75*
G02*
X192793500Y-60957000I147500J0D01*
G01*
X193138500Y-60957000D01*
G75*
G02*
X193286000Y-61104500I0J-147500D01*
G01*
X193286000Y-61399500D01*
G75*
G02*
X193138500Y-61547000I-147500J0D01*
G01*
G37*
%TD*%
%TO.C,R10*%
G36*
G01*
X192408480Y-103900440D02*
X191933480Y-103900440D01*
G75*
G02*
X191695980Y-103662940I0J237500D01*
G01*
X191695980Y-103087940D01*
G75*
G02*
X191933480Y-102850440I237500J0D01*
G01*
X192408480Y-102850440D01*
G75*
G02*
X192645980Y-103087940I0J-237500D01*
G01*
X192645980Y-103662940D01*
G75*
G02*
X192408480Y-103900440I-237500J0D01*
G01*
G37*
G36*
G01*
X192408480Y-102150440D02*
X191933480Y-102150440D01*
G75*
G02*
X191695980Y-101912940I0J237500D01*
G01*
X191695980Y-101337940D01*
G75*
G02*
X191933480Y-101100440I237500J0D01*
G01*
X192408480Y-101100440D01*
G75*
G02*
X192645980Y-101337940I0J-237500D01*
G01*
X192645980Y-101912940D01*
G75*
G02*
X192408480Y-102150440I-237500J0D01*
G01*
G37*
%TD*%
%TO.C,C6*%
G36*
G01*
X181958900Y-74655200D02*
X182433900Y-74655200D01*
G75*
G02*
X182671400Y-74892700I0J-237500D01*
G01*
X182671400Y-75467700D01*
G75*
G02*
X182433900Y-75705200I-237500J0D01*
G01*
X181958900Y-75705200D01*
G75*
G02*
X181721400Y-75467700I0J237500D01*
G01*
X181721400Y-74892700D01*
G75*
G02*
X181958900Y-74655200I237500J0D01*
G01*
G37*
G36*
G01*
X181958900Y-72905200D02*
X182433900Y-72905200D01*
G75*
G02*
X182671400Y-73142700I0J-237500D01*
G01*
X182671400Y-73717700D01*
G75*
G02*
X182433900Y-73955200I-237500J0D01*
G01*
X181958900Y-73955200D01*
G75*
G02*
X181721400Y-73717700I0J237500D01*
G01*
X181721400Y-73142700D01*
G75*
G02*
X181958900Y-72905200I237500J0D01*
G01*
G37*
%TD*%
%TO.C,C16*%
G36*
G01*
X172870800Y-92191100D02*
X172395800Y-92191100D01*
G75*
G02*
X172158300Y-91953600I0J237500D01*
G01*
X172158300Y-91378600D01*
G75*
G02*
X172395800Y-91141100I237500J0D01*
G01*
X172870800Y-91141100D01*
G75*
G02*
X173108300Y-91378600I0J-237500D01*
G01*
X173108300Y-91953600D01*
G75*
G02*
X172870800Y-92191100I-237500J0D01*
G01*
G37*
G36*
G01*
X172870800Y-93941100D02*
X172395800Y-93941100D01*
G75*
G02*
X172158300Y-93703600I0J237500D01*
G01*
X172158300Y-93128600D01*
G75*
G02*
X172395800Y-92891100I237500J0D01*
G01*
X172870800Y-92891100D01*
G75*
G02*
X173108300Y-93128600I0J-237500D01*
G01*
X173108300Y-93703600D01*
G75*
G02*
X172870800Y-93941100I-237500J0D01*
G01*
G37*
%TD*%
%TO.C,C4*%
G36*
G01*
X187332500Y-115181200D02*
X187677500Y-115181200D01*
G75*
G02*
X187825000Y-115328700I0J-147500D01*
G01*
X187825000Y-115623700D01*
G75*
G02*
X187677500Y-115771200I-147500J0D01*
G01*
X187332500Y-115771200D01*
G75*
G02*
X187185000Y-115623700I0J147500D01*
G01*
X187185000Y-115328700D01*
G75*
G02*
X187332500Y-115181200I147500J0D01*
G01*
G37*
G36*
G01*
X187332500Y-116151200D02*
X187677500Y-116151200D01*
G75*
G02*
X187825000Y-116298700I0J-147500D01*
G01*
X187825000Y-116593700D01*
G75*
G02*
X187677500Y-116741200I-147500J0D01*
G01*
X187332500Y-116741200D01*
G75*
G02*
X187185000Y-116593700I0J147500D01*
G01*
X187185000Y-116298700D01*
G75*
G02*
X187332500Y-116151200I147500J0D01*
G01*
G37*
%TD*%
%TO.C,C12*%
G36*
G01*
X188706780Y-103070920D02*
X188706780Y-103415920D01*
G75*
G02*
X188559280Y-103563420I-147500J0D01*
G01*
X188264280Y-103563420D01*
G75*
G02*
X188116780Y-103415920I0J147500D01*
G01*
X188116780Y-103070920D01*
G75*
G02*
X188264280Y-102923420I147500J0D01*
G01*
X188559280Y-102923420D01*
G75*
G02*
X188706780Y-103070920I0J-147500D01*
G01*
G37*
G36*
G01*
X189676780Y-103070920D02*
X189676780Y-103415920D01*
G75*
G02*
X189529280Y-103563420I-147500J0D01*
G01*
X189234280Y-103563420D01*
G75*
G02*
X189086780Y-103415920I0J147500D01*
G01*
X189086780Y-103070920D01*
G75*
G02*
X189234280Y-102923420I147500J0D01*
G01*
X189529280Y-102923420D01*
G75*
G02*
X189676780Y-103070920I0J-147500D01*
G01*
G37*
%TD*%
%TO.C,C11*%
G36*
G01*
X183990000Y-67960500D02*
X183990000Y-68305500D01*
G75*
G02*
X183842500Y-68453000I-147500J0D01*
G01*
X183547500Y-68453000D01*
G75*
G02*
X183400000Y-68305500I0J147500D01*
G01*
X183400000Y-67960500D01*
G75*
G02*
X183547500Y-67813000I147500J0D01*
G01*
X183842500Y-67813000D01*
G75*
G02*
X183990000Y-67960500I0J-147500D01*
G01*
G37*
G36*
G01*
X183020000Y-67960500D02*
X183020000Y-68305500D01*
G75*
G02*
X182872500Y-68453000I-147500J0D01*
G01*
X182577500Y-68453000D01*
G75*
G02*
X182430000Y-68305500I0J147500D01*
G01*
X182430000Y-67960500D01*
G75*
G02*
X182577500Y-67813000I147500J0D01*
G01*
X182872500Y-67813000D01*
G75*
G02*
X183020000Y-67960500I0J-147500D01*
G01*
G37*
%TD*%
%TO.C,C13*%
G36*
G01*
X190258000Y-67416500D02*
X190258000Y-67071500D01*
G75*
G02*
X190405500Y-66924000I147500J0D01*
G01*
X190700500Y-66924000D01*
G75*
G02*
X190848000Y-67071500I0J-147500D01*
G01*
X190848000Y-67416500D01*
G75*
G02*
X190700500Y-67564000I-147500J0D01*
G01*
X190405500Y-67564000D01*
G75*
G02*
X190258000Y-67416500I0J147500D01*
G01*
G37*
G36*
G01*
X191228000Y-67416500D02*
X191228000Y-67071500D01*
G75*
G02*
X191375500Y-66924000I147500J0D01*
G01*
X191670500Y-66924000D01*
G75*
G02*
X191818000Y-67071500I0J-147500D01*
G01*
X191818000Y-67416500D01*
G75*
G02*
X191670500Y-67564000I-147500J0D01*
G01*
X191375500Y-67564000D01*
G75*
G02*
X191228000Y-67416500I0J147500D01*
G01*
G37*
%TD*%
%TO.C,C15*%
G36*
G01*
X186824060Y-99540460D02*
X186479060Y-99540460D01*
G75*
G02*
X186331560Y-99392960I0J147500D01*
G01*
X186331560Y-99097960D01*
G75*
G02*
X186479060Y-98950460I147500J0D01*
G01*
X186824060Y-98950460D01*
G75*
G02*
X186971560Y-99097960I0J-147500D01*
G01*
X186971560Y-99392960D01*
G75*
G02*
X186824060Y-99540460I-147500J0D01*
G01*
G37*
G36*
G01*
X186824060Y-98570460D02*
X186479060Y-98570460D01*
G75*
G02*
X186331560Y-98422960I0J147500D01*
G01*
X186331560Y-98127960D01*
G75*
G02*
X186479060Y-97980460I147500J0D01*
G01*
X186824060Y-97980460D01*
G75*
G02*
X186971560Y-98127960I0J-147500D01*
G01*
X186971560Y-98422960D01*
G75*
G02*
X186824060Y-98570460I-147500J0D01*
G01*
G37*
%TD*%
%TO.C,C2*%
G36*
G01*
X177679000Y-72843000D02*
X178154000Y-72843000D01*
G75*
G02*
X178391500Y-73080500I0J-237500D01*
G01*
X178391500Y-73655500D01*
G75*
G02*
X178154000Y-73893000I-237500J0D01*
G01*
X177679000Y-73893000D01*
G75*
G02*
X177441500Y-73655500I0J237500D01*
G01*
X177441500Y-73080500D01*
G75*
G02*
X177679000Y-72843000I237500J0D01*
G01*
G37*
G36*
G01*
X177679000Y-74593000D02*
X178154000Y-74593000D01*
G75*
G02*
X178391500Y-74830500I0J-237500D01*
G01*
X178391500Y-75405500D01*
G75*
G02*
X178154000Y-75643000I-237500J0D01*
G01*
X177679000Y-75643000D01*
G75*
G02*
X177441500Y-75405500I0J237500D01*
G01*
X177441500Y-74830500D01*
G75*
G02*
X177679000Y-74593000I237500J0D01*
G01*
G37*
%TD*%
%TO.C,C9*%
G36*
G01*
X174377000Y-72829000D02*
X174852000Y-72829000D01*
G75*
G02*
X175089500Y-73066500I0J-237500D01*
G01*
X175089500Y-73641500D01*
G75*
G02*
X174852000Y-73879000I-237500J0D01*
G01*
X174377000Y-73879000D01*
G75*
G02*
X174139500Y-73641500I0J237500D01*
G01*
X174139500Y-73066500D01*
G75*
G02*
X174377000Y-72829000I237500J0D01*
G01*
G37*
G36*
G01*
X174377000Y-74579000D02*
X174852000Y-74579000D01*
G75*
G02*
X175089500Y-74816500I0J-237500D01*
G01*
X175089500Y-75391500D01*
G75*
G02*
X174852000Y-75629000I-237500J0D01*
G01*
X174377000Y-75629000D01*
G75*
G02*
X174139500Y-75391500I0J237500D01*
G01*
X174139500Y-74816500D01*
G75*
G02*
X174377000Y-74579000I237500J0D01*
G01*
G37*
%TD*%
%TO.C,C1*%
G36*
G01*
X165107500Y-57297000D02*
X165452500Y-57297000D01*
G75*
G02*
X165600000Y-57444500I0J-147500D01*
G01*
X165600000Y-57739500D01*
G75*
G02*
X165452500Y-57887000I-147500J0D01*
G01*
X165107500Y-57887000D01*
G75*
G02*
X164960000Y-57739500I0J147500D01*
G01*
X164960000Y-57444500D01*
G75*
G02*
X165107500Y-57297000I147500J0D01*
G01*
G37*
G36*
G01*
X165107500Y-56327000D02*
X165452500Y-56327000D01*
G75*
G02*
X165600000Y-56474500I0J-147500D01*
G01*
X165600000Y-56769500D01*
G75*
G02*
X165452500Y-56917000I-147500J0D01*
G01*
X165107500Y-56917000D01*
G75*
G02*
X164960000Y-56769500I0J147500D01*
G01*
X164960000Y-56474500D01*
G75*
G02*
X165107500Y-56327000I147500J0D01*
G01*
G37*
%TD*%
%TO.C,U4*%
G36*
G01*
X163415500Y-80637500D02*
X163715500Y-80637500D01*
G75*
G02*
X163865500Y-80787500I0J-150000D01*
G01*
X163865500Y-82437500D01*
G75*
G02*
X163715500Y-82587500I-150000J0D01*
G01*
X163415500Y-82587500D01*
G75*
G02*
X163265500Y-82437500I0J150000D01*
G01*
X163265500Y-80787500D01*
G75*
G02*
X163415500Y-80637500I150000J0D01*
G01*
G37*
G36*
G01*
X162145500Y-80637500D02*
X162445500Y-80637500D01*
G75*
G02*
X162595500Y-80787500I0J-150000D01*
G01*
X162595500Y-82437500D01*
G75*
G02*
X162445500Y-82587500I-150000J0D01*
G01*
X162145500Y-82587500D01*
G75*
G02*
X161995500Y-82437500I0J150000D01*
G01*
X161995500Y-80787500D01*
G75*
G02*
X162145500Y-80637500I150000J0D01*
G01*
G37*
G36*
G01*
X160875500Y-80637500D02*
X161175500Y-80637500D01*
G75*
G02*
X161325500Y-80787500I0J-150000D01*
G01*
X161325500Y-82437500D01*
G75*
G02*
X161175500Y-82587500I-150000J0D01*
G01*
X160875500Y-82587500D01*
G75*
G02*
X160725500Y-82437500I0J150000D01*
G01*
X160725500Y-80787500D01*
G75*
G02*
X160875500Y-80637500I150000J0D01*
G01*
G37*
G36*
G01*
X159605500Y-80637500D02*
X159905500Y-80637500D01*
G75*
G02*
X160055500Y-80787500I0J-150000D01*
G01*
X160055500Y-82437500D01*
G75*
G02*
X159905500Y-82587500I-150000J0D01*
G01*
X159605500Y-82587500D01*
G75*
G02*
X159455500Y-82437500I0J150000D01*
G01*
X159455500Y-80787500D01*
G75*
G02*
X159605500Y-80637500I150000J0D01*
G01*
G37*
G36*
G01*
X159605500Y-85587500D02*
X159905500Y-85587500D01*
G75*
G02*
X160055500Y-85737500I0J-150000D01*
G01*
X160055500Y-87387500D01*
G75*
G02*
X159905500Y-87537500I-150000J0D01*
G01*
X159605500Y-87537500D01*
G75*
G02*
X159455500Y-87387500I0J150000D01*
G01*
X159455500Y-85737500D01*
G75*
G02*
X159605500Y-85587500I150000J0D01*
G01*
G37*
G36*
G01*
X160875500Y-85587500D02*
X161175500Y-85587500D01*
G75*
G02*
X161325500Y-85737500I0J-150000D01*
G01*
X161325500Y-87387500D01*
G75*
G02*
X161175500Y-87537500I-150000J0D01*
G01*
X160875500Y-87537500D01*
G75*
G02*
X160725500Y-87387500I0J150000D01*
G01*
X160725500Y-85737500D01*
G75*
G02*
X160875500Y-85587500I150000J0D01*
G01*
G37*
G36*
G01*
X162145500Y-85587500D02*
X162445500Y-85587500D01*
G75*
G02*
X162595500Y-85737500I0J-150000D01*
G01*
X162595500Y-87387500D01*
G75*
G02*
X162445500Y-87537500I-150000J0D01*
G01*
X162145500Y-87537500D01*
G75*
G02*
X161995500Y-87387500I0J150000D01*
G01*
X161995500Y-85737500D01*
G75*
G02*
X162145500Y-85587500I150000J0D01*
G01*
G37*
G36*
G01*
X163415500Y-85587500D02*
X163715500Y-85587500D01*
G75*
G02*
X163865500Y-85737500I0J-150000D01*
G01*
X163865500Y-87387500D01*
G75*
G02*
X163715500Y-87537500I-150000J0D01*
G01*
X163415500Y-87537500D01*
G75*
G02*
X163265500Y-87387500I0J150000D01*
G01*
X163265500Y-85737500D01*
G75*
G02*
X163415500Y-85587500I150000J0D01*
G01*
G37*
%TD*%
%TO.C,C5*%
G36*
G01*
X179331500Y-75117500D02*
X179676500Y-75117500D01*
G75*
G02*
X179824000Y-75265000I0J-147500D01*
G01*
X179824000Y-75560000D01*
G75*
G02*
X179676500Y-75707500I-147500J0D01*
G01*
X179331500Y-75707500D01*
G75*
G02*
X179184000Y-75560000I0J147500D01*
G01*
X179184000Y-75265000D01*
G75*
G02*
X179331500Y-75117500I147500J0D01*
G01*
G37*
G36*
G01*
X179331500Y-74147500D02*
X179676500Y-74147500D01*
G75*
G02*
X179824000Y-74295000I0J-147500D01*
G01*
X179824000Y-74590000D01*
G75*
G02*
X179676500Y-74737500I-147500J0D01*
G01*
X179331500Y-74737500D01*
G75*
G02*
X179184000Y-74590000I0J147500D01*
G01*
X179184000Y-74295000D01*
G75*
G02*
X179331500Y-74147500I147500J0D01*
G01*
G37*
%TD*%
D11*
%TO.C,Y1*%
X171122000Y-114932500D03*
X159247000Y-114932500D03*
%TD*%
%TO.C,C3*%
G36*
G01*
X183547900Y-75104800D02*
X183892900Y-75104800D01*
G75*
G02*
X184040400Y-75252300I0J-147500D01*
G01*
X184040400Y-75547300D01*
G75*
G02*
X183892900Y-75694800I-147500J0D01*
G01*
X183547900Y-75694800D01*
G75*
G02*
X183400400Y-75547300I0J147500D01*
G01*
X183400400Y-75252300D01*
G75*
G02*
X183547900Y-75104800I147500J0D01*
G01*
G37*
G36*
G01*
X183547900Y-74134800D02*
X183892900Y-74134800D01*
G75*
G02*
X184040400Y-74282300I0J-147500D01*
G01*
X184040400Y-74577300D01*
G75*
G02*
X183892900Y-74724800I-147500J0D01*
G01*
X183547900Y-74724800D01*
G75*
G02*
X183400400Y-74577300I0J147500D01*
G01*
X183400400Y-74282300D01*
G75*
G02*
X183547900Y-74134800I147500J0D01*
G01*
G37*
%TD*%
%TO.C,C14*%
G36*
G01*
X174520300Y-92994600D02*
X174175300Y-92994600D01*
G75*
G02*
X174027800Y-92847100I0J147500D01*
G01*
X174027800Y-92552100D01*
G75*
G02*
X174175300Y-92404600I147500J0D01*
G01*
X174520300Y-92404600D01*
G75*
G02*
X174667800Y-92552100I0J-147500D01*
G01*
X174667800Y-92847100D01*
G75*
G02*
X174520300Y-92994600I-147500J0D01*
G01*
G37*
G36*
G01*
X174520300Y-92024600D02*
X174175300Y-92024600D01*
G75*
G02*
X174027800Y-91877100I0J147500D01*
G01*
X174027800Y-91582100D01*
G75*
G02*
X174175300Y-91434600I147500J0D01*
G01*
X174520300Y-91434600D01*
G75*
G02*
X174667800Y-91582100I0J-147500D01*
G01*
X174667800Y-91877100D01*
G75*
G02*
X174520300Y-92024600I-147500J0D01*
G01*
G37*
%TD*%
%TO.C,C17*%
G36*
G01*
X160010000Y-65547500D02*
X160010000Y-65892500D01*
G75*
G02*
X159862500Y-66040000I-147500J0D01*
G01*
X159567500Y-66040000D01*
G75*
G02*
X159420000Y-65892500I0J147500D01*
G01*
X159420000Y-65547500D01*
G75*
G02*
X159567500Y-65400000I147500J0D01*
G01*
X159862500Y-65400000D01*
G75*
G02*
X160010000Y-65547500I0J-147500D01*
G01*
G37*
G36*
G01*
X160980000Y-65547500D02*
X160980000Y-65892500D01*
G75*
G02*
X160832500Y-66040000I-147500J0D01*
G01*
X160537500Y-66040000D01*
G75*
G02*
X160390000Y-65892500I0J147500D01*
G01*
X160390000Y-65547500D01*
G75*
G02*
X160537500Y-65400000I147500J0D01*
G01*
X160832500Y-65400000D01*
G75*
G02*
X160980000Y-65547500I0J-147500D01*
G01*
G37*
%TD*%
%TO.C,C10*%
G36*
G01*
X176093000Y-75140500D02*
X176438000Y-75140500D01*
G75*
G02*
X176585500Y-75288000I0J-147500D01*
G01*
X176585500Y-75583000D01*
G75*
G02*
X176438000Y-75730500I-147500J0D01*
G01*
X176093000Y-75730500D01*
G75*
G02*
X175945500Y-75583000I0J147500D01*
G01*
X175945500Y-75288000D01*
G75*
G02*
X176093000Y-75140500I147500J0D01*
G01*
G37*
G36*
G01*
X176093000Y-74170500D02*
X176438000Y-74170500D01*
G75*
G02*
X176585500Y-74318000I0J-147500D01*
G01*
X176585500Y-74613000D01*
G75*
G02*
X176438000Y-74760500I-147500J0D01*
G01*
X176093000Y-74760500D01*
G75*
G02*
X175945500Y-74613000I0J147500D01*
G01*
X175945500Y-74318000D01*
G75*
G02*
X176093000Y-74170500I147500J0D01*
G01*
G37*
%TD*%
%TO.C,C8*%
G36*
G01*
X191357660Y-110145880D02*
X191357660Y-109670880D01*
G75*
G02*
X191595160Y-109433380I237500J0D01*
G01*
X192170160Y-109433380D01*
G75*
G02*
X192407660Y-109670880I0J-237500D01*
G01*
X192407660Y-110145880D01*
G75*
G02*
X192170160Y-110383380I-237500J0D01*
G01*
X191595160Y-110383380D01*
G75*
G02*
X191357660Y-110145880I0J237500D01*
G01*
G37*
G36*
G01*
X189607660Y-110145880D02*
X189607660Y-109670880D01*
G75*
G02*
X189845160Y-109433380I237500J0D01*
G01*
X190420160Y-109433380D01*
G75*
G02*
X190657660Y-109670880I0J-237500D01*
G01*
X190657660Y-110145880D01*
G75*
G02*
X190420160Y-110383380I-237500J0D01*
G01*
X189845160Y-110383380D01*
G75*
G02*
X189607660Y-110145880I0J237500D01*
G01*
G37*
%TD*%
%TO.C,C7*%
G36*
G01*
X195079500Y-57574000D02*
X195424500Y-57574000D01*
G75*
G02*
X195572000Y-57721500I0J-147500D01*
G01*
X195572000Y-58016500D01*
G75*
G02*
X195424500Y-58164000I-147500J0D01*
G01*
X195079500Y-58164000D01*
G75*
G02*
X194932000Y-58016500I0J147500D01*
G01*
X194932000Y-57721500D01*
G75*
G02*
X195079500Y-57574000I147500J0D01*
G01*
G37*
G36*
G01*
X195079500Y-58544000D02*
X195424500Y-58544000D01*
G75*
G02*
X195572000Y-58691500I0J-147500D01*
G01*
X195572000Y-58986500D01*
G75*
G02*
X195424500Y-59134000I-147500J0D01*
G01*
X195079500Y-59134000D01*
G75*
G02*
X194932000Y-58986500I0J147500D01*
G01*
X194932000Y-58691500D01*
G75*
G02*
X195079500Y-58544000I147500J0D01*
G01*
G37*
%TD*%
D12*
%TO.C,U1*%
X196225220Y-114780100D03*
D13*
X189925220Y-114780100D03*
X189925220Y-117080100D03*
X189925220Y-112480100D03*
%TD*%
%TO.C,R25*%
G36*
G01*
X176069700Y-104290400D02*
X175724700Y-104290400D01*
G75*
G02*
X175577200Y-104142900I0J147500D01*
G01*
X175577200Y-103847900D01*
G75*
G02*
X175724700Y-103700400I147500J0D01*
G01*
X176069700Y-103700400D01*
G75*
G02*
X176217200Y-103847900I0J-147500D01*
G01*
X176217200Y-104142900D01*
G75*
G02*
X176069700Y-104290400I-147500J0D01*
G01*
G37*
G36*
G01*
X176069700Y-105260400D02*
X175724700Y-105260400D01*
G75*
G02*
X175577200Y-105112900I0J147500D01*
G01*
X175577200Y-104817900D01*
G75*
G02*
X175724700Y-104670400I147500J0D01*
G01*
X176069700Y-104670400D01*
G75*
G02*
X176217200Y-104817900I0J-147500D01*
G01*
X176217200Y-105112900D01*
G75*
G02*
X176069700Y-105260400I-147500J0D01*
G01*
G37*
%TD*%
%TO.C,R24*%
G36*
G01*
X173428100Y-104323000D02*
X173083100Y-104323000D01*
G75*
G02*
X172935600Y-104175500I0J147500D01*
G01*
X172935600Y-103880500D01*
G75*
G02*
X173083100Y-103733000I147500J0D01*
G01*
X173428100Y-103733000D01*
G75*
G02*
X173575600Y-103880500I0J-147500D01*
G01*
X173575600Y-104175500D01*
G75*
G02*
X173428100Y-104323000I-147500J0D01*
G01*
G37*
G36*
G01*
X173428100Y-103353000D02*
X173083100Y-103353000D01*
G75*
G02*
X172935600Y-103205500I0J147500D01*
G01*
X172935600Y-102910500D01*
G75*
G02*
X173083100Y-102763000I147500J0D01*
G01*
X173428100Y-102763000D01*
G75*
G02*
X173575600Y-102910500I0J-147500D01*
G01*
X173575600Y-103205500D01*
G75*
G02*
X173428100Y-103353000I-147500J0D01*
G01*
G37*
%TD*%
%TO.C,R23*%
G36*
G01*
X161020000Y-88572500D02*
X161020000Y-88227500D01*
G75*
G02*
X161167500Y-88080000I147500J0D01*
G01*
X161462500Y-88080000D01*
G75*
G02*
X161610000Y-88227500I0J-147500D01*
G01*
X161610000Y-88572500D01*
G75*
G02*
X161462500Y-88720000I-147500J0D01*
G01*
X161167500Y-88720000D01*
G75*
G02*
X161020000Y-88572500I0J147500D01*
G01*
G37*
G36*
G01*
X161990000Y-88572500D02*
X161990000Y-88227500D01*
G75*
G02*
X162137500Y-88080000I147500J0D01*
G01*
X162432500Y-88080000D01*
G75*
G02*
X162580000Y-88227500I0J-147500D01*
G01*
X162580000Y-88572500D01*
G75*
G02*
X162432500Y-88720000I-147500J0D01*
G01*
X162137500Y-88720000D01*
G75*
G02*
X161990000Y-88572500I0J147500D01*
G01*
G37*
%TD*%
%TO.C,R22*%
G36*
G01*
X164979000Y-108692500D02*
X165454000Y-108692500D01*
G75*
G02*
X165691500Y-108930000I0J-237500D01*
G01*
X165691500Y-109505000D01*
G75*
G02*
X165454000Y-109742500I-237500J0D01*
G01*
X164979000Y-109742500D01*
G75*
G02*
X164741500Y-109505000I0J237500D01*
G01*
X164741500Y-108930000D01*
G75*
G02*
X164979000Y-108692500I237500J0D01*
G01*
G37*
G36*
G01*
X164979000Y-110442500D02*
X165454000Y-110442500D01*
G75*
G02*
X165691500Y-110680000I0J-237500D01*
G01*
X165691500Y-111255000D01*
G75*
G02*
X165454000Y-111492500I-237500J0D01*
G01*
X164979000Y-111492500D01*
G75*
G02*
X164741500Y-111255000I0J237500D01*
G01*
X164741500Y-110680000D01*
G75*
G02*
X164979000Y-110442500I237500J0D01*
G01*
G37*
%TD*%
%TO.C,R18*%
G36*
G01*
X157452500Y-104946500D02*
X157452500Y-104471500D01*
G75*
G02*
X157690000Y-104234000I237500J0D01*
G01*
X158265000Y-104234000D01*
G75*
G02*
X158502500Y-104471500I0J-237500D01*
G01*
X158502500Y-104946500D01*
G75*
G02*
X158265000Y-105184000I-237500J0D01*
G01*
X157690000Y-105184000D01*
G75*
G02*
X157452500Y-104946500I0J237500D01*
G01*
G37*
G36*
G01*
X155702500Y-104946500D02*
X155702500Y-104471500D01*
G75*
G02*
X155940000Y-104234000I237500J0D01*
G01*
X156515000Y-104234000D01*
G75*
G02*
X156752500Y-104471500I0J-237500D01*
G01*
X156752500Y-104946500D01*
G75*
G02*
X156515000Y-105184000I-237500J0D01*
G01*
X155940000Y-105184000D01*
G75*
G02*
X155702500Y-104946500I0J237500D01*
G01*
G37*
%TD*%
%TO.C,R17*%
G36*
G01*
X162317100Y-108905600D02*
X161842100Y-108905600D01*
G75*
G02*
X161604600Y-108668100I0J237500D01*
G01*
X161604600Y-108093100D01*
G75*
G02*
X161842100Y-107855600I237500J0D01*
G01*
X162317100Y-107855600D01*
G75*
G02*
X162554600Y-108093100I0J-237500D01*
G01*
X162554600Y-108668100D01*
G75*
G02*
X162317100Y-108905600I-237500J0D01*
G01*
G37*
G36*
G01*
X162317100Y-110655600D02*
X161842100Y-110655600D01*
G75*
G02*
X161604600Y-110418100I0J237500D01*
G01*
X161604600Y-109843100D01*
G75*
G02*
X161842100Y-109605600I237500J0D01*
G01*
X162317100Y-109605600D01*
G75*
G02*
X162554600Y-109843100I0J-237500D01*
G01*
X162554600Y-110418100D01*
G75*
G02*
X162317100Y-110655600I-237500J0D01*
G01*
G37*
%TD*%
%TO.C,R16*%
G36*
G01*
X159525000Y-69103500D02*
X159525000Y-69448500D01*
G75*
G02*
X159377500Y-69596000I-147500J0D01*
G01*
X159082500Y-69596000D01*
G75*
G02*
X158935000Y-69448500I0J147500D01*
G01*
X158935000Y-69103500D01*
G75*
G02*
X159082500Y-68956000I147500J0D01*
G01*
X159377500Y-68956000D01*
G75*
G02*
X159525000Y-69103500I0J-147500D01*
G01*
G37*
G36*
G01*
X160495000Y-69103500D02*
X160495000Y-69448500D01*
G75*
G02*
X160347500Y-69596000I-147500J0D01*
G01*
X160052500Y-69596000D01*
G75*
G02*
X159905000Y-69448500I0J147500D01*
G01*
X159905000Y-69103500D01*
G75*
G02*
X160052500Y-68956000I147500J0D01*
G01*
X160347500Y-68956000D01*
G75*
G02*
X160495000Y-69103500I0J-147500D01*
G01*
G37*
%TD*%
%TO.C,R15*%
G36*
G01*
X157909000Y-65547500D02*
X157909000Y-65892500D01*
G75*
G02*
X157761500Y-66040000I-147500J0D01*
G01*
X157466500Y-66040000D01*
G75*
G02*
X157319000Y-65892500I0J147500D01*
G01*
X157319000Y-65547500D01*
G75*
G02*
X157466500Y-65400000I147500J0D01*
G01*
X157761500Y-65400000D01*
G75*
G02*
X157909000Y-65547500I0J-147500D01*
G01*
G37*
G36*
G01*
X156939000Y-65547500D02*
X156939000Y-65892500D01*
G75*
G02*
X156791500Y-66040000I-147500J0D01*
G01*
X156496500Y-66040000D01*
G75*
G02*
X156349000Y-65892500I0J147500D01*
G01*
X156349000Y-65547500D01*
G75*
G02*
X156496500Y-65400000I147500J0D01*
G01*
X156791500Y-65400000D01*
G75*
G02*
X156939000Y-65547500I0J-147500D01*
G01*
G37*
%TD*%
%TO.C,R14*%
G36*
G01*
X190929280Y-96060520D02*
X190929280Y-96405520D01*
G75*
G02*
X190781780Y-96553020I-147500J0D01*
G01*
X190486780Y-96553020D01*
G75*
G02*
X190339280Y-96405520I0J147500D01*
G01*
X190339280Y-96060520D01*
G75*
G02*
X190486780Y-95913020I147500J0D01*
G01*
X190781780Y-95913020D01*
G75*
G02*
X190929280Y-96060520I0J-147500D01*
G01*
G37*
G36*
G01*
X191899280Y-96060520D02*
X191899280Y-96405520D01*
G75*
G02*
X191751780Y-96553020I-147500J0D01*
G01*
X191456780Y-96553020D01*
G75*
G02*
X191309280Y-96405520I0J147500D01*
G01*
X191309280Y-96060520D01*
G75*
G02*
X191456780Y-95913020I147500J0D01*
G01*
X191751780Y-95913020D01*
G75*
G02*
X191899280Y-96060520I0J-147500D01*
G01*
G37*
%TD*%
%TO.C,R13*%
G36*
G01*
X189692300Y-96060520D02*
X189692300Y-96405520D01*
G75*
G02*
X189544800Y-96553020I-147500J0D01*
G01*
X189249800Y-96553020D01*
G75*
G02*
X189102300Y-96405520I0J147500D01*
G01*
X189102300Y-96060520D01*
G75*
G02*
X189249800Y-95913020I147500J0D01*
G01*
X189544800Y-95913020D01*
G75*
G02*
X189692300Y-96060520I0J-147500D01*
G01*
G37*
G36*
G01*
X188722300Y-96060520D02*
X188722300Y-96405520D01*
G75*
G02*
X188574800Y-96553020I-147500J0D01*
G01*
X188279800Y-96553020D01*
G75*
G02*
X188132300Y-96405520I0J147500D01*
G01*
X188132300Y-96060520D01*
G75*
G02*
X188279800Y-95913020I147500J0D01*
G01*
X188574800Y-95913020D01*
G75*
G02*
X188722300Y-96060520I0J-147500D01*
G01*
G37*
%TD*%
%TO.C,R12*%
G36*
G01*
X186480100Y-89466000D02*
X186955100Y-89466000D01*
G75*
G02*
X187192600Y-89703500I0J-237500D01*
G01*
X187192600Y-90278500D01*
G75*
G02*
X186955100Y-90516000I-237500J0D01*
G01*
X186480100Y-90516000D01*
G75*
G02*
X186242600Y-90278500I0J237500D01*
G01*
X186242600Y-89703500D01*
G75*
G02*
X186480100Y-89466000I237500J0D01*
G01*
G37*
G36*
G01*
X186480100Y-91216000D02*
X186955100Y-91216000D01*
G75*
G02*
X187192600Y-91453500I0J-237500D01*
G01*
X187192600Y-92028500D01*
G75*
G02*
X186955100Y-92266000I-237500J0D01*
G01*
X186480100Y-92266000D01*
G75*
G02*
X186242600Y-92028500I0J237500D01*
G01*
X186242600Y-91453500D01*
G75*
G02*
X186480100Y-91216000I237500J0D01*
G01*
G37*
%TD*%
%TO.C,R1*%
G36*
G01*
X175104500Y-52068000D02*
X174759500Y-52068000D01*
G75*
G02*
X174612000Y-51920500I0J147500D01*
G01*
X174612000Y-51625500D01*
G75*
G02*
X174759500Y-51478000I147500J0D01*
G01*
X175104500Y-51478000D01*
G75*
G02*
X175252000Y-51625500I0J-147500D01*
G01*
X175252000Y-51920500D01*
G75*
G02*
X175104500Y-52068000I-147500J0D01*
G01*
G37*
G36*
G01*
X175104500Y-53038000D02*
X174759500Y-53038000D01*
G75*
G02*
X174612000Y-52890500I0J147500D01*
G01*
X174612000Y-52595500D01*
G75*
G02*
X174759500Y-52448000I147500J0D01*
G01*
X175104500Y-52448000D01*
G75*
G02*
X175252000Y-52595500I0J-147500D01*
G01*
X175252000Y-52890500D01*
G75*
G02*
X175104500Y-53038000I-147500J0D01*
G01*
G37*
%TD*%
D14*
%TO.C,Q1*%
X161128880Y-74329760D03*
X159128880Y-75279760D03*
X159128880Y-73379760D03*
%TD*%
%TO.C,FB1*%
G36*
G01*
X173007200Y-107844620D02*
X173007200Y-108319620D01*
G75*
G02*
X172769700Y-108557120I-237500J0D01*
G01*
X172194700Y-108557120D01*
G75*
G02*
X171957200Y-108319620I0J237500D01*
G01*
X171957200Y-107844620D01*
G75*
G02*
X172194700Y-107607120I237500J0D01*
G01*
X172769700Y-107607120D01*
G75*
G02*
X173007200Y-107844620I0J-237500D01*
G01*
G37*
G36*
G01*
X174757200Y-107844620D02*
X174757200Y-108319620D01*
G75*
G02*
X174519700Y-108557120I-237500J0D01*
G01*
X173944700Y-108557120D01*
G75*
G02*
X173707200Y-108319620I0J237500D01*
G01*
X173707200Y-107844620D01*
G75*
G02*
X173944700Y-107607120I237500J0D01*
G01*
X174519700Y-107607120D01*
G75*
G02*
X174757200Y-107844620I0J-237500D01*
G01*
G37*
%TD*%
%TO.C,D7*%
G36*
G01*
X156738500Y-102693500D02*
X156738500Y-103168500D01*
G75*
G02*
X156501000Y-103406000I-237500J0D01*
G01*
X155926000Y-103406000D01*
G75*
G02*
X155688500Y-103168500I0J237500D01*
G01*
X155688500Y-102693500D01*
G75*
G02*
X155926000Y-102456000I237500J0D01*
G01*
X156501000Y-102456000D01*
G75*
G02*
X156738500Y-102693500I0J-237500D01*
G01*
G37*
G36*
G01*
X158488500Y-102693500D02*
X158488500Y-103168500D01*
G75*
G02*
X158251000Y-103406000I-237500J0D01*
G01*
X157676000Y-103406000D01*
G75*
G02*
X157438500Y-103168500I0J237500D01*
G01*
X157438500Y-102693500D01*
G75*
G02*
X157676000Y-102456000I237500J0D01*
G01*
X158251000Y-102456000D01*
G75*
G02*
X158488500Y-102693500I0J-237500D01*
G01*
G37*
%TD*%
%TO.C,D6*%
G36*
G01*
X159962500Y-107895000D02*
X160437500Y-107895000D01*
G75*
G02*
X160675000Y-108132500I0J-237500D01*
G01*
X160675000Y-108707500D01*
G75*
G02*
X160437500Y-108945000I-237500J0D01*
G01*
X159962500Y-108945000D01*
G75*
G02*
X159725000Y-108707500I0J237500D01*
G01*
X159725000Y-108132500D01*
G75*
G02*
X159962500Y-107895000I237500J0D01*
G01*
G37*
G36*
G01*
X159962500Y-109645000D02*
X160437500Y-109645000D01*
G75*
G02*
X160675000Y-109882500I0J-237500D01*
G01*
X160675000Y-110457500D01*
G75*
G02*
X160437500Y-110695000I-237500J0D01*
G01*
X159962500Y-110695000D01*
G75*
G02*
X159725000Y-110457500I0J237500D01*
G01*
X159725000Y-109882500D01*
G75*
G02*
X159962500Y-109645000I237500J0D01*
G01*
G37*
%TD*%
%TO.C,D5*%
G36*
G01*
X158213000Y-67260500D02*
X158213000Y-67735500D01*
G75*
G02*
X157975500Y-67973000I-237500J0D01*
G01*
X157400500Y-67973000D01*
G75*
G02*
X157163000Y-67735500I0J237500D01*
G01*
X157163000Y-67260500D01*
G75*
G02*
X157400500Y-67023000I237500J0D01*
G01*
X157975500Y-67023000D01*
G75*
G02*
X158213000Y-67260500I0J-237500D01*
G01*
G37*
G36*
G01*
X159963000Y-67260500D02*
X159963000Y-67735500D01*
G75*
G02*
X159725500Y-67973000I-237500J0D01*
G01*
X159150500Y-67973000D01*
G75*
G02*
X158913000Y-67735500I0J237500D01*
G01*
X158913000Y-67260500D01*
G75*
G02*
X159150500Y-67023000I237500J0D01*
G01*
X159725500Y-67023000D01*
G75*
G02*
X159963000Y-67260500I0J-237500D01*
G01*
G37*
%TD*%
%TO.C,D4*%
G36*
G01*
X191106000Y-63958500D02*
X191106000Y-64433500D01*
G75*
G02*
X190868500Y-64671000I-237500J0D01*
G01*
X190293500Y-64671000D01*
G75*
G02*
X190056000Y-64433500I0J237500D01*
G01*
X190056000Y-63958500D01*
G75*
G02*
X190293500Y-63721000I237500J0D01*
G01*
X190868500Y-63721000D01*
G75*
G02*
X191106000Y-63958500I0J-237500D01*
G01*
G37*
G36*
G01*
X192856000Y-63958500D02*
X192856000Y-64433500D01*
G75*
G02*
X192618500Y-64671000I-237500J0D01*
G01*
X192043500Y-64671000D01*
G75*
G02*
X191806000Y-64433500I0J237500D01*
G01*
X191806000Y-63958500D01*
G75*
G02*
X192043500Y-63721000I237500J0D01*
G01*
X192618500Y-63721000D01*
G75*
G02*
X192856000Y-63958500I0J-237500D01*
G01*
G37*
%TD*%
%TO.C,D3*%
G36*
G01*
X179521000Y-54306500D02*
X179521000Y-54781500D01*
G75*
G02*
X179283500Y-55019000I-237500J0D01*
G01*
X178708500Y-55019000D01*
G75*
G02*
X178471000Y-54781500I0J237500D01*
G01*
X178471000Y-54306500D01*
G75*
G02*
X178708500Y-54069000I237500J0D01*
G01*
X179283500Y-54069000D01*
G75*
G02*
X179521000Y-54306500I0J-237500D01*
G01*
G37*
G36*
G01*
X177771000Y-54306500D02*
X177771000Y-54781500D01*
G75*
G02*
X177533500Y-55019000I-237500J0D01*
G01*
X176958500Y-55019000D01*
G75*
G02*
X176721000Y-54781500I0J237500D01*
G01*
X176721000Y-54306500D01*
G75*
G02*
X176958500Y-54069000I237500J0D01*
G01*
X177533500Y-54069000D01*
G75*
G02*
X177771000Y-54306500I0J-237500D01*
G01*
G37*
%TD*%
%TO.C,D2*%
G36*
G01*
X191171500Y-59655000D02*
X190696500Y-59655000D01*
G75*
G02*
X190459000Y-59417500I0J237500D01*
G01*
X190459000Y-58842500D01*
G75*
G02*
X190696500Y-58605000I237500J0D01*
G01*
X191171500Y-58605000D01*
G75*
G02*
X191409000Y-58842500I0J-237500D01*
G01*
X191409000Y-59417500D01*
G75*
G02*
X191171500Y-59655000I-237500J0D01*
G01*
G37*
G36*
G01*
X191171500Y-61405000D02*
X190696500Y-61405000D01*
G75*
G02*
X190459000Y-61167500I0J237500D01*
G01*
X190459000Y-60592500D01*
G75*
G02*
X190696500Y-60355000I237500J0D01*
G01*
X191171500Y-60355000D01*
G75*
G02*
X191409000Y-60592500I0J-237500D01*
G01*
X191409000Y-61167500D01*
G75*
G02*
X191171500Y-61405000I-237500J0D01*
G01*
G37*
%TD*%
%TO.C,D1*%
G36*
G01*
X172657000Y-54781500D02*
X172657000Y-54306500D01*
G75*
G02*
X172894500Y-54069000I237500J0D01*
G01*
X173469500Y-54069000D01*
G75*
G02*
X173707000Y-54306500I0J-237500D01*
G01*
X173707000Y-54781500D01*
G75*
G02*
X173469500Y-55019000I-237500J0D01*
G01*
X172894500Y-55019000D01*
G75*
G02*
X172657000Y-54781500I0J237500D01*
G01*
G37*
G36*
G01*
X174407000Y-54781500D02*
X174407000Y-54306500D01*
G75*
G02*
X174644500Y-54069000I237500J0D01*
G01*
X175219500Y-54069000D01*
G75*
G02*
X175457000Y-54306500I0J-237500D01*
G01*
X175457000Y-54781500D01*
G75*
G02*
X175219500Y-55019000I-237500J0D01*
G01*
X174644500Y-55019000D01*
G75*
G02*
X174407000Y-54781500I0J237500D01*
G01*
G37*
%TD*%
%TO.C,C31*%
G36*
G01*
X170001080Y-107961460D02*
X170001080Y-108436460D01*
G75*
G02*
X169763580Y-108673960I-237500J0D01*
G01*
X169188580Y-108673960D01*
G75*
G02*
X168951080Y-108436460I0J237500D01*
G01*
X168951080Y-107961460D01*
G75*
G02*
X169188580Y-107723960I237500J0D01*
G01*
X169763580Y-107723960D01*
G75*
G02*
X170001080Y-107961460I0J-237500D01*
G01*
G37*
G36*
G01*
X168251080Y-107961460D02*
X168251080Y-108436460D01*
G75*
G02*
X168013580Y-108673960I-237500J0D01*
G01*
X167438580Y-108673960D01*
G75*
G02*
X167201080Y-108436460I0J237500D01*
G01*
X167201080Y-107961460D01*
G75*
G02*
X167438580Y-107723960I237500J0D01*
G01*
X168013580Y-107723960D01*
G75*
G02*
X168251080Y-107961460I0J-237500D01*
G01*
G37*
%TD*%
%TO.C,C30*%
G36*
G01*
X168419800Y-106350060D02*
X168419800Y-106695060D01*
G75*
G02*
X168272300Y-106842560I-147500J0D01*
G01*
X167977300Y-106842560D01*
G75*
G02*
X167829800Y-106695060I0J147500D01*
G01*
X167829800Y-106350060D01*
G75*
G02*
X167977300Y-106202560I147500J0D01*
G01*
X168272300Y-106202560D01*
G75*
G02*
X168419800Y-106350060I0J-147500D01*
G01*
G37*
G36*
G01*
X167449800Y-106350060D02*
X167449800Y-106695060D01*
G75*
G02*
X167302300Y-106842560I-147500J0D01*
G01*
X167007300Y-106842560D01*
G75*
G02*
X166859800Y-106695060I0J147500D01*
G01*
X166859800Y-106350060D01*
G75*
G02*
X167007300Y-106202560I147500J0D01*
G01*
X167302300Y-106202560D01*
G75*
G02*
X167449800Y-106350060I0J-147500D01*
G01*
G37*
%TD*%
%TO.C,C29*%
G36*
G01*
X171711500Y-96713000D02*
X172056500Y-96713000D01*
G75*
G02*
X172204000Y-96860500I0J-147500D01*
G01*
X172204000Y-97155500D01*
G75*
G02*
X172056500Y-97303000I-147500J0D01*
G01*
X171711500Y-97303000D01*
G75*
G02*
X171564000Y-97155500I0J147500D01*
G01*
X171564000Y-96860500D01*
G75*
G02*
X171711500Y-96713000I147500J0D01*
G01*
G37*
G36*
G01*
X171711500Y-97683000D02*
X172056500Y-97683000D01*
G75*
G02*
X172204000Y-97830500I0J-147500D01*
G01*
X172204000Y-98125500D01*
G75*
G02*
X172056500Y-98273000I-147500J0D01*
G01*
X171711500Y-98273000D01*
G75*
G02*
X171564000Y-98125500I0J147500D01*
G01*
X171564000Y-97830500D01*
G75*
G02*
X171711500Y-97683000I147500J0D01*
G01*
G37*
%TD*%
%TO.C,C28*%
G36*
G01*
X161493500Y-105425500D02*
X161493500Y-105770500D01*
G75*
G02*
X161346000Y-105918000I-147500J0D01*
G01*
X161051000Y-105918000D01*
G75*
G02*
X160903500Y-105770500I0J147500D01*
G01*
X160903500Y-105425500D01*
G75*
G02*
X161051000Y-105278000I147500J0D01*
G01*
X161346000Y-105278000D01*
G75*
G02*
X161493500Y-105425500I0J-147500D01*
G01*
G37*
G36*
G01*
X162463500Y-105425500D02*
X162463500Y-105770500D01*
G75*
G02*
X162316000Y-105918000I-147500J0D01*
G01*
X162021000Y-105918000D01*
G75*
G02*
X161873500Y-105770500I0J147500D01*
G01*
X161873500Y-105425500D01*
G75*
G02*
X162021000Y-105278000I147500J0D01*
G01*
X162316000Y-105278000D01*
G75*
G02*
X162463500Y-105425500I0J-147500D01*
G01*
G37*
%TD*%
%TO.C,C27*%
G36*
G01*
X162135000Y-94972500D02*
X162135000Y-94627500D01*
G75*
G02*
X162282500Y-94480000I147500J0D01*
G01*
X162577500Y-94480000D01*
G75*
G02*
X162725000Y-94627500I0J-147500D01*
G01*
X162725000Y-94972500D01*
G75*
G02*
X162577500Y-95120000I-147500J0D01*
G01*
X162282500Y-95120000D01*
G75*
G02*
X162135000Y-94972500I0J147500D01*
G01*
G37*
G36*
G01*
X163105000Y-94972500D02*
X163105000Y-94627500D01*
G75*
G02*
X163252500Y-94480000I147500J0D01*
G01*
X163547500Y-94480000D01*
G75*
G02*
X163695000Y-94627500I0J-147500D01*
G01*
X163695000Y-94972500D01*
G75*
G02*
X163547500Y-95120000I-147500J0D01*
G01*
X163252500Y-95120000D01*
G75*
G02*
X163105000Y-94972500I0J147500D01*
G01*
G37*
%TD*%
%TO.C,C26*%
G36*
G01*
X160858500Y-104155500D02*
X160858500Y-104500500D01*
G75*
G02*
X160711000Y-104648000I-147500J0D01*
G01*
X160416000Y-104648000D01*
G75*
G02*
X160268500Y-104500500I0J147500D01*
G01*
X160268500Y-104155500D01*
G75*
G02*
X160416000Y-104008000I147500J0D01*
G01*
X160711000Y-104008000D01*
G75*
G02*
X160858500Y-104155500I0J-147500D01*
G01*
G37*
G36*
G01*
X161828500Y-104155500D02*
X161828500Y-104500500D01*
G75*
G02*
X161681000Y-104648000I-147500J0D01*
G01*
X161386000Y-104648000D01*
G75*
G02*
X161238500Y-104500500I0J147500D01*
G01*
X161238500Y-104155500D01*
G75*
G02*
X161386000Y-104008000I147500J0D01*
G01*
X161681000Y-104008000D01*
G75*
G02*
X161828500Y-104155500I0J-147500D01*
G01*
G37*
%TD*%
%TO.C,C25*%
G36*
G01*
X161437500Y-96900000D02*
X160962500Y-96900000D01*
G75*
G02*
X160725000Y-96662500I0J237500D01*
G01*
X160725000Y-96087500D01*
G75*
G02*
X160962500Y-95850000I237500J0D01*
G01*
X161437500Y-95850000D01*
G75*
G02*
X161675000Y-96087500I0J-237500D01*
G01*
X161675000Y-96662500D01*
G75*
G02*
X161437500Y-96900000I-237500J0D01*
G01*
G37*
G36*
G01*
X161437500Y-95150000D02*
X160962500Y-95150000D01*
G75*
G02*
X160725000Y-94912500I0J237500D01*
G01*
X160725000Y-94337500D01*
G75*
G02*
X160962500Y-94100000I237500J0D01*
G01*
X161437500Y-94100000D01*
G75*
G02*
X161675000Y-94337500I0J-237500D01*
G01*
X161675000Y-94912500D01*
G75*
G02*
X161437500Y-95150000I-237500J0D01*
G01*
G37*
%TD*%
%TO.C,C24*%
G36*
G01*
X175676000Y-110574500D02*
X175331000Y-110574500D01*
G75*
G02*
X175183500Y-110427000I0J147500D01*
G01*
X175183500Y-110132000D01*
G75*
G02*
X175331000Y-109984500I147500J0D01*
G01*
X175676000Y-109984500D01*
G75*
G02*
X175823500Y-110132000I0J-147500D01*
G01*
X175823500Y-110427000D01*
G75*
G02*
X175676000Y-110574500I-147500J0D01*
G01*
G37*
G36*
G01*
X175676000Y-111544500D02*
X175331000Y-111544500D01*
G75*
G02*
X175183500Y-111397000I0J147500D01*
G01*
X175183500Y-111102000D01*
G75*
G02*
X175331000Y-110954500I147500J0D01*
G01*
X175676000Y-110954500D01*
G75*
G02*
X175823500Y-111102000I0J-147500D01*
G01*
X175823500Y-111397000D01*
G75*
G02*
X175676000Y-111544500I-147500J0D01*
G01*
G37*
%TD*%
%TO.C,R9*%
G36*
G01*
X190767000Y-65674500D02*
X190767000Y-66019500D01*
G75*
G02*
X190619500Y-66167000I-147500J0D01*
G01*
X190324500Y-66167000D01*
G75*
G02*
X190177000Y-66019500I0J147500D01*
G01*
X190177000Y-65674500D01*
G75*
G02*
X190324500Y-65527000I147500J0D01*
G01*
X190619500Y-65527000D01*
G75*
G02*
X190767000Y-65674500I0J-147500D01*
G01*
G37*
G36*
G01*
X191737000Y-65674500D02*
X191737000Y-66019500D01*
G75*
G02*
X191589500Y-66167000I-147500J0D01*
G01*
X191294500Y-66167000D01*
G75*
G02*
X191147000Y-66019500I0J147500D01*
G01*
X191147000Y-65674500D01*
G75*
G02*
X191294500Y-65527000I147500J0D01*
G01*
X191589500Y-65527000D01*
G75*
G02*
X191737000Y-65674500I0J-147500D01*
G01*
G37*
%TD*%
%TO.C,R8*%
G36*
G01*
X192285500Y-57678000D02*
X192630500Y-57678000D01*
G75*
G02*
X192778000Y-57825500I0J-147500D01*
G01*
X192778000Y-58120500D01*
G75*
G02*
X192630500Y-58268000I-147500J0D01*
G01*
X192285500Y-58268000D01*
G75*
G02*
X192138000Y-58120500I0J147500D01*
G01*
X192138000Y-57825500D01*
G75*
G02*
X192285500Y-57678000I147500J0D01*
G01*
G37*
G36*
G01*
X192285500Y-56708000D02*
X192630500Y-56708000D01*
G75*
G02*
X192778000Y-56855500I0J-147500D01*
G01*
X192778000Y-57150500D01*
G75*
G02*
X192630500Y-57298000I-147500J0D01*
G01*
X192285500Y-57298000D01*
G75*
G02*
X192138000Y-57150500I0J147500D01*
G01*
X192138000Y-56855500D01*
G75*
G02*
X192285500Y-56708000I147500J0D01*
G01*
G37*
%TD*%
%TO.C,R7*%
G36*
G01*
X178737000Y-52720500D02*
X178737000Y-53065500D01*
G75*
G02*
X178589500Y-53213000I-147500J0D01*
G01*
X178294500Y-53213000D01*
G75*
G02*
X178147000Y-53065500I0J147500D01*
G01*
X178147000Y-52720500D01*
G75*
G02*
X178294500Y-52573000I147500J0D01*
G01*
X178589500Y-52573000D01*
G75*
G02*
X178737000Y-52720500I0J-147500D01*
G01*
G37*
G36*
G01*
X177767000Y-52720500D02*
X177767000Y-53065500D01*
G75*
G02*
X177619500Y-53213000I-147500J0D01*
G01*
X177324500Y-53213000D01*
G75*
G02*
X177177000Y-53065500I0J147500D01*
G01*
X177177000Y-52720500D01*
G75*
G02*
X177324500Y-52573000I147500J0D01*
G01*
X177619500Y-52573000D01*
G75*
G02*
X177767000Y-52720500I0J-147500D01*
G01*
G37*
%TD*%
%TO.C,C32*%
G36*
G01*
X157095000Y-90627500D02*
X157095000Y-90972500D01*
G75*
G02*
X156947500Y-91120000I-147500J0D01*
G01*
X156652500Y-91120000D01*
G75*
G02*
X156505000Y-90972500I0J147500D01*
G01*
X156505000Y-90627500D01*
G75*
G02*
X156652500Y-90480000I147500J0D01*
G01*
X156947500Y-90480000D01*
G75*
G02*
X157095000Y-90627500I0J-147500D01*
G01*
G37*
G36*
G01*
X156125000Y-90627500D02*
X156125000Y-90972500D01*
G75*
G02*
X155977500Y-91120000I-147500J0D01*
G01*
X155682500Y-91120000D01*
G75*
G02*
X155535000Y-90972500I0J147500D01*
G01*
X155535000Y-90627500D01*
G75*
G02*
X155682500Y-90480000I147500J0D01*
G01*
X155977500Y-90480000D01*
G75*
G02*
X156125000Y-90627500I0J-147500D01*
G01*
G37*
%TD*%
%TO.C,C22*%
G36*
G01*
X164275000Y-88570000D02*
X164275000Y-88225000D01*
G75*
G02*
X164422500Y-88077500I147500J0D01*
G01*
X164717500Y-88077500D01*
G75*
G02*
X164865000Y-88225000I0J-147500D01*
G01*
X164865000Y-88570000D01*
G75*
G02*
X164717500Y-88717500I-147500J0D01*
G01*
X164422500Y-88717500D01*
G75*
G02*
X164275000Y-88570000I0J147500D01*
G01*
G37*
G36*
G01*
X163305000Y-88570000D02*
X163305000Y-88225000D01*
G75*
G02*
X163452500Y-88077500I147500J0D01*
G01*
X163747500Y-88077500D01*
G75*
G02*
X163895000Y-88225000I0J-147500D01*
G01*
X163895000Y-88570000D01*
G75*
G02*
X163747500Y-88717500I-147500J0D01*
G01*
X163452500Y-88717500D01*
G75*
G02*
X163305000Y-88570000I0J147500D01*
G01*
G37*
%TD*%
%TO.C,C33*%
G36*
G01*
X158125000Y-91962500D02*
X158125000Y-92437500D01*
G75*
G02*
X157887500Y-92675000I-237500J0D01*
G01*
X157312500Y-92675000D01*
G75*
G02*
X157075000Y-92437500I0J237500D01*
G01*
X157075000Y-91962500D01*
G75*
G02*
X157312500Y-91725000I237500J0D01*
G01*
X157887500Y-91725000D01*
G75*
G02*
X158125000Y-91962500I0J-237500D01*
G01*
G37*
G36*
G01*
X156375000Y-91962500D02*
X156375000Y-92437500D01*
G75*
G02*
X156137500Y-92675000I-237500J0D01*
G01*
X155562500Y-92675000D01*
G75*
G02*
X155325000Y-92437500I0J237500D01*
G01*
X155325000Y-91962500D01*
G75*
G02*
X155562500Y-91725000I237500J0D01*
G01*
X156137500Y-91725000D01*
G75*
G02*
X156375000Y-91962500I0J-237500D01*
G01*
G37*
%TD*%
%TO.C,C23*%
G36*
G01*
X165298000Y-83372500D02*
X165643000Y-83372500D01*
G75*
G02*
X165790500Y-83520000I0J-147500D01*
G01*
X165790500Y-83815000D01*
G75*
G02*
X165643000Y-83962500I-147500J0D01*
G01*
X165298000Y-83962500D01*
G75*
G02*
X165150500Y-83815000I0J147500D01*
G01*
X165150500Y-83520000D01*
G75*
G02*
X165298000Y-83372500I147500J0D01*
G01*
G37*
G36*
G01*
X165298000Y-84342500D02*
X165643000Y-84342500D01*
G75*
G02*
X165790500Y-84490000I0J-147500D01*
G01*
X165790500Y-84785000D01*
G75*
G02*
X165643000Y-84932500I-147500J0D01*
G01*
X165298000Y-84932500D01*
G75*
G02*
X165150500Y-84785000I0J147500D01*
G01*
X165150500Y-84490000D01*
G75*
G02*
X165298000Y-84342500I147500J0D01*
G01*
G37*
%TD*%
%TO.C,C21*%
G36*
G01*
X167256200Y-118328700D02*
X167256200Y-118673700D01*
G75*
G02*
X167108700Y-118821200I-147500J0D01*
G01*
X166813700Y-118821200D01*
G75*
G02*
X166666200Y-118673700I0J147500D01*
G01*
X166666200Y-118328700D01*
G75*
G02*
X166813700Y-118181200I147500J0D01*
G01*
X167108700Y-118181200D01*
G75*
G02*
X167256200Y-118328700I0J-147500D01*
G01*
G37*
G36*
G01*
X166286200Y-118328700D02*
X166286200Y-118673700D01*
G75*
G02*
X166138700Y-118821200I-147500J0D01*
G01*
X165843700Y-118821200D01*
G75*
G02*
X165696200Y-118673700I0J147500D01*
G01*
X165696200Y-118328700D01*
G75*
G02*
X165843700Y-118181200I147500J0D01*
G01*
X166138700Y-118181200D01*
G75*
G02*
X166286200Y-118328700I0J-147500D01*
G01*
G37*
%TD*%
%TO.C,C20*%
G36*
G01*
X164431000Y-118673700D02*
X164431000Y-118328700D01*
G75*
G02*
X164578500Y-118181200I147500J0D01*
G01*
X164873500Y-118181200D01*
G75*
G02*
X165021000Y-118328700I0J-147500D01*
G01*
X165021000Y-118673700D01*
G75*
G02*
X164873500Y-118821200I-147500J0D01*
G01*
X164578500Y-118821200D01*
G75*
G02*
X164431000Y-118673700I0J147500D01*
G01*
G37*
G36*
G01*
X163461000Y-118673700D02*
X163461000Y-118328700D01*
G75*
G02*
X163608500Y-118181200I147500J0D01*
G01*
X163903500Y-118181200D01*
G75*
G02*
X164051000Y-118328700I0J-147500D01*
G01*
X164051000Y-118673700D01*
G75*
G02*
X163903500Y-118821200I-147500J0D01*
G01*
X163608500Y-118821200D01*
G75*
G02*
X163461000Y-118673700I0J147500D01*
G01*
G37*
%TD*%
%TO.C,C19*%
G36*
G01*
X165430500Y-81440000D02*
X165430500Y-81785000D01*
G75*
G02*
X165283000Y-81932500I-147500J0D01*
G01*
X164988000Y-81932500D01*
G75*
G02*
X164840500Y-81785000I0J147500D01*
G01*
X164840500Y-81440000D01*
G75*
G02*
X164988000Y-81292500I147500J0D01*
G01*
X165283000Y-81292500D01*
G75*
G02*
X165430500Y-81440000I0J-147500D01*
G01*
G37*
G36*
G01*
X166400500Y-81440000D02*
X166400500Y-81785000D01*
G75*
G02*
X166253000Y-81932500I-147500J0D01*
G01*
X165958000Y-81932500D01*
G75*
G02*
X165810500Y-81785000I0J147500D01*
G01*
X165810500Y-81440000D01*
G75*
G02*
X165958000Y-81292500I147500J0D01*
G01*
X166253000Y-81292500D01*
G75*
G02*
X166400500Y-81440000I0J-147500D01*
G01*
G37*
%TD*%
%TO.C,C18*%
G36*
G01*
X165194900Y-79446600D02*
X165669900Y-79446600D01*
G75*
G02*
X165907400Y-79684100I0J-237500D01*
G01*
X165907400Y-80259100D01*
G75*
G02*
X165669900Y-80496600I-237500J0D01*
G01*
X165194900Y-80496600D01*
G75*
G02*
X164957400Y-80259100I0J237500D01*
G01*
X164957400Y-79684100D01*
G75*
G02*
X165194900Y-79446600I237500J0D01*
G01*
G37*
G36*
G01*
X165194900Y-77696600D02*
X165669900Y-77696600D01*
G75*
G02*
X165907400Y-77934100I0J-237500D01*
G01*
X165907400Y-78509100D01*
G75*
G02*
X165669900Y-78746600I-237500J0D01*
G01*
X165194900Y-78746600D01*
G75*
G02*
X164957400Y-78509100I0J237500D01*
G01*
X164957400Y-77934100D01*
G75*
G02*
X165194900Y-77696600I237500J0D01*
G01*
G37*
%TD*%
%TO.C,R11*%
G36*
G01*
X176299800Y-90286100D02*
X175824800Y-90286100D01*
G75*
G02*
X175587300Y-90048600I0J237500D01*
G01*
X175587300Y-89473600D01*
G75*
G02*
X175824800Y-89236100I237500J0D01*
G01*
X176299800Y-89236100D01*
G75*
G02*
X176537300Y-89473600I0J-237500D01*
G01*
X176537300Y-90048600D01*
G75*
G02*
X176299800Y-90286100I-237500J0D01*
G01*
G37*
G36*
G01*
X176299800Y-92036100D02*
X175824800Y-92036100D01*
G75*
G02*
X175587300Y-91798600I0J237500D01*
G01*
X175587300Y-91223600D01*
G75*
G02*
X175824800Y-90986100I237500J0D01*
G01*
X176299800Y-90986100D01*
G75*
G02*
X176537300Y-91223600I0J-237500D01*
G01*
X176537300Y-91798600D01*
G75*
G02*
X176299800Y-92036100I-237500J0D01*
G01*
G37*
%TD*%
%TO.C,R6*%
G36*
G01*
X177644500Y-51895000D02*
X177299500Y-51895000D01*
G75*
G02*
X177152000Y-51747500I0J147500D01*
G01*
X177152000Y-51452500D01*
G75*
G02*
X177299500Y-51305000I147500J0D01*
G01*
X177644500Y-51305000D01*
G75*
G02*
X177792000Y-51452500I0J-147500D01*
G01*
X177792000Y-51747500D01*
G75*
G02*
X177644500Y-51895000I-147500J0D01*
G01*
G37*
G36*
G01*
X177644500Y-50925000D02*
X177299500Y-50925000D01*
G75*
G02*
X177152000Y-50777500I0J147500D01*
G01*
X177152000Y-50482500D01*
G75*
G02*
X177299500Y-50335000I147500J0D01*
G01*
X177644500Y-50335000D01*
G75*
G02*
X177792000Y-50482500I0J-147500D01*
G01*
X177792000Y-50777500D01*
G75*
G02*
X177644500Y-50925000I-147500J0D01*
G01*
G37*
%TD*%
%TO.C,R4*%
G36*
G01*
X194027500Y-58222000D02*
X193682500Y-58222000D01*
G75*
G02*
X193535000Y-58074500I0J147500D01*
G01*
X193535000Y-57779500D01*
G75*
G02*
X193682500Y-57632000I147500J0D01*
G01*
X194027500Y-57632000D01*
G75*
G02*
X194175000Y-57779500I0J-147500D01*
G01*
X194175000Y-58074500D01*
G75*
G02*
X194027500Y-58222000I-147500J0D01*
G01*
G37*
G36*
G01*
X194027500Y-57252000D02*
X193682500Y-57252000D01*
G75*
G02*
X193535000Y-57104500I0J147500D01*
G01*
X193535000Y-56809500D01*
G75*
G02*
X193682500Y-56662000I147500J0D01*
G01*
X194027500Y-56662000D01*
G75*
G02*
X194175000Y-56809500I0J-147500D01*
G01*
X194175000Y-57104500D01*
G75*
G02*
X194027500Y-57252000I-147500J0D01*
G01*
G37*
%TD*%
%TO.C,R5*%
G36*
G01*
X187496100Y-73424600D02*
X187971100Y-73424600D01*
G75*
G02*
X188208600Y-73662100I0J-237500D01*
G01*
X188208600Y-74237100D01*
G75*
G02*
X187971100Y-74474600I-237500J0D01*
G01*
X187496100Y-74474600D01*
G75*
G02*
X187258600Y-74237100I0J237500D01*
G01*
X187258600Y-73662100D01*
G75*
G02*
X187496100Y-73424600I237500J0D01*
G01*
G37*
G36*
G01*
X187496100Y-71674600D02*
X187971100Y-71674600D01*
G75*
G02*
X188208600Y-71912100I0J-237500D01*
G01*
X188208600Y-72487100D01*
G75*
G02*
X187971100Y-72724600I-237500J0D01*
G01*
X187496100Y-72724600D01*
G75*
G02*
X187258600Y-72487100I0J237500D01*
G01*
X187258600Y-71912100D01*
G75*
G02*
X187496100Y-71674600I237500J0D01*
G01*
G37*
%TD*%
%TO.C,R2*%
G36*
G01*
X166722500Y-57864000D02*
X166377500Y-57864000D01*
G75*
G02*
X166230000Y-57716500I0J147500D01*
G01*
X166230000Y-57421500D01*
G75*
G02*
X166377500Y-57274000I147500J0D01*
G01*
X166722500Y-57274000D01*
G75*
G02*
X166870000Y-57421500I0J-147500D01*
G01*
X166870000Y-57716500D01*
G75*
G02*
X166722500Y-57864000I-147500J0D01*
G01*
G37*
G36*
G01*
X166722500Y-56894000D02*
X166377500Y-56894000D01*
G75*
G02*
X166230000Y-56746500I0J147500D01*
G01*
X166230000Y-56451500D01*
G75*
G02*
X166377500Y-56304000I147500J0D01*
G01*
X166722500Y-56304000D01*
G75*
G02*
X166870000Y-56451500I0J-147500D01*
G01*
X166870000Y-56746500D01*
G75*
G02*
X166722500Y-56894000I-147500J0D01*
G01*
G37*
%TD*%
%TO.C,R19*%
G36*
G01*
X107347320Y-74998000D02*
X107347320Y-75343000D01*
G75*
G02*
X107199820Y-75490500I-147500J0D01*
G01*
X106904820Y-75490500D01*
G75*
G02*
X106757320Y-75343000I0J147500D01*
G01*
X106757320Y-74998000D01*
G75*
G02*
X106904820Y-74850500I147500J0D01*
G01*
X107199820Y-74850500D01*
G75*
G02*
X107347320Y-74998000I0J-147500D01*
G01*
G37*
G36*
G01*
X108317320Y-74998000D02*
X108317320Y-75343000D01*
G75*
G02*
X108169820Y-75490500I-147500J0D01*
G01*
X107874820Y-75490500D01*
G75*
G02*
X107727320Y-75343000I0J147500D01*
G01*
X107727320Y-74998000D01*
G75*
G02*
X107874820Y-74850500I147500J0D01*
G01*
X108169820Y-74850500D01*
G75*
G02*
X108317320Y-74998000I0J-147500D01*
G01*
G37*
%TD*%
%TO.C,R20*%
G36*
G01*
X107760480Y-73511660D02*
X107760480Y-73166660D01*
G75*
G02*
X107907980Y-73019160I147500J0D01*
G01*
X108202980Y-73019160D01*
G75*
G02*
X108350480Y-73166660I0J-147500D01*
G01*
X108350480Y-73511660D01*
G75*
G02*
X108202980Y-73659160I-147500J0D01*
G01*
X107907980Y-73659160D01*
G75*
G02*
X107760480Y-73511660I0J147500D01*
G01*
G37*
G36*
G01*
X106790480Y-73511660D02*
X106790480Y-73166660D01*
G75*
G02*
X106937980Y-73019160I147500J0D01*
G01*
X107232980Y-73019160D01*
G75*
G02*
X107380480Y-73166660I0J-147500D01*
G01*
X107380480Y-73511660D01*
G75*
G02*
X107232980Y-73659160I-147500J0D01*
G01*
X106937980Y-73659160D01*
G75*
G02*
X106790480Y-73511660I0J147500D01*
G01*
G37*
%TD*%
%TO.C,R21*%
G36*
G01*
X114427500Y-78020000D02*
X114772500Y-78020000D01*
G75*
G02*
X114920000Y-78167500I0J-147500D01*
G01*
X114920000Y-78462500D01*
G75*
G02*
X114772500Y-78610000I-147500J0D01*
G01*
X114427500Y-78610000D01*
G75*
G02*
X114280000Y-78462500I0J147500D01*
G01*
X114280000Y-78167500D01*
G75*
G02*
X114427500Y-78020000I147500J0D01*
G01*
G37*
G36*
G01*
X114427500Y-78990000D02*
X114772500Y-78990000D01*
G75*
G02*
X114920000Y-79137500I0J-147500D01*
G01*
X114920000Y-79432500D01*
G75*
G02*
X114772500Y-79580000I-147500J0D01*
G01*
X114427500Y-79580000D01*
G75*
G02*
X114280000Y-79432500I0J147500D01*
G01*
X114280000Y-79137500D01*
G75*
G02*
X114427500Y-78990000I147500J0D01*
G01*
G37*
%TD*%
D10*
%TO.C,U3*%
X139366020Y-98466960D03*
X141266020Y-98466960D03*
X141266020Y-101166960D03*
X140316020Y-101166960D03*
X139366020Y-101166960D03*
%TD*%
%TO.C,U5*%
G36*
G01*
X114303500Y-105418000D02*
X114153500Y-105418000D01*
G75*
G02*
X114078500Y-105343000I0J75000D01*
G01*
X114078500Y-104018000D01*
G75*
G02*
X114153500Y-103943000I75000J0D01*
G01*
X114303500Y-103943000D01*
G75*
G02*
X114378500Y-104018000I0J-75000D01*
G01*
X114378500Y-105343000D01*
G75*
G02*
X114303500Y-105418000I-75000J0D01*
G01*
G37*
G36*
G01*
X114803500Y-105418000D02*
X114653500Y-105418000D01*
G75*
G02*
X114578500Y-105343000I0J75000D01*
G01*
X114578500Y-104018000D01*
G75*
G02*
X114653500Y-103943000I75000J0D01*
G01*
X114803500Y-103943000D01*
G75*
G02*
X114878500Y-104018000I0J-75000D01*
G01*
X114878500Y-105343000D01*
G75*
G02*
X114803500Y-105418000I-75000J0D01*
G01*
G37*
G36*
G01*
X115303500Y-105418000D02*
X115153500Y-105418000D01*
G75*
G02*
X115078500Y-105343000I0J75000D01*
G01*
X115078500Y-104018000D01*
G75*
G02*
X115153500Y-103943000I75000J0D01*
G01*
X115303500Y-103943000D01*
G75*
G02*
X115378500Y-104018000I0J-75000D01*
G01*
X115378500Y-105343000D01*
G75*
G02*
X115303500Y-105418000I-75000J0D01*
G01*
G37*
G36*
G01*
X115803500Y-105418000D02*
X115653500Y-105418000D01*
G75*
G02*
X115578500Y-105343000I0J75000D01*
G01*
X115578500Y-104018000D01*
G75*
G02*
X115653500Y-103943000I75000J0D01*
G01*
X115803500Y-103943000D01*
G75*
G02*
X115878500Y-104018000I0J-75000D01*
G01*
X115878500Y-105343000D01*
G75*
G02*
X115803500Y-105418000I-75000J0D01*
G01*
G37*
G36*
G01*
X116303500Y-105418000D02*
X116153500Y-105418000D01*
G75*
G02*
X116078500Y-105343000I0J75000D01*
G01*
X116078500Y-104018000D01*
G75*
G02*
X116153500Y-103943000I75000J0D01*
G01*
X116303500Y-103943000D01*
G75*
G02*
X116378500Y-104018000I0J-75000D01*
G01*
X116378500Y-105343000D01*
G75*
G02*
X116303500Y-105418000I-75000J0D01*
G01*
G37*
G36*
G01*
X116803500Y-105418000D02*
X116653500Y-105418000D01*
G75*
G02*
X116578500Y-105343000I0J75000D01*
G01*
X116578500Y-104018000D01*
G75*
G02*
X116653500Y-103943000I75000J0D01*
G01*
X116803500Y-103943000D01*
G75*
G02*
X116878500Y-104018000I0J-75000D01*
G01*
X116878500Y-105343000D01*
G75*
G02*
X116803500Y-105418000I-75000J0D01*
G01*
G37*
G36*
G01*
X117303500Y-105418000D02*
X117153500Y-105418000D01*
G75*
G02*
X117078500Y-105343000I0J75000D01*
G01*
X117078500Y-104018000D01*
G75*
G02*
X117153500Y-103943000I75000J0D01*
G01*
X117303500Y-103943000D01*
G75*
G02*
X117378500Y-104018000I0J-75000D01*
G01*
X117378500Y-105343000D01*
G75*
G02*
X117303500Y-105418000I-75000J0D01*
G01*
G37*
G36*
G01*
X117803500Y-105418000D02*
X117653500Y-105418000D01*
G75*
G02*
X117578500Y-105343000I0J75000D01*
G01*
X117578500Y-104018000D01*
G75*
G02*
X117653500Y-103943000I75000J0D01*
G01*
X117803500Y-103943000D01*
G75*
G02*
X117878500Y-104018000I0J-75000D01*
G01*
X117878500Y-105343000D01*
G75*
G02*
X117803500Y-105418000I-75000J0D01*
G01*
G37*
G36*
G01*
X118303500Y-105418000D02*
X118153500Y-105418000D01*
G75*
G02*
X118078500Y-105343000I0J75000D01*
G01*
X118078500Y-104018000D01*
G75*
G02*
X118153500Y-103943000I75000J0D01*
G01*
X118303500Y-103943000D01*
G75*
G02*
X118378500Y-104018000I0J-75000D01*
G01*
X118378500Y-105343000D01*
G75*
G02*
X118303500Y-105418000I-75000J0D01*
G01*
G37*
G36*
G01*
X118803500Y-105418000D02*
X118653500Y-105418000D01*
G75*
G02*
X118578500Y-105343000I0J75000D01*
G01*
X118578500Y-104018000D01*
G75*
G02*
X118653500Y-103943000I75000J0D01*
G01*
X118803500Y-103943000D01*
G75*
G02*
X118878500Y-104018000I0J-75000D01*
G01*
X118878500Y-105343000D01*
G75*
G02*
X118803500Y-105418000I-75000J0D01*
G01*
G37*
G36*
G01*
X119303500Y-105418000D02*
X119153500Y-105418000D01*
G75*
G02*
X119078500Y-105343000I0J75000D01*
G01*
X119078500Y-104018000D01*
G75*
G02*
X119153500Y-103943000I75000J0D01*
G01*
X119303500Y-103943000D01*
G75*
G02*
X119378500Y-104018000I0J-75000D01*
G01*
X119378500Y-105343000D01*
G75*
G02*
X119303500Y-105418000I-75000J0D01*
G01*
G37*
G36*
G01*
X119803500Y-105418000D02*
X119653500Y-105418000D01*
G75*
G02*
X119578500Y-105343000I0J75000D01*
G01*
X119578500Y-104018000D01*
G75*
G02*
X119653500Y-103943000I75000J0D01*
G01*
X119803500Y-103943000D01*
G75*
G02*
X119878500Y-104018000I0J-75000D01*
G01*
X119878500Y-105343000D01*
G75*
G02*
X119803500Y-105418000I-75000J0D01*
G01*
G37*
G36*
G01*
X121803500Y-103418000D02*
X120478500Y-103418000D01*
G75*
G02*
X120403500Y-103343000I0J75000D01*
G01*
X120403500Y-103193000D01*
G75*
G02*
X120478500Y-103118000I75000J0D01*
G01*
X121803500Y-103118000D01*
G75*
G02*
X121878500Y-103193000I0J-75000D01*
G01*
X121878500Y-103343000D01*
G75*
G02*
X121803500Y-103418000I-75000J0D01*
G01*
G37*
G36*
G01*
X121803500Y-102918000D02*
X120478500Y-102918000D01*
G75*
G02*
X120403500Y-102843000I0J75000D01*
G01*
X120403500Y-102693000D01*
G75*
G02*
X120478500Y-102618000I75000J0D01*
G01*
X121803500Y-102618000D01*
G75*
G02*
X121878500Y-102693000I0J-75000D01*
G01*
X121878500Y-102843000D01*
G75*
G02*
X121803500Y-102918000I-75000J0D01*
G01*
G37*
G36*
G01*
X121803500Y-102418000D02*
X120478500Y-102418000D01*
G75*
G02*
X120403500Y-102343000I0J75000D01*
G01*
X120403500Y-102193000D01*
G75*
G02*
X120478500Y-102118000I75000J0D01*
G01*
X121803500Y-102118000D01*
G75*
G02*
X121878500Y-102193000I0J-75000D01*
G01*
X121878500Y-102343000D01*
G75*
G02*
X121803500Y-102418000I-75000J0D01*
G01*
G37*
G36*
G01*
X121803500Y-101918000D02*
X120478500Y-101918000D01*
G75*
G02*
X120403500Y-101843000I0J75000D01*
G01*
X120403500Y-101693000D01*
G75*
G02*
X120478500Y-101618000I75000J0D01*
G01*
X121803500Y-101618000D01*
G75*
G02*
X121878500Y-101693000I0J-75000D01*
G01*
X121878500Y-101843000D01*
G75*
G02*
X121803500Y-101918000I-75000J0D01*
G01*
G37*
G36*
G01*
X121803500Y-101418000D02*
X120478500Y-101418000D01*
G75*
G02*
X120403500Y-101343000I0J75000D01*
G01*
X120403500Y-101193000D01*
G75*
G02*
X120478500Y-101118000I75000J0D01*
G01*
X121803500Y-101118000D01*
G75*
G02*
X121878500Y-101193000I0J-75000D01*
G01*
X121878500Y-101343000D01*
G75*
G02*
X121803500Y-101418000I-75000J0D01*
G01*
G37*
G36*
G01*
X121803500Y-100918000D02*
X120478500Y-100918000D01*
G75*
G02*
X120403500Y-100843000I0J75000D01*
G01*
X120403500Y-100693000D01*
G75*
G02*
X120478500Y-100618000I75000J0D01*
G01*
X121803500Y-100618000D01*
G75*
G02*
X121878500Y-100693000I0J-75000D01*
G01*
X121878500Y-100843000D01*
G75*
G02*
X121803500Y-100918000I-75000J0D01*
G01*
G37*
G36*
G01*
X121803500Y-100418000D02*
X120478500Y-100418000D01*
G75*
G02*
X120403500Y-100343000I0J75000D01*
G01*
X120403500Y-100193000D01*
G75*
G02*
X120478500Y-100118000I75000J0D01*
G01*
X121803500Y-100118000D01*
G75*
G02*
X121878500Y-100193000I0J-75000D01*
G01*
X121878500Y-100343000D01*
G75*
G02*
X121803500Y-100418000I-75000J0D01*
G01*
G37*
G36*
G01*
X121803500Y-99918000D02*
X120478500Y-99918000D01*
G75*
G02*
X120403500Y-99843000I0J75000D01*
G01*
X120403500Y-99693000D01*
G75*
G02*
X120478500Y-99618000I75000J0D01*
G01*
X121803500Y-99618000D01*
G75*
G02*
X121878500Y-99693000I0J-75000D01*
G01*
X121878500Y-99843000D01*
G75*
G02*
X121803500Y-99918000I-75000J0D01*
G01*
G37*
G36*
G01*
X121803500Y-99418000D02*
X120478500Y-99418000D01*
G75*
G02*
X120403500Y-99343000I0J75000D01*
G01*
X120403500Y-99193000D01*
G75*
G02*
X120478500Y-99118000I75000J0D01*
G01*
X121803500Y-99118000D01*
G75*
G02*
X121878500Y-99193000I0J-75000D01*
G01*
X121878500Y-99343000D01*
G75*
G02*
X121803500Y-99418000I-75000J0D01*
G01*
G37*
G36*
G01*
X121803500Y-98918000D02*
X120478500Y-98918000D01*
G75*
G02*
X120403500Y-98843000I0J75000D01*
G01*
X120403500Y-98693000D01*
G75*
G02*
X120478500Y-98618000I75000J0D01*
G01*
X121803500Y-98618000D01*
G75*
G02*
X121878500Y-98693000I0J-75000D01*
G01*
X121878500Y-98843000D01*
G75*
G02*
X121803500Y-98918000I-75000J0D01*
G01*
G37*
G36*
G01*
X121803500Y-98418000D02*
X120478500Y-98418000D01*
G75*
G02*
X120403500Y-98343000I0J75000D01*
G01*
X120403500Y-98193000D01*
G75*
G02*
X120478500Y-98118000I75000J0D01*
G01*
X121803500Y-98118000D01*
G75*
G02*
X121878500Y-98193000I0J-75000D01*
G01*
X121878500Y-98343000D01*
G75*
G02*
X121803500Y-98418000I-75000J0D01*
G01*
G37*
G36*
G01*
X121803500Y-97918000D02*
X120478500Y-97918000D01*
G75*
G02*
X120403500Y-97843000I0J75000D01*
G01*
X120403500Y-97693000D01*
G75*
G02*
X120478500Y-97618000I75000J0D01*
G01*
X121803500Y-97618000D01*
G75*
G02*
X121878500Y-97693000I0J-75000D01*
G01*
X121878500Y-97843000D01*
G75*
G02*
X121803500Y-97918000I-75000J0D01*
G01*
G37*
G36*
G01*
X119803500Y-97093000D02*
X119653500Y-97093000D01*
G75*
G02*
X119578500Y-97018000I0J75000D01*
G01*
X119578500Y-95693000D01*
G75*
G02*
X119653500Y-95618000I75000J0D01*
G01*
X119803500Y-95618000D01*
G75*
G02*
X119878500Y-95693000I0J-75000D01*
G01*
X119878500Y-97018000D01*
G75*
G02*
X119803500Y-97093000I-75000J0D01*
G01*
G37*
G36*
G01*
X119303500Y-97093000D02*
X119153500Y-97093000D01*
G75*
G02*
X119078500Y-97018000I0J75000D01*
G01*
X119078500Y-95693000D01*
G75*
G02*
X119153500Y-95618000I75000J0D01*
G01*
X119303500Y-95618000D01*
G75*
G02*
X119378500Y-95693000I0J-75000D01*
G01*
X119378500Y-97018000D01*
G75*
G02*
X119303500Y-97093000I-75000J0D01*
G01*
G37*
G36*
G01*
X118803500Y-97093000D02*
X118653500Y-97093000D01*
G75*
G02*
X118578500Y-97018000I0J75000D01*
G01*
X118578500Y-95693000D01*
G75*
G02*
X118653500Y-95618000I75000J0D01*
G01*
X118803500Y-95618000D01*
G75*
G02*
X118878500Y-95693000I0J-75000D01*
G01*
X118878500Y-97018000D01*
G75*
G02*
X118803500Y-97093000I-75000J0D01*
G01*
G37*
G36*
G01*
X118303500Y-97093000D02*
X118153500Y-97093000D01*
G75*
G02*
X118078500Y-97018000I0J75000D01*
G01*
X118078500Y-95693000D01*
G75*
G02*
X118153500Y-95618000I75000J0D01*
G01*
X118303500Y-95618000D01*
G75*
G02*
X118378500Y-95693000I0J-75000D01*
G01*
X118378500Y-97018000D01*
G75*
G02*
X118303500Y-97093000I-75000J0D01*
G01*
G37*
G36*
G01*
X117803500Y-97093000D02*
X117653500Y-97093000D01*
G75*
G02*
X117578500Y-97018000I0J75000D01*
G01*
X117578500Y-95693000D01*
G75*
G02*
X117653500Y-95618000I75000J0D01*
G01*
X117803500Y-95618000D01*
G75*
G02*
X117878500Y-95693000I0J-75000D01*
G01*
X117878500Y-97018000D01*
G75*
G02*
X117803500Y-97093000I-75000J0D01*
G01*
G37*
G36*
G01*
X117303500Y-97093000D02*
X117153500Y-97093000D01*
G75*
G02*
X117078500Y-97018000I0J75000D01*
G01*
X117078500Y-95693000D01*
G75*
G02*
X117153500Y-95618000I75000J0D01*
G01*
X117303500Y-95618000D01*
G75*
G02*
X117378500Y-95693000I0J-75000D01*
G01*
X117378500Y-97018000D01*
G75*
G02*
X117303500Y-97093000I-75000J0D01*
G01*
G37*
G36*
G01*
X116803500Y-97093000D02*
X116653500Y-97093000D01*
G75*
G02*
X116578500Y-97018000I0J75000D01*
G01*
X116578500Y-95693000D01*
G75*
G02*
X116653500Y-95618000I75000J0D01*
G01*
X116803500Y-95618000D01*
G75*
G02*
X116878500Y-95693000I0J-75000D01*
G01*
X116878500Y-97018000D01*
G75*
G02*
X116803500Y-97093000I-75000J0D01*
G01*
G37*
G36*
G01*
X116303500Y-97093000D02*
X116153500Y-97093000D01*
G75*
G02*
X116078500Y-97018000I0J75000D01*
G01*
X116078500Y-95693000D01*
G75*
G02*
X116153500Y-95618000I75000J0D01*
G01*
X116303500Y-95618000D01*
G75*
G02*
X116378500Y-95693000I0J-75000D01*
G01*
X116378500Y-97018000D01*
G75*
G02*
X116303500Y-97093000I-75000J0D01*
G01*
G37*
G36*
G01*
X115803500Y-97093000D02*
X115653500Y-97093000D01*
G75*
G02*
X115578500Y-97018000I0J75000D01*
G01*
X115578500Y-95693000D01*
G75*
G02*
X115653500Y-95618000I75000J0D01*
G01*
X115803500Y-95618000D01*
G75*
G02*
X115878500Y-95693000I0J-75000D01*
G01*
X115878500Y-97018000D01*
G75*
G02*
X115803500Y-97093000I-75000J0D01*
G01*
G37*
G36*
G01*
X115303500Y-97093000D02*
X115153500Y-97093000D01*
G75*
G02*
X115078500Y-97018000I0J75000D01*
G01*
X115078500Y-95693000D01*
G75*
G02*
X115153500Y-95618000I75000J0D01*
G01*
X115303500Y-95618000D01*
G75*
G02*
X115378500Y-95693000I0J-75000D01*
G01*
X115378500Y-97018000D01*
G75*
G02*
X115303500Y-97093000I-75000J0D01*
G01*
G37*
G36*
G01*
X114803500Y-97093000D02*
X114653500Y-97093000D01*
G75*
G02*
X114578500Y-97018000I0J75000D01*
G01*
X114578500Y-95693000D01*
G75*
G02*
X114653500Y-95618000I75000J0D01*
G01*
X114803500Y-95618000D01*
G75*
G02*
X114878500Y-95693000I0J-75000D01*
G01*
X114878500Y-97018000D01*
G75*
G02*
X114803500Y-97093000I-75000J0D01*
G01*
G37*
G36*
G01*
X114303500Y-97093000D02*
X114153500Y-97093000D01*
G75*
G02*
X114078500Y-97018000I0J75000D01*
G01*
X114078500Y-95693000D01*
G75*
G02*
X114153500Y-95618000I75000J0D01*
G01*
X114303500Y-95618000D01*
G75*
G02*
X114378500Y-95693000I0J-75000D01*
G01*
X114378500Y-97018000D01*
G75*
G02*
X114303500Y-97093000I-75000J0D01*
G01*
G37*
G36*
G01*
X113478500Y-97918000D02*
X112153500Y-97918000D01*
G75*
G02*
X112078500Y-97843000I0J75000D01*
G01*
X112078500Y-97693000D01*
G75*
G02*
X112153500Y-97618000I75000J0D01*
G01*
X113478500Y-97618000D01*
G75*
G02*
X113553500Y-97693000I0J-75000D01*
G01*
X113553500Y-97843000D01*
G75*
G02*
X113478500Y-97918000I-75000J0D01*
G01*
G37*
G36*
G01*
X113478500Y-98418000D02*
X112153500Y-98418000D01*
G75*
G02*
X112078500Y-98343000I0J75000D01*
G01*
X112078500Y-98193000D01*
G75*
G02*
X112153500Y-98118000I75000J0D01*
G01*
X113478500Y-98118000D01*
G75*
G02*
X113553500Y-98193000I0J-75000D01*
G01*
X113553500Y-98343000D01*
G75*
G02*
X113478500Y-98418000I-75000J0D01*
G01*
G37*
G36*
G01*
X113478500Y-98918000D02*
X112153500Y-98918000D01*
G75*
G02*
X112078500Y-98843000I0J75000D01*
G01*
X112078500Y-98693000D01*
G75*
G02*
X112153500Y-98618000I75000J0D01*
G01*
X113478500Y-98618000D01*
G75*
G02*
X113553500Y-98693000I0J-75000D01*
G01*
X113553500Y-98843000D01*
G75*
G02*
X113478500Y-98918000I-75000J0D01*
G01*
G37*
G36*
G01*
X113478500Y-99418000D02*
X112153500Y-99418000D01*
G75*
G02*
X112078500Y-99343000I0J75000D01*
G01*
X112078500Y-99193000D01*
G75*
G02*
X112153500Y-99118000I75000J0D01*
G01*
X113478500Y-99118000D01*
G75*
G02*
X113553500Y-99193000I0J-75000D01*
G01*
X113553500Y-99343000D01*
G75*
G02*
X113478500Y-99418000I-75000J0D01*
G01*
G37*
G36*
G01*
X113478500Y-99918000D02*
X112153500Y-99918000D01*
G75*
G02*
X112078500Y-99843000I0J75000D01*
G01*
X112078500Y-99693000D01*
G75*
G02*
X112153500Y-99618000I75000J0D01*
G01*
X113478500Y-99618000D01*
G75*
G02*
X113553500Y-99693000I0J-75000D01*
G01*
X113553500Y-99843000D01*
G75*
G02*
X113478500Y-99918000I-75000J0D01*
G01*
G37*
G36*
G01*
X113478500Y-100418000D02*
X112153500Y-100418000D01*
G75*
G02*
X112078500Y-100343000I0J75000D01*
G01*
X112078500Y-100193000D01*
G75*
G02*
X112153500Y-100118000I75000J0D01*
G01*
X113478500Y-100118000D01*
G75*
G02*
X113553500Y-100193000I0J-75000D01*
G01*
X113553500Y-100343000D01*
G75*
G02*
X113478500Y-100418000I-75000J0D01*
G01*
G37*
G36*
G01*
X113478500Y-100918000D02*
X112153500Y-100918000D01*
G75*
G02*
X112078500Y-100843000I0J75000D01*
G01*
X112078500Y-100693000D01*
G75*
G02*
X112153500Y-100618000I75000J0D01*
G01*
X113478500Y-100618000D01*
G75*
G02*
X113553500Y-100693000I0J-75000D01*
G01*
X113553500Y-100843000D01*
G75*
G02*
X113478500Y-100918000I-75000J0D01*
G01*
G37*
G36*
G01*
X113478500Y-101418000D02*
X112153500Y-101418000D01*
G75*
G02*
X112078500Y-101343000I0J75000D01*
G01*
X112078500Y-101193000D01*
G75*
G02*
X112153500Y-101118000I75000J0D01*
G01*
X113478500Y-101118000D01*
G75*
G02*
X113553500Y-101193000I0J-75000D01*
G01*
X113553500Y-101343000D01*
G75*
G02*
X113478500Y-101418000I-75000J0D01*
G01*
G37*
G36*
G01*
X113478500Y-101918000D02*
X112153500Y-101918000D01*
G75*
G02*
X112078500Y-101843000I0J75000D01*
G01*
X112078500Y-101693000D01*
G75*
G02*
X112153500Y-101618000I75000J0D01*
G01*
X113478500Y-101618000D01*
G75*
G02*
X113553500Y-101693000I0J-75000D01*
G01*
X113553500Y-101843000D01*
G75*
G02*
X113478500Y-101918000I-75000J0D01*
G01*
G37*
G36*
G01*
X113478500Y-102418000D02*
X112153500Y-102418000D01*
G75*
G02*
X112078500Y-102343000I0J75000D01*
G01*
X112078500Y-102193000D01*
G75*
G02*
X112153500Y-102118000I75000J0D01*
G01*
X113478500Y-102118000D01*
G75*
G02*
X113553500Y-102193000I0J-75000D01*
G01*
X113553500Y-102343000D01*
G75*
G02*
X113478500Y-102418000I-75000J0D01*
G01*
G37*
G36*
G01*
X113478500Y-102918000D02*
X112153500Y-102918000D01*
G75*
G02*
X112078500Y-102843000I0J75000D01*
G01*
X112078500Y-102693000D01*
G75*
G02*
X112153500Y-102618000I75000J0D01*
G01*
X113478500Y-102618000D01*
G75*
G02*
X113553500Y-102693000I0J-75000D01*
G01*
X113553500Y-102843000D01*
G75*
G02*
X113478500Y-102918000I-75000J0D01*
G01*
G37*
G36*
G01*
X113478500Y-103418000D02*
X112153500Y-103418000D01*
G75*
G02*
X112078500Y-103343000I0J75000D01*
G01*
X112078500Y-103193000D01*
G75*
G02*
X112153500Y-103118000I75000J0D01*
G01*
X113478500Y-103118000D01*
G75*
G02*
X113553500Y-103193000I0J-75000D01*
G01*
X113553500Y-103343000D01*
G75*
G02*
X113478500Y-103418000I-75000J0D01*
G01*
G37*
%TD*%
%TO.C,R3*%
G36*
G01*
X144138500Y-60577000D02*
X143793500Y-60577000D01*
G75*
G02*
X143646000Y-60429500I0J147500D01*
G01*
X143646000Y-60134500D01*
G75*
G02*
X143793500Y-59987000I147500J0D01*
G01*
X144138500Y-59987000D01*
G75*
G02*
X144286000Y-60134500I0J-147500D01*
G01*
X144286000Y-60429500D01*
G75*
G02*
X144138500Y-60577000I-147500J0D01*
G01*
G37*
G36*
G01*
X144138500Y-61547000D02*
X143793500Y-61547000D01*
G75*
G02*
X143646000Y-61399500I0J147500D01*
G01*
X143646000Y-61104500D01*
G75*
G02*
X143793500Y-60957000I147500J0D01*
G01*
X144138500Y-60957000D01*
G75*
G02*
X144286000Y-61104500I0J-147500D01*
G01*
X144286000Y-61399500D01*
G75*
G02*
X144138500Y-61547000I-147500J0D01*
G01*
G37*
%TD*%
%TO.C,R10*%
G36*
G01*
X143408480Y-103900440D02*
X142933480Y-103900440D01*
G75*
G02*
X142695980Y-103662940I0J237500D01*
G01*
X142695980Y-103087940D01*
G75*
G02*
X142933480Y-102850440I237500J0D01*
G01*
X143408480Y-102850440D01*
G75*
G02*
X143645980Y-103087940I0J-237500D01*
G01*
X143645980Y-103662940D01*
G75*
G02*
X143408480Y-103900440I-237500J0D01*
G01*
G37*
G36*
G01*
X143408480Y-102150440D02*
X142933480Y-102150440D01*
G75*
G02*
X142695980Y-101912940I0J237500D01*
G01*
X142695980Y-101337940D01*
G75*
G02*
X142933480Y-101100440I237500J0D01*
G01*
X143408480Y-101100440D01*
G75*
G02*
X143645980Y-101337940I0J-237500D01*
G01*
X143645980Y-101912940D01*
G75*
G02*
X143408480Y-102150440I-237500J0D01*
G01*
G37*
%TD*%
%TO.C,C6*%
G36*
G01*
X132958900Y-74655200D02*
X133433900Y-74655200D01*
G75*
G02*
X133671400Y-74892700I0J-237500D01*
G01*
X133671400Y-75467700D01*
G75*
G02*
X133433900Y-75705200I-237500J0D01*
G01*
X132958900Y-75705200D01*
G75*
G02*
X132721400Y-75467700I0J237500D01*
G01*
X132721400Y-74892700D01*
G75*
G02*
X132958900Y-74655200I237500J0D01*
G01*
G37*
G36*
G01*
X132958900Y-72905200D02*
X133433900Y-72905200D01*
G75*
G02*
X133671400Y-73142700I0J-237500D01*
G01*
X133671400Y-73717700D01*
G75*
G02*
X133433900Y-73955200I-237500J0D01*
G01*
X132958900Y-73955200D01*
G75*
G02*
X132721400Y-73717700I0J237500D01*
G01*
X132721400Y-73142700D01*
G75*
G02*
X132958900Y-72905200I237500J0D01*
G01*
G37*
%TD*%
%TO.C,C16*%
G36*
G01*
X123870800Y-92191100D02*
X123395800Y-92191100D01*
G75*
G02*
X123158300Y-91953600I0J237500D01*
G01*
X123158300Y-91378600D01*
G75*
G02*
X123395800Y-91141100I237500J0D01*
G01*
X123870800Y-91141100D01*
G75*
G02*
X124108300Y-91378600I0J-237500D01*
G01*
X124108300Y-91953600D01*
G75*
G02*
X123870800Y-92191100I-237500J0D01*
G01*
G37*
G36*
G01*
X123870800Y-93941100D02*
X123395800Y-93941100D01*
G75*
G02*
X123158300Y-93703600I0J237500D01*
G01*
X123158300Y-93128600D01*
G75*
G02*
X123395800Y-92891100I237500J0D01*
G01*
X123870800Y-92891100D01*
G75*
G02*
X124108300Y-93128600I0J-237500D01*
G01*
X124108300Y-93703600D01*
G75*
G02*
X123870800Y-93941100I-237500J0D01*
G01*
G37*
%TD*%
%TO.C,C4*%
G36*
G01*
X138332500Y-115181200D02*
X138677500Y-115181200D01*
G75*
G02*
X138825000Y-115328700I0J-147500D01*
G01*
X138825000Y-115623700D01*
G75*
G02*
X138677500Y-115771200I-147500J0D01*
G01*
X138332500Y-115771200D01*
G75*
G02*
X138185000Y-115623700I0J147500D01*
G01*
X138185000Y-115328700D01*
G75*
G02*
X138332500Y-115181200I147500J0D01*
G01*
G37*
G36*
G01*
X138332500Y-116151200D02*
X138677500Y-116151200D01*
G75*
G02*
X138825000Y-116298700I0J-147500D01*
G01*
X138825000Y-116593700D01*
G75*
G02*
X138677500Y-116741200I-147500J0D01*
G01*
X138332500Y-116741200D01*
G75*
G02*
X138185000Y-116593700I0J147500D01*
G01*
X138185000Y-116298700D01*
G75*
G02*
X138332500Y-116151200I147500J0D01*
G01*
G37*
%TD*%
%TO.C,C12*%
G36*
G01*
X139706780Y-103070920D02*
X139706780Y-103415920D01*
G75*
G02*
X139559280Y-103563420I-147500J0D01*
G01*
X139264280Y-103563420D01*
G75*
G02*
X139116780Y-103415920I0J147500D01*
G01*
X139116780Y-103070920D01*
G75*
G02*
X139264280Y-102923420I147500J0D01*
G01*
X139559280Y-102923420D01*
G75*
G02*
X139706780Y-103070920I0J-147500D01*
G01*
G37*
G36*
G01*
X140676780Y-103070920D02*
X140676780Y-103415920D01*
G75*
G02*
X140529280Y-103563420I-147500J0D01*
G01*
X140234280Y-103563420D01*
G75*
G02*
X140086780Y-103415920I0J147500D01*
G01*
X140086780Y-103070920D01*
G75*
G02*
X140234280Y-102923420I147500J0D01*
G01*
X140529280Y-102923420D01*
G75*
G02*
X140676780Y-103070920I0J-147500D01*
G01*
G37*
%TD*%
%TO.C,C11*%
G36*
G01*
X134990000Y-67960500D02*
X134990000Y-68305500D01*
G75*
G02*
X134842500Y-68453000I-147500J0D01*
G01*
X134547500Y-68453000D01*
G75*
G02*
X134400000Y-68305500I0J147500D01*
G01*
X134400000Y-67960500D01*
G75*
G02*
X134547500Y-67813000I147500J0D01*
G01*
X134842500Y-67813000D01*
G75*
G02*
X134990000Y-67960500I0J-147500D01*
G01*
G37*
G36*
G01*
X134020000Y-67960500D02*
X134020000Y-68305500D01*
G75*
G02*
X133872500Y-68453000I-147500J0D01*
G01*
X133577500Y-68453000D01*
G75*
G02*
X133430000Y-68305500I0J147500D01*
G01*
X133430000Y-67960500D01*
G75*
G02*
X133577500Y-67813000I147500J0D01*
G01*
X133872500Y-67813000D01*
G75*
G02*
X134020000Y-67960500I0J-147500D01*
G01*
G37*
%TD*%
%TO.C,C13*%
G36*
G01*
X141258000Y-67416500D02*
X141258000Y-67071500D01*
G75*
G02*
X141405500Y-66924000I147500J0D01*
G01*
X141700500Y-66924000D01*
G75*
G02*
X141848000Y-67071500I0J-147500D01*
G01*
X141848000Y-67416500D01*
G75*
G02*
X141700500Y-67564000I-147500J0D01*
G01*
X141405500Y-67564000D01*
G75*
G02*
X141258000Y-67416500I0J147500D01*
G01*
G37*
G36*
G01*
X142228000Y-67416500D02*
X142228000Y-67071500D01*
G75*
G02*
X142375500Y-66924000I147500J0D01*
G01*
X142670500Y-66924000D01*
G75*
G02*
X142818000Y-67071500I0J-147500D01*
G01*
X142818000Y-67416500D01*
G75*
G02*
X142670500Y-67564000I-147500J0D01*
G01*
X142375500Y-67564000D01*
G75*
G02*
X142228000Y-67416500I0J147500D01*
G01*
G37*
%TD*%
%TO.C,C15*%
G36*
G01*
X137824060Y-99540460D02*
X137479060Y-99540460D01*
G75*
G02*
X137331560Y-99392960I0J147500D01*
G01*
X137331560Y-99097960D01*
G75*
G02*
X137479060Y-98950460I147500J0D01*
G01*
X137824060Y-98950460D01*
G75*
G02*
X137971560Y-99097960I0J-147500D01*
G01*
X137971560Y-99392960D01*
G75*
G02*
X137824060Y-99540460I-147500J0D01*
G01*
G37*
G36*
G01*
X137824060Y-98570460D02*
X137479060Y-98570460D01*
G75*
G02*
X137331560Y-98422960I0J147500D01*
G01*
X137331560Y-98127960D01*
G75*
G02*
X137479060Y-97980460I147500J0D01*
G01*
X137824060Y-97980460D01*
G75*
G02*
X137971560Y-98127960I0J-147500D01*
G01*
X137971560Y-98422960D01*
G75*
G02*
X137824060Y-98570460I-147500J0D01*
G01*
G37*
%TD*%
%TO.C,C2*%
G36*
G01*
X128679000Y-72843000D02*
X129154000Y-72843000D01*
G75*
G02*
X129391500Y-73080500I0J-237500D01*
G01*
X129391500Y-73655500D01*
G75*
G02*
X129154000Y-73893000I-237500J0D01*
G01*
X128679000Y-73893000D01*
G75*
G02*
X128441500Y-73655500I0J237500D01*
G01*
X128441500Y-73080500D01*
G75*
G02*
X128679000Y-72843000I237500J0D01*
G01*
G37*
G36*
G01*
X128679000Y-74593000D02*
X129154000Y-74593000D01*
G75*
G02*
X129391500Y-74830500I0J-237500D01*
G01*
X129391500Y-75405500D01*
G75*
G02*
X129154000Y-75643000I-237500J0D01*
G01*
X128679000Y-75643000D01*
G75*
G02*
X128441500Y-75405500I0J237500D01*
G01*
X128441500Y-74830500D01*
G75*
G02*
X128679000Y-74593000I237500J0D01*
G01*
G37*
%TD*%
%TO.C,C9*%
G36*
G01*
X125377000Y-72829000D02*
X125852000Y-72829000D01*
G75*
G02*
X126089500Y-73066500I0J-237500D01*
G01*
X126089500Y-73641500D01*
G75*
G02*
X125852000Y-73879000I-237500J0D01*
G01*
X125377000Y-73879000D01*
G75*
G02*
X125139500Y-73641500I0J237500D01*
G01*
X125139500Y-73066500D01*
G75*
G02*
X125377000Y-72829000I237500J0D01*
G01*
G37*
G36*
G01*
X125377000Y-74579000D02*
X125852000Y-74579000D01*
G75*
G02*
X126089500Y-74816500I0J-237500D01*
G01*
X126089500Y-75391500D01*
G75*
G02*
X125852000Y-75629000I-237500J0D01*
G01*
X125377000Y-75629000D01*
G75*
G02*
X125139500Y-75391500I0J237500D01*
G01*
X125139500Y-74816500D01*
G75*
G02*
X125377000Y-74579000I237500J0D01*
G01*
G37*
%TD*%
%TO.C,C1*%
G36*
G01*
X116107500Y-57297000D02*
X116452500Y-57297000D01*
G75*
G02*
X116600000Y-57444500I0J-147500D01*
G01*
X116600000Y-57739500D01*
G75*
G02*
X116452500Y-57887000I-147500J0D01*
G01*
X116107500Y-57887000D01*
G75*
G02*
X115960000Y-57739500I0J147500D01*
G01*
X115960000Y-57444500D01*
G75*
G02*
X116107500Y-57297000I147500J0D01*
G01*
G37*
G36*
G01*
X116107500Y-56327000D02*
X116452500Y-56327000D01*
G75*
G02*
X116600000Y-56474500I0J-147500D01*
G01*
X116600000Y-56769500D01*
G75*
G02*
X116452500Y-56917000I-147500J0D01*
G01*
X116107500Y-56917000D01*
G75*
G02*
X115960000Y-56769500I0J147500D01*
G01*
X115960000Y-56474500D01*
G75*
G02*
X116107500Y-56327000I147500J0D01*
G01*
G37*
%TD*%
%TO.C,U4*%
G36*
G01*
X114415500Y-80637500D02*
X114715500Y-80637500D01*
G75*
G02*
X114865500Y-80787500I0J-150000D01*
G01*
X114865500Y-82437500D01*
G75*
G02*
X114715500Y-82587500I-150000J0D01*
G01*
X114415500Y-82587500D01*
G75*
G02*
X114265500Y-82437500I0J150000D01*
G01*
X114265500Y-80787500D01*
G75*
G02*
X114415500Y-80637500I150000J0D01*
G01*
G37*
G36*
G01*
X113145500Y-80637500D02*
X113445500Y-80637500D01*
G75*
G02*
X113595500Y-80787500I0J-150000D01*
G01*
X113595500Y-82437500D01*
G75*
G02*
X113445500Y-82587500I-150000J0D01*
G01*
X113145500Y-82587500D01*
G75*
G02*
X112995500Y-82437500I0J150000D01*
G01*
X112995500Y-80787500D01*
G75*
G02*
X113145500Y-80637500I150000J0D01*
G01*
G37*
G36*
G01*
X111875500Y-80637500D02*
X112175500Y-80637500D01*
G75*
G02*
X112325500Y-80787500I0J-150000D01*
G01*
X112325500Y-82437500D01*
G75*
G02*
X112175500Y-82587500I-150000J0D01*
G01*
X111875500Y-82587500D01*
G75*
G02*
X111725500Y-82437500I0J150000D01*
G01*
X111725500Y-80787500D01*
G75*
G02*
X111875500Y-80637500I150000J0D01*
G01*
G37*
G36*
G01*
X110605500Y-80637500D02*
X110905500Y-80637500D01*
G75*
G02*
X111055500Y-80787500I0J-150000D01*
G01*
X111055500Y-82437500D01*
G75*
G02*
X110905500Y-82587500I-150000J0D01*
G01*
X110605500Y-82587500D01*
G75*
G02*
X110455500Y-82437500I0J150000D01*
G01*
X110455500Y-80787500D01*
G75*
G02*
X110605500Y-80637500I150000J0D01*
G01*
G37*
G36*
G01*
X110605500Y-85587500D02*
X110905500Y-85587500D01*
G75*
G02*
X111055500Y-85737500I0J-150000D01*
G01*
X111055500Y-87387500D01*
G75*
G02*
X110905500Y-87537500I-150000J0D01*
G01*
X110605500Y-87537500D01*
G75*
G02*
X110455500Y-87387500I0J150000D01*
G01*
X110455500Y-85737500D01*
G75*
G02*
X110605500Y-85587500I150000J0D01*
G01*
G37*
G36*
G01*
X111875500Y-85587500D02*
X112175500Y-85587500D01*
G75*
G02*
X112325500Y-85737500I0J-150000D01*
G01*
X112325500Y-87387500D01*
G75*
G02*
X112175500Y-87537500I-150000J0D01*
G01*
X111875500Y-87537500D01*
G75*
G02*
X111725500Y-87387500I0J150000D01*
G01*
X111725500Y-85737500D01*
G75*
G02*
X111875500Y-85587500I150000J0D01*
G01*
G37*
G36*
G01*
X113145500Y-85587500D02*
X113445500Y-85587500D01*
G75*
G02*
X113595500Y-85737500I0J-150000D01*
G01*
X113595500Y-87387500D01*
G75*
G02*
X113445500Y-87537500I-150000J0D01*
G01*
X113145500Y-87537500D01*
G75*
G02*
X112995500Y-87387500I0J150000D01*
G01*
X112995500Y-85737500D01*
G75*
G02*
X113145500Y-85587500I150000J0D01*
G01*
G37*
G36*
G01*
X114415500Y-85587500D02*
X114715500Y-85587500D01*
G75*
G02*
X114865500Y-85737500I0J-150000D01*
G01*
X114865500Y-87387500D01*
G75*
G02*
X114715500Y-87537500I-150000J0D01*
G01*
X114415500Y-87537500D01*
G75*
G02*
X114265500Y-87387500I0J150000D01*
G01*
X114265500Y-85737500D01*
G75*
G02*
X114415500Y-85587500I150000J0D01*
G01*
G37*
%TD*%
%TO.C,C5*%
G36*
G01*
X130331500Y-75117500D02*
X130676500Y-75117500D01*
G75*
G02*
X130824000Y-75265000I0J-147500D01*
G01*
X130824000Y-75560000D01*
G75*
G02*
X130676500Y-75707500I-147500J0D01*
G01*
X130331500Y-75707500D01*
G75*
G02*
X130184000Y-75560000I0J147500D01*
G01*
X130184000Y-75265000D01*
G75*
G02*
X130331500Y-75117500I147500J0D01*
G01*
G37*
G36*
G01*
X130331500Y-74147500D02*
X130676500Y-74147500D01*
G75*
G02*
X130824000Y-74295000I0J-147500D01*
G01*
X130824000Y-74590000D01*
G75*
G02*
X130676500Y-74737500I-147500J0D01*
G01*
X130331500Y-74737500D01*
G75*
G02*
X130184000Y-74590000I0J147500D01*
G01*
X130184000Y-74295000D01*
G75*
G02*
X130331500Y-74147500I147500J0D01*
G01*
G37*
%TD*%
D11*
%TO.C,Y1*%
X122122000Y-114932500D03*
X110247000Y-114932500D03*
%TD*%
%TO.C,C3*%
G36*
G01*
X134547900Y-75104800D02*
X134892900Y-75104800D01*
G75*
G02*
X135040400Y-75252300I0J-147500D01*
G01*
X135040400Y-75547300D01*
G75*
G02*
X134892900Y-75694800I-147500J0D01*
G01*
X134547900Y-75694800D01*
G75*
G02*
X134400400Y-75547300I0J147500D01*
G01*
X134400400Y-75252300D01*
G75*
G02*
X134547900Y-75104800I147500J0D01*
G01*
G37*
G36*
G01*
X134547900Y-74134800D02*
X134892900Y-74134800D01*
G75*
G02*
X135040400Y-74282300I0J-147500D01*
G01*
X135040400Y-74577300D01*
G75*
G02*
X134892900Y-74724800I-147500J0D01*
G01*
X134547900Y-74724800D01*
G75*
G02*
X134400400Y-74577300I0J147500D01*
G01*
X134400400Y-74282300D01*
G75*
G02*
X134547900Y-74134800I147500J0D01*
G01*
G37*
%TD*%
%TO.C,C14*%
G36*
G01*
X125520300Y-92994600D02*
X125175300Y-92994600D01*
G75*
G02*
X125027800Y-92847100I0J147500D01*
G01*
X125027800Y-92552100D01*
G75*
G02*
X125175300Y-92404600I147500J0D01*
G01*
X125520300Y-92404600D01*
G75*
G02*
X125667800Y-92552100I0J-147500D01*
G01*
X125667800Y-92847100D01*
G75*
G02*
X125520300Y-92994600I-147500J0D01*
G01*
G37*
G36*
G01*
X125520300Y-92024600D02*
X125175300Y-92024600D01*
G75*
G02*
X125027800Y-91877100I0J147500D01*
G01*
X125027800Y-91582100D01*
G75*
G02*
X125175300Y-91434600I147500J0D01*
G01*
X125520300Y-91434600D01*
G75*
G02*
X125667800Y-91582100I0J-147500D01*
G01*
X125667800Y-91877100D01*
G75*
G02*
X125520300Y-92024600I-147500J0D01*
G01*
G37*
%TD*%
%TO.C,C17*%
G36*
G01*
X111010000Y-65547500D02*
X111010000Y-65892500D01*
G75*
G02*
X110862500Y-66040000I-147500J0D01*
G01*
X110567500Y-66040000D01*
G75*
G02*
X110420000Y-65892500I0J147500D01*
G01*
X110420000Y-65547500D01*
G75*
G02*
X110567500Y-65400000I147500J0D01*
G01*
X110862500Y-65400000D01*
G75*
G02*
X111010000Y-65547500I0J-147500D01*
G01*
G37*
G36*
G01*
X111980000Y-65547500D02*
X111980000Y-65892500D01*
G75*
G02*
X111832500Y-66040000I-147500J0D01*
G01*
X111537500Y-66040000D01*
G75*
G02*
X111390000Y-65892500I0J147500D01*
G01*
X111390000Y-65547500D01*
G75*
G02*
X111537500Y-65400000I147500J0D01*
G01*
X111832500Y-65400000D01*
G75*
G02*
X111980000Y-65547500I0J-147500D01*
G01*
G37*
%TD*%
%TO.C,C10*%
G36*
G01*
X127093000Y-75140500D02*
X127438000Y-75140500D01*
G75*
G02*
X127585500Y-75288000I0J-147500D01*
G01*
X127585500Y-75583000D01*
G75*
G02*
X127438000Y-75730500I-147500J0D01*
G01*
X127093000Y-75730500D01*
G75*
G02*
X126945500Y-75583000I0J147500D01*
G01*
X126945500Y-75288000D01*
G75*
G02*
X127093000Y-75140500I147500J0D01*
G01*
G37*
G36*
G01*
X127093000Y-74170500D02*
X127438000Y-74170500D01*
G75*
G02*
X127585500Y-74318000I0J-147500D01*
G01*
X127585500Y-74613000D01*
G75*
G02*
X127438000Y-74760500I-147500J0D01*
G01*
X127093000Y-74760500D01*
G75*
G02*
X126945500Y-74613000I0J147500D01*
G01*
X126945500Y-74318000D01*
G75*
G02*
X127093000Y-74170500I147500J0D01*
G01*
G37*
%TD*%
%TO.C,C8*%
G36*
G01*
X142357660Y-110145880D02*
X142357660Y-109670880D01*
G75*
G02*
X142595160Y-109433380I237500J0D01*
G01*
X143170160Y-109433380D01*
G75*
G02*
X143407660Y-109670880I0J-237500D01*
G01*
X143407660Y-110145880D01*
G75*
G02*
X143170160Y-110383380I-237500J0D01*
G01*
X142595160Y-110383380D01*
G75*
G02*
X142357660Y-110145880I0J237500D01*
G01*
G37*
G36*
G01*
X140607660Y-110145880D02*
X140607660Y-109670880D01*
G75*
G02*
X140845160Y-109433380I237500J0D01*
G01*
X141420160Y-109433380D01*
G75*
G02*
X141657660Y-109670880I0J-237500D01*
G01*
X141657660Y-110145880D01*
G75*
G02*
X141420160Y-110383380I-237500J0D01*
G01*
X140845160Y-110383380D01*
G75*
G02*
X140607660Y-110145880I0J237500D01*
G01*
G37*
%TD*%
%TO.C,C7*%
G36*
G01*
X146079500Y-57574000D02*
X146424500Y-57574000D01*
G75*
G02*
X146572000Y-57721500I0J-147500D01*
G01*
X146572000Y-58016500D01*
G75*
G02*
X146424500Y-58164000I-147500J0D01*
G01*
X146079500Y-58164000D01*
G75*
G02*
X145932000Y-58016500I0J147500D01*
G01*
X145932000Y-57721500D01*
G75*
G02*
X146079500Y-57574000I147500J0D01*
G01*
G37*
G36*
G01*
X146079500Y-58544000D02*
X146424500Y-58544000D01*
G75*
G02*
X146572000Y-58691500I0J-147500D01*
G01*
X146572000Y-58986500D01*
G75*
G02*
X146424500Y-59134000I-147500J0D01*
G01*
X146079500Y-59134000D01*
G75*
G02*
X145932000Y-58986500I0J147500D01*
G01*
X145932000Y-58691500D01*
G75*
G02*
X146079500Y-58544000I147500J0D01*
G01*
G37*
%TD*%
D12*
%TO.C,U1*%
X147225220Y-114780100D03*
D13*
X140925220Y-114780100D03*
X140925220Y-117080100D03*
X140925220Y-112480100D03*
%TD*%
%TO.C,R25*%
G36*
G01*
X127069700Y-104290400D02*
X126724700Y-104290400D01*
G75*
G02*
X126577200Y-104142900I0J147500D01*
G01*
X126577200Y-103847900D01*
G75*
G02*
X126724700Y-103700400I147500J0D01*
G01*
X127069700Y-103700400D01*
G75*
G02*
X127217200Y-103847900I0J-147500D01*
G01*
X127217200Y-104142900D01*
G75*
G02*
X127069700Y-104290400I-147500J0D01*
G01*
G37*
G36*
G01*
X127069700Y-105260400D02*
X126724700Y-105260400D01*
G75*
G02*
X126577200Y-105112900I0J147500D01*
G01*
X126577200Y-104817900D01*
G75*
G02*
X126724700Y-104670400I147500J0D01*
G01*
X127069700Y-104670400D01*
G75*
G02*
X127217200Y-104817900I0J-147500D01*
G01*
X127217200Y-105112900D01*
G75*
G02*
X127069700Y-105260400I-147500J0D01*
G01*
G37*
%TD*%
%TO.C,R24*%
G36*
G01*
X124428100Y-104323000D02*
X124083100Y-104323000D01*
G75*
G02*
X123935600Y-104175500I0J147500D01*
G01*
X123935600Y-103880500D01*
G75*
G02*
X124083100Y-103733000I147500J0D01*
G01*
X124428100Y-103733000D01*
G75*
G02*
X124575600Y-103880500I0J-147500D01*
G01*
X124575600Y-104175500D01*
G75*
G02*
X124428100Y-104323000I-147500J0D01*
G01*
G37*
G36*
G01*
X124428100Y-103353000D02*
X124083100Y-103353000D01*
G75*
G02*
X123935600Y-103205500I0J147500D01*
G01*
X123935600Y-102910500D01*
G75*
G02*
X124083100Y-102763000I147500J0D01*
G01*
X124428100Y-102763000D01*
G75*
G02*
X124575600Y-102910500I0J-147500D01*
G01*
X124575600Y-103205500D01*
G75*
G02*
X124428100Y-103353000I-147500J0D01*
G01*
G37*
%TD*%
%TO.C,R23*%
G36*
G01*
X112020000Y-88572500D02*
X112020000Y-88227500D01*
G75*
G02*
X112167500Y-88080000I147500J0D01*
G01*
X112462500Y-88080000D01*
G75*
G02*
X112610000Y-88227500I0J-147500D01*
G01*
X112610000Y-88572500D01*
G75*
G02*
X112462500Y-88720000I-147500J0D01*
G01*
X112167500Y-88720000D01*
G75*
G02*
X112020000Y-88572500I0J147500D01*
G01*
G37*
G36*
G01*
X112990000Y-88572500D02*
X112990000Y-88227500D01*
G75*
G02*
X113137500Y-88080000I147500J0D01*
G01*
X113432500Y-88080000D01*
G75*
G02*
X113580000Y-88227500I0J-147500D01*
G01*
X113580000Y-88572500D01*
G75*
G02*
X113432500Y-88720000I-147500J0D01*
G01*
X113137500Y-88720000D01*
G75*
G02*
X112990000Y-88572500I0J147500D01*
G01*
G37*
%TD*%
%TO.C,R22*%
G36*
G01*
X115979000Y-108692500D02*
X116454000Y-108692500D01*
G75*
G02*
X116691500Y-108930000I0J-237500D01*
G01*
X116691500Y-109505000D01*
G75*
G02*
X116454000Y-109742500I-237500J0D01*
G01*
X115979000Y-109742500D01*
G75*
G02*
X115741500Y-109505000I0J237500D01*
G01*
X115741500Y-108930000D01*
G75*
G02*
X115979000Y-108692500I237500J0D01*
G01*
G37*
G36*
G01*
X115979000Y-110442500D02*
X116454000Y-110442500D01*
G75*
G02*
X116691500Y-110680000I0J-237500D01*
G01*
X116691500Y-111255000D01*
G75*
G02*
X116454000Y-111492500I-237500J0D01*
G01*
X115979000Y-111492500D01*
G75*
G02*
X115741500Y-111255000I0J237500D01*
G01*
X115741500Y-110680000D01*
G75*
G02*
X115979000Y-110442500I237500J0D01*
G01*
G37*
%TD*%
%TO.C,R18*%
G36*
G01*
X108452500Y-104946500D02*
X108452500Y-104471500D01*
G75*
G02*
X108690000Y-104234000I237500J0D01*
G01*
X109265000Y-104234000D01*
G75*
G02*
X109502500Y-104471500I0J-237500D01*
G01*
X109502500Y-104946500D01*
G75*
G02*
X109265000Y-105184000I-237500J0D01*
G01*
X108690000Y-105184000D01*
G75*
G02*
X108452500Y-104946500I0J237500D01*
G01*
G37*
G36*
G01*
X106702500Y-104946500D02*
X106702500Y-104471500D01*
G75*
G02*
X106940000Y-104234000I237500J0D01*
G01*
X107515000Y-104234000D01*
G75*
G02*
X107752500Y-104471500I0J-237500D01*
G01*
X107752500Y-104946500D01*
G75*
G02*
X107515000Y-105184000I-237500J0D01*
G01*
X106940000Y-105184000D01*
G75*
G02*
X106702500Y-104946500I0J237500D01*
G01*
G37*
%TD*%
%TO.C,R17*%
G36*
G01*
X113317100Y-108905600D02*
X112842100Y-108905600D01*
G75*
G02*
X112604600Y-108668100I0J237500D01*
G01*
X112604600Y-108093100D01*
G75*
G02*
X112842100Y-107855600I237500J0D01*
G01*
X113317100Y-107855600D01*
G75*
G02*
X113554600Y-108093100I0J-237500D01*
G01*
X113554600Y-108668100D01*
G75*
G02*
X113317100Y-108905600I-237500J0D01*
G01*
G37*
G36*
G01*
X113317100Y-110655600D02*
X112842100Y-110655600D01*
G75*
G02*
X112604600Y-110418100I0J237500D01*
G01*
X112604600Y-109843100D01*
G75*
G02*
X112842100Y-109605600I237500J0D01*
G01*
X113317100Y-109605600D01*
G75*
G02*
X113554600Y-109843100I0J-237500D01*
G01*
X113554600Y-110418100D01*
G75*
G02*
X113317100Y-110655600I-237500J0D01*
G01*
G37*
%TD*%
%TO.C,R16*%
G36*
G01*
X110525000Y-69103500D02*
X110525000Y-69448500D01*
G75*
G02*
X110377500Y-69596000I-147500J0D01*
G01*
X110082500Y-69596000D01*
G75*
G02*
X109935000Y-69448500I0J147500D01*
G01*
X109935000Y-69103500D01*
G75*
G02*
X110082500Y-68956000I147500J0D01*
G01*
X110377500Y-68956000D01*
G75*
G02*
X110525000Y-69103500I0J-147500D01*
G01*
G37*
G36*
G01*
X111495000Y-69103500D02*
X111495000Y-69448500D01*
G75*
G02*
X111347500Y-69596000I-147500J0D01*
G01*
X111052500Y-69596000D01*
G75*
G02*
X110905000Y-69448500I0J147500D01*
G01*
X110905000Y-69103500D01*
G75*
G02*
X111052500Y-68956000I147500J0D01*
G01*
X111347500Y-68956000D01*
G75*
G02*
X111495000Y-69103500I0J-147500D01*
G01*
G37*
%TD*%
%TO.C,R15*%
G36*
G01*
X108909000Y-65547500D02*
X108909000Y-65892500D01*
G75*
G02*
X108761500Y-66040000I-147500J0D01*
G01*
X108466500Y-66040000D01*
G75*
G02*
X108319000Y-65892500I0J147500D01*
G01*
X108319000Y-65547500D01*
G75*
G02*
X108466500Y-65400000I147500J0D01*
G01*
X108761500Y-65400000D01*
G75*
G02*
X108909000Y-65547500I0J-147500D01*
G01*
G37*
G36*
G01*
X107939000Y-65547500D02*
X107939000Y-65892500D01*
G75*
G02*
X107791500Y-66040000I-147500J0D01*
G01*
X107496500Y-66040000D01*
G75*
G02*
X107349000Y-65892500I0J147500D01*
G01*
X107349000Y-65547500D01*
G75*
G02*
X107496500Y-65400000I147500J0D01*
G01*
X107791500Y-65400000D01*
G75*
G02*
X107939000Y-65547500I0J-147500D01*
G01*
G37*
%TD*%
%TO.C,R14*%
G36*
G01*
X141929280Y-96060520D02*
X141929280Y-96405520D01*
G75*
G02*
X141781780Y-96553020I-147500J0D01*
G01*
X141486780Y-96553020D01*
G75*
G02*
X141339280Y-96405520I0J147500D01*
G01*
X141339280Y-96060520D01*
G75*
G02*
X141486780Y-95913020I147500J0D01*
G01*
X141781780Y-95913020D01*
G75*
G02*
X141929280Y-96060520I0J-147500D01*
G01*
G37*
G36*
G01*
X142899280Y-96060520D02*
X142899280Y-96405520D01*
G75*
G02*
X142751780Y-96553020I-147500J0D01*
G01*
X142456780Y-96553020D01*
G75*
G02*
X142309280Y-96405520I0J147500D01*
G01*
X142309280Y-96060520D01*
G75*
G02*
X142456780Y-95913020I147500J0D01*
G01*
X142751780Y-95913020D01*
G75*
G02*
X142899280Y-96060520I0J-147500D01*
G01*
G37*
%TD*%
%TO.C,R13*%
G36*
G01*
X140692300Y-96060520D02*
X140692300Y-96405520D01*
G75*
G02*
X140544800Y-96553020I-147500J0D01*
G01*
X140249800Y-96553020D01*
G75*
G02*
X140102300Y-96405520I0J147500D01*
G01*
X140102300Y-96060520D01*
G75*
G02*
X140249800Y-95913020I147500J0D01*
G01*
X140544800Y-95913020D01*
G75*
G02*
X140692300Y-96060520I0J-147500D01*
G01*
G37*
G36*
G01*
X139722300Y-96060520D02*
X139722300Y-96405520D01*
G75*
G02*
X139574800Y-96553020I-147500J0D01*
G01*
X139279800Y-96553020D01*
G75*
G02*
X139132300Y-96405520I0J147500D01*
G01*
X139132300Y-96060520D01*
G75*
G02*
X139279800Y-95913020I147500J0D01*
G01*
X139574800Y-95913020D01*
G75*
G02*
X139722300Y-96060520I0J-147500D01*
G01*
G37*
%TD*%
%TO.C,R12*%
G36*
G01*
X137480100Y-89466000D02*
X137955100Y-89466000D01*
G75*
G02*
X138192600Y-89703500I0J-237500D01*
G01*
X138192600Y-90278500D01*
G75*
G02*
X137955100Y-90516000I-237500J0D01*
G01*
X137480100Y-90516000D01*
G75*
G02*
X137242600Y-90278500I0J237500D01*
G01*
X137242600Y-89703500D01*
G75*
G02*
X137480100Y-89466000I237500J0D01*
G01*
G37*
G36*
G01*
X137480100Y-91216000D02*
X137955100Y-91216000D01*
G75*
G02*
X138192600Y-91453500I0J-237500D01*
G01*
X138192600Y-92028500D01*
G75*
G02*
X137955100Y-92266000I-237500J0D01*
G01*
X137480100Y-92266000D01*
G75*
G02*
X137242600Y-92028500I0J237500D01*
G01*
X137242600Y-91453500D01*
G75*
G02*
X137480100Y-91216000I237500J0D01*
G01*
G37*
%TD*%
%TO.C,R1*%
G36*
G01*
X126104500Y-52068000D02*
X125759500Y-52068000D01*
G75*
G02*
X125612000Y-51920500I0J147500D01*
G01*
X125612000Y-51625500D01*
G75*
G02*
X125759500Y-51478000I147500J0D01*
G01*
X126104500Y-51478000D01*
G75*
G02*
X126252000Y-51625500I0J-147500D01*
G01*
X126252000Y-51920500D01*
G75*
G02*
X126104500Y-52068000I-147500J0D01*
G01*
G37*
G36*
G01*
X126104500Y-53038000D02*
X125759500Y-53038000D01*
G75*
G02*
X125612000Y-52890500I0J147500D01*
G01*
X125612000Y-52595500D01*
G75*
G02*
X125759500Y-52448000I147500J0D01*
G01*
X126104500Y-52448000D01*
G75*
G02*
X126252000Y-52595500I0J-147500D01*
G01*
X126252000Y-52890500D01*
G75*
G02*
X126104500Y-53038000I-147500J0D01*
G01*
G37*
%TD*%
D14*
%TO.C,Q1*%
X112128880Y-74329760D03*
X110128880Y-75279760D03*
X110128880Y-73379760D03*
%TD*%
%TO.C,FB1*%
G36*
G01*
X124007200Y-107844620D02*
X124007200Y-108319620D01*
G75*
G02*
X123769700Y-108557120I-237500J0D01*
G01*
X123194700Y-108557120D01*
G75*
G02*
X122957200Y-108319620I0J237500D01*
G01*
X122957200Y-107844620D01*
G75*
G02*
X123194700Y-107607120I237500J0D01*
G01*
X123769700Y-107607120D01*
G75*
G02*
X124007200Y-107844620I0J-237500D01*
G01*
G37*
G36*
G01*
X125757200Y-107844620D02*
X125757200Y-108319620D01*
G75*
G02*
X125519700Y-108557120I-237500J0D01*
G01*
X124944700Y-108557120D01*
G75*
G02*
X124707200Y-108319620I0J237500D01*
G01*
X124707200Y-107844620D01*
G75*
G02*
X124944700Y-107607120I237500J0D01*
G01*
X125519700Y-107607120D01*
G75*
G02*
X125757200Y-107844620I0J-237500D01*
G01*
G37*
%TD*%
%TO.C,D7*%
G36*
G01*
X107738500Y-102693500D02*
X107738500Y-103168500D01*
G75*
G02*
X107501000Y-103406000I-237500J0D01*
G01*
X106926000Y-103406000D01*
G75*
G02*
X106688500Y-103168500I0J237500D01*
G01*
X106688500Y-102693500D01*
G75*
G02*
X106926000Y-102456000I237500J0D01*
G01*
X107501000Y-102456000D01*
G75*
G02*
X107738500Y-102693500I0J-237500D01*
G01*
G37*
G36*
G01*
X109488500Y-102693500D02*
X109488500Y-103168500D01*
G75*
G02*
X109251000Y-103406000I-237500J0D01*
G01*
X108676000Y-103406000D01*
G75*
G02*
X108438500Y-103168500I0J237500D01*
G01*
X108438500Y-102693500D01*
G75*
G02*
X108676000Y-102456000I237500J0D01*
G01*
X109251000Y-102456000D01*
G75*
G02*
X109488500Y-102693500I0J-237500D01*
G01*
G37*
%TD*%
%TO.C,D6*%
G36*
G01*
X110962500Y-107895000D02*
X111437500Y-107895000D01*
G75*
G02*
X111675000Y-108132500I0J-237500D01*
G01*
X111675000Y-108707500D01*
G75*
G02*
X111437500Y-108945000I-237500J0D01*
G01*
X110962500Y-108945000D01*
G75*
G02*
X110725000Y-108707500I0J237500D01*
G01*
X110725000Y-108132500D01*
G75*
G02*
X110962500Y-107895000I237500J0D01*
G01*
G37*
G36*
G01*
X110962500Y-109645000D02*
X111437500Y-109645000D01*
G75*
G02*
X111675000Y-109882500I0J-237500D01*
G01*
X111675000Y-110457500D01*
G75*
G02*
X111437500Y-110695000I-237500J0D01*
G01*
X110962500Y-110695000D01*
G75*
G02*
X110725000Y-110457500I0J237500D01*
G01*
X110725000Y-109882500D01*
G75*
G02*
X110962500Y-109645000I237500J0D01*
G01*
G37*
%TD*%
%TO.C,D5*%
G36*
G01*
X109213000Y-67260500D02*
X109213000Y-67735500D01*
G75*
G02*
X108975500Y-67973000I-237500J0D01*
G01*
X108400500Y-67973000D01*
G75*
G02*
X108163000Y-67735500I0J237500D01*
G01*
X108163000Y-67260500D01*
G75*
G02*
X108400500Y-67023000I237500J0D01*
G01*
X108975500Y-67023000D01*
G75*
G02*
X109213000Y-67260500I0J-237500D01*
G01*
G37*
G36*
G01*
X110963000Y-67260500D02*
X110963000Y-67735500D01*
G75*
G02*
X110725500Y-67973000I-237500J0D01*
G01*
X110150500Y-67973000D01*
G75*
G02*
X109913000Y-67735500I0J237500D01*
G01*
X109913000Y-67260500D01*
G75*
G02*
X110150500Y-67023000I237500J0D01*
G01*
X110725500Y-67023000D01*
G75*
G02*
X110963000Y-67260500I0J-237500D01*
G01*
G37*
%TD*%
%TO.C,D4*%
G36*
G01*
X142106000Y-63958500D02*
X142106000Y-64433500D01*
G75*
G02*
X141868500Y-64671000I-237500J0D01*
G01*
X141293500Y-64671000D01*
G75*
G02*
X141056000Y-64433500I0J237500D01*
G01*
X141056000Y-63958500D01*
G75*
G02*
X141293500Y-63721000I237500J0D01*
G01*
X141868500Y-63721000D01*
G75*
G02*
X142106000Y-63958500I0J-237500D01*
G01*
G37*
G36*
G01*
X143856000Y-63958500D02*
X143856000Y-64433500D01*
G75*
G02*
X143618500Y-64671000I-237500J0D01*
G01*
X143043500Y-64671000D01*
G75*
G02*
X142806000Y-64433500I0J237500D01*
G01*
X142806000Y-63958500D01*
G75*
G02*
X143043500Y-63721000I237500J0D01*
G01*
X143618500Y-63721000D01*
G75*
G02*
X143856000Y-63958500I0J-237500D01*
G01*
G37*
%TD*%
%TO.C,D3*%
G36*
G01*
X130521000Y-54306500D02*
X130521000Y-54781500D01*
G75*
G02*
X130283500Y-55019000I-237500J0D01*
G01*
X129708500Y-55019000D01*
G75*
G02*
X129471000Y-54781500I0J237500D01*
G01*
X129471000Y-54306500D01*
G75*
G02*
X129708500Y-54069000I237500J0D01*
G01*
X130283500Y-54069000D01*
G75*
G02*
X130521000Y-54306500I0J-237500D01*
G01*
G37*
G36*
G01*
X128771000Y-54306500D02*
X128771000Y-54781500D01*
G75*
G02*
X128533500Y-55019000I-237500J0D01*
G01*
X127958500Y-55019000D01*
G75*
G02*
X127721000Y-54781500I0J237500D01*
G01*
X127721000Y-54306500D01*
G75*
G02*
X127958500Y-54069000I237500J0D01*
G01*
X128533500Y-54069000D01*
G75*
G02*
X128771000Y-54306500I0J-237500D01*
G01*
G37*
%TD*%
%TO.C,D2*%
G36*
G01*
X142171500Y-59655000D02*
X141696500Y-59655000D01*
G75*
G02*
X141459000Y-59417500I0J237500D01*
G01*
X141459000Y-58842500D01*
G75*
G02*
X141696500Y-58605000I237500J0D01*
G01*
X142171500Y-58605000D01*
G75*
G02*
X142409000Y-58842500I0J-237500D01*
G01*
X142409000Y-59417500D01*
G75*
G02*
X142171500Y-59655000I-237500J0D01*
G01*
G37*
G36*
G01*
X142171500Y-61405000D02*
X141696500Y-61405000D01*
G75*
G02*
X141459000Y-61167500I0J237500D01*
G01*
X141459000Y-60592500D01*
G75*
G02*
X141696500Y-60355000I237500J0D01*
G01*
X142171500Y-60355000D01*
G75*
G02*
X142409000Y-60592500I0J-237500D01*
G01*
X142409000Y-61167500D01*
G75*
G02*
X142171500Y-61405000I-237500J0D01*
G01*
G37*
%TD*%
%TO.C,D1*%
G36*
G01*
X123657000Y-54781500D02*
X123657000Y-54306500D01*
G75*
G02*
X123894500Y-54069000I237500J0D01*
G01*
X124469500Y-54069000D01*
G75*
G02*
X124707000Y-54306500I0J-237500D01*
G01*
X124707000Y-54781500D01*
G75*
G02*
X124469500Y-55019000I-237500J0D01*
G01*
X123894500Y-55019000D01*
G75*
G02*
X123657000Y-54781500I0J237500D01*
G01*
G37*
G36*
G01*
X125407000Y-54781500D02*
X125407000Y-54306500D01*
G75*
G02*
X125644500Y-54069000I237500J0D01*
G01*
X126219500Y-54069000D01*
G75*
G02*
X126457000Y-54306500I0J-237500D01*
G01*
X126457000Y-54781500D01*
G75*
G02*
X126219500Y-55019000I-237500J0D01*
G01*
X125644500Y-55019000D01*
G75*
G02*
X125407000Y-54781500I0J237500D01*
G01*
G37*
%TD*%
%TO.C,C31*%
G36*
G01*
X121001080Y-107961460D02*
X121001080Y-108436460D01*
G75*
G02*
X120763580Y-108673960I-237500J0D01*
G01*
X120188580Y-108673960D01*
G75*
G02*
X119951080Y-108436460I0J237500D01*
G01*
X119951080Y-107961460D01*
G75*
G02*
X120188580Y-107723960I237500J0D01*
G01*
X120763580Y-107723960D01*
G75*
G02*
X121001080Y-107961460I0J-237500D01*
G01*
G37*
G36*
G01*
X119251080Y-107961460D02*
X119251080Y-108436460D01*
G75*
G02*
X119013580Y-108673960I-237500J0D01*
G01*
X118438580Y-108673960D01*
G75*
G02*
X118201080Y-108436460I0J237500D01*
G01*
X118201080Y-107961460D01*
G75*
G02*
X118438580Y-107723960I237500J0D01*
G01*
X119013580Y-107723960D01*
G75*
G02*
X119251080Y-107961460I0J-237500D01*
G01*
G37*
%TD*%
%TO.C,C30*%
G36*
G01*
X119419800Y-106350060D02*
X119419800Y-106695060D01*
G75*
G02*
X119272300Y-106842560I-147500J0D01*
G01*
X118977300Y-106842560D01*
G75*
G02*
X118829800Y-106695060I0J147500D01*
G01*
X118829800Y-106350060D01*
G75*
G02*
X118977300Y-106202560I147500J0D01*
G01*
X119272300Y-106202560D01*
G75*
G02*
X119419800Y-106350060I0J-147500D01*
G01*
G37*
G36*
G01*
X118449800Y-106350060D02*
X118449800Y-106695060D01*
G75*
G02*
X118302300Y-106842560I-147500J0D01*
G01*
X118007300Y-106842560D01*
G75*
G02*
X117859800Y-106695060I0J147500D01*
G01*
X117859800Y-106350060D01*
G75*
G02*
X118007300Y-106202560I147500J0D01*
G01*
X118302300Y-106202560D01*
G75*
G02*
X118449800Y-106350060I0J-147500D01*
G01*
G37*
%TD*%
%TO.C,C29*%
G36*
G01*
X122711500Y-96713000D02*
X123056500Y-96713000D01*
G75*
G02*
X123204000Y-96860500I0J-147500D01*
G01*
X123204000Y-97155500D01*
G75*
G02*
X123056500Y-97303000I-147500J0D01*
G01*
X122711500Y-97303000D01*
G75*
G02*
X122564000Y-97155500I0J147500D01*
G01*
X122564000Y-96860500D01*
G75*
G02*
X122711500Y-96713000I147500J0D01*
G01*
G37*
G36*
G01*
X122711500Y-97683000D02*
X123056500Y-97683000D01*
G75*
G02*
X123204000Y-97830500I0J-147500D01*
G01*
X123204000Y-98125500D01*
G75*
G02*
X123056500Y-98273000I-147500J0D01*
G01*
X122711500Y-98273000D01*
G75*
G02*
X122564000Y-98125500I0J147500D01*
G01*
X122564000Y-97830500D01*
G75*
G02*
X122711500Y-97683000I147500J0D01*
G01*
G37*
%TD*%
%TO.C,C28*%
G36*
G01*
X112493500Y-105425500D02*
X112493500Y-105770500D01*
G75*
G02*
X112346000Y-105918000I-147500J0D01*
G01*
X112051000Y-105918000D01*
G75*
G02*
X111903500Y-105770500I0J147500D01*
G01*
X111903500Y-105425500D01*
G75*
G02*
X112051000Y-105278000I147500J0D01*
G01*
X112346000Y-105278000D01*
G75*
G02*
X112493500Y-105425500I0J-147500D01*
G01*
G37*
G36*
G01*
X113463500Y-105425500D02*
X113463500Y-105770500D01*
G75*
G02*
X113316000Y-105918000I-147500J0D01*
G01*
X113021000Y-105918000D01*
G75*
G02*
X112873500Y-105770500I0J147500D01*
G01*
X112873500Y-105425500D01*
G75*
G02*
X113021000Y-105278000I147500J0D01*
G01*
X113316000Y-105278000D01*
G75*
G02*
X113463500Y-105425500I0J-147500D01*
G01*
G37*
%TD*%
%TO.C,C27*%
G36*
G01*
X113135000Y-94972500D02*
X113135000Y-94627500D01*
G75*
G02*
X113282500Y-94480000I147500J0D01*
G01*
X113577500Y-94480000D01*
G75*
G02*
X113725000Y-94627500I0J-147500D01*
G01*
X113725000Y-94972500D01*
G75*
G02*
X113577500Y-95120000I-147500J0D01*
G01*
X113282500Y-95120000D01*
G75*
G02*
X113135000Y-94972500I0J147500D01*
G01*
G37*
G36*
G01*
X114105000Y-94972500D02*
X114105000Y-94627500D01*
G75*
G02*
X114252500Y-94480000I147500J0D01*
G01*
X114547500Y-94480000D01*
G75*
G02*
X114695000Y-94627500I0J-147500D01*
G01*
X114695000Y-94972500D01*
G75*
G02*
X114547500Y-95120000I-147500J0D01*
G01*
X114252500Y-95120000D01*
G75*
G02*
X114105000Y-94972500I0J147500D01*
G01*
G37*
%TD*%
%TO.C,C26*%
G36*
G01*
X111858500Y-104155500D02*
X111858500Y-104500500D01*
G75*
G02*
X111711000Y-104648000I-147500J0D01*
G01*
X111416000Y-104648000D01*
G75*
G02*
X111268500Y-104500500I0J147500D01*
G01*
X111268500Y-104155500D01*
G75*
G02*
X111416000Y-104008000I147500J0D01*
G01*
X111711000Y-104008000D01*
G75*
G02*
X111858500Y-104155500I0J-147500D01*
G01*
G37*
G36*
G01*
X112828500Y-104155500D02*
X112828500Y-104500500D01*
G75*
G02*
X112681000Y-104648000I-147500J0D01*
G01*
X112386000Y-104648000D01*
G75*
G02*
X112238500Y-104500500I0J147500D01*
G01*
X112238500Y-104155500D01*
G75*
G02*
X112386000Y-104008000I147500J0D01*
G01*
X112681000Y-104008000D01*
G75*
G02*
X112828500Y-104155500I0J-147500D01*
G01*
G37*
%TD*%
%TO.C,C25*%
G36*
G01*
X112437500Y-96900000D02*
X111962500Y-96900000D01*
G75*
G02*
X111725000Y-96662500I0J237500D01*
G01*
X111725000Y-96087500D01*
G75*
G02*
X111962500Y-95850000I237500J0D01*
G01*
X112437500Y-95850000D01*
G75*
G02*
X112675000Y-96087500I0J-237500D01*
G01*
X112675000Y-96662500D01*
G75*
G02*
X112437500Y-96900000I-237500J0D01*
G01*
G37*
G36*
G01*
X112437500Y-95150000D02*
X111962500Y-95150000D01*
G75*
G02*
X111725000Y-94912500I0J237500D01*
G01*
X111725000Y-94337500D01*
G75*
G02*
X111962500Y-94100000I237500J0D01*
G01*
X112437500Y-94100000D01*
G75*
G02*
X112675000Y-94337500I0J-237500D01*
G01*
X112675000Y-94912500D01*
G75*
G02*
X112437500Y-95150000I-237500J0D01*
G01*
G37*
%TD*%
%TO.C,C24*%
G36*
G01*
X126676000Y-110574500D02*
X126331000Y-110574500D01*
G75*
G02*
X126183500Y-110427000I0J147500D01*
G01*
X126183500Y-110132000D01*
G75*
G02*
X126331000Y-109984500I147500J0D01*
G01*
X126676000Y-109984500D01*
G75*
G02*
X126823500Y-110132000I0J-147500D01*
G01*
X126823500Y-110427000D01*
G75*
G02*
X126676000Y-110574500I-147500J0D01*
G01*
G37*
G36*
G01*
X126676000Y-111544500D02*
X126331000Y-111544500D01*
G75*
G02*
X126183500Y-111397000I0J147500D01*
G01*
X126183500Y-111102000D01*
G75*
G02*
X126331000Y-110954500I147500J0D01*
G01*
X126676000Y-110954500D01*
G75*
G02*
X126823500Y-111102000I0J-147500D01*
G01*
X126823500Y-111397000D01*
G75*
G02*
X126676000Y-111544500I-147500J0D01*
G01*
G37*
%TD*%
%TO.C,R9*%
G36*
G01*
X141767000Y-65674500D02*
X141767000Y-66019500D01*
G75*
G02*
X141619500Y-66167000I-147500J0D01*
G01*
X141324500Y-66167000D01*
G75*
G02*
X141177000Y-66019500I0J147500D01*
G01*
X141177000Y-65674500D01*
G75*
G02*
X141324500Y-65527000I147500J0D01*
G01*
X141619500Y-65527000D01*
G75*
G02*
X141767000Y-65674500I0J-147500D01*
G01*
G37*
G36*
G01*
X142737000Y-65674500D02*
X142737000Y-66019500D01*
G75*
G02*
X142589500Y-66167000I-147500J0D01*
G01*
X142294500Y-66167000D01*
G75*
G02*
X142147000Y-66019500I0J147500D01*
G01*
X142147000Y-65674500D01*
G75*
G02*
X142294500Y-65527000I147500J0D01*
G01*
X142589500Y-65527000D01*
G75*
G02*
X142737000Y-65674500I0J-147500D01*
G01*
G37*
%TD*%
%TO.C,R8*%
G36*
G01*
X143285500Y-57678000D02*
X143630500Y-57678000D01*
G75*
G02*
X143778000Y-57825500I0J-147500D01*
G01*
X143778000Y-58120500D01*
G75*
G02*
X143630500Y-58268000I-147500J0D01*
G01*
X143285500Y-58268000D01*
G75*
G02*
X143138000Y-58120500I0J147500D01*
G01*
X143138000Y-57825500D01*
G75*
G02*
X143285500Y-57678000I147500J0D01*
G01*
G37*
G36*
G01*
X143285500Y-56708000D02*
X143630500Y-56708000D01*
G75*
G02*
X143778000Y-56855500I0J-147500D01*
G01*
X143778000Y-57150500D01*
G75*
G02*
X143630500Y-57298000I-147500J0D01*
G01*
X143285500Y-57298000D01*
G75*
G02*
X143138000Y-57150500I0J147500D01*
G01*
X143138000Y-56855500D01*
G75*
G02*
X143285500Y-56708000I147500J0D01*
G01*
G37*
%TD*%
%TO.C,R7*%
G36*
G01*
X129737000Y-52720500D02*
X129737000Y-53065500D01*
G75*
G02*
X129589500Y-53213000I-147500J0D01*
G01*
X129294500Y-53213000D01*
G75*
G02*
X129147000Y-53065500I0J147500D01*
G01*
X129147000Y-52720500D01*
G75*
G02*
X129294500Y-52573000I147500J0D01*
G01*
X129589500Y-52573000D01*
G75*
G02*
X129737000Y-52720500I0J-147500D01*
G01*
G37*
G36*
G01*
X128767000Y-52720500D02*
X128767000Y-53065500D01*
G75*
G02*
X128619500Y-53213000I-147500J0D01*
G01*
X128324500Y-53213000D01*
G75*
G02*
X128177000Y-53065500I0J147500D01*
G01*
X128177000Y-52720500D01*
G75*
G02*
X128324500Y-52573000I147500J0D01*
G01*
X128619500Y-52573000D01*
G75*
G02*
X128767000Y-52720500I0J-147500D01*
G01*
G37*
%TD*%
%TO.C,C32*%
G36*
G01*
X108095000Y-90627500D02*
X108095000Y-90972500D01*
G75*
G02*
X107947500Y-91120000I-147500J0D01*
G01*
X107652500Y-91120000D01*
G75*
G02*
X107505000Y-90972500I0J147500D01*
G01*
X107505000Y-90627500D01*
G75*
G02*
X107652500Y-90480000I147500J0D01*
G01*
X107947500Y-90480000D01*
G75*
G02*
X108095000Y-90627500I0J-147500D01*
G01*
G37*
G36*
G01*
X107125000Y-90627500D02*
X107125000Y-90972500D01*
G75*
G02*
X106977500Y-91120000I-147500J0D01*
G01*
X106682500Y-91120000D01*
G75*
G02*
X106535000Y-90972500I0J147500D01*
G01*
X106535000Y-90627500D01*
G75*
G02*
X106682500Y-90480000I147500J0D01*
G01*
X106977500Y-90480000D01*
G75*
G02*
X107125000Y-90627500I0J-147500D01*
G01*
G37*
%TD*%
%TO.C,C22*%
G36*
G01*
X115275000Y-88570000D02*
X115275000Y-88225000D01*
G75*
G02*
X115422500Y-88077500I147500J0D01*
G01*
X115717500Y-88077500D01*
G75*
G02*
X115865000Y-88225000I0J-147500D01*
G01*
X115865000Y-88570000D01*
G75*
G02*
X115717500Y-88717500I-147500J0D01*
G01*
X115422500Y-88717500D01*
G75*
G02*
X115275000Y-88570000I0J147500D01*
G01*
G37*
G36*
G01*
X114305000Y-88570000D02*
X114305000Y-88225000D01*
G75*
G02*
X114452500Y-88077500I147500J0D01*
G01*
X114747500Y-88077500D01*
G75*
G02*
X114895000Y-88225000I0J-147500D01*
G01*
X114895000Y-88570000D01*
G75*
G02*
X114747500Y-88717500I-147500J0D01*
G01*
X114452500Y-88717500D01*
G75*
G02*
X114305000Y-88570000I0J147500D01*
G01*
G37*
%TD*%
%TO.C,C33*%
G36*
G01*
X109125000Y-91962500D02*
X109125000Y-92437500D01*
G75*
G02*
X108887500Y-92675000I-237500J0D01*
G01*
X108312500Y-92675000D01*
G75*
G02*
X108075000Y-92437500I0J237500D01*
G01*
X108075000Y-91962500D01*
G75*
G02*
X108312500Y-91725000I237500J0D01*
G01*
X108887500Y-91725000D01*
G75*
G02*
X109125000Y-91962500I0J-237500D01*
G01*
G37*
G36*
G01*
X107375000Y-91962500D02*
X107375000Y-92437500D01*
G75*
G02*
X107137500Y-92675000I-237500J0D01*
G01*
X106562500Y-92675000D01*
G75*
G02*
X106325000Y-92437500I0J237500D01*
G01*
X106325000Y-91962500D01*
G75*
G02*
X106562500Y-91725000I237500J0D01*
G01*
X107137500Y-91725000D01*
G75*
G02*
X107375000Y-91962500I0J-237500D01*
G01*
G37*
%TD*%
%TO.C,C23*%
G36*
G01*
X116298000Y-83372500D02*
X116643000Y-83372500D01*
G75*
G02*
X116790500Y-83520000I0J-147500D01*
G01*
X116790500Y-83815000D01*
G75*
G02*
X116643000Y-83962500I-147500J0D01*
G01*
X116298000Y-83962500D01*
G75*
G02*
X116150500Y-83815000I0J147500D01*
G01*
X116150500Y-83520000D01*
G75*
G02*
X116298000Y-83372500I147500J0D01*
G01*
G37*
G36*
G01*
X116298000Y-84342500D02*
X116643000Y-84342500D01*
G75*
G02*
X116790500Y-84490000I0J-147500D01*
G01*
X116790500Y-84785000D01*
G75*
G02*
X116643000Y-84932500I-147500J0D01*
G01*
X116298000Y-84932500D01*
G75*
G02*
X116150500Y-84785000I0J147500D01*
G01*
X116150500Y-84490000D01*
G75*
G02*
X116298000Y-84342500I147500J0D01*
G01*
G37*
%TD*%
%TO.C,C21*%
G36*
G01*
X118256200Y-118328700D02*
X118256200Y-118673700D01*
G75*
G02*
X118108700Y-118821200I-147500J0D01*
G01*
X117813700Y-118821200D01*
G75*
G02*
X117666200Y-118673700I0J147500D01*
G01*
X117666200Y-118328700D01*
G75*
G02*
X117813700Y-118181200I147500J0D01*
G01*
X118108700Y-118181200D01*
G75*
G02*
X118256200Y-118328700I0J-147500D01*
G01*
G37*
G36*
G01*
X117286200Y-118328700D02*
X117286200Y-118673700D01*
G75*
G02*
X117138700Y-118821200I-147500J0D01*
G01*
X116843700Y-118821200D01*
G75*
G02*
X116696200Y-118673700I0J147500D01*
G01*
X116696200Y-118328700D01*
G75*
G02*
X116843700Y-118181200I147500J0D01*
G01*
X117138700Y-118181200D01*
G75*
G02*
X117286200Y-118328700I0J-147500D01*
G01*
G37*
%TD*%
%TO.C,C20*%
G36*
G01*
X115431000Y-118673700D02*
X115431000Y-118328700D01*
G75*
G02*
X115578500Y-118181200I147500J0D01*
G01*
X115873500Y-118181200D01*
G75*
G02*
X116021000Y-118328700I0J-147500D01*
G01*
X116021000Y-118673700D01*
G75*
G02*
X115873500Y-118821200I-147500J0D01*
G01*
X115578500Y-118821200D01*
G75*
G02*
X115431000Y-118673700I0J147500D01*
G01*
G37*
G36*
G01*
X114461000Y-118673700D02*
X114461000Y-118328700D01*
G75*
G02*
X114608500Y-118181200I147500J0D01*
G01*
X114903500Y-118181200D01*
G75*
G02*
X115051000Y-118328700I0J-147500D01*
G01*
X115051000Y-118673700D01*
G75*
G02*
X114903500Y-118821200I-147500J0D01*
G01*
X114608500Y-118821200D01*
G75*
G02*
X114461000Y-118673700I0J147500D01*
G01*
G37*
%TD*%
%TO.C,C19*%
G36*
G01*
X116430500Y-81440000D02*
X116430500Y-81785000D01*
G75*
G02*
X116283000Y-81932500I-147500J0D01*
G01*
X115988000Y-81932500D01*
G75*
G02*
X115840500Y-81785000I0J147500D01*
G01*
X115840500Y-81440000D01*
G75*
G02*
X115988000Y-81292500I147500J0D01*
G01*
X116283000Y-81292500D01*
G75*
G02*
X116430500Y-81440000I0J-147500D01*
G01*
G37*
G36*
G01*
X117400500Y-81440000D02*
X117400500Y-81785000D01*
G75*
G02*
X117253000Y-81932500I-147500J0D01*
G01*
X116958000Y-81932500D01*
G75*
G02*
X116810500Y-81785000I0J147500D01*
G01*
X116810500Y-81440000D01*
G75*
G02*
X116958000Y-81292500I147500J0D01*
G01*
X117253000Y-81292500D01*
G75*
G02*
X117400500Y-81440000I0J-147500D01*
G01*
G37*
%TD*%
%TO.C,C18*%
G36*
G01*
X116194900Y-79446600D02*
X116669900Y-79446600D01*
G75*
G02*
X116907400Y-79684100I0J-237500D01*
G01*
X116907400Y-80259100D01*
G75*
G02*
X116669900Y-80496600I-237500J0D01*
G01*
X116194900Y-80496600D01*
G75*
G02*
X115957400Y-80259100I0J237500D01*
G01*
X115957400Y-79684100D01*
G75*
G02*
X116194900Y-79446600I237500J0D01*
G01*
G37*
G36*
G01*
X116194900Y-77696600D02*
X116669900Y-77696600D01*
G75*
G02*
X116907400Y-77934100I0J-237500D01*
G01*
X116907400Y-78509100D01*
G75*
G02*
X116669900Y-78746600I-237500J0D01*
G01*
X116194900Y-78746600D01*
G75*
G02*
X115957400Y-78509100I0J237500D01*
G01*
X115957400Y-77934100D01*
G75*
G02*
X116194900Y-77696600I237500J0D01*
G01*
G37*
%TD*%
%TO.C,R11*%
G36*
G01*
X127299800Y-90286100D02*
X126824800Y-90286100D01*
G75*
G02*
X126587300Y-90048600I0J237500D01*
G01*
X126587300Y-89473600D01*
G75*
G02*
X126824800Y-89236100I237500J0D01*
G01*
X127299800Y-89236100D01*
G75*
G02*
X127537300Y-89473600I0J-237500D01*
G01*
X127537300Y-90048600D01*
G75*
G02*
X127299800Y-90286100I-237500J0D01*
G01*
G37*
G36*
G01*
X127299800Y-92036100D02*
X126824800Y-92036100D01*
G75*
G02*
X126587300Y-91798600I0J237500D01*
G01*
X126587300Y-91223600D01*
G75*
G02*
X126824800Y-90986100I237500J0D01*
G01*
X127299800Y-90986100D01*
G75*
G02*
X127537300Y-91223600I0J-237500D01*
G01*
X127537300Y-91798600D01*
G75*
G02*
X127299800Y-92036100I-237500J0D01*
G01*
G37*
%TD*%
%TO.C,R6*%
G36*
G01*
X128644500Y-51895000D02*
X128299500Y-51895000D01*
G75*
G02*
X128152000Y-51747500I0J147500D01*
G01*
X128152000Y-51452500D01*
G75*
G02*
X128299500Y-51305000I147500J0D01*
G01*
X128644500Y-51305000D01*
G75*
G02*
X128792000Y-51452500I0J-147500D01*
G01*
X128792000Y-51747500D01*
G75*
G02*
X128644500Y-51895000I-147500J0D01*
G01*
G37*
G36*
G01*
X128644500Y-50925000D02*
X128299500Y-50925000D01*
G75*
G02*
X128152000Y-50777500I0J147500D01*
G01*
X128152000Y-50482500D01*
G75*
G02*
X128299500Y-50335000I147500J0D01*
G01*
X128644500Y-50335000D01*
G75*
G02*
X128792000Y-50482500I0J-147500D01*
G01*
X128792000Y-50777500D01*
G75*
G02*
X128644500Y-50925000I-147500J0D01*
G01*
G37*
%TD*%
%TO.C,R4*%
G36*
G01*
X145027500Y-58222000D02*
X144682500Y-58222000D01*
G75*
G02*
X144535000Y-58074500I0J147500D01*
G01*
X144535000Y-57779500D01*
G75*
G02*
X144682500Y-57632000I147500J0D01*
G01*
X145027500Y-57632000D01*
G75*
G02*
X145175000Y-57779500I0J-147500D01*
G01*
X145175000Y-58074500D01*
G75*
G02*
X145027500Y-58222000I-147500J0D01*
G01*
G37*
G36*
G01*
X145027500Y-57252000D02*
X144682500Y-57252000D01*
G75*
G02*
X144535000Y-57104500I0J147500D01*
G01*
X144535000Y-56809500D01*
G75*
G02*
X144682500Y-56662000I147500J0D01*
G01*
X145027500Y-56662000D01*
G75*
G02*
X145175000Y-56809500I0J-147500D01*
G01*
X145175000Y-57104500D01*
G75*
G02*
X145027500Y-57252000I-147500J0D01*
G01*
G37*
%TD*%
%TO.C,R5*%
G36*
G01*
X138496100Y-73424600D02*
X138971100Y-73424600D01*
G75*
G02*
X139208600Y-73662100I0J-237500D01*
G01*
X139208600Y-74237100D01*
G75*
G02*
X138971100Y-74474600I-237500J0D01*
G01*
X138496100Y-74474600D01*
G75*
G02*
X138258600Y-74237100I0J237500D01*
G01*
X138258600Y-73662100D01*
G75*
G02*
X138496100Y-73424600I237500J0D01*
G01*
G37*
G36*
G01*
X138496100Y-71674600D02*
X138971100Y-71674600D01*
G75*
G02*
X139208600Y-71912100I0J-237500D01*
G01*
X139208600Y-72487100D01*
G75*
G02*
X138971100Y-72724600I-237500J0D01*
G01*
X138496100Y-72724600D01*
G75*
G02*
X138258600Y-72487100I0J237500D01*
G01*
X138258600Y-71912100D01*
G75*
G02*
X138496100Y-71674600I237500J0D01*
G01*
G37*
%TD*%
%TO.C,R2*%
G36*
G01*
X117722500Y-57864000D02*
X117377500Y-57864000D01*
G75*
G02*
X117230000Y-57716500I0J147500D01*
G01*
X117230000Y-57421500D01*
G75*
G02*
X117377500Y-57274000I147500J0D01*
G01*
X117722500Y-57274000D01*
G75*
G02*
X117870000Y-57421500I0J-147500D01*
G01*
X117870000Y-57716500D01*
G75*
G02*
X117722500Y-57864000I-147500J0D01*
G01*
G37*
G36*
G01*
X117722500Y-56894000D02*
X117377500Y-56894000D01*
G75*
G02*
X117230000Y-56746500I0J147500D01*
G01*
X117230000Y-56451500D01*
G75*
G02*
X117377500Y-56304000I147500J0D01*
G01*
X117722500Y-56304000D01*
G75*
G02*
X117870000Y-56451500I0J-147500D01*
G01*
X117870000Y-56746500D01*
G75*
G02*
X117722500Y-56894000I-147500J0D01*
G01*
G37*
%TD*%
%TO.C,C33*%
G36*
G01*
X58375000Y-91962500D02*
X58375000Y-92437500D01*
G75*
G02*
X58137500Y-92675000I-237500J0D01*
G01*
X57562500Y-92675000D01*
G75*
G02*
X57325000Y-92437500I0J237500D01*
G01*
X57325000Y-91962500D01*
G75*
G02*
X57562500Y-91725000I237500J0D01*
G01*
X58137500Y-91725000D01*
G75*
G02*
X58375000Y-91962500I0J-237500D01*
G01*
G37*
G36*
G01*
X60125000Y-91962500D02*
X60125000Y-92437500D01*
G75*
G02*
X59887500Y-92675000I-237500J0D01*
G01*
X59312500Y-92675000D01*
G75*
G02*
X59075000Y-92437500I0J237500D01*
G01*
X59075000Y-91962500D01*
G75*
G02*
X59312500Y-91725000I237500J0D01*
G01*
X59887500Y-91725000D01*
G75*
G02*
X60125000Y-91962500I0J-237500D01*
G01*
G37*
%TD*%
%TO.C,C32*%
G36*
G01*
X58125000Y-90627500D02*
X58125000Y-90972500D01*
G75*
G02*
X57977500Y-91120000I-147500J0D01*
G01*
X57682500Y-91120000D01*
G75*
G02*
X57535000Y-90972500I0J147500D01*
G01*
X57535000Y-90627500D01*
G75*
G02*
X57682500Y-90480000I147500J0D01*
G01*
X57977500Y-90480000D01*
G75*
G02*
X58125000Y-90627500I0J-147500D01*
G01*
G37*
G36*
G01*
X59095000Y-90627500D02*
X59095000Y-90972500D01*
G75*
G02*
X58947500Y-91120000I-147500J0D01*
G01*
X58652500Y-91120000D01*
G75*
G02*
X58505000Y-90972500I0J147500D01*
G01*
X58505000Y-90627500D01*
G75*
G02*
X58652500Y-90480000I147500J0D01*
G01*
X58947500Y-90480000D01*
G75*
G02*
X59095000Y-90627500I0J-147500D01*
G01*
G37*
%TD*%
D11*
%TO.C,Y1*%
X61247000Y-114932500D03*
X73122000Y-114932500D03*
%TD*%
%TO.C,U4*%
G36*
G01*
X65415500Y-85587500D02*
X65715500Y-85587500D01*
G75*
G02*
X65865500Y-85737500I0J-150000D01*
G01*
X65865500Y-87387500D01*
G75*
G02*
X65715500Y-87537500I-150000J0D01*
G01*
X65415500Y-87537500D01*
G75*
G02*
X65265500Y-87387500I0J150000D01*
G01*
X65265500Y-85737500D01*
G75*
G02*
X65415500Y-85587500I150000J0D01*
G01*
G37*
G36*
G01*
X64145500Y-85587500D02*
X64445500Y-85587500D01*
G75*
G02*
X64595500Y-85737500I0J-150000D01*
G01*
X64595500Y-87387500D01*
G75*
G02*
X64445500Y-87537500I-150000J0D01*
G01*
X64145500Y-87537500D01*
G75*
G02*
X63995500Y-87387500I0J150000D01*
G01*
X63995500Y-85737500D01*
G75*
G02*
X64145500Y-85587500I150000J0D01*
G01*
G37*
G36*
G01*
X62875500Y-85587500D02*
X63175500Y-85587500D01*
G75*
G02*
X63325500Y-85737500I0J-150000D01*
G01*
X63325500Y-87387500D01*
G75*
G02*
X63175500Y-87537500I-150000J0D01*
G01*
X62875500Y-87537500D01*
G75*
G02*
X62725500Y-87387500I0J150000D01*
G01*
X62725500Y-85737500D01*
G75*
G02*
X62875500Y-85587500I150000J0D01*
G01*
G37*
G36*
G01*
X61605500Y-85587500D02*
X61905500Y-85587500D01*
G75*
G02*
X62055500Y-85737500I0J-150000D01*
G01*
X62055500Y-87387500D01*
G75*
G02*
X61905500Y-87537500I-150000J0D01*
G01*
X61605500Y-87537500D01*
G75*
G02*
X61455500Y-87387500I0J150000D01*
G01*
X61455500Y-85737500D01*
G75*
G02*
X61605500Y-85587500I150000J0D01*
G01*
G37*
G36*
G01*
X61605500Y-80637500D02*
X61905500Y-80637500D01*
G75*
G02*
X62055500Y-80787500I0J-150000D01*
G01*
X62055500Y-82437500D01*
G75*
G02*
X61905500Y-82587500I-150000J0D01*
G01*
X61605500Y-82587500D01*
G75*
G02*
X61455500Y-82437500I0J150000D01*
G01*
X61455500Y-80787500D01*
G75*
G02*
X61605500Y-80637500I150000J0D01*
G01*
G37*
G36*
G01*
X62875500Y-80637500D02*
X63175500Y-80637500D01*
G75*
G02*
X63325500Y-80787500I0J-150000D01*
G01*
X63325500Y-82437500D01*
G75*
G02*
X63175500Y-82587500I-150000J0D01*
G01*
X62875500Y-82587500D01*
G75*
G02*
X62725500Y-82437500I0J150000D01*
G01*
X62725500Y-80787500D01*
G75*
G02*
X62875500Y-80637500I150000J0D01*
G01*
G37*
G36*
G01*
X64145500Y-80637500D02*
X64445500Y-80637500D01*
G75*
G02*
X64595500Y-80787500I0J-150000D01*
G01*
X64595500Y-82437500D01*
G75*
G02*
X64445500Y-82587500I-150000J0D01*
G01*
X64145500Y-82587500D01*
G75*
G02*
X63995500Y-82437500I0J150000D01*
G01*
X63995500Y-80787500D01*
G75*
G02*
X64145500Y-80637500I150000J0D01*
G01*
G37*
G36*
G01*
X65415500Y-80637500D02*
X65715500Y-80637500D01*
G75*
G02*
X65865500Y-80787500I0J-150000D01*
G01*
X65865500Y-82437500D01*
G75*
G02*
X65715500Y-82587500I-150000J0D01*
G01*
X65415500Y-82587500D01*
G75*
G02*
X65265500Y-82437500I0J150000D01*
G01*
X65265500Y-80787500D01*
G75*
G02*
X65415500Y-80637500I150000J0D01*
G01*
G37*
%TD*%
%TO.C,C1*%
G36*
G01*
X67107500Y-56327000D02*
X67452500Y-56327000D01*
G75*
G02*
X67600000Y-56474500I0J-147500D01*
G01*
X67600000Y-56769500D01*
G75*
G02*
X67452500Y-56917000I-147500J0D01*
G01*
X67107500Y-56917000D01*
G75*
G02*
X66960000Y-56769500I0J147500D01*
G01*
X66960000Y-56474500D01*
G75*
G02*
X67107500Y-56327000I147500J0D01*
G01*
G37*
G36*
G01*
X67107500Y-57297000D02*
X67452500Y-57297000D01*
G75*
G02*
X67600000Y-57444500I0J-147500D01*
G01*
X67600000Y-57739500D01*
G75*
G02*
X67452500Y-57887000I-147500J0D01*
G01*
X67107500Y-57887000D01*
G75*
G02*
X66960000Y-57739500I0J147500D01*
G01*
X66960000Y-57444500D01*
G75*
G02*
X67107500Y-57297000I147500J0D01*
G01*
G37*
%TD*%
%TO.C,C2*%
G36*
G01*
X79679000Y-74593000D02*
X80154000Y-74593000D01*
G75*
G02*
X80391500Y-74830500I0J-237500D01*
G01*
X80391500Y-75405500D01*
G75*
G02*
X80154000Y-75643000I-237500J0D01*
G01*
X79679000Y-75643000D01*
G75*
G02*
X79441500Y-75405500I0J237500D01*
G01*
X79441500Y-74830500D01*
G75*
G02*
X79679000Y-74593000I237500J0D01*
G01*
G37*
G36*
G01*
X79679000Y-72843000D02*
X80154000Y-72843000D01*
G75*
G02*
X80391500Y-73080500I0J-237500D01*
G01*
X80391500Y-73655500D01*
G75*
G02*
X80154000Y-73893000I-237500J0D01*
G01*
X79679000Y-73893000D01*
G75*
G02*
X79441500Y-73655500I0J237500D01*
G01*
X79441500Y-73080500D01*
G75*
G02*
X79679000Y-72843000I237500J0D01*
G01*
G37*
%TD*%
%TO.C,C3*%
G36*
G01*
X85547900Y-74134800D02*
X85892900Y-74134800D01*
G75*
G02*
X86040400Y-74282300I0J-147500D01*
G01*
X86040400Y-74577300D01*
G75*
G02*
X85892900Y-74724800I-147500J0D01*
G01*
X85547900Y-74724800D01*
G75*
G02*
X85400400Y-74577300I0J147500D01*
G01*
X85400400Y-74282300D01*
G75*
G02*
X85547900Y-74134800I147500J0D01*
G01*
G37*
G36*
G01*
X85547900Y-75104800D02*
X85892900Y-75104800D01*
G75*
G02*
X86040400Y-75252300I0J-147500D01*
G01*
X86040400Y-75547300D01*
G75*
G02*
X85892900Y-75694800I-147500J0D01*
G01*
X85547900Y-75694800D01*
G75*
G02*
X85400400Y-75547300I0J147500D01*
G01*
X85400400Y-75252300D01*
G75*
G02*
X85547900Y-75104800I147500J0D01*
G01*
G37*
%TD*%
%TO.C,C4*%
G36*
G01*
X89332500Y-116151200D02*
X89677500Y-116151200D01*
G75*
G02*
X89825000Y-116298700I0J-147500D01*
G01*
X89825000Y-116593700D01*
G75*
G02*
X89677500Y-116741200I-147500J0D01*
G01*
X89332500Y-116741200D01*
G75*
G02*
X89185000Y-116593700I0J147500D01*
G01*
X89185000Y-116298700D01*
G75*
G02*
X89332500Y-116151200I147500J0D01*
G01*
G37*
G36*
G01*
X89332500Y-115181200D02*
X89677500Y-115181200D01*
G75*
G02*
X89825000Y-115328700I0J-147500D01*
G01*
X89825000Y-115623700D01*
G75*
G02*
X89677500Y-115771200I-147500J0D01*
G01*
X89332500Y-115771200D01*
G75*
G02*
X89185000Y-115623700I0J147500D01*
G01*
X89185000Y-115328700D01*
G75*
G02*
X89332500Y-115181200I147500J0D01*
G01*
G37*
%TD*%
%TO.C,C5*%
G36*
G01*
X81331500Y-74147500D02*
X81676500Y-74147500D01*
G75*
G02*
X81824000Y-74295000I0J-147500D01*
G01*
X81824000Y-74590000D01*
G75*
G02*
X81676500Y-74737500I-147500J0D01*
G01*
X81331500Y-74737500D01*
G75*
G02*
X81184000Y-74590000I0J147500D01*
G01*
X81184000Y-74295000D01*
G75*
G02*
X81331500Y-74147500I147500J0D01*
G01*
G37*
G36*
G01*
X81331500Y-75117500D02*
X81676500Y-75117500D01*
G75*
G02*
X81824000Y-75265000I0J-147500D01*
G01*
X81824000Y-75560000D01*
G75*
G02*
X81676500Y-75707500I-147500J0D01*
G01*
X81331500Y-75707500D01*
G75*
G02*
X81184000Y-75560000I0J147500D01*
G01*
X81184000Y-75265000D01*
G75*
G02*
X81331500Y-75117500I147500J0D01*
G01*
G37*
%TD*%
%TO.C,C6*%
G36*
G01*
X83958900Y-72905200D02*
X84433900Y-72905200D01*
G75*
G02*
X84671400Y-73142700I0J-237500D01*
G01*
X84671400Y-73717700D01*
G75*
G02*
X84433900Y-73955200I-237500J0D01*
G01*
X83958900Y-73955200D01*
G75*
G02*
X83721400Y-73717700I0J237500D01*
G01*
X83721400Y-73142700D01*
G75*
G02*
X83958900Y-72905200I237500J0D01*
G01*
G37*
G36*
G01*
X83958900Y-74655200D02*
X84433900Y-74655200D01*
G75*
G02*
X84671400Y-74892700I0J-237500D01*
G01*
X84671400Y-75467700D01*
G75*
G02*
X84433900Y-75705200I-237500J0D01*
G01*
X83958900Y-75705200D01*
G75*
G02*
X83721400Y-75467700I0J237500D01*
G01*
X83721400Y-74892700D01*
G75*
G02*
X83958900Y-74655200I237500J0D01*
G01*
G37*
%TD*%
%TO.C,C7*%
G36*
G01*
X97079500Y-58544000D02*
X97424500Y-58544000D01*
G75*
G02*
X97572000Y-58691500I0J-147500D01*
G01*
X97572000Y-58986500D01*
G75*
G02*
X97424500Y-59134000I-147500J0D01*
G01*
X97079500Y-59134000D01*
G75*
G02*
X96932000Y-58986500I0J147500D01*
G01*
X96932000Y-58691500D01*
G75*
G02*
X97079500Y-58544000I147500J0D01*
G01*
G37*
G36*
G01*
X97079500Y-57574000D02*
X97424500Y-57574000D01*
G75*
G02*
X97572000Y-57721500I0J-147500D01*
G01*
X97572000Y-58016500D01*
G75*
G02*
X97424500Y-58164000I-147500J0D01*
G01*
X97079500Y-58164000D01*
G75*
G02*
X96932000Y-58016500I0J147500D01*
G01*
X96932000Y-57721500D01*
G75*
G02*
X97079500Y-57574000I147500J0D01*
G01*
G37*
%TD*%
%TO.C,C8*%
G36*
G01*
X91607660Y-110145880D02*
X91607660Y-109670880D01*
G75*
G02*
X91845160Y-109433380I237500J0D01*
G01*
X92420160Y-109433380D01*
G75*
G02*
X92657660Y-109670880I0J-237500D01*
G01*
X92657660Y-110145880D01*
G75*
G02*
X92420160Y-110383380I-237500J0D01*
G01*
X91845160Y-110383380D01*
G75*
G02*
X91607660Y-110145880I0J237500D01*
G01*
G37*
G36*
G01*
X93357660Y-110145880D02*
X93357660Y-109670880D01*
G75*
G02*
X93595160Y-109433380I237500J0D01*
G01*
X94170160Y-109433380D01*
G75*
G02*
X94407660Y-109670880I0J-237500D01*
G01*
X94407660Y-110145880D01*
G75*
G02*
X94170160Y-110383380I-237500J0D01*
G01*
X93595160Y-110383380D01*
G75*
G02*
X93357660Y-110145880I0J237500D01*
G01*
G37*
%TD*%
%TO.C,C9*%
G36*
G01*
X76377000Y-74579000D02*
X76852000Y-74579000D01*
G75*
G02*
X77089500Y-74816500I0J-237500D01*
G01*
X77089500Y-75391500D01*
G75*
G02*
X76852000Y-75629000I-237500J0D01*
G01*
X76377000Y-75629000D01*
G75*
G02*
X76139500Y-75391500I0J237500D01*
G01*
X76139500Y-74816500D01*
G75*
G02*
X76377000Y-74579000I237500J0D01*
G01*
G37*
G36*
G01*
X76377000Y-72829000D02*
X76852000Y-72829000D01*
G75*
G02*
X77089500Y-73066500I0J-237500D01*
G01*
X77089500Y-73641500D01*
G75*
G02*
X76852000Y-73879000I-237500J0D01*
G01*
X76377000Y-73879000D01*
G75*
G02*
X76139500Y-73641500I0J237500D01*
G01*
X76139500Y-73066500D01*
G75*
G02*
X76377000Y-72829000I237500J0D01*
G01*
G37*
%TD*%
%TO.C,C10*%
G36*
G01*
X78093000Y-74170500D02*
X78438000Y-74170500D01*
G75*
G02*
X78585500Y-74318000I0J-147500D01*
G01*
X78585500Y-74613000D01*
G75*
G02*
X78438000Y-74760500I-147500J0D01*
G01*
X78093000Y-74760500D01*
G75*
G02*
X77945500Y-74613000I0J147500D01*
G01*
X77945500Y-74318000D01*
G75*
G02*
X78093000Y-74170500I147500J0D01*
G01*
G37*
G36*
G01*
X78093000Y-75140500D02*
X78438000Y-75140500D01*
G75*
G02*
X78585500Y-75288000I0J-147500D01*
G01*
X78585500Y-75583000D01*
G75*
G02*
X78438000Y-75730500I-147500J0D01*
G01*
X78093000Y-75730500D01*
G75*
G02*
X77945500Y-75583000I0J147500D01*
G01*
X77945500Y-75288000D01*
G75*
G02*
X78093000Y-75140500I147500J0D01*
G01*
G37*
%TD*%
%TO.C,C11*%
G36*
G01*
X85020000Y-67960500D02*
X85020000Y-68305500D01*
G75*
G02*
X84872500Y-68453000I-147500J0D01*
G01*
X84577500Y-68453000D01*
G75*
G02*
X84430000Y-68305500I0J147500D01*
G01*
X84430000Y-67960500D01*
G75*
G02*
X84577500Y-67813000I147500J0D01*
G01*
X84872500Y-67813000D01*
G75*
G02*
X85020000Y-67960500I0J-147500D01*
G01*
G37*
G36*
G01*
X85990000Y-67960500D02*
X85990000Y-68305500D01*
G75*
G02*
X85842500Y-68453000I-147500J0D01*
G01*
X85547500Y-68453000D01*
G75*
G02*
X85400000Y-68305500I0J147500D01*
G01*
X85400000Y-67960500D01*
G75*
G02*
X85547500Y-67813000I147500J0D01*
G01*
X85842500Y-67813000D01*
G75*
G02*
X85990000Y-67960500I0J-147500D01*
G01*
G37*
%TD*%
%TO.C,C12*%
G36*
G01*
X91676780Y-103070920D02*
X91676780Y-103415920D01*
G75*
G02*
X91529280Y-103563420I-147500J0D01*
G01*
X91234280Y-103563420D01*
G75*
G02*
X91086780Y-103415920I0J147500D01*
G01*
X91086780Y-103070920D01*
G75*
G02*
X91234280Y-102923420I147500J0D01*
G01*
X91529280Y-102923420D01*
G75*
G02*
X91676780Y-103070920I0J-147500D01*
G01*
G37*
G36*
G01*
X90706780Y-103070920D02*
X90706780Y-103415920D01*
G75*
G02*
X90559280Y-103563420I-147500J0D01*
G01*
X90264280Y-103563420D01*
G75*
G02*
X90116780Y-103415920I0J147500D01*
G01*
X90116780Y-103070920D01*
G75*
G02*
X90264280Y-102923420I147500J0D01*
G01*
X90559280Y-102923420D01*
G75*
G02*
X90706780Y-103070920I0J-147500D01*
G01*
G37*
%TD*%
%TO.C,C13*%
G36*
G01*
X93228000Y-67416500D02*
X93228000Y-67071500D01*
G75*
G02*
X93375500Y-66924000I147500J0D01*
G01*
X93670500Y-66924000D01*
G75*
G02*
X93818000Y-67071500I0J-147500D01*
G01*
X93818000Y-67416500D01*
G75*
G02*
X93670500Y-67564000I-147500J0D01*
G01*
X93375500Y-67564000D01*
G75*
G02*
X93228000Y-67416500I0J147500D01*
G01*
G37*
G36*
G01*
X92258000Y-67416500D02*
X92258000Y-67071500D01*
G75*
G02*
X92405500Y-66924000I147500J0D01*
G01*
X92700500Y-66924000D01*
G75*
G02*
X92848000Y-67071500I0J-147500D01*
G01*
X92848000Y-67416500D01*
G75*
G02*
X92700500Y-67564000I-147500J0D01*
G01*
X92405500Y-67564000D01*
G75*
G02*
X92258000Y-67416500I0J147500D01*
G01*
G37*
%TD*%
%TO.C,C14*%
G36*
G01*
X76520300Y-92024600D02*
X76175300Y-92024600D01*
G75*
G02*
X76027800Y-91877100I0J147500D01*
G01*
X76027800Y-91582100D01*
G75*
G02*
X76175300Y-91434600I147500J0D01*
G01*
X76520300Y-91434600D01*
G75*
G02*
X76667800Y-91582100I0J-147500D01*
G01*
X76667800Y-91877100D01*
G75*
G02*
X76520300Y-92024600I-147500J0D01*
G01*
G37*
G36*
G01*
X76520300Y-92994600D02*
X76175300Y-92994600D01*
G75*
G02*
X76027800Y-92847100I0J147500D01*
G01*
X76027800Y-92552100D01*
G75*
G02*
X76175300Y-92404600I147500J0D01*
G01*
X76520300Y-92404600D01*
G75*
G02*
X76667800Y-92552100I0J-147500D01*
G01*
X76667800Y-92847100D01*
G75*
G02*
X76520300Y-92994600I-147500J0D01*
G01*
G37*
%TD*%
%TO.C,C15*%
G36*
G01*
X88824060Y-98570460D02*
X88479060Y-98570460D01*
G75*
G02*
X88331560Y-98422960I0J147500D01*
G01*
X88331560Y-98127960D01*
G75*
G02*
X88479060Y-97980460I147500J0D01*
G01*
X88824060Y-97980460D01*
G75*
G02*
X88971560Y-98127960I0J-147500D01*
G01*
X88971560Y-98422960D01*
G75*
G02*
X88824060Y-98570460I-147500J0D01*
G01*
G37*
G36*
G01*
X88824060Y-99540460D02*
X88479060Y-99540460D01*
G75*
G02*
X88331560Y-99392960I0J147500D01*
G01*
X88331560Y-99097960D01*
G75*
G02*
X88479060Y-98950460I147500J0D01*
G01*
X88824060Y-98950460D01*
G75*
G02*
X88971560Y-99097960I0J-147500D01*
G01*
X88971560Y-99392960D01*
G75*
G02*
X88824060Y-99540460I-147500J0D01*
G01*
G37*
%TD*%
%TO.C,C16*%
G36*
G01*
X74870800Y-93941100D02*
X74395800Y-93941100D01*
G75*
G02*
X74158300Y-93703600I0J237500D01*
G01*
X74158300Y-93128600D01*
G75*
G02*
X74395800Y-92891100I237500J0D01*
G01*
X74870800Y-92891100D01*
G75*
G02*
X75108300Y-93128600I0J-237500D01*
G01*
X75108300Y-93703600D01*
G75*
G02*
X74870800Y-93941100I-237500J0D01*
G01*
G37*
G36*
G01*
X74870800Y-92191100D02*
X74395800Y-92191100D01*
G75*
G02*
X74158300Y-91953600I0J237500D01*
G01*
X74158300Y-91378600D01*
G75*
G02*
X74395800Y-91141100I237500J0D01*
G01*
X74870800Y-91141100D01*
G75*
G02*
X75108300Y-91378600I0J-237500D01*
G01*
X75108300Y-91953600D01*
G75*
G02*
X74870800Y-92191100I-237500J0D01*
G01*
G37*
%TD*%
%TO.C,C17*%
G36*
G01*
X62980000Y-65547500D02*
X62980000Y-65892500D01*
G75*
G02*
X62832500Y-66040000I-147500J0D01*
G01*
X62537500Y-66040000D01*
G75*
G02*
X62390000Y-65892500I0J147500D01*
G01*
X62390000Y-65547500D01*
G75*
G02*
X62537500Y-65400000I147500J0D01*
G01*
X62832500Y-65400000D01*
G75*
G02*
X62980000Y-65547500I0J-147500D01*
G01*
G37*
G36*
G01*
X62010000Y-65547500D02*
X62010000Y-65892500D01*
G75*
G02*
X61862500Y-66040000I-147500J0D01*
G01*
X61567500Y-66040000D01*
G75*
G02*
X61420000Y-65892500I0J147500D01*
G01*
X61420000Y-65547500D01*
G75*
G02*
X61567500Y-65400000I147500J0D01*
G01*
X61862500Y-65400000D01*
G75*
G02*
X62010000Y-65547500I0J-147500D01*
G01*
G37*
%TD*%
%TO.C,C18*%
G36*
G01*
X67194900Y-77696600D02*
X67669900Y-77696600D01*
G75*
G02*
X67907400Y-77934100I0J-237500D01*
G01*
X67907400Y-78509100D01*
G75*
G02*
X67669900Y-78746600I-237500J0D01*
G01*
X67194900Y-78746600D01*
G75*
G02*
X66957400Y-78509100I0J237500D01*
G01*
X66957400Y-77934100D01*
G75*
G02*
X67194900Y-77696600I237500J0D01*
G01*
G37*
G36*
G01*
X67194900Y-79446600D02*
X67669900Y-79446600D01*
G75*
G02*
X67907400Y-79684100I0J-237500D01*
G01*
X67907400Y-80259100D01*
G75*
G02*
X67669900Y-80496600I-237500J0D01*
G01*
X67194900Y-80496600D01*
G75*
G02*
X66957400Y-80259100I0J237500D01*
G01*
X66957400Y-79684100D01*
G75*
G02*
X67194900Y-79446600I237500J0D01*
G01*
G37*
%TD*%
%TO.C,C19*%
G36*
G01*
X68400500Y-81440000D02*
X68400500Y-81785000D01*
G75*
G02*
X68253000Y-81932500I-147500J0D01*
G01*
X67958000Y-81932500D01*
G75*
G02*
X67810500Y-81785000I0J147500D01*
G01*
X67810500Y-81440000D01*
G75*
G02*
X67958000Y-81292500I147500J0D01*
G01*
X68253000Y-81292500D01*
G75*
G02*
X68400500Y-81440000I0J-147500D01*
G01*
G37*
G36*
G01*
X67430500Y-81440000D02*
X67430500Y-81785000D01*
G75*
G02*
X67283000Y-81932500I-147500J0D01*
G01*
X66988000Y-81932500D01*
G75*
G02*
X66840500Y-81785000I0J147500D01*
G01*
X66840500Y-81440000D01*
G75*
G02*
X66988000Y-81292500I147500J0D01*
G01*
X67283000Y-81292500D01*
G75*
G02*
X67430500Y-81440000I0J-147500D01*
G01*
G37*
%TD*%
%TO.C,C20*%
G36*
G01*
X65461000Y-118673700D02*
X65461000Y-118328700D01*
G75*
G02*
X65608500Y-118181200I147500J0D01*
G01*
X65903500Y-118181200D01*
G75*
G02*
X66051000Y-118328700I0J-147500D01*
G01*
X66051000Y-118673700D01*
G75*
G02*
X65903500Y-118821200I-147500J0D01*
G01*
X65608500Y-118821200D01*
G75*
G02*
X65461000Y-118673700I0J147500D01*
G01*
G37*
G36*
G01*
X66431000Y-118673700D02*
X66431000Y-118328700D01*
G75*
G02*
X66578500Y-118181200I147500J0D01*
G01*
X66873500Y-118181200D01*
G75*
G02*
X67021000Y-118328700I0J-147500D01*
G01*
X67021000Y-118673700D01*
G75*
G02*
X66873500Y-118821200I-147500J0D01*
G01*
X66578500Y-118821200D01*
G75*
G02*
X66431000Y-118673700I0J147500D01*
G01*
G37*
%TD*%
%TO.C,C21*%
G36*
G01*
X68286200Y-118328700D02*
X68286200Y-118673700D01*
G75*
G02*
X68138700Y-118821200I-147500J0D01*
G01*
X67843700Y-118821200D01*
G75*
G02*
X67696200Y-118673700I0J147500D01*
G01*
X67696200Y-118328700D01*
G75*
G02*
X67843700Y-118181200I147500J0D01*
G01*
X68138700Y-118181200D01*
G75*
G02*
X68286200Y-118328700I0J-147500D01*
G01*
G37*
G36*
G01*
X69256200Y-118328700D02*
X69256200Y-118673700D01*
G75*
G02*
X69108700Y-118821200I-147500J0D01*
G01*
X68813700Y-118821200D01*
G75*
G02*
X68666200Y-118673700I0J147500D01*
G01*
X68666200Y-118328700D01*
G75*
G02*
X68813700Y-118181200I147500J0D01*
G01*
X69108700Y-118181200D01*
G75*
G02*
X69256200Y-118328700I0J-147500D01*
G01*
G37*
%TD*%
%TO.C,C22*%
G36*
G01*
X65305000Y-88570000D02*
X65305000Y-88225000D01*
G75*
G02*
X65452500Y-88077500I147500J0D01*
G01*
X65747500Y-88077500D01*
G75*
G02*
X65895000Y-88225000I0J-147500D01*
G01*
X65895000Y-88570000D01*
G75*
G02*
X65747500Y-88717500I-147500J0D01*
G01*
X65452500Y-88717500D01*
G75*
G02*
X65305000Y-88570000I0J147500D01*
G01*
G37*
G36*
G01*
X66275000Y-88570000D02*
X66275000Y-88225000D01*
G75*
G02*
X66422500Y-88077500I147500J0D01*
G01*
X66717500Y-88077500D01*
G75*
G02*
X66865000Y-88225000I0J-147500D01*
G01*
X66865000Y-88570000D01*
G75*
G02*
X66717500Y-88717500I-147500J0D01*
G01*
X66422500Y-88717500D01*
G75*
G02*
X66275000Y-88570000I0J147500D01*
G01*
G37*
%TD*%
%TO.C,C23*%
G36*
G01*
X67298000Y-84342500D02*
X67643000Y-84342500D01*
G75*
G02*
X67790500Y-84490000I0J-147500D01*
G01*
X67790500Y-84785000D01*
G75*
G02*
X67643000Y-84932500I-147500J0D01*
G01*
X67298000Y-84932500D01*
G75*
G02*
X67150500Y-84785000I0J147500D01*
G01*
X67150500Y-84490000D01*
G75*
G02*
X67298000Y-84342500I147500J0D01*
G01*
G37*
G36*
G01*
X67298000Y-83372500D02*
X67643000Y-83372500D01*
G75*
G02*
X67790500Y-83520000I0J-147500D01*
G01*
X67790500Y-83815000D01*
G75*
G02*
X67643000Y-83962500I-147500J0D01*
G01*
X67298000Y-83962500D01*
G75*
G02*
X67150500Y-83815000I0J147500D01*
G01*
X67150500Y-83520000D01*
G75*
G02*
X67298000Y-83372500I147500J0D01*
G01*
G37*
%TD*%
%TO.C,C24*%
G36*
G01*
X77676000Y-111544500D02*
X77331000Y-111544500D01*
G75*
G02*
X77183500Y-111397000I0J147500D01*
G01*
X77183500Y-111102000D01*
G75*
G02*
X77331000Y-110954500I147500J0D01*
G01*
X77676000Y-110954500D01*
G75*
G02*
X77823500Y-111102000I0J-147500D01*
G01*
X77823500Y-111397000D01*
G75*
G02*
X77676000Y-111544500I-147500J0D01*
G01*
G37*
G36*
G01*
X77676000Y-110574500D02*
X77331000Y-110574500D01*
G75*
G02*
X77183500Y-110427000I0J147500D01*
G01*
X77183500Y-110132000D01*
G75*
G02*
X77331000Y-109984500I147500J0D01*
G01*
X77676000Y-109984500D01*
G75*
G02*
X77823500Y-110132000I0J-147500D01*
G01*
X77823500Y-110427000D01*
G75*
G02*
X77676000Y-110574500I-147500J0D01*
G01*
G37*
%TD*%
%TO.C,C25*%
G36*
G01*
X63437500Y-95150000D02*
X62962500Y-95150000D01*
G75*
G02*
X62725000Y-94912500I0J237500D01*
G01*
X62725000Y-94337500D01*
G75*
G02*
X62962500Y-94100000I237500J0D01*
G01*
X63437500Y-94100000D01*
G75*
G02*
X63675000Y-94337500I0J-237500D01*
G01*
X63675000Y-94912500D01*
G75*
G02*
X63437500Y-95150000I-237500J0D01*
G01*
G37*
G36*
G01*
X63437500Y-96900000D02*
X62962500Y-96900000D01*
G75*
G02*
X62725000Y-96662500I0J237500D01*
G01*
X62725000Y-96087500D01*
G75*
G02*
X62962500Y-95850000I237500J0D01*
G01*
X63437500Y-95850000D01*
G75*
G02*
X63675000Y-96087500I0J-237500D01*
G01*
X63675000Y-96662500D01*
G75*
G02*
X63437500Y-96900000I-237500J0D01*
G01*
G37*
%TD*%
%TO.C,C26*%
G36*
G01*
X63828500Y-104155500D02*
X63828500Y-104500500D01*
G75*
G02*
X63681000Y-104648000I-147500J0D01*
G01*
X63386000Y-104648000D01*
G75*
G02*
X63238500Y-104500500I0J147500D01*
G01*
X63238500Y-104155500D01*
G75*
G02*
X63386000Y-104008000I147500J0D01*
G01*
X63681000Y-104008000D01*
G75*
G02*
X63828500Y-104155500I0J-147500D01*
G01*
G37*
G36*
G01*
X62858500Y-104155500D02*
X62858500Y-104500500D01*
G75*
G02*
X62711000Y-104648000I-147500J0D01*
G01*
X62416000Y-104648000D01*
G75*
G02*
X62268500Y-104500500I0J147500D01*
G01*
X62268500Y-104155500D01*
G75*
G02*
X62416000Y-104008000I147500J0D01*
G01*
X62711000Y-104008000D01*
G75*
G02*
X62858500Y-104155500I0J-147500D01*
G01*
G37*
%TD*%
%TO.C,C27*%
G36*
G01*
X65105000Y-94972500D02*
X65105000Y-94627500D01*
G75*
G02*
X65252500Y-94480000I147500J0D01*
G01*
X65547500Y-94480000D01*
G75*
G02*
X65695000Y-94627500I0J-147500D01*
G01*
X65695000Y-94972500D01*
G75*
G02*
X65547500Y-95120000I-147500J0D01*
G01*
X65252500Y-95120000D01*
G75*
G02*
X65105000Y-94972500I0J147500D01*
G01*
G37*
G36*
G01*
X64135000Y-94972500D02*
X64135000Y-94627500D01*
G75*
G02*
X64282500Y-94480000I147500J0D01*
G01*
X64577500Y-94480000D01*
G75*
G02*
X64725000Y-94627500I0J-147500D01*
G01*
X64725000Y-94972500D01*
G75*
G02*
X64577500Y-95120000I-147500J0D01*
G01*
X64282500Y-95120000D01*
G75*
G02*
X64135000Y-94972500I0J147500D01*
G01*
G37*
%TD*%
%TO.C,C28*%
G36*
G01*
X64463500Y-105425500D02*
X64463500Y-105770500D01*
G75*
G02*
X64316000Y-105918000I-147500J0D01*
G01*
X64021000Y-105918000D01*
G75*
G02*
X63873500Y-105770500I0J147500D01*
G01*
X63873500Y-105425500D01*
G75*
G02*
X64021000Y-105278000I147500J0D01*
G01*
X64316000Y-105278000D01*
G75*
G02*
X64463500Y-105425500I0J-147500D01*
G01*
G37*
G36*
G01*
X63493500Y-105425500D02*
X63493500Y-105770500D01*
G75*
G02*
X63346000Y-105918000I-147500J0D01*
G01*
X63051000Y-105918000D01*
G75*
G02*
X62903500Y-105770500I0J147500D01*
G01*
X62903500Y-105425500D01*
G75*
G02*
X63051000Y-105278000I147500J0D01*
G01*
X63346000Y-105278000D01*
G75*
G02*
X63493500Y-105425500I0J-147500D01*
G01*
G37*
%TD*%
%TO.C,C29*%
G36*
G01*
X73711500Y-97683000D02*
X74056500Y-97683000D01*
G75*
G02*
X74204000Y-97830500I0J-147500D01*
G01*
X74204000Y-98125500D01*
G75*
G02*
X74056500Y-98273000I-147500J0D01*
G01*
X73711500Y-98273000D01*
G75*
G02*
X73564000Y-98125500I0J147500D01*
G01*
X73564000Y-97830500D01*
G75*
G02*
X73711500Y-97683000I147500J0D01*
G01*
G37*
G36*
G01*
X73711500Y-96713000D02*
X74056500Y-96713000D01*
G75*
G02*
X74204000Y-96860500I0J-147500D01*
G01*
X74204000Y-97155500D01*
G75*
G02*
X74056500Y-97303000I-147500J0D01*
G01*
X73711500Y-97303000D01*
G75*
G02*
X73564000Y-97155500I0J147500D01*
G01*
X73564000Y-96860500D01*
G75*
G02*
X73711500Y-96713000I147500J0D01*
G01*
G37*
%TD*%
%TO.C,C30*%
G36*
G01*
X69449800Y-106350060D02*
X69449800Y-106695060D01*
G75*
G02*
X69302300Y-106842560I-147500J0D01*
G01*
X69007300Y-106842560D01*
G75*
G02*
X68859800Y-106695060I0J147500D01*
G01*
X68859800Y-106350060D01*
G75*
G02*
X69007300Y-106202560I147500J0D01*
G01*
X69302300Y-106202560D01*
G75*
G02*
X69449800Y-106350060I0J-147500D01*
G01*
G37*
G36*
G01*
X70419800Y-106350060D02*
X70419800Y-106695060D01*
G75*
G02*
X70272300Y-106842560I-147500J0D01*
G01*
X69977300Y-106842560D01*
G75*
G02*
X69829800Y-106695060I0J147500D01*
G01*
X69829800Y-106350060D01*
G75*
G02*
X69977300Y-106202560I147500J0D01*
G01*
X70272300Y-106202560D01*
G75*
G02*
X70419800Y-106350060I0J-147500D01*
G01*
G37*
%TD*%
%TO.C,C31*%
G36*
G01*
X70251080Y-107961460D02*
X70251080Y-108436460D01*
G75*
G02*
X70013580Y-108673960I-237500J0D01*
G01*
X69438580Y-108673960D01*
G75*
G02*
X69201080Y-108436460I0J237500D01*
G01*
X69201080Y-107961460D01*
G75*
G02*
X69438580Y-107723960I237500J0D01*
G01*
X70013580Y-107723960D01*
G75*
G02*
X70251080Y-107961460I0J-237500D01*
G01*
G37*
G36*
G01*
X72001080Y-107961460D02*
X72001080Y-108436460D01*
G75*
G02*
X71763580Y-108673960I-237500J0D01*
G01*
X71188580Y-108673960D01*
G75*
G02*
X70951080Y-108436460I0J237500D01*
G01*
X70951080Y-107961460D01*
G75*
G02*
X71188580Y-107723960I237500J0D01*
G01*
X71763580Y-107723960D01*
G75*
G02*
X72001080Y-107961460I0J-237500D01*
G01*
G37*
%TD*%
%TO.C,D1*%
G36*
G01*
X76407000Y-54781500D02*
X76407000Y-54306500D01*
G75*
G02*
X76644500Y-54069000I237500J0D01*
G01*
X77219500Y-54069000D01*
G75*
G02*
X77457000Y-54306500I0J-237500D01*
G01*
X77457000Y-54781500D01*
G75*
G02*
X77219500Y-55019000I-237500J0D01*
G01*
X76644500Y-55019000D01*
G75*
G02*
X76407000Y-54781500I0J237500D01*
G01*
G37*
G36*
G01*
X74657000Y-54781500D02*
X74657000Y-54306500D01*
G75*
G02*
X74894500Y-54069000I237500J0D01*
G01*
X75469500Y-54069000D01*
G75*
G02*
X75707000Y-54306500I0J-237500D01*
G01*
X75707000Y-54781500D01*
G75*
G02*
X75469500Y-55019000I-237500J0D01*
G01*
X74894500Y-55019000D01*
G75*
G02*
X74657000Y-54781500I0J237500D01*
G01*
G37*
%TD*%
%TO.C,D2*%
G36*
G01*
X93171500Y-61405000D02*
X92696500Y-61405000D01*
G75*
G02*
X92459000Y-61167500I0J237500D01*
G01*
X92459000Y-60592500D01*
G75*
G02*
X92696500Y-60355000I237500J0D01*
G01*
X93171500Y-60355000D01*
G75*
G02*
X93409000Y-60592500I0J-237500D01*
G01*
X93409000Y-61167500D01*
G75*
G02*
X93171500Y-61405000I-237500J0D01*
G01*
G37*
G36*
G01*
X93171500Y-59655000D02*
X92696500Y-59655000D01*
G75*
G02*
X92459000Y-59417500I0J237500D01*
G01*
X92459000Y-58842500D01*
G75*
G02*
X92696500Y-58605000I237500J0D01*
G01*
X93171500Y-58605000D01*
G75*
G02*
X93409000Y-58842500I0J-237500D01*
G01*
X93409000Y-59417500D01*
G75*
G02*
X93171500Y-59655000I-237500J0D01*
G01*
G37*
%TD*%
%TO.C,D3*%
G36*
G01*
X79771000Y-54306500D02*
X79771000Y-54781500D01*
G75*
G02*
X79533500Y-55019000I-237500J0D01*
G01*
X78958500Y-55019000D01*
G75*
G02*
X78721000Y-54781500I0J237500D01*
G01*
X78721000Y-54306500D01*
G75*
G02*
X78958500Y-54069000I237500J0D01*
G01*
X79533500Y-54069000D01*
G75*
G02*
X79771000Y-54306500I0J-237500D01*
G01*
G37*
G36*
G01*
X81521000Y-54306500D02*
X81521000Y-54781500D01*
G75*
G02*
X81283500Y-55019000I-237500J0D01*
G01*
X80708500Y-55019000D01*
G75*
G02*
X80471000Y-54781500I0J237500D01*
G01*
X80471000Y-54306500D01*
G75*
G02*
X80708500Y-54069000I237500J0D01*
G01*
X81283500Y-54069000D01*
G75*
G02*
X81521000Y-54306500I0J-237500D01*
G01*
G37*
%TD*%
%TO.C,D4*%
G36*
G01*
X94856000Y-63958500D02*
X94856000Y-64433500D01*
G75*
G02*
X94618500Y-64671000I-237500J0D01*
G01*
X94043500Y-64671000D01*
G75*
G02*
X93806000Y-64433500I0J237500D01*
G01*
X93806000Y-63958500D01*
G75*
G02*
X94043500Y-63721000I237500J0D01*
G01*
X94618500Y-63721000D01*
G75*
G02*
X94856000Y-63958500I0J-237500D01*
G01*
G37*
G36*
G01*
X93106000Y-63958500D02*
X93106000Y-64433500D01*
G75*
G02*
X92868500Y-64671000I-237500J0D01*
G01*
X92293500Y-64671000D01*
G75*
G02*
X92056000Y-64433500I0J237500D01*
G01*
X92056000Y-63958500D01*
G75*
G02*
X92293500Y-63721000I237500J0D01*
G01*
X92868500Y-63721000D01*
G75*
G02*
X93106000Y-63958500I0J-237500D01*
G01*
G37*
%TD*%
%TO.C,D5*%
G36*
G01*
X61963000Y-67260500D02*
X61963000Y-67735500D01*
G75*
G02*
X61725500Y-67973000I-237500J0D01*
G01*
X61150500Y-67973000D01*
G75*
G02*
X60913000Y-67735500I0J237500D01*
G01*
X60913000Y-67260500D01*
G75*
G02*
X61150500Y-67023000I237500J0D01*
G01*
X61725500Y-67023000D01*
G75*
G02*
X61963000Y-67260500I0J-237500D01*
G01*
G37*
G36*
G01*
X60213000Y-67260500D02*
X60213000Y-67735500D01*
G75*
G02*
X59975500Y-67973000I-237500J0D01*
G01*
X59400500Y-67973000D01*
G75*
G02*
X59163000Y-67735500I0J237500D01*
G01*
X59163000Y-67260500D01*
G75*
G02*
X59400500Y-67023000I237500J0D01*
G01*
X59975500Y-67023000D01*
G75*
G02*
X60213000Y-67260500I0J-237500D01*
G01*
G37*
%TD*%
%TO.C,D6*%
G36*
G01*
X61962500Y-109645000D02*
X62437500Y-109645000D01*
G75*
G02*
X62675000Y-109882500I0J-237500D01*
G01*
X62675000Y-110457500D01*
G75*
G02*
X62437500Y-110695000I-237500J0D01*
G01*
X61962500Y-110695000D01*
G75*
G02*
X61725000Y-110457500I0J237500D01*
G01*
X61725000Y-109882500D01*
G75*
G02*
X61962500Y-109645000I237500J0D01*
G01*
G37*
G36*
G01*
X61962500Y-107895000D02*
X62437500Y-107895000D01*
G75*
G02*
X62675000Y-108132500I0J-237500D01*
G01*
X62675000Y-108707500D01*
G75*
G02*
X62437500Y-108945000I-237500J0D01*
G01*
X61962500Y-108945000D01*
G75*
G02*
X61725000Y-108707500I0J237500D01*
G01*
X61725000Y-108132500D01*
G75*
G02*
X61962500Y-107895000I237500J0D01*
G01*
G37*
%TD*%
%TO.C,D7*%
G36*
G01*
X60488500Y-102693500D02*
X60488500Y-103168500D01*
G75*
G02*
X60251000Y-103406000I-237500J0D01*
G01*
X59676000Y-103406000D01*
G75*
G02*
X59438500Y-103168500I0J237500D01*
G01*
X59438500Y-102693500D01*
G75*
G02*
X59676000Y-102456000I237500J0D01*
G01*
X60251000Y-102456000D01*
G75*
G02*
X60488500Y-102693500I0J-237500D01*
G01*
G37*
G36*
G01*
X58738500Y-102693500D02*
X58738500Y-103168500D01*
G75*
G02*
X58501000Y-103406000I-237500J0D01*
G01*
X57926000Y-103406000D01*
G75*
G02*
X57688500Y-103168500I0J237500D01*
G01*
X57688500Y-102693500D01*
G75*
G02*
X57926000Y-102456000I237500J0D01*
G01*
X58501000Y-102456000D01*
G75*
G02*
X58738500Y-102693500I0J-237500D01*
G01*
G37*
%TD*%
%TO.C,FB1*%
G36*
G01*
X76757200Y-107844620D02*
X76757200Y-108319620D01*
G75*
G02*
X76519700Y-108557120I-237500J0D01*
G01*
X75944700Y-108557120D01*
G75*
G02*
X75707200Y-108319620I0J237500D01*
G01*
X75707200Y-107844620D01*
G75*
G02*
X75944700Y-107607120I237500J0D01*
G01*
X76519700Y-107607120D01*
G75*
G02*
X76757200Y-107844620I0J-237500D01*
G01*
G37*
G36*
G01*
X75007200Y-107844620D02*
X75007200Y-108319620D01*
G75*
G02*
X74769700Y-108557120I-237500J0D01*
G01*
X74194700Y-108557120D01*
G75*
G02*
X73957200Y-108319620I0J237500D01*
G01*
X73957200Y-107844620D01*
G75*
G02*
X74194700Y-107607120I237500J0D01*
G01*
X74769700Y-107607120D01*
G75*
G02*
X75007200Y-107844620I0J-237500D01*
G01*
G37*
%TD*%
D14*
%TO.C,Q1*%
X61128880Y-73379760D03*
X61128880Y-75279760D03*
X63128880Y-74329760D03*
%TD*%
%TO.C,R1*%
G36*
G01*
X77104500Y-53038000D02*
X76759500Y-53038000D01*
G75*
G02*
X76612000Y-52890500I0J147500D01*
G01*
X76612000Y-52595500D01*
G75*
G02*
X76759500Y-52448000I147500J0D01*
G01*
X77104500Y-52448000D01*
G75*
G02*
X77252000Y-52595500I0J-147500D01*
G01*
X77252000Y-52890500D01*
G75*
G02*
X77104500Y-53038000I-147500J0D01*
G01*
G37*
G36*
G01*
X77104500Y-52068000D02*
X76759500Y-52068000D01*
G75*
G02*
X76612000Y-51920500I0J147500D01*
G01*
X76612000Y-51625500D01*
G75*
G02*
X76759500Y-51478000I147500J0D01*
G01*
X77104500Y-51478000D01*
G75*
G02*
X77252000Y-51625500I0J-147500D01*
G01*
X77252000Y-51920500D01*
G75*
G02*
X77104500Y-52068000I-147500J0D01*
G01*
G37*
%TD*%
%TO.C,R2*%
G36*
G01*
X68722500Y-56894000D02*
X68377500Y-56894000D01*
G75*
G02*
X68230000Y-56746500I0J147500D01*
G01*
X68230000Y-56451500D01*
G75*
G02*
X68377500Y-56304000I147500J0D01*
G01*
X68722500Y-56304000D01*
G75*
G02*
X68870000Y-56451500I0J-147500D01*
G01*
X68870000Y-56746500D01*
G75*
G02*
X68722500Y-56894000I-147500J0D01*
G01*
G37*
G36*
G01*
X68722500Y-57864000D02*
X68377500Y-57864000D01*
G75*
G02*
X68230000Y-57716500I0J147500D01*
G01*
X68230000Y-57421500D01*
G75*
G02*
X68377500Y-57274000I147500J0D01*
G01*
X68722500Y-57274000D01*
G75*
G02*
X68870000Y-57421500I0J-147500D01*
G01*
X68870000Y-57716500D01*
G75*
G02*
X68722500Y-57864000I-147500J0D01*
G01*
G37*
%TD*%
%TO.C,R3*%
G36*
G01*
X95138500Y-61547000D02*
X94793500Y-61547000D01*
G75*
G02*
X94646000Y-61399500I0J147500D01*
G01*
X94646000Y-61104500D01*
G75*
G02*
X94793500Y-60957000I147500J0D01*
G01*
X95138500Y-60957000D01*
G75*
G02*
X95286000Y-61104500I0J-147500D01*
G01*
X95286000Y-61399500D01*
G75*
G02*
X95138500Y-61547000I-147500J0D01*
G01*
G37*
G36*
G01*
X95138500Y-60577000D02*
X94793500Y-60577000D01*
G75*
G02*
X94646000Y-60429500I0J147500D01*
G01*
X94646000Y-60134500D01*
G75*
G02*
X94793500Y-59987000I147500J0D01*
G01*
X95138500Y-59987000D01*
G75*
G02*
X95286000Y-60134500I0J-147500D01*
G01*
X95286000Y-60429500D01*
G75*
G02*
X95138500Y-60577000I-147500J0D01*
G01*
G37*
%TD*%
%TO.C,R4*%
G36*
G01*
X96027500Y-57252000D02*
X95682500Y-57252000D01*
G75*
G02*
X95535000Y-57104500I0J147500D01*
G01*
X95535000Y-56809500D01*
G75*
G02*
X95682500Y-56662000I147500J0D01*
G01*
X96027500Y-56662000D01*
G75*
G02*
X96175000Y-56809500I0J-147500D01*
G01*
X96175000Y-57104500D01*
G75*
G02*
X96027500Y-57252000I-147500J0D01*
G01*
G37*
G36*
G01*
X96027500Y-58222000D02*
X95682500Y-58222000D01*
G75*
G02*
X95535000Y-58074500I0J147500D01*
G01*
X95535000Y-57779500D01*
G75*
G02*
X95682500Y-57632000I147500J0D01*
G01*
X96027500Y-57632000D01*
G75*
G02*
X96175000Y-57779500I0J-147500D01*
G01*
X96175000Y-58074500D01*
G75*
G02*
X96027500Y-58222000I-147500J0D01*
G01*
G37*
%TD*%
%TO.C,R5*%
G36*
G01*
X89496100Y-71674600D02*
X89971100Y-71674600D01*
G75*
G02*
X90208600Y-71912100I0J-237500D01*
G01*
X90208600Y-72487100D01*
G75*
G02*
X89971100Y-72724600I-237500J0D01*
G01*
X89496100Y-72724600D01*
G75*
G02*
X89258600Y-72487100I0J237500D01*
G01*
X89258600Y-71912100D01*
G75*
G02*
X89496100Y-71674600I237500J0D01*
G01*
G37*
G36*
G01*
X89496100Y-73424600D02*
X89971100Y-73424600D01*
G75*
G02*
X90208600Y-73662100I0J-237500D01*
G01*
X90208600Y-74237100D01*
G75*
G02*
X89971100Y-74474600I-237500J0D01*
G01*
X89496100Y-74474600D01*
G75*
G02*
X89258600Y-74237100I0J237500D01*
G01*
X89258600Y-73662100D01*
G75*
G02*
X89496100Y-73424600I237500J0D01*
G01*
G37*
%TD*%
%TO.C,R6*%
G36*
G01*
X79644500Y-50925000D02*
X79299500Y-50925000D01*
G75*
G02*
X79152000Y-50777500I0J147500D01*
G01*
X79152000Y-50482500D01*
G75*
G02*
X79299500Y-50335000I147500J0D01*
G01*
X79644500Y-50335000D01*
G75*
G02*
X79792000Y-50482500I0J-147500D01*
G01*
X79792000Y-50777500D01*
G75*
G02*
X79644500Y-50925000I-147500J0D01*
G01*
G37*
G36*
G01*
X79644500Y-51895000D02*
X79299500Y-51895000D01*
G75*
G02*
X79152000Y-51747500I0J147500D01*
G01*
X79152000Y-51452500D01*
G75*
G02*
X79299500Y-51305000I147500J0D01*
G01*
X79644500Y-51305000D01*
G75*
G02*
X79792000Y-51452500I0J-147500D01*
G01*
X79792000Y-51747500D01*
G75*
G02*
X79644500Y-51895000I-147500J0D01*
G01*
G37*
%TD*%
%TO.C,R7*%
G36*
G01*
X79767000Y-52720500D02*
X79767000Y-53065500D01*
G75*
G02*
X79619500Y-53213000I-147500J0D01*
G01*
X79324500Y-53213000D01*
G75*
G02*
X79177000Y-53065500I0J147500D01*
G01*
X79177000Y-52720500D01*
G75*
G02*
X79324500Y-52573000I147500J0D01*
G01*
X79619500Y-52573000D01*
G75*
G02*
X79767000Y-52720500I0J-147500D01*
G01*
G37*
G36*
G01*
X80737000Y-52720500D02*
X80737000Y-53065500D01*
G75*
G02*
X80589500Y-53213000I-147500J0D01*
G01*
X80294500Y-53213000D01*
G75*
G02*
X80147000Y-53065500I0J147500D01*
G01*
X80147000Y-52720500D01*
G75*
G02*
X80294500Y-52573000I147500J0D01*
G01*
X80589500Y-52573000D01*
G75*
G02*
X80737000Y-52720500I0J-147500D01*
G01*
G37*
%TD*%
%TO.C,R8*%
G36*
G01*
X94285500Y-56708000D02*
X94630500Y-56708000D01*
G75*
G02*
X94778000Y-56855500I0J-147500D01*
G01*
X94778000Y-57150500D01*
G75*
G02*
X94630500Y-57298000I-147500J0D01*
G01*
X94285500Y-57298000D01*
G75*
G02*
X94138000Y-57150500I0J147500D01*
G01*
X94138000Y-56855500D01*
G75*
G02*
X94285500Y-56708000I147500J0D01*
G01*
G37*
G36*
G01*
X94285500Y-57678000D02*
X94630500Y-57678000D01*
G75*
G02*
X94778000Y-57825500I0J-147500D01*
G01*
X94778000Y-58120500D01*
G75*
G02*
X94630500Y-58268000I-147500J0D01*
G01*
X94285500Y-58268000D01*
G75*
G02*
X94138000Y-58120500I0J147500D01*
G01*
X94138000Y-57825500D01*
G75*
G02*
X94285500Y-57678000I147500J0D01*
G01*
G37*
%TD*%
%TO.C,R9*%
G36*
G01*
X93737000Y-65674500D02*
X93737000Y-66019500D01*
G75*
G02*
X93589500Y-66167000I-147500J0D01*
G01*
X93294500Y-66167000D01*
G75*
G02*
X93147000Y-66019500I0J147500D01*
G01*
X93147000Y-65674500D01*
G75*
G02*
X93294500Y-65527000I147500J0D01*
G01*
X93589500Y-65527000D01*
G75*
G02*
X93737000Y-65674500I0J-147500D01*
G01*
G37*
G36*
G01*
X92767000Y-65674500D02*
X92767000Y-66019500D01*
G75*
G02*
X92619500Y-66167000I-147500J0D01*
G01*
X92324500Y-66167000D01*
G75*
G02*
X92177000Y-66019500I0J147500D01*
G01*
X92177000Y-65674500D01*
G75*
G02*
X92324500Y-65527000I147500J0D01*
G01*
X92619500Y-65527000D01*
G75*
G02*
X92767000Y-65674500I0J-147500D01*
G01*
G37*
%TD*%
%TO.C,R10*%
G36*
G01*
X94408480Y-102150440D02*
X93933480Y-102150440D01*
G75*
G02*
X93695980Y-101912940I0J237500D01*
G01*
X93695980Y-101337940D01*
G75*
G02*
X93933480Y-101100440I237500J0D01*
G01*
X94408480Y-101100440D01*
G75*
G02*
X94645980Y-101337940I0J-237500D01*
G01*
X94645980Y-101912940D01*
G75*
G02*
X94408480Y-102150440I-237500J0D01*
G01*
G37*
G36*
G01*
X94408480Y-103900440D02*
X93933480Y-103900440D01*
G75*
G02*
X93695980Y-103662940I0J237500D01*
G01*
X93695980Y-103087940D01*
G75*
G02*
X93933480Y-102850440I237500J0D01*
G01*
X94408480Y-102850440D01*
G75*
G02*
X94645980Y-103087940I0J-237500D01*
G01*
X94645980Y-103662940D01*
G75*
G02*
X94408480Y-103900440I-237500J0D01*
G01*
G37*
%TD*%
%TO.C,R11*%
G36*
G01*
X78299800Y-92036100D02*
X77824800Y-92036100D01*
G75*
G02*
X77587300Y-91798600I0J237500D01*
G01*
X77587300Y-91223600D01*
G75*
G02*
X77824800Y-90986100I237500J0D01*
G01*
X78299800Y-90986100D01*
G75*
G02*
X78537300Y-91223600I0J-237500D01*
G01*
X78537300Y-91798600D01*
G75*
G02*
X78299800Y-92036100I-237500J0D01*
G01*
G37*
G36*
G01*
X78299800Y-90286100D02*
X77824800Y-90286100D01*
G75*
G02*
X77587300Y-90048600I0J237500D01*
G01*
X77587300Y-89473600D01*
G75*
G02*
X77824800Y-89236100I237500J0D01*
G01*
X78299800Y-89236100D01*
G75*
G02*
X78537300Y-89473600I0J-237500D01*
G01*
X78537300Y-90048600D01*
G75*
G02*
X78299800Y-90286100I-237500J0D01*
G01*
G37*
%TD*%
%TO.C,R12*%
G36*
G01*
X88480100Y-91216000D02*
X88955100Y-91216000D01*
G75*
G02*
X89192600Y-91453500I0J-237500D01*
G01*
X89192600Y-92028500D01*
G75*
G02*
X88955100Y-92266000I-237500J0D01*
G01*
X88480100Y-92266000D01*
G75*
G02*
X88242600Y-92028500I0J237500D01*
G01*
X88242600Y-91453500D01*
G75*
G02*
X88480100Y-91216000I237500J0D01*
G01*
G37*
G36*
G01*
X88480100Y-89466000D02*
X88955100Y-89466000D01*
G75*
G02*
X89192600Y-89703500I0J-237500D01*
G01*
X89192600Y-90278500D01*
G75*
G02*
X88955100Y-90516000I-237500J0D01*
G01*
X88480100Y-90516000D01*
G75*
G02*
X88242600Y-90278500I0J237500D01*
G01*
X88242600Y-89703500D01*
G75*
G02*
X88480100Y-89466000I237500J0D01*
G01*
G37*
%TD*%
%TO.C,R13*%
G36*
G01*
X90722300Y-96060520D02*
X90722300Y-96405520D01*
G75*
G02*
X90574800Y-96553020I-147500J0D01*
G01*
X90279800Y-96553020D01*
G75*
G02*
X90132300Y-96405520I0J147500D01*
G01*
X90132300Y-96060520D01*
G75*
G02*
X90279800Y-95913020I147500J0D01*
G01*
X90574800Y-95913020D01*
G75*
G02*
X90722300Y-96060520I0J-147500D01*
G01*
G37*
G36*
G01*
X91692300Y-96060520D02*
X91692300Y-96405520D01*
G75*
G02*
X91544800Y-96553020I-147500J0D01*
G01*
X91249800Y-96553020D01*
G75*
G02*
X91102300Y-96405520I0J147500D01*
G01*
X91102300Y-96060520D01*
G75*
G02*
X91249800Y-95913020I147500J0D01*
G01*
X91544800Y-95913020D01*
G75*
G02*
X91692300Y-96060520I0J-147500D01*
G01*
G37*
%TD*%
%TO.C,R14*%
G36*
G01*
X93899280Y-96060520D02*
X93899280Y-96405520D01*
G75*
G02*
X93751780Y-96553020I-147500J0D01*
G01*
X93456780Y-96553020D01*
G75*
G02*
X93309280Y-96405520I0J147500D01*
G01*
X93309280Y-96060520D01*
G75*
G02*
X93456780Y-95913020I147500J0D01*
G01*
X93751780Y-95913020D01*
G75*
G02*
X93899280Y-96060520I0J-147500D01*
G01*
G37*
G36*
G01*
X92929280Y-96060520D02*
X92929280Y-96405520D01*
G75*
G02*
X92781780Y-96553020I-147500J0D01*
G01*
X92486780Y-96553020D01*
G75*
G02*
X92339280Y-96405520I0J147500D01*
G01*
X92339280Y-96060520D01*
G75*
G02*
X92486780Y-95913020I147500J0D01*
G01*
X92781780Y-95913020D01*
G75*
G02*
X92929280Y-96060520I0J-147500D01*
G01*
G37*
%TD*%
%TO.C,R15*%
G36*
G01*
X58939000Y-65547500D02*
X58939000Y-65892500D01*
G75*
G02*
X58791500Y-66040000I-147500J0D01*
G01*
X58496500Y-66040000D01*
G75*
G02*
X58349000Y-65892500I0J147500D01*
G01*
X58349000Y-65547500D01*
G75*
G02*
X58496500Y-65400000I147500J0D01*
G01*
X58791500Y-65400000D01*
G75*
G02*
X58939000Y-65547500I0J-147500D01*
G01*
G37*
G36*
G01*
X59909000Y-65547500D02*
X59909000Y-65892500D01*
G75*
G02*
X59761500Y-66040000I-147500J0D01*
G01*
X59466500Y-66040000D01*
G75*
G02*
X59319000Y-65892500I0J147500D01*
G01*
X59319000Y-65547500D01*
G75*
G02*
X59466500Y-65400000I147500J0D01*
G01*
X59761500Y-65400000D01*
G75*
G02*
X59909000Y-65547500I0J-147500D01*
G01*
G37*
%TD*%
%TO.C,R16*%
G36*
G01*
X62495000Y-69103500D02*
X62495000Y-69448500D01*
G75*
G02*
X62347500Y-69596000I-147500J0D01*
G01*
X62052500Y-69596000D01*
G75*
G02*
X61905000Y-69448500I0J147500D01*
G01*
X61905000Y-69103500D01*
G75*
G02*
X62052500Y-68956000I147500J0D01*
G01*
X62347500Y-68956000D01*
G75*
G02*
X62495000Y-69103500I0J-147500D01*
G01*
G37*
G36*
G01*
X61525000Y-69103500D02*
X61525000Y-69448500D01*
G75*
G02*
X61377500Y-69596000I-147500J0D01*
G01*
X61082500Y-69596000D01*
G75*
G02*
X60935000Y-69448500I0J147500D01*
G01*
X60935000Y-69103500D01*
G75*
G02*
X61082500Y-68956000I147500J0D01*
G01*
X61377500Y-68956000D01*
G75*
G02*
X61525000Y-69103500I0J-147500D01*
G01*
G37*
%TD*%
%TO.C,R17*%
G36*
G01*
X64317100Y-110655600D02*
X63842100Y-110655600D01*
G75*
G02*
X63604600Y-110418100I0J237500D01*
G01*
X63604600Y-109843100D01*
G75*
G02*
X63842100Y-109605600I237500J0D01*
G01*
X64317100Y-109605600D01*
G75*
G02*
X64554600Y-109843100I0J-237500D01*
G01*
X64554600Y-110418100D01*
G75*
G02*
X64317100Y-110655600I-237500J0D01*
G01*
G37*
G36*
G01*
X64317100Y-108905600D02*
X63842100Y-108905600D01*
G75*
G02*
X63604600Y-108668100I0J237500D01*
G01*
X63604600Y-108093100D01*
G75*
G02*
X63842100Y-107855600I237500J0D01*
G01*
X64317100Y-107855600D01*
G75*
G02*
X64554600Y-108093100I0J-237500D01*
G01*
X64554600Y-108668100D01*
G75*
G02*
X64317100Y-108905600I-237500J0D01*
G01*
G37*
%TD*%
%TO.C,R18*%
G36*
G01*
X57702500Y-104946500D02*
X57702500Y-104471500D01*
G75*
G02*
X57940000Y-104234000I237500J0D01*
G01*
X58515000Y-104234000D01*
G75*
G02*
X58752500Y-104471500I0J-237500D01*
G01*
X58752500Y-104946500D01*
G75*
G02*
X58515000Y-105184000I-237500J0D01*
G01*
X57940000Y-105184000D01*
G75*
G02*
X57702500Y-104946500I0J237500D01*
G01*
G37*
G36*
G01*
X59452500Y-104946500D02*
X59452500Y-104471500D01*
G75*
G02*
X59690000Y-104234000I237500J0D01*
G01*
X60265000Y-104234000D01*
G75*
G02*
X60502500Y-104471500I0J-237500D01*
G01*
X60502500Y-104946500D01*
G75*
G02*
X60265000Y-105184000I-237500J0D01*
G01*
X59690000Y-105184000D01*
G75*
G02*
X59452500Y-104946500I0J237500D01*
G01*
G37*
%TD*%
%TO.C,R19*%
G36*
G01*
X59317320Y-74998000D02*
X59317320Y-75343000D01*
G75*
G02*
X59169820Y-75490500I-147500J0D01*
G01*
X58874820Y-75490500D01*
G75*
G02*
X58727320Y-75343000I0J147500D01*
G01*
X58727320Y-74998000D01*
G75*
G02*
X58874820Y-74850500I147500J0D01*
G01*
X59169820Y-74850500D01*
G75*
G02*
X59317320Y-74998000I0J-147500D01*
G01*
G37*
G36*
G01*
X58347320Y-74998000D02*
X58347320Y-75343000D01*
G75*
G02*
X58199820Y-75490500I-147500J0D01*
G01*
X57904820Y-75490500D01*
G75*
G02*
X57757320Y-75343000I0J147500D01*
G01*
X57757320Y-74998000D01*
G75*
G02*
X57904820Y-74850500I147500J0D01*
G01*
X58199820Y-74850500D01*
G75*
G02*
X58347320Y-74998000I0J-147500D01*
G01*
G37*
%TD*%
%TO.C,R20*%
G36*
G01*
X57790480Y-73511660D02*
X57790480Y-73166660D01*
G75*
G02*
X57937980Y-73019160I147500J0D01*
G01*
X58232980Y-73019160D01*
G75*
G02*
X58380480Y-73166660I0J-147500D01*
G01*
X58380480Y-73511660D01*
G75*
G02*
X58232980Y-73659160I-147500J0D01*
G01*
X57937980Y-73659160D01*
G75*
G02*
X57790480Y-73511660I0J147500D01*
G01*
G37*
G36*
G01*
X58760480Y-73511660D02*
X58760480Y-73166660D01*
G75*
G02*
X58907980Y-73019160I147500J0D01*
G01*
X59202980Y-73019160D01*
G75*
G02*
X59350480Y-73166660I0J-147500D01*
G01*
X59350480Y-73511660D01*
G75*
G02*
X59202980Y-73659160I-147500J0D01*
G01*
X58907980Y-73659160D01*
G75*
G02*
X58760480Y-73511660I0J147500D01*
G01*
G37*
%TD*%
%TO.C,R21*%
G36*
G01*
X65427500Y-78990000D02*
X65772500Y-78990000D01*
G75*
G02*
X65920000Y-79137500I0J-147500D01*
G01*
X65920000Y-79432500D01*
G75*
G02*
X65772500Y-79580000I-147500J0D01*
G01*
X65427500Y-79580000D01*
G75*
G02*
X65280000Y-79432500I0J147500D01*
G01*
X65280000Y-79137500D01*
G75*
G02*
X65427500Y-78990000I147500J0D01*
G01*
G37*
G36*
G01*
X65427500Y-78020000D02*
X65772500Y-78020000D01*
G75*
G02*
X65920000Y-78167500I0J-147500D01*
G01*
X65920000Y-78462500D01*
G75*
G02*
X65772500Y-78610000I-147500J0D01*
G01*
X65427500Y-78610000D01*
G75*
G02*
X65280000Y-78462500I0J147500D01*
G01*
X65280000Y-78167500D01*
G75*
G02*
X65427500Y-78020000I147500J0D01*
G01*
G37*
%TD*%
%TO.C,R22*%
G36*
G01*
X66979000Y-110442500D02*
X67454000Y-110442500D01*
G75*
G02*
X67691500Y-110680000I0J-237500D01*
G01*
X67691500Y-111255000D01*
G75*
G02*
X67454000Y-111492500I-237500J0D01*
G01*
X66979000Y-111492500D01*
G75*
G02*
X66741500Y-111255000I0J237500D01*
G01*
X66741500Y-110680000D01*
G75*
G02*
X66979000Y-110442500I237500J0D01*
G01*
G37*
G36*
G01*
X66979000Y-108692500D02*
X67454000Y-108692500D01*
G75*
G02*
X67691500Y-108930000I0J-237500D01*
G01*
X67691500Y-109505000D01*
G75*
G02*
X67454000Y-109742500I-237500J0D01*
G01*
X66979000Y-109742500D01*
G75*
G02*
X66741500Y-109505000I0J237500D01*
G01*
X66741500Y-108930000D01*
G75*
G02*
X66979000Y-108692500I237500J0D01*
G01*
G37*
%TD*%
%TO.C,R23*%
G36*
G01*
X63990000Y-88572500D02*
X63990000Y-88227500D01*
G75*
G02*
X64137500Y-88080000I147500J0D01*
G01*
X64432500Y-88080000D01*
G75*
G02*
X64580000Y-88227500I0J-147500D01*
G01*
X64580000Y-88572500D01*
G75*
G02*
X64432500Y-88720000I-147500J0D01*
G01*
X64137500Y-88720000D01*
G75*
G02*
X63990000Y-88572500I0J147500D01*
G01*
G37*
G36*
G01*
X63020000Y-88572500D02*
X63020000Y-88227500D01*
G75*
G02*
X63167500Y-88080000I147500J0D01*
G01*
X63462500Y-88080000D01*
G75*
G02*
X63610000Y-88227500I0J-147500D01*
G01*
X63610000Y-88572500D01*
G75*
G02*
X63462500Y-88720000I-147500J0D01*
G01*
X63167500Y-88720000D01*
G75*
G02*
X63020000Y-88572500I0J147500D01*
G01*
G37*
%TD*%
%TO.C,R24*%
G36*
G01*
X75428100Y-103353000D02*
X75083100Y-103353000D01*
G75*
G02*
X74935600Y-103205500I0J147500D01*
G01*
X74935600Y-102910500D01*
G75*
G02*
X75083100Y-102763000I147500J0D01*
G01*
X75428100Y-102763000D01*
G75*
G02*
X75575600Y-102910500I0J-147500D01*
G01*
X75575600Y-103205500D01*
G75*
G02*
X75428100Y-103353000I-147500J0D01*
G01*
G37*
G36*
G01*
X75428100Y-104323000D02*
X75083100Y-104323000D01*
G75*
G02*
X74935600Y-104175500I0J147500D01*
G01*
X74935600Y-103880500D01*
G75*
G02*
X75083100Y-103733000I147500J0D01*
G01*
X75428100Y-103733000D01*
G75*
G02*
X75575600Y-103880500I0J-147500D01*
G01*
X75575600Y-104175500D01*
G75*
G02*
X75428100Y-104323000I-147500J0D01*
G01*
G37*
%TD*%
%TO.C,R25*%
G36*
G01*
X78069700Y-105260400D02*
X77724700Y-105260400D01*
G75*
G02*
X77577200Y-105112900I0J147500D01*
G01*
X77577200Y-104817900D01*
G75*
G02*
X77724700Y-104670400I147500J0D01*
G01*
X78069700Y-104670400D01*
G75*
G02*
X78217200Y-104817900I0J-147500D01*
G01*
X78217200Y-105112900D01*
G75*
G02*
X78069700Y-105260400I-147500J0D01*
G01*
G37*
G36*
G01*
X78069700Y-104290400D02*
X77724700Y-104290400D01*
G75*
G02*
X77577200Y-104142900I0J147500D01*
G01*
X77577200Y-103847900D01*
G75*
G02*
X77724700Y-103700400I147500J0D01*
G01*
X78069700Y-103700400D01*
G75*
G02*
X78217200Y-103847900I0J-147500D01*
G01*
X78217200Y-104142900D01*
G75*
G02*
X78069700Y-104290400I-147500J0D01*
G01*
G37*
%TD*%
D13*
%TO.C,U1*%
X91925220Y-112480100D03*
X91925220Y-117080100D03*
X91925220Y-114780100D03*
D12*
X98225220Y-114780100D03*
%TD*%
D10*
%TO.C,U3*%
X90366020Y-101166960D03*
X91316020Y-101166960D03*
X92266020Y-101166960D03*
X92266020Y-98466960D03*
X90366020Y-98466960D03*
%TD*%
%TO.C,U5*%
G36*
G01*
X64478500Y-103418000D02*
X63153500Y-103418000D01*
G75*
G02*
X63078500Y-103343000I0J75000D01*
G01*
X63078500Y-103193000D01*
G75*
G02*
X63153500Y-103118000I75000J0D01*
G01*
X64478500Y-103118000D01*
G75*
G02*
X64553500Y-103193000I0J-75000D01*
G01*
X64553500Y-103343000D01*
G75*
G02*
X64478500Y-103418000I-75000J0D01*
G01*
G37*
G36*
G01*
X64478500Y-102918000D02*
X63153500Y-102918000D01*
G75*
G02*
X63078500Y-102843000I0J75000D01*
G01*
X63078500Y-102693000D01*
G75*
G02*
X63153500Y-102618000I75000J0D01*
G01*
X64478500Y-102618000D01*
G75*
G02*
X64553500Y-102693000I0J-75000D01*
G01*
X64553500Y-102843000D01*
G75*
G02*
X64478500Y-102918000I-75000J0D01*
G01*
G37*
G36*
G01*
X64478500Y-102418000D02*
X63153500Y-102418000D01*
G75*
G02*
X63078500Y-102343000I0J75000D01*
G01*
X63078500Y-102193000D01*
G75*
G02*
X63153500Y-102118000I75000J0D01*
G01*
X64478500Y-102118000D01*
G75*
G02*
X64553500Y-102193000I0J-75000D01*
G01*
X64553500Y-102343000D01*
G75*
G02*
X64478500Y-102418000I-75000J0D01*
G01*
G37*
G36*
G01*
X64478500Y-101918000D02*
X63153500Y-101918000D01*
G75*
G02*
X63078500Y-101843000I0J75000D01*
G01*
X63078500Y-101693000D01*
G75*
G02*
X63153500Y-101618000I75000J0D01*
G01*
X64478500Y-101618000D01*
G75*
G02*
X64553500Y-101693000I0J-75000D01*
G01*
X64553500Y-101843000D01*
G75*
G02*
X64478500Y-101918000I-75000J0D01*
G01*
G37*
G36*
G01*
X64478500Y-101418000D02*
X63153500Y-101418000D01*
G75*
G02*
X63078500Y-101343000I0J75000D01*
G01*
X63078500Y-101193000D01*
G75*
G02*
X63153500Y-101118000I75000J0D01*
G01*
X64478500Y-101118000D01*
G75*
G02*
X64553500Y-101193000I0J-75000D01*
G01*
X64553500Y-101343000D01*
G75*
G02*
X64478500Y-101418000I-75000J0D01*
G01*
G37*
G36*
G01*
X64478500Y-100918000D02*
X63153500Y-100918000D01*
G75*
G02*
X63078500Y-100843000I0J75000D01*
G01*
X63078500Y-100693000D01*
G75*
G02*
X63153500Y-100618000I75000J0D01*
G01*
X64478500Y-100618000D01*
G75*
G02*
X64553500Y-100693000I0J-75000D01*
G01*
X64553500Y-100843000D01*
G75*
G02*
X64478500Y-100918000I-75000J0D01*
G01*
G37*
G36*
G01*
X64478500Y-100418000D02*
X63153500Y-100418000D01*
G75*
G02*
X63078500Y-100343000I0J75000D01*
G01*
X63078500Y-100193000D01*
G75*
G02*
X63153500Y-100118000I75000J0D01*
G01*
X64478500Y-100118000D01*
G75*
G02*
X64553500Y-100193000I0J-75000D01*
G01*
X64553500Y-100343000D01*
G75*
G02*
X64478500Y-100418000I-75000J0D01*
G01*
G37*
G36*
G01*
X64478500Y-99918000D02*
X63153500Y-99918000D01*
G75*
G02*
X63078500Y-99843000I0J75000D01*
G01*
X63078500Y-99693000D01*
G75*
G02*
X63153500Y-99618000I75000J0D01*
G01*
X64478500Y-99618000D01*
G75*
G02*
X64553500Y-99693000I0J-75000D01*
G01*
X64553500Y-99843000D01*
G75*
G02*
X64478500Y-99918000I-75000J0D01*
G01*
G37*
G36*
G01*
X64478500Y-99418000D02*
X63153500Y-99418000D01*
G75*
G02*
X63078500Y-99343000I0J75000D01*
G01*
X63078500Y-99193000D01*
G75*
G02*
X63153500Y-99118000I75000J0D01*
G01*
X64478500Y-99118000D01*
G75*
G02*
X64553500Y-99193000I0J-75000D01*
G01*
X64553500Y-99343000D01*
G75*
G02*
X64478500Y-99418000I-75000J0D01*
G01*
G37*
G36*
G01*
X64478500Y-98918000D02*
X63153500Y-98918000D01*
G75*
G02*
X63078500Y-98843000I0J75000D01*
G01*
X63078500Y-98693000D01*
G75*
G02*
X63153500Y-98618000I75000J0D01*
G01*
X64478500Y-98618000D01*
G75*
G02*
X64553500Y-98693000I0J-75000D01*
G01*
X64553500Y-98843000D01*
G75*
G02*
X64478500Y-98918000I-75000J0D01*
G01*
G37*
G36*
G01*
X64478500Y-98418000D02*
X63153500Y-98418000D01*
G75*
G02*
X63078500Y-98343000I0J75000D01*
G01*
X63078500Y-98193000D01*
G75*
G02*
X63153500Y-98118000I75000J0D01*
G01*
X64478500Y-98118000D01*
G75*
G02*
X64553500Y-98193000I0J-75000D01*
G01*
X64553500Y-98343000D01*
G75*
G02*
X64478500Y-98418000I-75000J0D01*
G01*
G37*
G36*
G01*
X64478500Y-97918000D02*
X63153500Y-97918000D01*
G75*
G02*
X63078500Y-97843000I0J75000D01*
G01*
X63078500Y-97693000D01*
G75*
G02*
X63153500Y-97618000I75000J0D01*
G01*
X64478500Y-97618000D01*
G75*
G02*
X64553500Y-97693000I0J-75000D01*
G01*
X64553500Y-97843000D01*
G75*
G02*
X64478500Y-97918000I-75000J0D01*
G01*
G37*
G36*
G01*
X65303500Y-97093000D02*
X65153500Y-97093000D01*
G75*
G02*
X65078500Y-97018000I0J75000D01*
G01*
X65078500Y-95693000D01*
G75*
G02*
X65153500Y-95618000I75000J0D01*
G01*
X65303500Y-95618000D01*
G75*
G02*
X65378500Y-95693000I0J-75000D01*
G01*
X65378500Y-97018000D01*
G75*
G02*
X65303500Y-97093000I-75000J0D01*
G01*
G37*
G36*
G01*
X65803500Y-97093000D02*
X65653500Y-97093000D01*
G75*
G02*
X65578500Y-97018000I0J75000D01*
G01*
X65578500Y-95693000D01*
G75*
G02*
X65653500Y-95618000I75000J0D01*
G01*
X65803500Y-95618000D01*
G75*
G02*
X65878500Y-95693000I0J-75000D01*
G01*
X65878500Y-97018000D01*
G75*
G02*
X65803500Y-97093000I-75000J0D01*
G01*
G37*
G36*
G01*
X66303500Y-97093000D02*
X66153500Y-97093000D01*
G75*
G02*
X66078500Y-97018000I0J75000D01*
G01*
X66078500Y-95693000D01*
G75*
G02*
X66153500Y-95618000I75000J0D01*
G01*
X66303500Y-95618000D01*
G75*
G02*
X66378500Y-95693000I0J-75000D01*
G01*
X66378500Y-97018000D01*
G75*
G02*
X66303500Y-97093000I-75000J0D01*
G01*
G37*
G36*
G01*
X66803500Y-97093000D02*
X66653500Y-97093000D01*
G75*
G02*
X66578500Y-97018000I0J75000D01*
G01*
X66578500Y-95693000D01*
G75*
G02*
X66653500Y-95618000I75000J0D01*
G01*
X66803500Y-95618000D01*
G75*
G02*
X66878500Y-95693000I0J-75000D01*
G01*
X66878500Y-97018000D01*
G75*
G02*
X66803500Y-97093000I-75000J0D01*
G01*
G37*
G36*
G01*
X67303500Y-97093000D02*
X67153500Y-97093000D01*
G75*
G02*
X67078500Y-97018000I0J75000D01*
G01*
X67078500Y-95693000D01*
G75*
G02*
X67153500Y-95618000I75000J0D01*
G01*
X67303500Y-95618000D01*
G75*
G02*
X67378500Y-95693000I0J-75000D01*
G01*
X67378500Y-97018000D01*
G75*
G02*
X67303500Y-97093000I-75000J0D01*
G01*
G37*
G36*
G01*
X67803500Y-97093000D02*
X67653500Y-97093000D01*
G75*
G02*
X67578500Y-97018000I0J75000D01*
G01*
X67578500Y-95693000D01*
G75*
G02*
X67653500Y-95618000I75000J0D01*
G01*
X67803500Y-95618000D01*
G75*
G02*
X67878500Y-95693000I0J-75000D01*
G01*
X67878500Y-97018000D01*
G75*
G02*
X67803500Y-97093000I-75000J0D01*
G01*
G37*
G36*
G01*
X68303500Y-97093000D02*
X68153500Y-97093000D01*
G75*
G02*
X68078500Y-97018000I0J75000D01*
G01*
X68078500Y-95693000D01*
G75*
G02*
X68153500Y-95618000I75000J0D01*
G01*
X68303500Y-95618000D01*
G75*
G02*
X68378500Y-95693000I0J-75000D01*
G01*
X68378500Y-97018000D01*
G75*
G02*
X68303500Y-97093000I-75000J0D01*
G01*
G37*
G36*
G01*
X68803500Y-97093000D02*
X68653500Y-97093000D01*
G75*
G02*
X68578500Y-97018000I0J75000D01*
G01*
X68578500Y-95693000D01*
G75*
G02*
X68653500Y-95618000I75000J0D01*
G01*
X68803500Y-95618000D01*
G75*
G02*
X68878500Y-95693000I0J-75000D01*
G01*
X68878500Y-97018000D01*
G75*
G02*
X68803500Y-97093000I-75000J0D01*
G01*
G37*
G36*
G01*
X69303500Y-97093000D02*
X69153500Y-97093000D01*
G75*
G02*
X69078500Y-97018000I0J75000D01*
G01*
X69078500Y-95693000D01*
G75*
G02*
X69153500Y-95618000I75000J0D01*
G01*
X69303500Y-95618000D01*
G75*
G02*
X69378500Y-95693000I0J-75000D01*
G01*
X69378500Y-97018000D01*
G75*
G02*
X69303500Y-97093000I-75000J0D01*
G01*
G37*
G36*
G01*
X69803500Y-97093000D02*
X69653500Y-97093000D01*
G75*
G02*
X69578500Y-97018000I0J75000D01*
G01*
X69578500Y-95693000D01*
G75*
G02*
X69653500Y-95618000I75000J0D01*
G01*
X69803500Y-95618000D01*
G75*
G02*
X69878500Y-95693000I0J-75000D01*
G01*
X69878500Y-97018000D01*
G75*
G02*
X69803500Y-97093000I-75000J0D01*
G01*
G37*
G36*
G01*
X70303500Y-97093000D02*
X70153500Y-97093000D01*
G75*
G02*
X70078500Y-97018000I0J75000D01*
G01*
X70078500Y-95693000D01*
G75*
G02*
X70153500Y-95618000I75000J0D01*
G01*
X70303500Y-95618000D01*
G75*
G02*
X70378500Y-95693000I0J-75000D01*
G01*
X70378500Y-97018000D01*
G75*
G02*
X70303500Y-97093000I-75000J0D01*
G01*
G37*
G36*
G01*
X70803500Y-97093000D02*
X70653500Y-97093000D01*
G75*
G02*
X70578500Y-97018000I0J75000D01*
G01*
X70578500Y-95693000D01*
G75*
G02*
X70653500Y-95618000I75000J0D01*
G01*
X70803500Y-95618000D01*
G75*
G02*
X70878500Y-95693000I0J-75000D01*
G01*
X70878500Y-97018000D01*
G75*
G02*
X70803500Y-97093000I-75000J0D01*
G01*
G37*
G36*
G01*
X72803500Y-97918000D02*
X71478500Y-97918000D01*
G75*
G02*
X71403500Y-97843000I0J75000D01*
G01*
X71403500Y-97693000D01*
G75*
G02*
X71478500Y-97618000I75000J0D01*
G01*
X72803500Y-97618000D01*
G75*
G02*
X72878500Y-97693000I0J-75000D01*
G01*
X72878500Y-97843000D01*
G75*
G02*
X72803500Y-97918000I-75000J0D01*
G01*
G37*
G36*
G01*
X72803500Y-98418000D02*
X71478500Y-98418000D01*
G75*
G02*
X71403500Y-98343000I0J75000D01*
G01*
X71403500Y-98193000D01*
G75*
G02*
X71478500Y-98118000I75000J0D01*
G01*
X72803500Y-98118000D01*
G75*
G02*
X72878500Y-98193000I0J-75000D01*
G01*
X72878500Y-98343000D01*
G75*
G02*
X72803500Y-98418000I-75000J0D01*
G01*
G37*
G36*
G01*
X72803500Y-98918000D02*
X71478500Y-98918000D01*
G75*
G02*
X71403500Y-98843000I0J75000D01*
G01*
X71403500Y-98693000D01*
G75*
G02*
X71478500Y-98618000I75000J0D01*
G01*
X72803500Y-98618000D01*
G75*
G02*
X72878500Y-98693000I0J-75000D01*
G01*
X72878500Y-98843000D01*
G75*
G02*
X72803500Y-98918000I-75000J0D01*
G01*
G37*
G36*
G01*
X72803500Y-99418000D02*
X71478500Y-99418000D01*
G75*
G02*
X71403500Y-99343000I0J75000D01*
G01*
X71403500Y-99193000D01*
G75*
G02*
X71478500Y-99118000I75000J0D01*
G01*
X72803500Y-99118000D01*
G75*
G02*
X72878500Y-99193000I0J-75000D01*
G01*
X72878500Y-99343000D01*
G75*
G02*
X72803500Y-99418000I-75000J0D01*
G01*
G37*
G36*
G01*
X72803500Y-99918000D02*
X71478500Y-99918000D01*
G75*
G02*
X71403500Y-99843000I0J75000D01*
G01*
X71403500Y-99693000D01*
G75*
G02*
X71478500Y-99618000I75000J0D01*
G01*
X72803500Y-99618000D01*
G75*
G02*
X72878500Y-99693000I0J-75000D01*
G01*
X72878500Y-99843000D01*
G75*
G02*
X72803500Y-99918000I-75000J0D01*
G01*
G37*
G36*
G01*
X72803500Y-100418000D02*
X71478500Y-100418000D01*
G75*
G02*
X71403500Y-100343000I0J75000D01*
G01*
X71403500Y-100193000D01*
G75*
G02*
X71478500Y-100118000I75000J0D01*
G01*
X72803500Y-100118000D01*
G75*
G02*
X72878500Y-100193000I0J-75000D01*
G01*
X72878500Y-100343000D01*
G75*
G02*
X72803500Y-100418000I-75000J0D01*
G01*
G37*
G36*
G01*
X72803500Y-100918000D02*
X71478500Y-100918000D01*
G75*
G02*
X71403500Y-100843000I0J75000D01*
G01*
X71403500Y-100693000D01*
G75*
G02*
X71478500Y-100618000I75000J0D01*
G01*
X72803500Y-100618000D01*
G75*
G02*
X72878500Y-100693000I0J-75000D01*
G01*
X72878500Y-100843000D01*
G75*
G02*
X72803500Y-100918000I-75000J0D01*
G01*
G37*
G36*
G01*
X72803500Y-101418000D02*
X71478500Y-101418000D01*
G75*
G02*
X71403500Y-101343000I0J75000D01*
G01*
X71403500Y-101193000D01*
G75*
G02*
X71478500Y-101118000I75000J0D01*
G01*
X72803500Y-101118000D01*
G75*
G02*
X72878500Y-101193000I0J-75000D01*
G01*
X72878500Y-101343000D01*
G75*
G02*
X72803500Y-101418000I-75000J0D01*
G01*
G37*
G36*
G01*
X72803500Y-101918000D02*
X71478500Y-101918000D01*
G75*
G02*
X71403500Y-101843000I0J75000D01*
G01*
X71403500Y-101693000D01*
G75*
G02*
X71478500Y-101618000I75000J0D01*
G01*
X72803500Y-101618000D01*
G75*
G02*
X72878500Y-101693000I0J-75000D01*
G01*
X72878500Y-101843000D01*
G75*
G02*
X72803500Y-101918000I-75000J0D01*
G01*
G37*
G36*
G01*
X72803500Y-102418000D02*
X71478500Y-102418000D01*
G75*
G02*
X71403500Y-102343000I0J75000D01*
G01*
X71403500Y-102193000D01*
G75*
G02*
X71478500Y-102118000I75000J0D01*
G01*
X72803500Y-102118000D01*
G75*
G02*
X72878500Y-102193000I0J-75000D01*
G01*
X72878500Y-102343000D01*
G75*
G02*
X72803500Y-102418000I-75000J0D01*
G01*
G37*
G36*
G01*
X72803500Y-102918000D02*
X71478500Y-102918000D01*
G75*
G02*
X71403500Y-102843000I0J75000D01*
G01*
X71403500Y-102693000D01*
G75*
G02*
X71478500Y-102618000I75000J0D01*
G01*
X72803500Y-102618000D01*
G75*
G02*
X72878500Y-102693000I0J-75000D01*
G01*
X72878500Y-102843000D01*
G75*
G02*
X72803500Y-102918000I-75000J0D01*
G01*
G37*
G36*
G01*
X72803500Y-103418000D02*
X71478500Y-103418000D01*
G75*
G02*
X71403500Y-103343000I0J75000D01*
G01*
X71403500Y-103193000D01*
G75*
G02*
X71478500Y-103118000I75000J0D01*
G01*
X72803500Y-103118000D01*
G75*
G02*
X72878500Y-103193000I0J-75000D01*
G01*
X72878500Y-103343000D01*
G75*
G02*
X72803500Y-103418000I-75000J0D01*
G01*
G37*
G36*
G01*
X70803500Y-105418000D02*
X70653500Y-105418000D01*
G75*
G02*
X70578500Y-105343000I0J75000D01*
G01*
X70578500Y-104018000D01*
G75*
G02*
X70653500Y-103943000I75000J0D01*
G01*
X70803500Y-103943000D01*
G75*
G02*
X70878500Y-104018000I0J-75000D01*
G01*
X70878500Y-105343000D01*
G75*
G02*
X70803500Y-105418000I-75000J0D01*
G01*
G37*
G36*
G01*
X70303500Y-105418000D02*
X70153500Y-105418000D01*
G75*
G02*
X70078500Y-105343000I0J75000D01*
G01*
X70078500Y-104018000D01*
G75*
G02*
X70153500Y-103943000I75000J0D01*
G01*
X70303500Y-103943000D01*
G75*
G02*
X70378500Y-104018000I0J-75000D01*
G01*
X70378500Y-105343000D01*
G75*
G02*
X70303500Y-105418000I-75000J0D01*
G01*
G37*
G36*
G01*
X69803500Y-105418000D02*
X69653500Y-105418000D01*
G75*
G02*
X69578500Y-105343000I0J75000D01*
G01*
X69578500Y-104018000D01*
G75*
G02*
X69653500Y-103943000I75000J0D01*
G01*
X69803500Y-103943000D01*
G75*
G02*
X69878500Y-104018000I0J-75000D01*
G01*
X69878500Y-105343000D01*
G75*
G02*
X69803500Y-105418000I-75000J0D01*
G01*
G37*
G36*
G01*
X69303500Y-105418000D02*
X69153500Y-105418000D01*
G75*
G02*
X69078500Y-105343000I0J75000D01*
G01*
X69078500Y-104018000D01*
G75*
G02*
X69153500Y-103943000I75000J0D01*
G01*
X69303500Y-103943000D01*
G75*
G02*
X69378500Y-104018000I0J-75000D01*
G01*
X69378500Y-105343000D01*
G75*
G02*
X69303500Y-105418000I-75000J0D01*
G01*
G37*
G36*
G01*
X68803500Y-105418000D02*
X68653500Y-105418000D01*
G75*
G02*
X68578500Y-105343000I0J75000D01*
G01*
X68578500Y-104018000D01*
G75*
G02*
X68653500Y-103943000I75000J0D01*
G01*
X68803500Y-103943000D01*
G75*
G02*
X68878500Y-104018000I0J-75000D01*
G01*
X68878500Y-105343000D01*
G75*
G02*
X68803500Y-105418000I-75000J0D01*
G01*
G37*
G36*
G01*
X68303500Y-105418000D02*
X68153500Y-105418000D01*
G75*
G02*
X68078500Y-105343000I0J75000D01*
G01*
X68078500Y-104018000D01*
G75*
G02*
X68153500Y-103943000I75000J0D01*
G01*
X68303500Y-103943000D01*
G75*
G02*
X68378500Y-104018000I0J-75000D01*
G01*
X68378500Y-105343000D01*
G75*
G02*
X68303500Y-105418000I-75000J0D01*
G01*
G37*
G36*
G01*
X67803500Y-105418000D02*
X67653500Y-105418000D01*
G75*
G02*
X67578500Y-105343000I0J75000D01*
G01*
X67578500Y-104018000D01*
G75*
G02*
X67653500Y-103943000I75000J0D01*
G01*
X67803500Y-103943000D01*
G75*
G02*
X67878500Y-104018000I0J-75000D01*
G01*
X67878500Y-105343000D01*
G75*
G02*
X67803500Y-105418000I-75000J0D01*
G01*
G37*
G36*
G01*
X67303500Y-105418000D02*
X67153500Y-105418000D01*
G75*
G02*
X67078500Y-105343000I0J75000D01*
G01*
X67078500Y-104018000D01*
G75*
G02*
X67153500Y-103943000I75000J0D01*
G01*
X67303500Y-103943000D01*
G75*
G02*
X67378500Y-104018000I0J-75000D01*
G01*
X67378500Y-105343000D01*
G75*
G02*
X67303500Y-105418000I-75000J0D01*
G01*
G37*
G36*
G01*
X66803500Y-105418000D02*
X66653500Y-105418000D01*
G75*
G02*
X66578500Y-105343000I0J75000D01*
G01*
X66578500Y-104018000D01*
G75*
G02*
X66653500Y-103943000I75000J0D01*
G01*
X66803500Y-103943000D01*
G75*
G02*
X66878500Y-104018000I0J-75000D01*
G01*
X66878500Y-105343000D01*
G75*
G02*
X66803500Y-105418000I-75000J0D01*
G01*
G37*
G36*
G01*
X66303500Y-105418000D02*
X66153500Y-105418000D01*
G75*
G02*
X66078500Y-105343000I0J75000D01*
G01*
X66078500Y-104018000D01*
G75*
G02*
X66153500Y-103943000I75000J0D01*
G01*
X66303500Y-103943000D01*
G75*
G02*
X66378500Y-104018000I0J-75000D01*
G01*
X66378500Y-105343000D01*
G75*
G02*
X66303500Y-105418000I-75000J0D01*
G01*
G37*
G36*
G01*
X65803500Y-105418000D02*
X65653500Y-105418000D01*
G75*
G02*
X65578500Y-105343000I0J75000D01*
G01*
X65578500Y-104018000D01*
G75*
G02*
X65653500Y-103943000I75000J0D01*
G01*
X65803500Y-103943000D01*
G75*
G02*
X65878500Y-104018000I0J-75000D01*
G01*
X65878500Y-105343000D01*
G75*
G02*
X65803500Y-105418000I-75000J0D01*
G01*
G37*
G36*
G01*
X65303500Y-105418000D02*
X65153500Y-105418000D01*
G75*
G02*
X65078500Y-105343000I0J75000D01*
G01*
X65078500Y-104018000D01*
G75*
G02*
X65153500Y-103943000I75000J0D01*
G01*
X65303500Y-103943000D01*
G75*
G02*
X65378500Y-104018000I0J-75000D01*
G01*
X65378500Y-105343000D01*
G75*
G02*
X65303500Y-105418000I-75000J0D01*
G01*
G37*
%TD*%
M02*
