M48
; DRILL file {KiCad (5.1.6-0-10_14)} date Tuesday, November 03, 2020 at 11:38:55 PM
; FORMAT={-:-/ absolute / inch / decimal}
; #@! TF.CreationDate,2020-11-03T23:38:55+01:00
; #@! TF.GenerationSoftware,Kicad,Pcbnew,(5.1.6-0-10_14)
; #@! TF.FileFunction,Plated,1,2,PTH
FMAT,2
INCH
T1C0.0157
T2C0.0276
T3C0.0315
T4C0.0394
T5C0.0472
T6C0.0709
%
G90
G05
T1
X2.4448Y-4.1634
X2.4848Y-3.3056
X2.5787Y-3.8701
X2.5808Y-3.2856
X2.5888Y-3.9474
X2.6036Y-4.0532
X2.626Y-3.4094
X2.6548Y-4.6014
X2.6648Y-4.0506
X2.6748Y-3.0274
X2.6929Y-3.5157
X2.7663Y-3.9674
X2.7728Y-3.8554
X2.7968Y-4.3115
X2.9248Y-3.9534
X2.9588Y-3.8494
X2.9588Y-4.1374
X3.0128Y-4.0574
X3.0728Y-3.6734
X3.0796Y-3.97
X3.0894Y-4.0564
X3.2068Y-4.1414
X3.2588Y-2.9699
X3.2608Y-2.8934
X3.3468Y-4.2534
X3.4094Y-2.6496
X3.4368Y-3.8694
X3.5338Y-2.9724
X3.5538Y-4.3279
X3.5988Y-4.1554
X3.7088Y-4.1294
X4.374Y-4.1634
X4.414Y-3.3056
X4.5079Y-3.8701
X4.51Y-3.2856
X4.518Y-3.9474
X4.5328Y-4.0532
X4.5551Y-3.4094
X4.584Y-4.6014
X4.594Y-4.0506
X4.604Y-3.0274
X4.622Y-3.5157
X4.6955Y-3.9674
X4.702Y-3.8554
X4.7259Y-4.3115
X4.854Y-3.9534
X4.888Y-3.8494
X4.888Y-4.1374
X4.942Y-4.0574
X5.002Y-3.6734
X5.0088Y-3.97
X5.0186Y-4.0564
X5.136Y-4.1414
X5.188Y-2.9699
X5.19Y-2.8934
X5.276Y-4.2534
X5.3386Y-2.6496
X5.366Y-3.8694
X5.463Y-2.9724
X5.483Y-4.3279
X5.528Y-4.1554
X5.638Y-4.1294
X6.3031Y-4.1634
X6.3431Y-3.3056
X6.437Y-3.8701
X6.4391Y-3.2856
X6.4471Y-3.9474
X6.4619Y-4.0532
X6.4843Y-3.4094
X6.5131Y-4.6014
X6.5231Y-4.0506
X6.5331Y-3.0274
X6.5512Y-3.5157
X6.6246Y-3.9674
X6.6311Y-3.8554
X6.655Y-4.3115
X6.7831Y-3.9534
X6.8171Y-3.8494
X6.8171Y-4.1374
X6.8711Y-4.0574
X6.9311Y-3.6734
X6.9379Y-3.97
X6.9477Y-4.0564
X7.0651Y-4.1414
X7.1171Y-2.9699
X7.1191Y-2.8934
X7.2051Y-4.2534
X7.2677Y-2.6496
X7.2951Y-3.8694
X7.3921Y-2.9724
X7.4121Y-4.3279
X7.4571Y-4.1554
X7.5671Y-4.1294
T2
X4.8953Y-3.0374
X4.9303Y-3.4587
X4.9654Y-3.0374
X5.002Y-3.4587
X5.0354Y-3.0374
X5.0705Y-3.4587
X5.1055Y-3.0374
X5.1406Y-3.4587
X5.1756Y-3.0374
X5.2106Y-3.4587
X5.2457Y-3.0374
X5.2807Y-3.4587
X5.3157Y-3.0374
X5.3508Y-3.4587
X5.3858Y-3.0374
X5.4209Y-3.4587
X6.8244Y-3.0374
X6.8594Y-3.4587
X6.8945Y-3.0374
X6.9311Y-3.4587
X6.9646Y-3.0374
X6.9996Y-3.4587
X7.0346Y-3.0374
X7.0697Y-3.4587
X7.1047Y-3.0374
X7.1398Y-3.4587
X7.1748Y-3.0374
X7.2098Y-3.4587
X7.2449Y-3.0374
X7.2799Y-3.4587
X7.315Y-3.0374
X7.35Y-3.4587
X2.9661Y-3.0374
X3.0012Y-3.4587
X3.0362Y-3.0374
X3.0728Y-3.4587
X3.1063Y-3.0374
X3.1413Y-3.4587
X3.1764Y-3.0374
X3.2114Y-3.4587
X3.2465Y-3.0374
X3.2815Y-3.4587
X3.3165Y-3.0374
X3.3516Y-3.4587
X3.3866Y-3.0374
X3.4217Y-3.4587
X3.4567Y-3.0374
X3.4917Y-3.4587
T3
X7.0071Y-4.3379
X7.0071Y-4.4167
X7.0071Y-4.4954
X4.2441Y-3.0709
X4.3228Y-3.0709
X4.4016Y-3.0709
X7.2221Y-4.3723
X7.2221Y-4.451
X7.2221Y-4.5298
X7.2221Y-4.6085
X6.248Y-3.7992
X6.248Y-3.878
X6.248Y-3.9567
X5.293Y-4.3723
X5.293Y-4.451
X5.293Y-4.5298
X5.293Y-4.6085
X4.2795Y-3.2205
X4.2795Y-3.2992
X4.2795Y-3.378
X4.2795Y-3.4567
X4.3189Y-3.7992
X4.3189Y-3.878
X4.3189Y-3.9567
X3.1488Y-4.3379
X3.1488Y-4.4167
X3.1488Y-4.4954
X3.3638Y-4.3723
X3.3638Y-4.451
X3.3638Y-4.5298
X3.3638Y-4.6085
X2.4646Y-3.6181
X2.5433Y-3.6181
X2.622Y-3.6181
X6.1732Y-3.0709
X6.252Y-3.0709
X6.3307Y-3.0709
X2.315Y-3.0709
X2.3937Y-3.0709
X2.4724Y-3.0709
X6.3228Y-3.6181
X6.4016Y-3.6181
X6.4803Y-3.6181
X4.3937Y-3.6181
X4.4724Y-3.6181
X4.5512Y-3.6181
X2.3898Y-3.7992
X2.3898Y-3.878
X2.3898Y-3.9567
X2.3504Y-3.2205
X2.3504Y-3.2992
X2.3504Y-3.378
X2.3504Y-3.4567
X6.2087Y-3.2205
X6.2087Y-3.2992
X6.2087Y-3.378
X6.2087Y-3.4567
X5.078Y-4.3379
X5.078Y-4.4167
X5.078Y-4.4954
T4
X3.4251Y-2.329
X3.4251Y-2.4274
X3.4251Y-2.5258
X7.2833Y-2.329
X7.2833Y-2.4274
X7.2833Y-2.5258
X5.3542Y-2.329
X5.3542Y-2.4274
X5.3542Y-2.5258
T5
X5.2299Y-2.0807
X5.4299Y-2.0807
X5.6299Y-2.0807
X6.3Y-2.0807
X6.5Y-2.0807
X6.7Y-2.0807
X4.3118Y-2.4232
X4.5118Y-2.4232
X4.7118Y-2.4232
X2.4417Y-2.0807
X2.6417Y-2.0807
X2.8417Y-2.0807
X6.2409Y-2.4232
X6.4409Y-2.4232
X6.6409Y-2.4232
X7.1591Y-2.0807
X7.3591Y-2.0807
X7.5591Y-2.0807
X2.3827Y-2.4232
X2.5827Y-2.4232
X2.7827Y-2.4232
X4.3709Y-2.0807
X4.5709Y-2.0807
X4.7709Y-2.0807
X3.3008Y-2.0807
X3.5008Y-2.0807
X3.7008Y-2.0807
T6
G00X3.4959Y-2.2502
M15
G01X3.5117Y-2.2502
M16
G05
G00X3.4959Y-2.6046
M15
G01X3.5117Y-2.6046
M16
G05
G00X7.3542Y-2.2502
M15
G01X7.37Y-2.2502
M16
G05
G00X7.3542Y-2.6046
M15
G01X7.37Y-2.6046
M16
G05
G00X5.4251Y-2.2502
M15
G01X5.4408Y-2.2502
M16
G05
G00X5.4251Y-2.6046
M15
G01X5.4408Y-2.6046
M16
G05
T0
M30
