%TF.GenerationSoftware,KiCad,Pcbnew,(5.1.6-0-10_14)*%
%TF.CreationDate,2020-11-03T23:38:41+01:00*%
%TF.ProjectId,panel_x3,70616e65-6c5f-4783-932e-6b696361645f,rev?*%
%TF.SameCoordinates,Original*%
%TF.FileFunction,Soldermask,Bot*%
%TF.FilePolarity,Negative*%
%FSLAX46Y46*%
G04 Gerber Fmt 4.6, Leading zero omitted, Abs format (unit mm)*
G04 Created by KiCad (PCBNEW (5.1.6-0-10_14)) date 2020-11-03 23:38:41*
%MOMM*%
%LPD*%
G01*
G04 APERTURE LIST*
%ADD10O,1.450000X1.450000*%
%ADD11R,1.450000X1.450000*%
%ADD12C,1.624000*%
%ADD13C,2.100000*%
%ADD14C,1.700000*%
%ADD15R,2.100000X1.400000*%
%ADD16R,2.100000X2.100000*%
%ADD17C,1.450000*%
G04 APERTURE END LIST*
D10*
%TO.C,J4*%
X177980000Y-110183200D03*
X177980000Y-112183200D03*
D11*
X177980000Y-114183200D03*
%TD*%
D10*
%TO.C,J3*%
X157700000Y-87800000D03*
X157700000Y-85800000D03*
X157700000Y-83800000D03*
D11*
X157700000Y-81800000D03*
%TD*%
D12*
%TO.C,J1*%
X183441000Y-117056200D03*
X183441000Y-111056200D03*
X183441000Y-113056200D03*
X183441000Y-115056200D03*
%TD*%
D13*
%TO.C,SW2*%
X181840000Y-52850000D03*
X192000000Y-52850000D03*
X186920000Y-52850000D03*
%TD*%
%TO.C,SW3*%
G36*
G01*
X187407500Y-58506000D02*
X186586500Y-58506000D01*
G75*
G02*
X185547000Y-57466500I0J1039500D01*
G01*
X185547000Y-56845500D01*
G75*
G02*
X186586500Y-55806000I1039500J0D01*
G01*
X187407500Y-55806000D01*
G75*
G02*
X188447000Y-56845500I0J-1039500D01*
G01*
X188447000Y-57466500D01*
G75*
G02*
X187407500Y-58506000I-1039500J0D01*
G01*
G37*
G36*
G01*
X187407500Y-67506000D02*
X186586500Y-67506000D01*
G75*
G02*
X185547000Y-66466500I0J1039500D01*
G01*
X185547000Y-65845500D01*
G75*
G02*
X186586500Y-64806000I1039500J0D01*
G01*
X187407500Y-64806000D01*
G75*
G02*
X188447000Y-65845500I0J-1039500D01*
G01*
X188447000Y-66466500D01*
G75*
G02*
X187407500Y-67506000I-1039500J0D01*
G01*
G37*
D14*
X184997000Y-59156000D03*
X184997000Y-61656000D03*
X184997000Y-64156000D03*
%TD*%
D15*
%TO.C,RV1*%
X161500000Y-72250000D03*
D16*
X165500000Y-71100000D03*
D15*
X161500000Y-69950000D03*
%TD*%
D17*
%TO.C,U2*%
X173340000Y-77150000D03*
X175120000Y-77150000D03*
X176900000Y-77150000D03*
X178680000Y-77150000D03*
X180460000Y-77150000D03*
X182240000Y-77150000D03*
X184020000Y-77150000D03*
X185800000Y-77150000D03*
X174230000Y-87850000D03*
X176050000Y-87850000D03*
X177790000Y-87850000D03*
X179570000Y-87850000D03*
X181350000Y-87850000D03*
X183130000Y-87850000D03*
X184910000Y-87850000D03*
X186690000Y-87850000D03*
%TD*%
D13*
%TO.C,SW4*%
X163600000Y-61550000D03*
X168680000Y-61550000D03*
X158520000Y-61550000D03*
%TD*%
%TO.C,SW1*%
X170180000Y-52850000D03*
X160020000Y-52850000D03*
X165100000Y-52850000D03*
%TD*%
D11*
%TO.C,J5*%
X156800000Y-78000000D03*
D10*
X158800000Y-78000000D03*
X160800000Y-78000000D03*
%TD*%
D11*
%TO.C,J6*%
X160600000Y-91900000D03*
D10*
X162600000Y-91900000D03*
X164600000Y-91900000D03*
%TD*%
D11*
%TO.C,J2*%
X158700000Y-96500000D03*
D10*
X158700000Y-98500000D03*
X158700000Y-100500000D03*
%TD*%
%TO.C,J4*%
X128980000Y-110183200D03*
X128980000Y-112183200D03*
D11*
X128980000Y-114183200D03*
%TD*%
D10*
%TO.C,J3*%
X108700000Y-87800000D03*
X108700000Y-85800000D03*
X108700000Y-83800000D03*
D11*
X108700000Y-81800000D03*
%TD*%
D12*
%TO.C,J1*%
X134441000Y-117056200D03*
X134441000Y-111056200D03*
X134441000Y-113056200D03*
X134441000Y-115056200D03*
%TD*%
D13*
%TO.C,SW2*%
X132840000Y-52850000D03*
X143000000Y-52850000D03*
X137920000Y-52850000D03*
%TD*%
%TO.C,SW3*%
G36*
G01*
X138407500Y-58506000D02*
X137586500Y-58506000D01*
G75*
G02*
X136547000Y-57466500I0J1039500D01*
G01*
X136547000Y-56845500D01*
G75*
G02*
X137586500Y-55806000I1039500J0D01*
G01*
X138407500Y-55806000D01*
G75*
G02*
X139447000Y-56845500I0J-1039500D01*
G01*
X139447000Y-57466500D01*
G75*
G02*
X138407500Y-58506000I-1039500J0D01*
G01*
G37*
G36*
G01*
X138407500Y-67506000D02*
X137586500Y-67506000D01*
G75*
G02*
X136547000Y-66466500I0J1039500D01*
G01*
X136547000Y-65845500D01*
G75*
G02*
X137586500Y-64806000I1039500J0D01*
G01*
X138407500Y-64806000D01*
G75*
G02*
X139447000Y-65845500I0J-1039500D01*
G01*
X139447000Y-66466500D01*
G75*
G02*
X138407500Y-67506000I-1039500J0D01*
G01*
G37*
D14*
X135997000Y-59156000D03*
X135997000Y-61656000D03*
X135997000Y-64156000D03*
%TD*%
D15*
%TO.C,RV1*%
X112500000Y-72250000D03*
D16*
X116500000Y-71100000D03*
D15*
X112500000Y-69950000D03*
%TD*%
D17*
%TO.C,U2*%
X124340000Y-77150000D03*
X126120000Y-77150000D03*
X127900000Y-77150000D03*
X129680000Y-77150000D03*
X131460000Y-77150000D03*
X133240000Y-77150000D03*
X135020000Y-77150000D03*
X136800000Y-77150000D03*
X125230000Y-87850000D03*
X127050000Y-87850000D03*
X128790000Y-87850000D03*
X130570000Y-87850000D03*
X132350000Y-87850000D03*
X134130000Y-87850000D03*
X135910000Y-87850000D03*
X137690000Y-87850000D03*
%TD*%
D13*
%TO.C,SW4*%
X114600000Y-61550000D03*
X119680000Y-61550000D03*
X109520000Y-61550000D03*
%TD*%
%TO.C,SW1*%
X121180000Y-52850000D03*
X111020000Y-52850000D03*
X116100000Y-52850000D03*
%TD*%
D11*
%TO.C,J5*%
X107800000Y-78000000D03*
D10*
X109800000Y-78000000D03*
X111800000Y-78000000D03*
%TD*%
D11*
%TO.C,J6*%
X111600000Y-91900000D03*
D10*
X113600000Y-91900000D03*
X115600000Y-91900000D03*
%TD*%
D11*
%TO.C,J2*%
X109700000Y-96500000D03*
D10*
X109700000Y-98500000D03*
X109700000Y-100500000D03*
%TD*%
D11*
%TO.C,J3*%
X59700000Y-81800000D03*
D10*
X59700000Y-83800000D03*
X59700000Y-85800000D03*
X59700000Y-87800000D03*
%TD*%
%TO.C,J2*%
X60700000Y-100500000D03*
X60700000Y-98500000D03*
D11*
X60700000Y-96500000D03*
%TD*%
D10*
%TO.C,J6*%
X66600000Y-91900000D03*
X64600000Y-91900000D03*
D11*
X62600000Y-91900000D03*
%TD*%
D10*
%TO.C,J5*%
X62800000Y-78000000D03*
X60800000Y-78000000D03*
D11*
X58800000Y-78000000D03*
%TD*%
D15*
%TO.C,RV1*%
X63500000Y-69950000D03*
D16*
X67500000Y-71100000D03*
D15*
X63500000Y-72250000D03*
%TD*%
D14*
%TO.C,SW3*%
X86997000Y-64156000D03*
X86997000Y-61656000D03*
X86997000Y-59156000D03*
G36*
G01*
X89407500Y-67506000D02*
X88586500Y-67506000D01*
G75*
G02*
X87547000Y-66466500I0J1039500D01*
G01*
X87547000Y-65845500D01*
G75*
G02*
X88586500Y-64806000I1039500J0D01*
G01*
X89407500Y-64806000D01*
G75*
G02*
X90447000Y-65845500I0J-1039500D01*
G01*
X90447000Y-66466500D01*
G75*
G02*
X89407500Y-67506000I-1039500J0D01*
G01*
G37*
G36*
G01*
X89407500Y-58506000D02*
X88586500Y-58506000D01*
G75*
G02*
X87547000Y-57466500I0J1039500D01*
G01*
X87547000Y-56845500D01*
G75*
G02*
X88586500Y-55806000I1039500J0D01*
G01*
X89407500Y-55806000D01*
G75*
G02*
X90447000Y-56845500I0J-1039500D01*
G01*
X90447000Y-57466500D01*
G75*
G02*
X89407500Y-58506000I-1039500J0D01*
G01*
G37*
%TD*%
D12*
%TO.C,J1*%
X85441000Y-115056200D03*
X85441000Y-113056200D03*
X85441000Y-111056200D03*
X85441000Y-117056200D03*
%TD*%
D13*
%TO.C,SW2*%
X88920000Y-52850000D03*
X94000000Y-52850000D03*
X83840000Y-52850000D03*
%TD*%
%TO.C,SW1*%
X67100000Y-52850000D03*
X62020000Y-52850000D03*
X72180000Y-52850000D03*
%TD*%
%TO.C,SW4*%
X60520000Y-61550000D03*
X70680000Y-61550000D03*
X65600000Y-61550000D03*
%TD*%
D17*
%TO.C,U2*%
X88690000Y-87850000D03*
X86910000Y-87850000D03*
X85130000Y-87850000D03*
X83350000Y-87850000D03*
X81570000Y-87850000D03*
X79790000Y-87850000D03*
X78050000Y-87850000D03*
X76230000Y-87850000D03*
X87800000Y-77150000D03*
X86020000Y-77150000D03*
X84240000Y-77150000D03*
X82460000Y-77150000D03*
X80680000Y-77150000D03*
X78900000Y-77150000D03*
X77120000Y-77150000D03*
X75340000Y-77150000D03*
%TD*%
D11*
%TO.C,J4*%
X79980000Y-114183200D03*
D10*
X79980000Y-112183200D03*
X79980000Y-110183200D03*
%TD*%
M02*
