%TF.GenerationSoftware,KiCad,Pcbnew,(5.1.6-0-10_14)*%
%TF.CreationDate,2020-11-03T23:38:41+01:00*%
%TF.ProjectId,panel_x3,70616e65-6c5f-4783-932e-6b696361645f,rev?*%
%TF.SameCoordinates,Original*%
%TF.FileFunction,Profile,NP*%
%FSLAX46Y46*%
G04 Gerber Fmt 4.6, Leading zero omitted, Abs format (unit mm)*
G04 Created by KiCad (PCBNEW (5.1.6-0-10_14)) date 2020-11-03 23:38:41*
%MOMM*%
%LPD*%
G01*
G04 APERTURE LIST*
%TA.AperFunction,Profile*%
%ADD10C,0.050000*%
%TD*%
%TA.AperFunction,Profile*%
%ADD11C,0.150000*%
%TD*%
G04 APERTURE END LIST*
D10*
X154000000Y-106811220D02*
X152700760Y-106811220D01*
X154000000Y-79111220D02*
X154000000Y-106811220D01*
X154000000Y-79111220D02*
X149000000Y-79111220D01*
X149000000Y-106811220D02*
X152700760Y-106811220D01*
X149000000Y-79111220D02*
X149000000Y-106811220D01*
X105000000Y-106811220D02*
X104500760Y-106811220D01*
X105000000Y-79111220D02*
X105000000Y-106811220D01*
X105000000Y-79111220D02*
X100000000Y-79111220D01*
X100000000Y-106811220D02*
X104500760Y-106811220D01*
X100000000Y-79111220D02*
X100000000Y-106811220D01*
X154000000Y-115111220D02*
X152000760Y-115111220D01*
X154000000Y-120000000D02*
X154000000Y-115111220D01*
X149000000Y-115111220D02*
X152000760Y-115111220D01*
X149000000Y-120000000D02*
X149000000Y-115111220D01*
X105000000Y-115111220D02*
X104300760Y-115111220D01*
X105000000Y-120000000D02*
X105000000Y-115111220D01*
X100000000Y-115111220D02*
X104300760Y-115111220D01*
X100000000Y-120000000D02*
X100000000Y-115111220D01*
X154000000Y-70811220D02*
X153300760Y-70811220D01*
X154000000Y-70000000D02*
X154000000Y-70811220D01*
X149000000Y-70811220D02*
X153300760Y-70811220D01*
X149000000Y-70000000D02*
X149000000Y-70811220D01*
X105000000Y-70000000D02*
X105000000Y-70811220D01*
X100000000Y-70811220D02*
X105000000Y-70811220D01*
X100000000Y-70000000D02*
X100000000Y-70811220D01*
X196750000Y-98000000D02*
G75*
G03*
X196750000Y-98000000I-850000J0D01*
G01*
X195000000Y-71000000D02*
G75*
G03*
X195000000Y-71000000I-1000000J0D01*
G01*
X198000000Y-120000000D02*
X154000000Y-120000000D01*
X198000000Y-70000000D02*
X198000000Y-120000000D01*
X156950000Y-98000000D02*
G75*
G03*
X156950000Y-98000000I-850000J0D01*
G01*
D11*
X187900000Y-86800000D02*
X170500000Y-86800000D01*
X170500000Y-86800000D02*
X170500000Y-78200000D01*
D10*
X170000000Y-55700000D02*
X182000000Y-55700000D01*
X170000000Y-69000000D02*
X170000000Y-55700000D01*
X170000000Y-69000000D02*
X182000000Y-69000000D01*
X159000000Y-71000000D02*
G75*
G03*
X159000000Y-71000000I-1000000J0D01*
G01*
D11*
X170500000Y-78200000D02*
X187900000Y-78200000D01*
X187900000Y-78200000D02*
X187900000Y-86800000D01*
D10*
X182000000Y-55700000D02*
X182000000Y-69000000D01*
X157000000Y-50000000D02*
X195000000Y-50000000D01*
X157000000Y-50000000D02*
X154000000Y-70000000D01*
X195000000Y-50000000D02*
X198000000Y-70000000D01*
X147750000Y-98000000D02*
G75*
G03*
X147750000Y-98000000I-850000J0D01*
G01*
X146000000Y-71000000D02*
G75*
G03*
X146000000Y-71000000I-1000000J0D01*
G01*
X149000000Y-120000000D02*
X105000000Y-120000000D01*
X107950000Y-98000000D02*
G75*
G03*
X107950000Y-98000000I-850000J0D01*
G01*
D11*
X138900000Y-86800000D02*
X121500000Y-86800000D01*
X121500000Y-86800000D02*
X121500000Y-78200000D01*
D10*
X121000000Y-55700000D02*
X133000000Y-55700000D01*
X121000000Y-69000000D02*
X121000000Y-55700000D01*
X121000000Y-69000000D02*
X133000000Y-69000000D01*
X110000000Y-71000000D02*
G75*
G03*
X110000000Y-71000000I-1000000J0D01*
G01*
D11*
X121500000Y-78200000D02*
X138900000Y-78200000D01*
X138900000Y-78200000D02*
X138900000Y-86800000D01*
D10*
X133000000Y-55700000D02*
X133000000Y-69000000D01*
X108000000Y-50000000D02*
X146000000Y-50000000D01*
X108000000Y-50000000D02*
X105000000Y-70000000D01*
X146000000Y-50000000D02*
X149000000Y-70000000D01*
X60666666Y-50000000D02*
G75*
G03*
X60666666Y-50000000I-1666666J0D01*
G01*
X56500000Y-50000000D02*
X61500000Y-50000000D01*
X59000000Y-47500000D02*
X59000000Y-52500000D01*
D11*
X89900000Y-86800000D02*
X72500000Y-86800000D01*
X89900000Y-78200000D02*
X89900000Y-86800000D01*
X72500000Y-78200000D02*
X89900000Y-78200000D01*
X72500000Y-86800000D02*
X72500000Y-78200000D01*
D10*
X61000000Y-71000000D02*
G75*
G03*
X61000000Y-71000000I-1000000J0D01*
G01*
X72000000Y-69000000D02*
X72000000Y-55700000D01*
X72000000Y-69000000D02*
X84000000Y-69000000D01*
X84000000Y-55700000D02*
X84000000Y-69000000D01*
X72000000Y-55700000D02*
X84000000Y-55700000D01*
X58950000Y-98000000D02*
G75*
G03*
X58950000Y-98000000I-850000J0D01*
G01*
X98750000Y-98000000D02*
G75*
G03*
X98750000Y-98000000I-850000J0D01*
G01*
X97000000Y-71000000D02*
G75*
G03*
X97000000Y-71000000I-1000000J0D01*
G01*
X100000000Y-120000000D02*
X56000000Y-120000000D01*
X56000000Y-70000000D02*
X56000000Y-120000000D01*
X97000000Y-50000000D02*
X100000000Y-70000000D01*
X59000000Y-50000000D02*
X56000000Y-70000000D01*
X59000000Y-50000000D02*
X97000000Y-50000000D01*
M02*
