M48
; DRILL file {KiCad (5.1.6-0-10_14)} date Tuesday, November 03, 2020 at 11:38:55 PM
; FORMAT={-:-/ absolute / inch / decimal}
; #@! TF.CreationDate,2020-11-03T23:38:55+01:00
; #@! TF.GenerationSoftware,Kicad,Pcbnew,(5.1.6-0-10_14)
; #@! TF.FileFunction,NonPlated,1,2,NPTH
FMAT,2
INCH
T1C0.0591
%
G90
G05
T1
X5.8858Y-4.252
X5.8858Y-4.3307
X5.8858Y-4.4094
X5.8858Y-4.4882
X6.0433Y-4.252
X6.0433Y-4.3307
X6.0433Y-4.4094
X6.0433Y-4.4882
X5.8858Y-2.8346
X5.8858Y-2.9134
X5.8858Y-2.9921
X5.8858Y-3.0709
X6.0433Y-2.8346
X6.0433Y-2.9134
X6.0433Y-2.9921
X6.0433Y-3.0709
X3.9567Y-2.8346
X3.9567Y-2.9134
X3.9567Y-2.9921
X3.9567Y-3.0709
X4.1142Y-2.8346
X4.1142Y-2.9134
X4.1142Y-2.9921
X4.1142Y-3.0709
X3.9567Y-4.252
X3.9567Y-4.3307
X3.9567Y-4.4094
X3.9567Y-4.4882
X4.1142Y-4.252
X4.1142Y-4.3307
X4.1142Y-4.4094
X4.1142Y-4.4882
T0
M30
