%TF.GenerationSoftware,KiCad,Pcbnew,(5.1.6-0-10_14)*%
%TF.CreationDate,2020-12-05T10:50:09+01:00*%
%TF.ProjectId,Mys,4d79732e-6b69-4636-9164-5f7063625858,rev?*%
%TF.SameCoordinates,PX223cd58PY13c0734*%
%TF.FileFunction,Legend,Bot*%
%TF.FilePolarity,Positive*%
%FSLAX46Y46*%
G04 Gerber Fmt 4.6, Leading zero omitted, Abs format (unit mm)*
G04 Created by KiCad (PCBNEW (5.1.6-0-10_14)) date 2020-12-05 10:50:09*
%MOMM*%
%LPD*%
G01*
G04 APERTURE LIST*
%ADD10C,0.150000*%
%ADD11C,0.120000*%
G04 APERTURE END LIST*
D10*
X5461904Y-25100000D02*
X5557142Y-25052380D01*
X5700000Y-25052380D01*
X5842857Y-25100000D01*
X5938095Y-25195238D01*
X5985714Y-25290476D01*
X6033333Y-25480952D01*
X6033333Y-25623809D01*
X5985714Y-25814285D01*
X5938095Y-25909523D01*
X5842857Y-26004761D01*
X5700000Y-26052380D01*
X5604761Y-26052380D01*
X5461904Y-26004761D01*
X5414285Y-25957142D01*
X5414285Y-25623809D01*
X5604761Y-25623809D01*
X4985714Y-26052380D02*
X4985714Y-25052380D01*
X4414285Y-26052380D01*
X4414285Y-25052380D01*
X3938095Y-26052380D02*
X3938095Y-25052380D01*
X3700000Y-25052380D01*
X3557142Y-25100000D01*
X3461904Y-25195238D01*
X3414285Y-25290476D01*
X3366666Y-25480952D01*
X3366666Y-25623809D01*
X3414285Y-25814285D01*
X3461904Y-25909523D01*
X3557142Y-26004761D01*
X3700000Y-26052380D01*
X3938095Y-26052380D01*
X-109524Y-25152380D02*
X366666Y-25152380D01*
X414285Y-25628571D01*
X366666Y-25580952D01*
X271428Y-25533333D01*
X33333Y-25533333D01*
X-61905Y-25580952D01*
X-109524Y-25628571D01*
X-157143Y-25723809D01*
X-157143Y-25961904D01*
X-109524Y-26057142D01*
X-61905Y-26104761D01*
X33333Y-26152380D01*
X271428Y-26152380D01*
X366666Y-26104761D01*
X414285Y-26057142D01*
X-442858Y-25152380D02*
X-776191Y-26152380D01*
X-1109524Y-25152380D01*
X30790476Y-66452380D02*
X31266666Y-66452380D01*
X31314285Y-66928571D01*
X31266666Y-66880952D01*
X31171428Y-66833333D01*
X30933333Y-66833333D01*
X30838095Y-66880952D01*
X30790476Y-66928571D01*
X30742857Y-67023809D01*
X30742857Y-67261904D01*
X30790476Y-67357142D01*
X30838095Y-67404761D01*
X30933333Y-67452380D01*
X31171428Y-67452380D01*
X31266666Y-67404761D01*
X31314285Y-67357142D01*
X30457142Y-66452380D02*
X30123809Y-67452380D01*
X29790476Y-66452380D01*
X31761904Y-64600000D02*
X31857142Y-64552380D01*
X32000000Y-64552380D01*
X32142857Y-64600000D01*
X32238095Y-64695238D01*
X32285714Y-64790476D01*
X32333333Y-64980952D01*
X32333333Y-65123809D01*
X32285714Y-65314285D01*
X32238095Y-65409523D01*
X32142857Y-65504761D01*
X32000000Y-65552380D01*
X31904761Y-65552380D01*
X31761904Y-65504761D01*
X31714285Y-65457142D01*
X31714285Y-65123809D01*
X31904761Y-65123809D01*
X31285714Y-65552380D02*
X31285714Y-64552380D01*
X30714285Y-65552380D01*
X30714285Y-64552380D01*
X30238095Y-65552380D02*
X30238095Y-64552380D01*
X30000000Y-64552380D01*
X29857142Y-64600000D01*
X29761904Y-64695238D01*
X29714285Y-64790476D01*
X29666666Y-64980952D01*
X29666666Y-65123809D01*
X29714285Y-65314285D01*
X29761904Y-65409523D01*
X29857142Y-65504761D01*
X30000000Y-65552380D01*
X30238095Y-65552380D01*
X31261904Y-63652380D02*
X31261904Y-62652380D01*
X31023809Y-62652380D01*
X30880952Y-62700000D01*
X30785714Y-62795238D01*
X30738095Y-62890476D01*
X30690476Y-63080952D01*
X30690476Y-63223809D01*
X30738095Y-63414285D01*
X30785714Y-63509523D01*
X30880952Y-63604761D01*
X31023809Y-63652380D01*
X31261904Y-63652380D01*
X30261904Y-63652380D02*
X30261904Y-62652380D01*
X29880952Y-62652380D01*
X29785714Y-62700000D01*
X29738095Y-62747619D01*
X29690476Y-62842857D01*
X29690476Y-62985714D01*
X29738095Y-63080952D01*
X29785714Y-63128571D01*
X29880952Y-63176190D01*
X30261904Y-63176190D01*
X31333333Y-61652380D02*
X31333333Y-60652380D01*
X31095238Y-60652380D01*
X30952380Y-60700000D01*
X30857142Y-60795238D01*
X30809523Y-60890476D01*
X30761904Y-61080952D01*
X30761904Y-61223809D01*
X30809523Y-61414285D01*
X30857142Y-61509523D01*
X30952380Y-61604761D01*
X31095238Y-61652380D01*
X31333333Y-61652380D01*
X30333333Y-61652380D02*
X30333333Y-60652380D01*
X30000000Y-61366666D01*
X29666666Y-60652380D01*
X29666666Y-61652380D01*
X19242857Y-62652380D02*
X19242857Y-61652380D01*
X18671428Y-62652380D01*
X18671428Y-61652380D01*
X17623809Y-62652380D02*
X17957142Y-62176190D01*
X18195238Y-62652380D02*
X18195238Y-61652380D01*
X17814285Y-61652380D01*
X17719047Y-61700000D01*
X17671428Y-61747619D01*
X17623809Y-61842857D01*
X17623809Y-61985714D01*
X17671428Y-62080952D01*
X17719047Y-62128571D01*
X17814285Y-62176190D01*
X18195238Y-62176190D01*
X17242857Y-62604761D02*
X17100000Y-62652380D01*
X16861904Y-62652380D01*
X16766666Y-62604761D01*
X16719047Y-62557142D01*
X16671428Y-62461904D01*
X16671428Y-62366666D01*
X16719047Y-62271428D01*
X16766666Y-62223809D01*
X16861904Y-62176190D01*
X17052380Y-62128571D01*
X17147619Y-62080952D01*
X17195238Y-62033333D01*
X17242857Y-61938095D01*
X17242857Y-61842857D01*
X17195238Y-61747619D01*
X17147619Y-61700000D01*
X17052380Y-61652380D01*
X16814285Y-61652380D01*
X16671428Y-61700000D01*
X16385714Y-61652380D02*
X15814285Y-61652380D01*
X16100000Y-62652380D02*
X16100000Y-61652380D01*
X22333333Y-65952380D02*
X22000000Y-66952380D01*
X21666666Y-65952380D01*
X20761904Y-66857142D02*
X20809523Y-66904761D01*
X20952380Y-66952380D01*
X21047619Y-66952380D01*
X21190476Y-66904761D01*
X21285714Y-66809523D01*
X21333333Y-66714285D01*
X21380952Y-66523809D01*
X21380952Y-66380952D01*
X21333333Y-66190476D01*
X21285714Y-66095238D01*
X21190476Y-66000000D01*
X21047619Y-65952380D01*
X20952380Y-65952380D01*
X20809523Y-66000000D01*
X20761904Y-66047619D01*
X19761904Y-66857142D02*
X19809523Y-66904761D01*
X19952380Y-66952380D01*
X20047619Y-66952380D01*
X20190476Y-66904761D01*
X20285714Y-66809523D01*
X20333333Y-66714285D01*
X20380952Y-66523809D01*
X20380952Y-66380952D01*
X20333333Y-66190476D01*
X20285714Y-66095238D01*
X20190476Y-66000000D01*
X20047619Y-65952380D01*
X19952380Y-65952380D01*
X19809523Y-66000000D01*
X19761904Y-66047619D01*
X21661904Y-57400000D02*
X21757142Y-57352380D01*
X21900000Y-57352380D01*
X22042857Y-57400000D01*
X22138095Y-57495238D01*
X22185714Y-57590476D01*
X22233333Y-57780952D01*
X22233333Y-57923809D01*
X22185714Y-58114285D01*
X22138095Y-58209523D01*
X22042857Y-58304761D01*
X21900000Y-58352380D01*
X21804761Y-58352380D01*
X21661904Y-58304761D01*
X21614285Y-58257142D01*
X21614285Y-57923809D01*
X21804761Y-57923809D01*
X21185714Y-58352380D02*
X21185714Y-57352380D01*
X20614285Y-58352380D01*
X20614285Y-57352380D01*
X20138095Y-58352380D02*
X20138095Y-57352380D01*
X19900000Y-57352380D01*
X19757142Y-57400000D01*
X19661904Y-57495238D01*
X19614285Y-57590476D01*
X19566666Y-57780952D01*
X19566666Y-57923809D01*
X19614285Y-58114285D01*
X19661904Y-58209523D01*
X19757142Y-58304761D01*
X19900000Y-58352380D01*
X20138095Y-58352380D01*
X3661904Y-31352380D02*
X3090476Y-31352380D01*
X3376190Y-32352380D02*
X3376190Y-31352380D01*
X2804761Y-31447619D02*
X2757142Y-31400000D01*
X2661904Y-31352380D01*
X2423809Y-31352380D01*
X2328571Y-31400000D01*
X2280952Y-31447619D01*
X2233333Y-31542857D01*
X2233333Y-31638095D01*
X2280952Y-31780952D01*
X2852380Y-32352380D01*
X2233333Y-32352380D01*
X3761904Y-33352380D02*
X3190476Y-33352380D01*
X3476190Y-34352380D02*
X3476190Y-33352380D01*
X2333333Y-34352380D02*
X2904761Y-34352380D01*
X2619047Y-34352380D02*
X2619047Y-33352380D01*
X2714285Y-33495238D01*
X2809523Y-33590476D01*
X2904761Y-33638095D01*
X3390476Y-35552380D02*
X3866666Y-35552380D01*
X3914285Y-36028571D01*
X3866666Y-35980952D01*
X3771428Y-35933333D01*
X3533333Y-35933333D01*
X3438095Y-35980952D01*
X3390476Y-36028571D01*
X3342857Y-36123809D01*
X3342857Y-36361904D01*
X3390476Y-36457142D01*
X3438095Y-36504761D01*
X3533333Y-36552380D01*
X3771428Y-36552380D01*
X3866666Y-36504761D01*
X3914285Y-36457142D01*
X3057142Y-35552380D02*
X2723809Y-36552380D01*
X2390476Y-35552380D01*
X4461904Y-37400000D02*
X4557142Y-37352380D01*
X4700000Y-37352380D01*
X4842857Y-37400000D01*
X4938095Y-37495238D01*
X4985714Y-37590476D01*
X5033333Y-37780952D01*
X5033333Y-37923809D01*
X4985714Y-38114285D01*
X4938095Y-38209523D01*
X4842857Y-38304761D01*
X4700000Y-38352380D01*
X4604761Y-38352380D01*
X4461904Y-38304761D01*
X4414285Y-38257142D01*
X4414285Y-37923809D01*
X4604761Y-37923809D01*
X3985714Y-38352380D02*
X3985714Y-37352380D01*
X3414285Y-38352380D01*
X3414285Y-37352380D01*
X2938095Y-38352380D02*
X2938095Y-37352380D01*
X2700000Y-37352380D01*
X2557142Y-37400000D01*
X2461904Y-37495238D01*
X2414285Y-37590476D01*
X2366666Y-37780952D01*
X2366666Y-37923809D01*
X2414285Y-38114285D01*
X2461904Y-38209523D01*
X2557142Y-38304761D01*
X2700000Y-38352380D01*
X2938095Y-38352380D01*
X2561904Y-52400000D02*
X2657142Y-52352380D01*
X2800000Y-52352380D01*
X2942857Y-52400000D01*
X3038095Y-52495238D01*
X3085714Y-52590476D01*
X3133333Y-52780952D01*
X3133333Y-52923809D01*
X3085714Y-53114285D01*
X3038095Y-53209523D01*
X2942857Y-53304761D01*
X2800000Y-53352380D01*
X2704761Y-53352380D01*
X2561904Y-53304761D01*
X2514285Y-53257142D01*
X2514285Y-52923809D01*
X2704761Y-52923809D01*
X2085714Y-53352380D02*
X2085714Y-52352380D01*
X1514285Y-53352380D01*
X1514285Y-52352380D01*
X1038095Y-53352380D02*
X1038095Y-52352380D01*
X800000Y-52352380D01*
X657142Y-52400000D01*
X561904Y-52495238D01*
X514285Y-52590476D01*
X466666Y-52780952D01*
X466666Y-52923809D01*
X514285Y-53114285D01*
X561904Y-53209523D01*
X657142Y-53304761D01*
X800000Y-53352380D01*
X1038095Y-53352380D01*
X4028571Y-46666666D02*
X4076190Y-46809523D01*
X4123809Y-46857142D01*
X4219047Y-46904761D01*
X4361904Y-46904761D01*
X4457142Y-46857142D01*
X4504761Y-46809523D01*
X4552380Y-46714285D01*
X4552380Y-46333333D01*
X3552380Y-46333333D01*
X3552380Y-46666666D01*
X3600000Y-46761904D01*
X3647619Y-46809523D01*
X3742857Y-46857142D01*
X3838095Y-46857142D01*
X3933333Y-46809523D01*
X3980952Y-46761904D01*
X4028571Y-46666666D01*
X4028571Y-46333333D01*
X3552380Y-47523809D02*
X3552380Y-47714285D01*
X3600000Y-47809523D01*
X3695238Y-47904761D01*
X3885714Y-47952380D01*
X4219047Y-47952380D01*
X4409523Y-47904761D01*
X4504761Y-47809523D01*
X4552380Y-47714285D01*
X4552380Y-47523809D01*
X4504761Y-47428571D01*
X4409523Y-47333333D01*
X4219047Y-47285714D01*
X3885714Y-47285714D01*
X3695238Y-47333333D01*
X3600000Y-47428571D01*
X3552380Y-47523809D01*
X3552380Y-48571428D02*
X3552380Y-48761904D01*
X3600000Y-48857142D01*
X3695238Y-48952380D01*
X3885714Y-49000000D01*
X4219047Y-49000000D01*
X4409523Y-48952380D01*
X4504761Y-48857142D01*
X4552380Y-48761904D01*
X4552380Y-48571428D01*
X4504761Y-48476190D01*
X4409523Y-48380952D01*
X4219047Y-48333333D01*
X3885714Y-48333333D01*
X3695238Y-48380952D01*
X3600000Y-48476190D01*
X3552380Y-48571428D01*
X3552380Y-49285714D02*
X3552380Y-49857142D01*
X4552380Y-49571428D02*
X3552380Y-49571428D01*
X3552380Y-50380952D02*
X3552380Y-50476190D01*
X3600000Y-50571428D01*
X3647619Y-50619047D01*
X3742857Y-50666666D01*
X3933333Y-50714285D01*
X4171428Y-50714285D01*
X4361904Y-50666666D01*
X4457142Y-50619047D01*
X4504761Y-50571428D01*
X4552380Y-50476190D01*
X4552380Y-50380952D01*
X4504761Y-50285714D01*
X4457142Y-50238095D01*
X4361904Y-50190476D01*
X4171428Y-50142857D01*
X3933333Y-50142857D01*
X3742857Y-50190476D01*
X3647619Y-50238095D01*
X3600000Y-50285714D01*
X3552380Y-50380952D01*
X3133333Y-43752380D02*
X2800000Y-44752380D01*
X2466666Y-43752380D01*
X1561904Y-44657142D02*
X1609523Y-44704761D01*
X1752380Y-44752380D01*
X1847619Y-44752380D01*
X1990476Y-44704761D01*
X2085714Y-44609523D01*
X2133333Y-44514285D01*
X2180952Y-44323809D01*
X2180952Y-44180952D01*
X2133333Y-43990476D01*
X2085714Y-43895238D01*
X1990476Y-43800000D01*
X1847619Y-43752380D01*
X1752380Y-43752380D01*
X1609523Y-43800000D01*
X1561904Y-43847619D01*
X561904Y-44657142D02*
X609523Y-44704761D01*
X752380Y-44752380D01*
X847619Y-44752380D01*
X990476Y-44704761D01*
X1085714Y-44609523D01*
X1133333Y-44514285D01*
X1180952Y-44323809D01*
X1180952Y-44180952D01*
X1133333Y-43990476D01*
X1085714Y-43895238D01*
X990476Y-43800000D01*
X847619Y-43752380D01*
X752380Y-43752380D01*
X609523Y-43800000D01*
X561904Y-43847619D01*
D11*
%TO.C,J3*%
X1760000Y-30740000D02*
X700000Y-30740000D01*
X1760000Y-31800000D02*
X1760000Y-30740000D01*
X1760000Y-32800000D02*
X-360000Y-32800000D01*
X-360000Y-32800000D02*
X-360000Y-38860000D01*
X1760000Y-32800000D02*
X1760000Y-38860000D01*
X1760000Y-38860000D02*
X-360000Y-38860000D01*
%TO.C,J2*%
X2760000Y-51560000D02*
X640000Y-51560000D01*
X2760000Y-47500000D02*
X2760000Y-51560000D01*
X640000Y-47500000D02*
X640000Y-51560000D01*
X2760000Y-47500000D02*
X640000Y-47500000D01*
X2760000Y-46500000D02*
X2760000Y-45440000D01*
X2760000Y-45440000D02*
X1700000Y-45440000D01*
%TO.C,J6*%
X8660000Y-40840000D02*
X8660000Y-42960000D01*
X4600000Y-40840000D02*
X8660000Y-40840000D01*
X4600000Y-42960000D02*
X8660000Y-42960000D01*
X4600000Y-40840000D02*
X4600000Y-42960000D01*
X3600000Y-40840000D02*
X2540000Y-40840000D01*
X2540000Y-40840000D02*
X2540000Y-41900000D01*
%TO.C,J5*%
X-1260000Y-26940000D02*
X-1260000Y-28000000D01*
X-200000Y-26940000D02*
X-1260000Y-26940000D01*
X800000Y-26940000D02*
X800000Y-29060000D01*
X800000Y-29060000D02*
X4860000Y-29060000D01*
X800000Y-26940000D02*
X4860000Y-26940000D01*
X4860000Y-26940000D02*
X4860000Y-29060000D01*
%TO.C,RV1*%
X8920000Y-18580000D02*
X4080000Y-18580000D01*
X8920000Y-23620000D02*
X4080000Y-23620000D01*
X8920000Y-18580000D02*
X8920000Y-19860000D01*
X8920000Y-22340000D02*
X8920000Y-23620000D01*
X4080000Y-18580000D02*
X4080000Y-19060000D01*
X4080000Y-20840000D02*
X4080000Y-21360000D01*
X4080000Y-23140000D02*
X4080000Y-23620000D01*
X8920000Y-18960000D02*
X8920000Y-18960000D01*
X8920000Y-18960000D02*
X8920000Y-19860000D01*
X8920000Y-18960000D02*
X8920000Y-19860000D01*
%TO.C,SW3*%
X26297000Y-16756000D02*
X26297000Y-6556000D01*
X32397000Y-16756000D02*
X26297000Y-16756000D01*
X32397000Y-6556000D02*
X32397000Y-16756000D01*
X26297000Y-6556000D02*
X32397000Y-6556000D01*
%TO.C,J1*%
X28341000Y-69156200D02*
X23541000Y-69156200D01*
X23541000Y-69156200D02*
X23541000Y-58956200D01*
X23541000Y-58956200D02*
X28341000Y-58956200D01*
X28341000Y-58956200D02*
X28341000Y-69156200D01*
%TO.C,SW2*%
X33280000Y-1850000D02*
X33280000Y-3850000D01*
X36693500Y-2850000D02*
X36693500Y-310000D01*
X36693500Y-310000D02*
X23866500Y-310000D01*
X23866500Y-310000D02*
X23866500Y-5390000D01*
X23866500Y-5390000D02*
X36693500Y-5390000D01*
X36693500Y-5390000D02*
X36693500Y-2850000D01*
%TO.C,SW1*%
X1206500Y-310000D02*
X1206500Y-2850000D01*
X14033500Y-310000D02*
X1206500Y-310000D01*
X14033500Y-5390000D02*
X14033500Y-310000D01*
X1206500Y-5390000D02*
X14033500Y-5390000D01*
X1206500Y-2850000D02*
X1206500Y-5390000D01*
X4620000Y-3850000D02*
X4620000Y-1850000D01*
%TO.C,SW4*%
X9600000Y-10550000D02*
X9600000Y-12550000D01*
X13013500Y-11550000D02*
X13013500Y-9010000D01*
X13013500Y-9010000D02*
X186500Y-9010000D01*
X186500Y-9010000D02*
X186500Y-14090000D01*
X186500Y-14090000D02*
X13013500Y-14090000D01*
X13013500Y-14090000D02*
X13013500Y-11550000D01*
%TO.C,J4*%
X19920000Y-59123200D02*
X22040000Y-59123200D01*
X19920000Y-63183200D02*
X19920000Y-59123200D01*
X22040000Y-63183200D02*
X22040000Y-59123200D01*
X19920000Y-63183200D02*
X22040000Y-63183200D01*
X19920000Y-64183200D02*
X19920000Y-65243200D01*
X19920000Y-65243200D02*
X20980000Y-65243200D01*
%TD*%
M02*
