%TF.GenerationSoftware,KiCad,Pcbnew,(5.1.6-0-10_14)*%
%TF.CreationDate,2020-12-05T10:50:09+01:00*%
%TF.ProjectId,Mys,4d79732e-6b69-4636-9164-5f7063625858,rev?*%
%TF.SameCoordinates,PX223cd58PY13c0734*%
%TF.FileFunction,Soldermask,Top*%
%TF.FilePolarity,Negative*%
%FSLAX46Y46*%
G04 Gerber Fmt 4.6, Leading zero omitted, Abs format (unit mm)*
G04 Created by KiCad (PCBNEW (5.1.6-0-10_14)) date 2020-12-05 10:50:09*
%MOMM*%
%LPD*%
G01*
G04 APERTURE LIST*
%ADD10R,1.450000X1.450000*%
%ADD11O,1.450000X1.450000*%
%ADD12C,1.700000*%
%ADD13C,1.624000*%
%ADD14C,2.100000*%
%ADD15R,1.000000X0.900000*%
%ADD16R,2.100000X1.600000*%
%ADD17R,2.100000X3.900000*%
%ADD18C,1.450000*%
%ADD19R,0.750000X1.660000*%
G04 APERTURE END LIST*
D10*
%TO.C,J3*%
X700000Y-31800000D03*
D11*
X700000Y-33800000D03*
X700000Y-35800000D03*
X700000Y-37800000D03*
%TD*%
%TO.C,J2*%
X1700000Y-50500000D03*
X1700000Y-48500000D03*
D10*
X1700000Y-46500000D03*
%TD*%
D11*
%TO.C,J6*%
X7600000Y-41900000D03*
X5600000Y-41900000D03*
D10*
X3600000Y-41900000D03*
%TD*%
D11*
%TO.C,J5*%
X3800000Y-28000000D03*
X1800000Y-28000000D03*
D10*
X-200000Y-28000000D03*
%TD*%
%TO.C,C33*%
G36*
G01*
X-575000Y-41937500D02*
X-575000Y-42462500D01*
G75*
G02*
X-837500Y-42725000I-262500J0D01*
G01*
X-1462500Y-42725000D01*
G75*
G02*
X-1725000Y-42462500I0J262500D01*
G01*
X-1725000Y-41937500D01*
G75*
G02*
X-1462500Y-41675000I262500J0D01*
G01*
X-837500Y-41675000D01*
G75*
G02*
X-575000Y-41937500I0J-262500D01*
G01*
G37*
G36*
G01*
X1175000Y-41937500D02*
X1175000Y-42462500D01*
G75*
G02*
X912500Y-42725000I-262500J0D01*
G01*
X287500Y-42725000D01*
G75*
G02*
X25000Y-42462500I0J262500D01*
G01*
X25000Y-41937500D01*
G75*
G02*
X287500Y-41675000I262500J0D01*
G01*
X912500Y-41675000D01*
G75*
G02*
X1175000Y-41937500I0J-262500D01*
G01*
G37*
%TD*%
%TO.C,C32*%
G36*
G01*
X-825000Y-40602500D02*
X-825000Y-40997500D01*
G75*
G02*
X-997500Y-41170000I-172500J0D01*
G01*
X-1342500Y-41170000D01*
G75*
G02*
X-1515000Y-40997500I0J172500D01*
G01*
X-1515000Y-40602500D01*
G75*
G02*
X-1342500Y-40430000I172500J0D01*
G01*
X-997500Y-40430000D01*
G75*
G02*
X-825000Y-40602500I0J-172500D01*
G01*
G37*
G36*
G01*
X145000Y-40602500D02*
X145000Y-40997500D01*
G75*
G02*
X-27500Y-41170000I-172500J0D01*
G01*
X-372500Y-41170000D01*
G75*
G02*
X-545000Y-40997500I0J172500D01*
G01*
X-545000Y-40602500D01*
G75*
G02*
X-372500Y-40430000I172500J0D01*
G01*
X-27500Y-40430000D01*
G75*
G02*
X145000Y-40602500I0J-172500D01*
G01*
G37*
%TD*%
D12*
%TO.C,SW3*%
X27997000Y-14156000D03*
X27997000Y-11656000D03*
X27997000Y-9156000D03*
G36*
G01*
X30407500Y-17506000D02*
X29586500Y-17506000D01*
G75*
G02*
X28547000Y-16466500I0J1039500D01*
G01*
X28547000Y-15845500D01*
G75*
G02*
X29586500Y-14806000I1039500J0D01*
G01*
X30407500Y-14806000D01*
G75*
G02*
X31447000Y-15845500I0J-1039500D01*
G01*
X31447000Y-16466500D01*
G75*
G02*
X30407500Y-17506000I-1039500J0D01*
G01*
G37*
G36*
G01*
X30407500Y-8506000D02*
X29586500Y-8506000D01*
G75*
G02*
X28547000Y-7466500I0J1039500D01*
G01*
X28547000Y-6845500D01*
G75*
G02*
X29586500Y-5806000I1039500J0D01*
G01*
X30407500Y-5806000D01*
G75*
G02*
X31447000Y-6845500I0J-1039500D01*
G01*
X31447000Y-7466500D01*
G75*
G02*
X30407500Y-8506000I-1039500J0D01*
G01*
G37*
%TD*%
%TO.C,U4*%
G36*
G01*
X6390500Y-35537500D02*
X6740500Y-35537500D01*
G75*
G02*
X6915500Y-35712500I0J-175000D01*
G01*
X6915500Y-37412500D01*
G75*
G02*
X6740500Y-37587500I-175000J0D01*
G01*
X6390500Y-37587500D01*
G75*
G02*
X6215500Y-37412500I0J175000D01*
G01*
X6215500Y-35712500D01*
G75*
G02*
X6390500Y-35537500I175000J0D01*
G01*
G37*
G36*
G01*
X5120500Y-35537500D02*
X5470500Y-35537500D01*
G75*
G02*
X5645500Y-35712500I0J-175000D01*
G01*
X5645500Y-37412500D01*
G75*
G02*
X5470500Y-37587500I-175000J0D01*
G01*
X5120500Y-37587500D01*
G75*
G02*
X4945500Y-37412500I0J175000D01*
G01*
X4945500Y-35712500D01*
G75*
G02*
X5120500Y-35537500I175000J0D01*
G01*
G37*
G36*
G01*
X3850500Y-35537500D02*
X4200500Y-35537500D01*
G75*
G02*
X4375500Y-35712500I0J-175000D01*
G01*
X4375500Y-37412500D01*
G75*
G02*
X4200500Y-37587500I-175000J0D01*
G01*
X3850500Y-37587500D01*
G75*
G02*
X3675500Y-37412500I0J175000D01*
G01*
X3675500Y-35712500D01*
G75*
G02*
X3850500Y-35537500I175000J0D01*
G01*
G37*
G36*
G01*
X2580500Y-35537500D02*
X2930500Y-35537500D01*
G75*
G02*
X3105500Y-35712500I0J-175000D01*
G01*
X3105500Y-37412500D01*
G75*
G02*
X2930500Y-37587500I-175000J0D01*
G01*
X2580500Y-37587500D01*
G75*
G02*
X2405500Y-37412500I0J175000D01*
G01*
X2405500Y-35712500D01*
G75*
G02*
X2580500Y-35537500I175000J0D01*
G01*
G37*
G36*
G01*
X2580500Y-30587500D02*
X2930500Y-30587500D01*
G75*
G02*
X3105500Y-30762500I0J-175000D01*
G01*
X3105500Y-32462500D01*
G75*
G02*
X2930500Y-32637500I-175000J0D01*
G01*
X2580500Y-32637500D01*
G75*
G02*
X2405500Y-32462500I0J175000D01*
G01*
X2405500Y-30762500D01*
G75*
G02*
X2580500Y-30587500I175000J0D01*
G01*
G37*
G36*
G01*
X3850500Y-30587500D02*
X4200500Y-30587500D01*
G75*
G02*
X4375500Y-30762500I0J-175000D01*
G01*
X4375500Y-32462500D01*
G75*
G02*
X4200500Y-32637500I-175000J0D01*
G01*
X3850500Y-32637500D01*
G75*
G02*
X3675500Y-32462500I0J175000D01*
G01*
X3675500Y-30762500D01*
G75*
G02*
X3850500Y-30587500I175000J0D01*
G01*
G37*
G36*
G01*
X5120500Y-30587500D02*
X5470500Y-30587500D01*
G75*
G02*
X5645500Y-30762500I0J-175000D01*
G01*
X5645500Y-32462500D01*
G75*
G02*
X5470500Y-32637500I-175000J0D01*
G01*
X5120500Y-32637500D01*
G75*
G02*
X4945500Y-32462500I0J175000D01*
G01*
X4945500Y-30762500D01*
G75*
G02*
X5120500Y-30587500I175000J0D01*
G01*
G37*
G36*
G01*
X6390500Y-30587500D02*
X6740500Y-30587500D01*
G75*
G02*
X6915500Y-30762500I0J-175000D01*
G01*
X6915500Y-32462500D01*
G75*
G02*
X6740500Y-32637500I-175000J0D01*
G01*
X6390500Y-32637500D01*
G75*
G02*
X6215500Y-32462500I0J175000D01*
G01*
X6215500Y-30762500D01*
G75*
G02*
X6390500Y-30587500I175000J0D01*
G01*
G37*
%TD*%
D13*
%TO.C,J1*%
X26441000Y-65056200D03*
X26441000Y-63056200D03*
X26441000Y-61056200D03*
X26441000Y-67056200D03*
%TD*%
D14*
%TO.C,SW2*%
X30280000Y-2850000D03*
X35360000Y-2850000D03*
X25200000Y-2850000D03*
%TD*%
%TO.C,C1*%
G36*
G01*
X8082500Y-6277000D02*
X8477500Y-6277000D01*
G75*
G02*
X8650000Y-6449500I0J-172500D01*
G01*
X8650000Y-6794500D01*
G75*
G02*
X8477500Y-6967000I-172500J0D01*
G01*
X8082500Y-6967000D01*
G75*
G02*
X7910000Y-6794500I0J172500D01*
G01*
X7910000Y-6449500D01*
G75*
G02*
X8082500Y-6277000I172500J0D01*
G01*
G37*
G36*
G01*
X8082500Y-7247000D02*
X8477500Y-7247000D01*
G75*
G02*
X8650000Y-7419500I0J-172500D01*
G01*
X8650000Y-7764500D01*
G75*
G02*
X8477500Y-7937000I-172500J0D01*
G01*
X8082500Y-7937000D01*
G75*
G02*
X7910000Y-7764500I0J172500D01*
G01*
X7910000Y-7419500D01*
G75*
G02*
X8082500Y-7247000I172500J0D01*
G01*
G37*
%TD*%
%TO.C,C2*%
G36*
G01*
X20654000Y-24543000D02*
X21179000Y-24543000D01*
G75*
G02*
X21441500Y-24805500I0J-262500D01*
G01*
X21441500Y-25430500D01*
G75*
G02*
X21179000Y-25693000I-262500J0D01*
G01*
X20654000Y-25693000D01*
G75*
G02*
X20391500Y-25430500I0J262500D01*
G01*
X20391500Y-24805500D01*
G75*
G02*
X20654000Y-24543000I262500J0D01*
G01*
G37*
G36*
G01*
X20654000Y-22793000D02*
X21179000Y-22793000D01*
G75*
G02*
X21441500Y-23055500I0J-262500D01*
G01*
X21441500Y-23680500D01*
G75*
G02*
X21179000Y-23943000I-262500J0D01*
G01*
X20654000Y-23943000D01*
G75*
G02*
X20391500Y-23680500I0J262500D01*
G01*
X20391500Y-23055500D01*
G75*
G02*
X20654000Y-22793000I262500J0D01*
G01*
G37*
%TD*%
%TO.C,C3*%
G36*
G01*
X26522900Y-24084800D02*
X26917900Y-24084800D01*
G75*
G02*
X27090400Y-24257300I0J-172500D01*
G01*
X27090400Y-24602300D01*
G75*
G02*
X26917900Y-24774800I-172500J0D01*
G01*
X26522900Y-24774800D01*
G75*
G02*
X26350400Y-24602300I0J172500D01*
G01*
X26350400Y-24257300D01*
G75*
G02*
X26522900Y-24084800I172500J0D01*
G01*
G37*
G36*
G01*
X26522900Y-25054800D02*
X26917900Y-25054800D01*
G75*
G02*
X27090400Y-25227300I0J-172500D01*
G01*
X27090400Y-25572300D01*
G75*
G02*
X26917900Y-25744800I-172500J0D01*
G01*
X26522900Y-25744800D01*
G75*
G02*
X26350400Y-25572300I0J172500D01*
G01*
X26350400Y-25227300D01*
G75*
G02*
X26522900Y-25054800I172500J0D01*
G01*
G37*
%TD*%
%TO.C,C4*%
G36*
G01*
X30307500Y-66101200D02*
X30702500Y-66101200D01*
G75*
G02*
X30875000Y-66273700I0J-172500D01*
G01*
X30875000Y-66618700D01*
G75*
G02*
X30702500Y-66791200I-172500J0D01*
G01*
X30307500Y-66791200D01*
G75*
G02*
X30135000Y-66618700I0J172500D01*
G01*
X30135000Y-66273700D01*
G75*
G02*
X30307500Y-66101200I172500J0D01*
G01*
G37*
G36*
G01*
X30307500Y-65131200D02*
X30702500Y-65131200D01*
G75*
G02*
X30875000Y-65303700I0J-172500D01*
G01*
X30875000Y-65648700D01*
G75*
G02*
X30702500Y-65821200I-172500J0D01*
G01*
X30307500Y-65821200D01*
G75*
G02*
X30135000Y-65648700I0J172500D01*
G01*
X30135000Y-65303700D01*
G75*
G02*
X30307500Y-65131200I172500J0D01*
G01*
G37*
%TD*%
%TO.C,C5*%
G36*
G01*
X22306500Y-24097500D02*
X22701500Y-24097500D01*
G75*
G02*
X22874000Y-24270000I0J-172500D01*
G01*
X22874000Y-24615000D01*
G75*
G02*
X22701500Y-24787500I-172500J0D01*
G01*
X22306500Y-24787500D01*
G75*
G02*
X22134000Y-24615000I0J172500D01*
G01*
X22134000Y-24270000D01*
G75*
G02*
X22306500Y-24097500I172500J0D01*
G01*
G37*
G36*
G01*
X22306500Y-25067500D02*
X22701500Y-25067500D01*
G75*
G02*
X22874000Y-25240000I0J-172500D01*
G01*
X22874000Y-25585000D01*
G75*
G02*
X22701500Y-25757500I-172500J0D01*
G01*
X22306500Y-25757500D01*
G75*
G02*
X22134000Y-25585000I0J172500D01*
G01*
X22134000Y-25240000D01*
G75*
G02*
X22306500Y-25067500I172500J0D01*
G01*
G37*
%TD*%
%TO.C,C6*%
G36*
G01*
X24933900Y-22855200D02*
X25458900Y-22855200D01*
G75*
G02*
X25721400Y-23117700I0J-262500D01*
G01*
X25721400Y-23742700D01*
G75*
G02*
X25458900Y-24005200I-262500J0D01*
G01*
X24933900Y-24005200D01*
G75*
G02*
X24671400Y-23742700I0J262500D01*
G01*
X24671400Y-23117700D01*
G75*
G02*
X24933900Y-22855200I262500J0D01*
G01*
G37*
G36*
G01*
X24933900Y-24605200D02*
X25458900Y-24605200D01*
G75*
G02*
X25721400Y-24867700I0J-262500D01*
G01*
X25721400Y-25492700D01*
G75*
G02*
X25458900Y-25755200I-262500J0D01*
G01*
X24933900Y-25755200D01*
G75*
G02*
X24671400Y-25492700I0J262500D01*
G01*
X24671400Y-24867700D01*
G75*
G02*
X24933900Y-24605200I262500J0D01*
G01*
G37*
%TD*%
%TO.C,C7*%
G36*
G01*
X38054500Y-8494000D02*
X38449500Y-8494000D01*
G75*
G02*
X38622000Y-8666500I0J-172500D01*
G01*
X38622000Y-9011500D01*
G75*
G02*
X38449500Y-9184000I-172500J0D01*
G01*
X38054500Y-9184000D01*
G75*
G02*
X37882000Y-9011500I0J172500D01*
G01*
X37882000Y-8666500D01*
G75*
G02*
X38054500Y-8494000I172500J0D01*
G01*
G37*
G36*
G01*
X38054500Y-7524000D02*
X38449500Y-7524000D01*
G75*
G02*
X38622000Y-7696500I0J-172500D01*
G01*
X38622000Y-8041500D01*
G75*
G02*
X38449500Y-8214000I-172500J0D01*
G01*
X38054500Y-8214000D01*
G75*
G02*
X37882000Y-8041500I0J172500D01*
G01*
X37882000Y-7696500D01*
G75*
G02*
X38054500Y-7524000I172500J0D01*
G01*
G37*
%TD*%
%TO.C,C8*%
G36*
G01*
X32557660Y-60170880D02*
X32557660Y-59645880D01*
G75*
G02*
X32820160Y-59383380I262500J0D01*
G01*
X33445160Y-59383380D01*
G75*
G02*
X33707660Y-59645880I0J-262500D01*
G01*
X33707660Y-60170880D01*
G75*
G02*
X33445160Y-60433380I-262500J0D01*
G01*
X32820160Y-60433380D01*
G75*
G02*
X32557660Y-60170880I0J262500D01*
G01*
G37*
G36*
G01*
X34307660Y-60170880D02*
X34307660Y-59645880D01*
G75*
G02*
X34570160Y-59383380I262500J0D01*
G01*
X35195160Y-59383380D01*
G75*
G02*
X35457660Y-59645880I0J-262500D01*
G01*
X35457660Y-60170880D01*
G75*
G02*
X35195160Y-60433380I-262500J0D01*
G01*
X34570160Y-60433380D01*
G75*
G02*
X34307660Y-60170880I0J262500D01*
G01*
G37*
%TD*%
%TO.C,C9*%
G36*
G01*
X17352000Y-24529000D02*
X17877000Y-24529000D01*
G75*
G02*
X18139500Y-24791500I0J-262500D01*
G01*
X18139500Y-25416500D01*
G75*
G02*
X17877000Y-25679000I-262500J0D01*
G01*
X17352000Y-25679000D01*
G75*
G02*
X17089500Y-25416500I0J262500D01*
G01*
X17089500Y-24791500D01*
G75*
G02*
X17352000Y-24529000I262500J0D01*
G01*
G37*
G36*
G01*
X17352000Y-22779000D02*
X17877000Y-22779000D01*
G75*
G02*
X18139500Y-23041500I0J-262500D01*
G01*
X18139500Y-23666500D01*
G75*
G02*
X17877000Y-23929000I-262500J0D01*
G01*
X17352000Y-23929000D01*
G75*
G02*
X17089500Y-23666500I0J262500D01*
G01*
X17089500Y-23041500D01*
G75*
G02*
X17352000Y-22779000I262500J0D01*
G01*
G37*
%TD*%
%TO.C,C10*%
G36*
G01*
X19068000Y-24120500D02*
X19463000Y-24120500D01*
G75*
G02*
X19635500Y-24293000I0J-172500D01*
G01*
X19635500Y-24638000D01*
G75*
G02*
X19463000Y-24810500I-172500J0D01*
G01*
X19068000Y-24810500D01*
G75*
G02*
X18895500Y-24638000I0J172500D01*
G01*
X18895500Y-24293000D01*
G75*
G02*
X19068000Y-24120500I172500J0D01*
G01*
G37*
G36*
G01*
X19068000Y-25090500D02*
X19463000Y-25090500D01*
G75*
G02*
X19635500Y-25263000I0J-172500D01*
G01*
X19635500Y-25608000D01*
G75*
G02*
X19463000Y-25780500I-172500J0D01*
G01*
X19068000Y-25780500D01*
G75*
G02*
X18895500Y-25608000I0J172500D01*
G01*
X18895500Y-25263000D01*
G75*
G02*
X19068000Y-25090500I172500J0D01*
G01*
G37*
%TD*%
%TO.C,C11*%
G36*
G01*
X26070000Y-17935500D02*
X26070000Y-18330500D01*
G75*
G02*
X25897500Y-18503000I-172500J0D01*
G01*
X25552500Y-18503000D01*
G75*
G02*
X25380000Y-18330500I0J172500D01*
G01*
X25380000Y-17935500D01*
G75*
G02*
X25552500Y-17763000I172500J0D01*
G01*
X25897500Y-17763000D01*
G75*
G02*
X26070000Y-17935500I0J-172500D01*
G01*
G37*
G36*
G01*
X27040000Y-17935500D02*
X27040000Y-18330500D01*
G75*
G02*
X26867500Y-18503000I-172500J0D01*
G01*
X26522500Y-18503000D01*
G75*
G02*
X26350000Y-18330500I0J172500D01*
G01*
X26350000Y-17935500D01*
G75*
G02*
X26522500Y-17763000I172500J0D01*
G01*
X26867500Y-17763000D01*
G75*
G02*
X27040000Y-17935500I0J-172500D01*
G01*
G37*
%TD*%
%TO.C,C12*%
G36*
G01*
X32726780Y-53045920D02*
X32726780Y-53440920D01*
G75*
G02*
X32554280Y-53613420I-172500J0D01*
G01*
X32209280Y-53613420D01*
G75*
G02*
X32036780Y-53440920I0J172500D01*
G01*
X32036780Y-53045920D01*
G75*
G02*
X32209280Y-52873420I172500J0D01*
G01*
X32554280Y-52873420D01*
G75*
G02*
X32726780Y-53045920I0J-172500D01*
G01*
G37*
G36*
G01*
X31756780Y-53045920D02*
X31756780Y-53440920D01*
G75*
G02*
X31584280Y-53613420I-172500J0D01*
G01*
X31239280Y-53613420D01*
G75*
G02*
X31066780Y-53440920I0J172500D01*
G01*
X31066780Y-53045920D01*
G75*
G02*
X31239280Y-52873420I172500J0D01*
G01*
X31584280Y-52873420D01*
G75*
G02*
X31756780Y-53045920I0J-172500D01*
G01*
G37*
%TD*%
%TO.C,C13*%
G36*
G01*
X34178000Y-17441500D02*
X34178000Y-17046500D01*
G75*
G02*
X34350500Y-16874000I172500J0D01*
G01*
X34695500Y-16874000D01*
G75*
G02*
X34868000Y-17046500I0J-172500D01*
G01*
X34868000Y-17441500D01*
G75*
G02*
X34695500Y-17614000I-172500J0D01*
G01*
X34350500Y-17614000D01*
G75*
G02*
X34178000Y-17441500I0J172500D01*
G01*
G37*
G36*
G01*
X33208000Y-17441500D02*
X33208000Y-17046500D01*
G75*
G02*
X33380500Y-16874000I172500J0D01*
G01*
X33725500Y-16874000D01*
G75*
G02*
X33898000Y-17046500I0J-172500D01*
G01*
X33898000Y-17441500D01*
G75*
G02*
X33725500Y-17614000I-172500J0D01*
G01*
X33380500Y-17614000D01*
G75*
G02*
X33208000Y-17441500I0J172500D01*
G01*
G37*
%TD*%
%TO.C,C14*%
G36*
G01*
X17545300Y-42074600D02*
X17150300Y-42074600D01*
G75*
G02*
X16977800Y-41902100I0J172500D01*
G01*
X16977800Y-41557100D01*
G75*
G02*
X17150300Y-41384600I172500J0D01*
G01*
X17545300Y-41384600D01*
G75*
G02*
X17717800Y-41557100I0J-172500D01*
G01*
X17717800Y-41902100D01*
G75*
G02*
X17545300Y-42074600I-172500J0D01*
G01*
G37*
G36*
G01*
X17545300Y-43044600D02*
X17150300Y-43044600D01*
G75*
G02*
X16977800Y-42872100I0J172500D01*
G01*
X16977800Y-42527100D01*
G75*
G02*
X17150300Y-42354600I172500J0D01*
G01*
X17545300Y-42354600D01*
G75*
G02*
X17717800Y-42527100I0J-172500D01*
G01*
X17717800Y-42872100D01*
G75*
G02*
X17545300Y-43044600I-172500J0D01*
G01*
G37*
%TD*%
%TO.C,C15*%
G36*
G01*
X29849060Y-48620460D02*
X29454060Y-48620460D01*
G75*
G02*
X29281560Y-48447960I0J172500D01*
G01*
X29281560Y-48102960D01*
G75*
G02*
X29454060Y-47930460I172500J0D01*
G01*
X29849060Y-47930460D01*
G75*
G02*
X30021560Y-48102960I0J-172500D01*
G01*
X30021560Y-48447960D01*
G75*
G02*
X29849060Y-48620460I-172500J0D01*
G01*
G37*
G36*
G01*
X29849060Y-49590460D02*
X29454060Y-49590460D01*
G75*
G02*
X29281560Y-49417960I0J172500D01*
G01*
X29281560Y-49072960D01*
G75*
G02*
X29454060Y-48900460I172500J0D01*
G01*
X29849060Y-48900460D01*
G75*
G02*
X30021560Y-49072960I0J-172500D01*
G01*
X30021560Y-49417960D01*
G75*
G02*
X29849060Y-49590460I-172500J0D01*
G01*
G37*
%TD*%
%TO.C,C16*%
G36*
G01*
X15895800Y-43991100D02*
X15370800Y-43991100D01*
G75*
G02*
X15108300Y-43728600I0J262500D01*
G01*
X15108300Y-43103600D01*
G75*
G02*
X15370800Y-42841100I262500J0D01*
G01*
X15895800Y-42841100D01*
G75*
G02*
X16158300Y-43103600I0J-262500D01*
G01*
X16158300Y-43728600D01*
G75*
G02*
X15895800Y-43991100I-262500J0D01*
G01*
G37*
G36*
G01*
X15895800Y-42241100D02*
X15370800Y-42241100D01*
G75*
G02*
X15108300Y-41978600I0J262500D01*
G01*
X15108300Y-41353600D01*
G75*
G02*
X15370800Y-41091100I262500J0D01*
G01*
X15895800Y-41091100D01*
G75*
G02*
X16158300Y-41353600I0J-262500D01*
G01*
X16158300Y-41978600D01*
G75*
G02*
X15895800Y-42241100I-262500J0D01*
G01*
G37*
%TD*%
%TO.C,C17*%
G36*
G01*
X4030000Y-15522500D02*
X4030000Y-15917500D01*
G75*
G02*
X3857500Y-16090000I-172500J0D01*
G01*
X3512500Y-16090000D01*
G75*
G02*
X3340000Y-15917500I0J172500D01*
G01*
X3340000Y-15522500D01*
G75*
G02*
X3512500Y-15350000I172500J0D01*
G01*
X3857500Y-15350000D01*
G75*
G02*
X4030000Y-15522500I0J-172500D01*
G01*
G37*
G36*
G01*
X3060000Y-15522500D02*
X3060000Y-15917500D01*
G75*
G02*
X2887500Y-16090000I-172500J0D01*
G01*
X2542500Y-16090000D01*
G75*
G02*
X2370000Y-15917500I0J172500D01*
G01*
X2370000Y-15522500D01*
G75*
G02*
X2542500Y-15350000I172500J0D01*
G01*
X2887500Y-15350000D01*
G75*
G02*
X3060000Y-15522500I0J-172500D01*
G01*
G37*
%TD*%
%TO.C,C18*%
G36*
G01*
X8169900Y-27646600D02*
X8694900Y-27646600D01*
G75*
G02*
X8957400Y-27909100I0J-262500D01*
G01*
X8957400Y-28534100D01*
G75*
G02*
X8694900Y-28796600I-262500J0D01*
G01*
X8169900Y-28796600D01*
G75*
G02*
X7907400Y-28534100I0J262500D01*
G01*
X7907400Y-27909100D01*
G75*
G02*
X8169900Y-27646600I262500J0D01*
G01*
G37*
G36*
G01*
X8169900Y-29396600D02*
X8694900Y-29396600D01*
G75*
G02*
X8957400Y-29659100I0J-262500D01*
G01*
X8957400Y-30284100D01*
G75*
G02*
X8694900Y-30546600I-262500J0D01*
G01*
X8169900Y-30546600D01*
G75*
G02*
X7907400Y-30284100I0J262500D01*
G01*
X7907400Y-29659100D01*
G75*
G02*
X8169900Y-29396600I262500J0D01*
G01*
G37*
%TD*%
%TO.C,C19*%
G36*
G01*
X9450500Y-31415000D02*
X9450500Y-31810000D01*
G75*
G02*
X9278000Y-31982500I-172500J0D01*
G01*
X8933000Y-31982500D01*
G75*
G02*
X8760500Y-31810000I0J172500D01*
G01*
X8760500Y-31415000D01*
G75*
G02*
X8933000Y-31242500I172500J0D01*
G01*
X9278000Y-31242500D01*
G75*
G02*
X9450500Y-31415000I0J-172500D01*
G01*
G37*
G36*
G01*
X8480500Y-31415000D02*
X8480500Y-31810000D01*
G75*
G02*
X8308000Y-31982500I-172500J0D01*
G01*
X7963000Y-31982500D01*
G75*
G02*
X7790500Y-31810000I0J172500D01*
G01*
X7790500Y-31415000D01*
G75*
G02*
X7963000Y-31242500I172500J0D01*
G01*
X8308000Y-31242500D01*
G75*
G02*
X8480500Y-31415000I0J-172500D01*
G01*
G37*
%TD*%
%TO.C,C22*%
G36*
G01*
X6255000Y-38595000D02*
X6255000Y-38200000D01*
G75*
G02*
X6427500Y-38027500I172500J0D01*
G01*
X6772500Y-38027500D01*
G75*
G02*
X6945000Y-38200000I0J-172500D01*
G01*
X6945000Y-38595000D01*
G75*
G02*
X6772500Y-38767500I-172500J0D01*
G01*
X6427500Y-38767500D01*
G75*
G02*
X6255000Y-38595000I0J172500D01*
G01*
G37*
G36*
G01*
X7225000Y-38595000D02*
X7225000Y-38200000D01*
G75*
G02*
X7397500Y-38027500I172500J0D01*
G01*
X7742500Y-38027500D01*
G75*
G02*
X7915000Y-38200000I0J-172500D01*
G01*
X7915000Y-38595000D01*
G75*
G02*
X7742500Y-38767500I-172500J0D01*
G01*
X7397500Y-38767500D01*
G75*
G02*
X7225000Y-38595000I0J172500D01*
G01*
G37*
%TD*%
%TO.C,C23*%
G36*
G01*
X8273000Y-34292500D02*
X8668000Y-34292500D01*
G75*
G02*
X8840500Y-34465000I0J-172500D01*
G01*
X8840500Y-34810000D01*
G75*
G02*
X8668000Y-34982500I-172500J0D01*
G01*
X8273000Y-34982500D01*
G75*
G02*
X8100500Y-34810000I0J172500D01*
G01*
X8100500Y-34465000D01*
G75*
G02*
X8273000Y-34292500I172500J0D01*
G01*
G37*
G36*
G01*
X8273000Y-33322500D02*
X8668000Y-33322500D01*
G75*
G02*
X8840500Y-33495000I0J-172500D01*
G01*
X8840500Y-33840000D01*
G75*
G02*
X8668000Y-34012500I-172500J0D01*
G01*
X8273000Y-34012500D01*
G75*
G02*
X8100500Y-33840000I0J172500D01*
G01*
X8100500Y-33495000D01*
G75*
G02*
X8273000Y-33322500I172500J0D01*
G01*
G37*
%TD*%
%TO.C,C24*%
G36*
G01*
X18701000Y-61594500D02*
X18306000Y-61594500D01*
G75*
G02*
X18133500Y-61422000I0J172500D01*
G01*
X18133500Y-61077000D01*
G75*
G02*
X18306000Y-60904500I172500J0D01*
G01*
X18701000Y-60904500D01*
G75*
G02*
X18873500Y-61077000I0J-172500D01*
G01*
X18873500Y-61422000D01*
G75*
G02*
X18701000Y-61594500I-172500J0D01*
G01*
G37*
G36*
G01*
X18701000Y-60624500D02*
X18306000Y-60624500D01*
G75*
G02*
X18133500Y-60452000I0J172500D01*
G01*
X18133500Y-60107000D01*
G75*
G02*
X18306000Y-59934500I172500J0D01*
G01*
X18701000Y-59934500D01*
G75*
G02*
X18873500Y-60107000I0J-172500D01*
G01*
X18873500Y-60452000D01*
G75*
G02*
X18701000Y-60624500I-172500J0D01*
G01*
G37*
%TD*%
%TO.C,C25*%
G36*
G01*
X4462500Y-45200000D02*
X3937500Y-45200000D01*
G75*
G02*
X3675000Y-44937500I0J262500D01*
G01*
X3675000Y-44312500D01*
G75*
G02*
X3937500Y-44050000I262500J0D01*
G01*
X4462500Y-44050000D01*
G75*
G02*
X4725000Y-44312500I0J-262500D01*
G01*
X4725000Y-44937500D01*
G75*
G02*
X4462500Y-45200000I-262500J0D01*
G01*
G37*
G36*
G01*
X4462500Y-46950000D02*
X3937500Y-46950000D01*
G75*
G02*
X3675000Y-46687500I0J262500D01*
G01*
X3675000Y-46062500D01*
G75*
G02*
X3937500Y-45800000I262500J0D01*
G01*
X4462500Y-45800000D01*
G75*
G02*
X4725000Y-46062500I0J-262500D01*
G01*
X4725000Y-46687500D01*
G75*
G02*
X4462500Y-46950000I-262500J0D01*
G01*
G37*
%TD*%
%TO.C,C26*%
G36*
G01*
X4878500Y-54130500D02*
X4878500Y-54525500D01*
G75*
G02*
X4706000Y-54698000I-172500J0D01*
G01*
X4361000Y-54698000D01*
G75*
G02*
X4188500Y-54525500I0J172500D01*
G01*
X4188500Y-54130500D01*
G75*
G02*
X4361000Y-53958000I172500J0D01*
G01*
X4706000Y-53958000D01*
G75*
G02*
X4878500Y-54130500I0J-172500D01*
G01*
G37*
G36*
G01*
X3908500Y-54130500D02*
X3908500Y-54525500D01*
G75*
G02*
X3736000Y-54698000I-172500J0D01*
G01*
X3391000Y-54698000D01*
G75*
G02*
X3218500Y-54525500I0J172500D01*
G01*
X3218500Y-54130500D01*
G75*
G02*
X3391000Y-53958000I172500J0D01*
G01*
X3736000Y-53958000D01*
G75*
G02*
X3908500Y-54130500I0J-172500D01*
G01*
G37*
%TD*%
%TO.C,C27*%
G36*
G01*
X6055000Y-44997500D02*
X6055000Y-44602500D01*
G75*
G02*
X6227500Y-44430000I172500J0D01*
G01*
X6572500Y-44430000D01*
G75*
G02*
X6745000Y-44602500I0J-172500D01*
G01*
X6745000Y-44997500D01*
G75*
G02*
X6572500Y-45170000I-172500J0D01*
G01*
X6227500Y-45170000D01*
G75*
G02*
X6055000Y-44997500I0J172500D01*
G01*
G37*
G36*
G01*
X5085000Y-44997500D02*
X5085000Y-44602500D01*
G75*
G02*
X5257500Y-44430000I172500J0D01*
G01*
X5602500Y-44430000D01*
G75*
G02*
X5775000Y-44602500I0J-172500D01*
G01*
X5775000Y-44997500D01*
G75*
G02*
X5602500Y-45170000I-172500J0D01*
G01*
X5257500Y-45170000D01*
G75*
G02*
X5085000Y-44997500I0J172500D01*
G01*
G37*
%TD*%
%TO.C,C28*%
G36*
G01*
X5513500Y-55400500D02*
X5513500Y-55795500D01*
G75*
G02*
X5341000Y-55968000I-172500J0D01*
G01*
X4996000Y-55968000D01*
G75*
G02*
X4823500Y-55795500I0J172500D01*
G01*
X4823500Y-55400500D01*
G75*
G02*
X4996000Y-55228000I172500J0D01*
G01*
X5341000Y-55228000D01*
G75*
G02*
X5513500Y-55400500I0J-172500D01*
G01*
G37*
G36*
G01*
X4543500Y-55400500D02*
X4543500Y-55795500D01*
G75*
G02*
X4371000Y-55968000I-172500J0D01*
G01*
X4026000Y-55968000D01*
G75*
G02*
X3853500Y-55795500I0J172500D01*
G01*
X3853500Y-55400500D01*
G75*
G02*
X4026000Y-55228000I172500J0D01*
G01*
X4371000Y-55228000D01*
G75*
G02*
X4543500Y-55400500I0J-172500D01*
G01*
G37*
%TD*%
%TO.C,C29*%
G36*
G01*
X10475000Y-56202500D02*
X10475000Y-56597500D01*
G75*
G02*
X10302500Y-56770000I-172500J0D01*
G01*
X9957500Y-56770000D01*
G75*
G02*
X9785000Y-56597500I0J172500D01*
G01*
X9785000Y-56202500D01*
G75*
G02*
X9957500Y-56030000I172500J0D01*
G01*
X10302500Y-56030000D01*
G75*
G02*
X10475000Y-56202500I0J-172500D01*
G01*
G37*
G36*
G01*
X11445000Y-56202500D02*
X11445000Y-56597500D01*
G75*
G02*
X11272500Y-56770000I-172500J0D01*
G01*
X10927500Y-56770000D01*
G75*
G02*
X10755000Y-56597500I0J172500D01*
G01*
X10755000Y-56202500D01*
G75*
G02*
X10927500Y-56030000I172500J0D01*
G01*
X11272500Y-56030000D01*
G75*
G02*
X11445000Y-56202500I0J-172500D01*
G01*
G37*
%TD*%
%TO.C,C30*%
G36*
G01*
X14502500Y-47725000D02*
X14897500Y-47725000D01*
G75*
G02*
X15070000Y-47897500I0J-172500D01*
G01*
X15070000Y-48242500D01*
G75*
G02*
X14897500Y-48415000I-172500J0D01*
G01*
X14502500Y-48415000D01*
G75*
G02*
X14330000Y-48242500I0J172500D01*
G01*
X14330000Y-47897500D01*
G75*
G02*
X14502500Y-47725000I172500J0D01*
G01*
G37*
G36*
G01*
X14502500Y-46755000D02*
X14897500Y-46755000D01*
G75*
G02*
X15070000Y-46927500I0J-172500D01*
G01*
X15070000Y-47272500D01*
G75*
G02*
X14897500Y-47445000I-172500J0D01*
G01*
X14502500Y-47445000D01*
G75*
G02*
X14330000Y-47272500I0J172500D01*
G01*
X14330000Y-46927500D01*
G75*
G02*
X14502500Y-46755000I172500J0D01*
G01*
G37*
%TD*%
%TO.C,C31*%
G36*
G01*
X11301080Y-57936460D02*
X11301080Y-58461460D01*
G75*
G02*
X11038580Y-58723960I-262500J0D01*
G01*
X10413580Y-58723960D01*
G75*
G02*
X10151080Y-58461460I0J262500D01*
G01*
X10151080Y-57936460D01*
G75*
G02*
X10413580Y-57673960I262500J0D01*
G01*
X11038580Y-57673960D01*
G75*
G02*
X11301080Y-57936460I0J-262500D01*
G01*
G37*
G36*
G01*
X13051080Y-57936460D02*
X13051080Y-58461460D01*
G75*
G02*
X12788580Y-58723960I-262500J0D01*
G01*
X12163580Y-58723960D01*
G75*
G02*
X11901080Y-58461460I0J262500D01*
G01*
X11901080Y-57936460D01*
G75*
G02*
X12163580Y-57673960I262500J0D01*
G01*
X12788580Y-57673960D01*
G75*
G02*
X13051080Y-57936460I0J-262500D01*
G01*
G37*
%TD*%
%TO.C,D1*%
G36*
G01*
X17357000Y-4806500D02*
X17357000Y-4281500D01*
G75*
G02*
X17619500Y-4019000I262500J0D01*
G01*
X18244500Y-4019000D01*
G75*
G02*
X18507000Y-4281500I0J-262500D01*
G01*
X18507000Y-4806500D01*
G75*
G02*
X18244500Y-5069000I-262500J0D01*
G01*
X17619500Y-5069000D01*
G75*
G02*
X17357000Y-4806500I0J262500D01*
G01*
G37*
G36*
G01*
X15607000Y-4806500D02*
X15607000Y-4281500D01*
G75*
G02*
X15869500Y-4019000I262500J0D01*
G01*
X16494500Y-4019000D01*
G75*
G02*
X16757000Y-4281500I0J-262500D01*
G01*
X16757000Y-4806500D01*
G75*
G02*
X16494500Y-5069000I-262500J0D01*
G01*
X15869500Y-5069000D01*
G75*
G02*
X15607000Y-4806500I0J262500D01*
G01*
G37*
%TD*%
%TO.C,D2*%
G36*
G01*
X34196500Y-11455000D02*
X33671500Y-11455000D01*
G75*
G02*
X33409000Y-11192500I0J262500D01*
G01*
X33409000Y-10567500D01*
G75*
G02*
X33671500Y-10305000I262500J0D01*
G01*
X34196500Y-10305000D01*
G75*
G02*
X34459000Y-10567500I0J-262500D01*
G01*
X34459000Y-11192500D01*
G75*
G02*
X34196500Y-11455000I-262500J0D01*
G01*
G37*
G36*
G01*
X34196500Y-9705000D02*
X33671500Y-9705000D01*
G75*
G02*
X33409000Y-9442500I0J262500D01*
G01*
X33409000Y-8817500D01*
G75*
G02*
X33671500Y-8555000I262500J0D01*
G01*
X34196500Y-8555000D01*
G75*
G02*
X34459000Y-8817500I0J-262500D01*
G01*
X34459000Y-9442500D01*
G75*
G02*
X34196500Y-9705000I-262500J0D01*
G01*
G37*
%TD*%
%TO.C,D3*%
G36*
G01*
X20821000Y-4281500D02*
X20821000Y-4806500D01*
G75*
G02*
X20558500Y-5069000I-262500J0D01*
G01*
X19933500Y-5069000D01*
G75*
G02*
X19671000Y-4806500I0J262500D01*
G01*
X19671000Y-4281500D01*
G75*
G02*
X19933500Y-4019000I262500J0D01*
G01*
X20558500Y-4019000D01*
G75*
G02*
X20821000Y-4281500I0J-262500D01*
G01*
G37*
G36*
G01*
X22571000Y-4281500D02*
X22571000Y-4806500D01*
G75*
G02*
X22308500Y-5069000I-262500J0D01*
G01*
X21683500Y-5069000D01*
G75*
G02*
X21421000Y-4806500I0J262500D01*
G01*
X21421000Y-4281500D01*
G75*
G02*
X21683500Y-4019000I262500J0D01*
G01*
X22308500Y-4019000D01*
G75*
G02*
X22571000Y-4281500I0J-262500D01*
G01*
G37*
%TD*%
%TO.C,D4*%
G36*
G01*
X35906000Y-13933500D02*
X35906000Y-14458500D01*
G75*
G02*
X35643500Y-14721000I-262500J0D01*
G01*
X35018500Y-14721000D01*
G75*
G02*
X34756000Y-14458500I0J262500D01*
G01*
X34756000Y-13933500D01*
G75*
G02*
X35018500Y-13671000I262500J0D01*
G01*
X35643500Y-13671000D01*
G75*
G02*
X35906000Y-13933500I0J-262500D01*
G01*
G37*
G36*
G01*
X34156000Y-13933500D02*
X34156000Y-14458500D01*
G75*
G02*
X33893500Y-14721000I-262500J0D01*
G01*
X33268500Y-14721000D01*
G75*
G02*
X33006000Y-14458500I0J262500D01*
G01*
X33006000Y-13933500D01*
G75*
G02*
X33268500Y-13671000I262500J0D01*
G01*
X33893500Y-13671000D01*
G75*
G02*
X34156000Y-13933500I0J-262500D01*
G01*
G37*
%TD*%
%TO.C,D5*%
G36*
G01*
X3013000Y-17235500D02*
X3013000Y-17760500D01*
G75*
G02*
X2750500Y-18023000I-262500J0D01*
G01*
X2125500Y-18023000D01*
G75*
G02*
X1863000Y-17760500I0J262500D01*
G01*
X1863000Y-17235500D01*
G75*
G02*
X2125500Y-16973000I262500J0D01*
G01*
X2750500Y-16973000D01*
G75*
G02*
X3013000Y-17235500I0J-262500D01*
G01*
G37*
G36*
G01*
X1263000Y-17235500D02*
X1263000Y-17760500D01*
G75*
G02*
X1000500Y-18023000I-262500J0D01*
G01*
X375500Y-18023000D01*
G75*
G02*
X113000Y-17760500I0J262500D01*
G01*
X113000Y-17235500D01*
G75*
G02*
X375500Y-16973000I262500J0D01*
G01*
X1000500Y-16973000D01*
G75*
G02*
X1263000Y-17235500I0J-262500D01*
G01*
G37*
%TD*%
%TO.C,D6*%
G36*
G01*
X2937500Y-59595000D02*
X3462500Y-59595000D01*
G75*
G02*
X3725000Y-59857500I0J-262500D01*
G01*
X3725000Y-60482500D01*
G75*
G02*
X3462500Y-60745000I-262500J0D01*
G01*
X2937500Y-60745000D01*
G75*
G02*
X2675000Y-60482500I0J262500D01*
G01*
X2675000Y-59857500D01*
G75*
G02*
X2937500Y-59595000I262500J0D01*
G01*
G37*
G36*
G01*
X2937500Y-57845000D02*
X3462500Y-57845000D01*
G75*
G02*
X3725000Y-58107500I0J-262500D01*
G01*
X3725000Y-58732500D01*
G75*
G02*
X3462500Y-58995000I-262500J0D01*
G01*
X2937500Y-58995000D01*
G75*
G02*
X2675000Y-58732500I0J262500D01*
G01*
X2675000Y-58107500D01*
G75*
G02*
X2937500Y-57845000I262500J0D01*
G01*
G37*
%TD*%
%TO.C,D7*%
G36*
G01*
X1538500Y-52668500D02*
X1538500Y-53193500D01*
G75*
G02*
X1276000Y-53456000I-262500J0D01*
G01*
X651000Y-53456000D01*
G75*
G02*
X388500Y-53193500I0J262500D01*
G01*
X388500Y-52668500D01*
G75*
G02*
X651000Y-52406000I262500J0D01*
G01*
X1276000Y-52406000D01*
G75*
G02*
X1538500Y-52668500I0J-262500D01*
G01*
G37*
G36*
G01*
X-211500Y-52668500D02*
X-211500Y-53193500D01*
G75*
G02*
X-474000Y-53456000I-262500J0D01*
G01*
X-1099000Y-53456000D01*
G75*
G02*
X-1361500Y-53193500I0J262500D01*
G01*
X-1361500Y-52668500D01*
G75*
G02*
X-1099000Y-52406000I262500J0D01*
G01*
X-474000Y-52406000D01*
G75*
G02*
X-211500Y-52668500I0J-262500D01*
G01*
G37*
%TD*%
%TO.C,FB1*%
G36*
G01*
X17807200Y-57819620D02*
X17807200Y-58344620D01*
G75*
G02*
X17544700Y-58607120I-262500J0D01*
G01*
X16919700Y-58607120D01*
G75*
G02*
X16657200Y-58344620I0J262500D01*
G01*
X16657200Y-57819620D01*
G75*
G02*
X16919700Y-57557120I262500J0D01*
G01*
X17544700Y-57557120D01*
G75*
G02*
X17807200Y-57819620I0J-262500D01*
G01*
G37*
G36*
G01*
X16057200Y-57819620D02*
X16057200Y-58344620D01*
G75*
G02*
X15794700Y-58607120I-262500J0D01*
G01*
X15169700Y-58607120D01*
G75*
G02*
X14907200Y-58344620I0J262500D01*
G01*
X14907200Y-57819620D01*
G75*
G02*
X15169700Y-57557120I262500J0D01*
G01*
X15794700Y-57557120D01*
G75*
G02*
X16057200Y-57819620I0J-262500D01*
G01*
G37*
%TD*%
D15*
%TO.C,Q1*%
X2128880Y-23379760D03*
X2128880Y-25279760D03*
X4128880Y-24329760D03*
%TD*%
%TO.C,R1*%
G36*
G01*
X18129500Y-3088000D02*
X17734500Y-3088000D01*
G75*
G02*
X17562000Y-2915500I0J172500D01*
G01*
X17562000Y-2570500D01*
G75*
G02*
X17734500Y-2398000I172500J0D01*
G01*
X18129500Y-2398000D01*
G75*
G02*
X18302000Y-2570500I0J-172500D01*
G01*
X18302000Y-2915500D01*
G75*
G02*
X18129500Y-3088000I-172500J0D01*
G01*
G37*
G36*
G01*
X18129500Y-2118000D02*
X17734500Y-2118000D01*
G75*
G02*
X17562000Y-1945500I0J172500D01*
G01*
X17562000Y-1600500D01*
G75*
G02*
X17734500Y-1428000I172500J0D01*
G01*
X18129500Y-1428000D01*
G75*
G02*
X18302000Y-1600500I0J-172500D01*
G01*
X18302000Y-1945500D01*
G75*
G02*
X18129500Y-2118000I-172500J0D01*
G01*
G37*
%TD*%
%TO.C,R2*%
G36*
G01*
X9747500Y-6944000D02*
X9352500Y-6944000D01*
G75*
G02*
X9180000Y-6771500I0J172500D01*
G01*
X9180000Y-6426500D01*
G75*
G02*
X9352500Y-6254000I172500J0D01*
G01*
X9747500Y-6254000D01*
G75*
G02*
X9920000Y-6426500I0J-172500D01*
G01*
X9920000Y-6771500D01*
G75*
G02*
X9747500Y-6944000I-172500J0D01*
G01*
G37*
G36*
G01*
X9747500Y-7914000D02*
X9352500Y-7914000D01*
G75*
G02*
X9180000Y-7741500I0J172500D01*
G01*
X9180000Y-7396500D01*
G75*
G02*
X9352500Y-7224000I172500J0D01*
G01*
X9747500Y-7224000D01*
G75*
G02*
X9920000Y-7396500I0J-172500D01*
G01*
X9920000Y-7741500D01*
G75*
G02*
X9747500Y-7914000I-172500J0D01*
G01*
G37*
%TD*%
%TO.C,R3*%
G36*
G01*
X36163500Y-11597000D02*
X35768500Y-11597000D01*
G75*
G02*
X35596000Y-11424500I0J172500D01*
G01*
X35596000Y-11079500D01*
G75*
G02*
X35768500Y-10907000I172500J0D01*
G01*
X36163500Y-10907000D01*
G75*
G02*
X36336000Y-11079500I0J-172500D01*
G01*
X36336000Y-11424500D01*
G75*
G02*
X36163500Y-11597000I-172500J0D01*
G01*
G37*
G36*
G01*
X36163500Y-10627000D02*
X35768500Y-10627000D01*
G75*
G02*
X35596000Y-10454500I0J172500D01*
G01*
X35596000Y-10109500D01*
G75*
G02*
X35768500Y-9937000I172500J0D01*
G01*
X36163500Y-9937000D01*
G75*
G02*
X36336000Y-10109500I0J-172500D01*
G01*
X36336000Y-10454500D01*
G75*
G02*
X36163500Y-10627000I-172500J0D01*
G01*
G37*
%TD*%
%TO.C,R4*%
G36*
G01*
X37052500Y-7302000D02*
X36657500Y-7302000D01*
G75*
G02*
X36485000Y-7129500I0J172500D01*
G01*
X36485000Y-6784500D01*
G75*
G02*
X36657500Y-6612000I172500J0D01*
G01*
X37052500Y-6612000D01*
G75*
G02*
X37225000Y-6784500I0J-172500D01*
G01*
X37225000Y-7129500D01*
G75*
G02*
X37052500Y-7302000I-172500J0D01*
G01*
G37*
G36*
G01*
X37052500Y-8272000D02*
X36657500Y-8272000D01*
G75*
G02*
X36485000Y-8099500I0J172500D01*
G01*
X36485000Y-7754500D01*
G75*
G02*
X36657500Y-7582000I172500J0D01*
G01*
X37052500Y-7582000D01*
G75*
G02*
X37225000Y-7754500I0J-172500D01*
G01*
X37225000Y-8099500D01*
G75*
G02*
X37052500Y-8272000I-172500J0D01*
G01*
G37*
%TD*%
%TO.C,R5*%
G36*
G01*
X30471100Y-21624600D02*
X30996100Y-21624600D01*
G75*
G02*
X31258600Y-21887100I0J-262500D01*
G01*
X31258600Y-22512100D01*
G75*
G02*
X30996100Y-22774600I-262500J0D01*
G01*
X30471100Y-22774600D01*
G75*
G02*
X30208600Y-22512100I0J262500D01*
G01*
X30208600Y-21887100D01*
G75*
G02*
X30471100Y-21624600I262500J0D01*
G01*
G37*
G36*
G01*
X30471100Y-23374600D02*
X30996100Y-23374600D01*
G75*
G02*
X31258600Y-23637100I0J-262500D01*
G01*
X31258600Y-24262100D01*
G75*
G02*
X30996100Y-24524600I-262500J0D01*
G01*
X30471100Y-24524600D01*
G75*
G02*
X30208600Y-24262100I0J262500D01*
G01*
X30208600Y-23637100D01*
G75*
G02*
X30471100Y-23374600I262500J0D01*
G01*
G37*
%TD*%
%TO.C,R6*%
G36*
G01*
X20669500Y-975000D02*
X20274500Y-975000D01*
G75*
G02*
X20102000Y-802500I0J172500D01*
G01*
X20102000Y-457500D01*
G75*
G02*
X20274500Y-285000I172500J0D01*
G01*
X20669500Y-285000D01*
G75*
G02*
X20842000Y-457500I0J-172500D01*
G01*
X20842000Y-802500D01*
G75*
G02*
X20669500Y-975000I-172500J0D01*
G01*
G37*
G36*
G01*
X20669500Y-1945000D02*
X20274500Y-1945000D01*
G75*
G02*
X20102000Y-1772500I0J172500D01*
G01*
X20102000Y-1427500D01*
G75*
G02*
X20274500Y-1255000I172500J0D01*
G01*
X20669500Y-1255000D01*
G75*
G02*
X20842000Y-1427500I0J-172500D01*
G01*
X20842000Y-1772500D01*
G75*
G02*
X20669500Y-1945000I-172500J0D01*
G01*
G37*
%TD*%
%TO.C,R7*%
G36*
G01*
X20817000Y-2695500D02*
X20817000Y-3090500D01*
G75*
G02*
X20644500Y-3263000I-172500J0D01*
G01*
X20299500Y-3263000D01*
G75*
G02*
X20127000Y-3090500I0J172500D01*
G01*
X20127000Y-2695500D01*
G75*
G02*
X20299500Y-2523000I172500J0D01*
G01*
X20644500Y-2523000D01*
G75*
G02*
X20817000Y-2695500I0J-172500D01*
G01*
G37*
G36*
G01*
X21787000Y-2695500D02*
X21787000Y-3090500D01*
G75*
G02*
X21614500Y-3263000I-172500J0D01*
G01*
X21269500Y-3263000D01*
G75*
G02*
X21097000Y-3090500I0J172500D01*
G01*
X21097000Y-2695500D01*
G75*
G02*
X21269500Y-2523000I172500J0D01*
G01*
X21614500Y-2523000D01*
G75*
G02*
X21787000Y-2695500I0J-172500D01*
G01*
G37*
%TD*%
%TO.C,R8*%
G36*
G01*
X35260500Y-6658000D02*
X35655500Y-6658000D01*
G75*
G02*
X35828000Y-6830500I0J-172500D01*
G01*
X35828000Y-7175500D01*
G75*
G02*
X35655500Y-7348000I-172500J0D01*
G01*
X35260500Y-7348000D01*
G75*
G02*
X35088000Y-7175500I0J172500D01*
G01*
X35088000Y-6830500D01*
G75*
G02*
X35260500Y-6658000I172500J0D01*
G01*
G37*
G36*
G01*
X35260500Y-7628000D02*
X35655500Y-7628000D01*
G75*
G02*
X35828000Y-7800500I0J-172500D01*
G01*
X35828000Y-8145500D01*
G75*
G02*
X35655500Y-8318000I-172500J0D01*
G01*
X35260500Y-8318000D01*
G75*
G02*
X35088000Y-8145500I0J172500D01*
G01*
X35088000Y-7800500D01*
G75*
G02*
X35260500Y-7628000I172500J0D01*
G01*
G37*
%TD*%
%TO.C,R9*%
G36*
G01*
X34787000Y-15649500D02*
X34787000Y-16044500D01*
G75*
G02*
X34614500Y-16217000I-172500J0D01*
G01*
X34269500Y-16217000D01*
G75*
G02*
X34097000Y-16044500I0J172500D01*
G01*
X34097000Y-15649500D01*
G75*
G02*
X34269500Y-15477000I172500J0D01*
G01*
X34614500Y-15477000D01*
G75*
G02*
X34787000Y-15649500I0J-172500D01*
G01*
G37*
G36*
G01*
X33817000Y-15649500D02*
X33817000Y-16044500D01*
G75*
G02*
X33644500Y-16217000I-172500J0D01*
G01*
X33299500Y-16217000D01*
G75*
G02*
X33127000Y-16044500I0J172500D01*
G01*
X33127000Y-15649500D01*
G75*
G02*
X33299500Y-15477000I172500J0D01*
G01*
X33644500Y-15477000D01*
G75*
G02*
X33817000Y-15649500I0J-172500D01*
G01*
G37*
%TD*%
%TO.C,R10*%
G36*
G01*
X35433480Y-52200440D02*
X34908480Y-52200440D01*
G75*
G02*
X34645980Y-51937940I0J262500D01*
G01*
X34645980Y-51312940D01*
G75*
G02*
X34908480Y-51050440I262500J0D01*
G01*
X35433480Y-51050440D01*
G75*
G02*
X35695980Y-51312940I0J-262500D01*
G01*
X35695980Y-51937940D01*
G75*
G02*
X35433480Y-52200440I-262500J0D01*
G01*
G37*
G36*
G01*
X35433480Y-53950440D02*
X34908480Y-53950440D01*
G75*
G02*
X34645980Y-53687940I0J262500D01*
G01*
X34645980Y-53062940D01*
G75*
G02*
X34908480Y-52800440I262500J0D01*
G01*
X35433480Y-52800440D01*
G75*
G02*
X35695980Y-53062940I0J-262500D01*
G01*
X35695980Y-53687940D01*
G75*
G02*
X35433480Y-53950440I-262500J0D01*
G01*
G37*
%TD*%
%TO.C,R11*%
G36*
G01*
X19324800Y-42086100D02*
X18799800Y-42086100D01*
G75*
G02*
X18537300Y-41823600I0J262500D01*
G01*
X18537300Y-41198600D01*
G75*
G02*
X18799800Y-40936100I262500J0D01*
G01*
X19324800Y-40936100D01*
G75*
G02*
X19587300Y-41198600I0J-262500D01*
G01*
X19587300Y-41823600D01*
G75*
G02*
X19324800Y-42086100I-262500J0D01*
G01*
G37*
G36*
G01*
X19324800Y-40336100D02*
X18799800Y-40336100D01*
G75*
G02*
X18537300Y-40073600I0J262500D01*
G01*
X18537300Y-39448600D01*
G75*
G02*
X18799800Y-39186100I262500J0D01*
G01*
X19324800Y-39186100D01*
G75*
G02*
X19587300Y-39448600I0J-262500D01*
G01*
X19587300Y-40073600D01*
G75*
G02*
X19324800Y-40336100I-262500J0D01*
G01*
G37*
%TD*%
%TO.C,R12*%
G36*
G01*
X29455100Y-41166000D02*
X29980100Y-41166000D01*
G75*
G02*
X30242600Y-41428500I0J-262500D01*
G01*
X30242600Y-42053500D01*
G75*
G02*
X29980100Y-42316000I-262500J0D01*
G01*
X29455100Y-42316000D01*
G75*
G02*
X29192600Y-42053500I0J262500D01*
G01*
X29192600Y-41428500D01*
G75*
G02*
X29455100Y-41166000I262500J0D01*
G01*
G37*
G36*
G01*
X29455100Y-39416000D02*
X29980100Y-39416000D01*
G75*
G02*
X30242600Y-39678500I0J-262500D01*
G01*
X30242600Y-40303500D01*
G75*
G02*
X29980100Y-40566000I-262500J0D01*
G01*
X29455100Y-40566000D01*
G75*
G02*
X29192600Y-40303500I0J262500D01*
G01*
X29192600Y-39678500D01*
G75*
G02*
X29455100Y-39416000I262500J0D01*
G01*
G37*
%TD*%
%TO.C,R13*%
G36*
G01*
X31772300Y-46035520D02*
X31772300Y-46430520D01*
G75*
G02*
X31599800Y-46603020I-172500J0D01*
G01*
X31254800Y-46603020D01*
G75*
G02*
X31082300Y-46430520I0J172500D01*
G01*
X31082300Y-46035520D01*
G75*
G02*
X31254800Y-45863020I172500J0D01*
G01*
X31599800Y-45863020D01*
G75*
G02*
X31772300Y-46035520I0J-172500D01*
G01*
G37*
G36*
G01*
X32742300Y-46035520D02*
X32742300Y-46430520D01*
G75*
G02*
X32569800Y-46603020I-172500J0D01*
G01*
X32224800Y-46603020D01*
G75*
G02*
X32052300Y-46430520I0J172500D01*
G01*
X32052300Y-46035520D01*
G75*
G02*
X32224800Y-45863020I172500J0D01*
G01*
X32569800Y-45863020D01*
G75*
G02*
X32742300Y-46035520I0J-172500D01*
G01*
G37*
%TD*%
%TO.C,R14*%
G36*
G01*
X34949280Y-46035520D02*
X34949280Y-46430520D01*
G75*
G02*
X34776780Y-46603020I-172500J0D01*
G01*
X34431780Y-46603020D01*
G75*
G02*
X34259280Y-46430520I0J172500D01*
G01*
X34259280Y-46035520D01*
G75*
G02*
X34431780Y-45863020I172500J0D01*
G01*
X34776780Y-45863020D01*
G75*
G02*
X34949280Y-46035520I0J-172500D01*
G01*
G37*
G36*
G01*
X33979280Y-46035520D02*
X33979280Y-46430520D01*
G75*
G02*
X33806780Y-46603020I-172500J0D01*
G01*
X33461780Y-46603020D01*
G75*
G02*
X33289280Y-46430520I0J172500D01*
G01*
X33289280Y-46035520D01*
G75*
G02*
X33461780Y-45863020I172500J0D01*
G01*
X33806780Y-45863020D01*
G75*
G02*
X33979280Y-46035520I0J-172500D01*
G01*
G37*
%TD*%
%TO.C,R15*%
G36*
G01*
X-11000Y-15522500D02*
X-11000Y-15917500D01*
G75*
G02*
X-183500Y-16090000I-172500J0D01*
G01*
X-528500Y-16090000D01*
G75*
G02*
X-701000Y-15917500I0J172500D01*
G01*
X-701000Y-15522500D01*
G75*
G02*
X-528500Y-15350000I172500J0D01*
G01*
X-183500Y-15350000D01*
G75*
G02*
X-11000Y-15522500I0J-172500D01*
G01*
G37*
G36*
G01*
X959000Y-15522500D02*
X959000Y-15917500D01*
G75*
G02*
X786500Y-16090000I-172500J0D01*
G01*
X441500Y-16090000D01*
G75*
G02*
X269000Y-15917500I0J172500D01*
G01*
X269000Y-15522500D01*
G75*
G02*
X441500Y-15350000I172500J0D01*
G01*
X786500Y-15350000D01*
G75*
G02*
X959000Y-15522500I0J-172500D01*
G01*
G37*
%TD*%
%TO.C,R16*%
G36*
G01*
X3545000Y-19078500D02*
X3545000Y-19473500D01*
G75*
G02*
X3372500Y-19646000I-172500J0D01*
G01*
X3027500Y-19646000D01*
G75*
G02*
X2855000Y-19473500I0J172500D01*
G01*
X2855000Y-19078500D01*
G75*
G02*
X3027500Y-18906000I172500J0D01*
G01*
X3372500Y-18906000D01*
G75*
G02*
X3545000Y-19078500I0J-172500D01*
G01*
G37*
G36*
G01*
X2575000Y-19078500D02*
X2575000Y-19473500D01*
G75*
G02*
X2402500Y-19646000I-172500J0D01*
G01*
X2057500Y-19646000D01*
G75*
G02*
X1885000Y-19473500I0J172500D01*
G01*
X1885000Y-19078500D01*
G75*
G02*
X2057500Y-18906000I172500J0D01*
G01*
X2402500Y-18906000D01*
G75*
G02*
X2575000Y-19078500I0J-172500D01*
G01*
G37*
%TD*%
%TO.C,R17*%
G36*
G01*
X5342100Y-60705600D02*
X4817100Y-60705600D01*
G75*
G02*
X4554600Y-60443100I0J262500D01*
G01*
X4554600Y-59818100D01*
G75*
G02*
X4817100Y-59555600I262500J0D01*
G01*
X5342100Y-59555600D01*
G75*
G02*
X5604600Y-59818100I0J-262500D01*
G01*
X5604600Y-60443100D01*
G75*
G02*
X5342100Y-60705600I-262500J0D01*
G01*
G37*
G36*
G01*
X5342100Y-58955600D02*
X4817100Y-58955600D01*
G75*
G02*
X4554600Y-58693100I0J262500D01*
G01*
X4554600Y-58068100D01*
G75*
G02*
X4817100Y-57805600I262500J0D01*
G01*
X5342100Y-57805600D01*
G75*
G02*
X5604600Y-58068100I0J-262500D01*
G01*
X5604600Y-58693100D01*
G75*
G02*
X5342100Y-58955600I-262500J0D01*
G01*
G37*
%TD*%
%TO.C,R18*%
G36*
G01*
X-1347500Y-54971500D02*
X-1347500Y-54446500D01*
G75*
G02*
X-1085000Y-54184000I262500J0D01*
G01*
X-460000Y-54184000D01*
G75*
G02*
X-197500Y-54446500I0J-262500D01*
G01*
X-197500Y-54971500D01*
G75*
G02*
X-460000Y-55234000I-262500J0D01*
G01*
X-1085000Y-55234000D01*
G75*
G02*
X-1347500Y-54971500I0J262500D01*
G01*
G37*
G36*
G01*
X402500Y-54971500D02*
X402500Y-54446500D01*
G75*
G02*
X665000Y-54184000I262500J0D01*
G01*
X1290000Y-54184000D01*
G75*
G02*
X1552500Y-54446500I0J-262500D01*
G01*
X1552500Y-54971500D01*
G75*
G02*
X1290000Y-55234000I-262500J0D01*
G01*
X665000Y-55234000D01*
G75*
G02*
X402500Y-54971500I0J262500D01*
G01*
G37*
%TD*%
%TO.C,R19*%
G36*
G01*
X367320Y-24973000D02*
X367320Y-25368000D01*
G75*
G02*
X194820Y-25540500I-172500J0D01*
G01*
X-150180Y-25540500D01*
G75*
G02*
X-322680Y-25368000I0J172500D01*
G01*
X-322680Y-24973000D01*
G75*
G02*
X-150180Y-24800500I172500J0D01*
G01*
X194820Y-24800500D01*
G75*
G02*
X367320Y-24973000I0J-172500D01*
G01*
G37*
G36*
G01*
X-602680Y-24973000D02*
X-602680Y-25368000D01*
G75*
G02*
X-775180Y-25540500I-172500J0D01*
G01*
X-1120180Y-25540500D01*
G75*
G02*
X-1292680Y-25368000I0J172500D01*
G01*
X-1292680Y-24973000D01*
G75*
G02*
X-1120180Y-24800500I172500J0D01*
G01*
X-775180Y-24800500D01*
G75*
G02*
X-602680Y-24973000I0J-172500D01*
G01*
G37*
%TD*%
%TO.C,R20*%
G36*
G01*
X-1259520Y-23536660D02*
X-1259520Y-23141660D01*
G75*
G02*
X-1087020Y-22969160I172500J0D01*
G01*
X-742020Y-22969160D01*
G75*
G02*
X-569520Y-23141660I0J-172500D01*
G01*
X-569520Y-23536660D01*
G75*
G02*
X-742020Y-23709160I-172500J0D01*
G01*
X-1087020Y-23709160D01*
G75*
G02*
X-1259520Y-23536660I0J172500D01*
G01*
G37*
G36*
G01*
X-289520Y-23536660D02*
X-289520Y-23141660D01*
G75*
G02*
X-117020Y-22969160I172500J0D01*
G01*
X227980Y-22969160D01*
G75*
G02*
X400480Y-23141660I0J-172500D01*
G01*
X400480Y-23536660D01*
G75*
G02*
X227980Y-23709160I-172500J0D01*
G01*
X-117020Y-23709160D01*
G75*
G02*
X-289520Y-23536660I0J172500D01*
G01*
G37*
%TD*%
%TO.C,R21*%
G36*
G01*
X6402500Y-28940000D02*
X6797500Y-28940000D01*
G75*
G02*
X6970000Y-29112500I0J-172500D01*
G01*
X6970000Y-29457500D01*
G75*
G02*
X6797500Y-29630000I-172500J0D01*
G01*
X6402500Y-29630000D01*
G75*
G02*
X6230000Y-29457500I0J172500D01*
G01*
X6230000Y-29112500D01*
G75*
G02*
X6402500Y-28940000I172500J0D01*
G01*
G37*
G36*
G01*
X6402500Y-27970000D02*
X6797500Y-27970000D01*
G75*
G02*
X6970000Y-28142500I0J-172500D01*
G01*
X6970000Y-28487500D01*
G75*
G02*
X6797500Y-28660000I-172500J0D01*
G01*
X6402500Y-28660000D01*
G75*
G02*
X6230000Y-28487500I0J172500D01*
G01*
X6230000Y-28142500D01*
G75*
G02*
X6402500Y-27970000I172500J0D01*
G01*
G37*
%TD*%
%TO.C,R23*%
G36*
G01*
X4940000Y-38597500D02*
X4940000Y-38202500D01*
G75*
G02*
X5112500Y-38030000I172500J0D01*
G01*
X5457500Y-38030000D01*
G75*
G02*
X5630000Y-38202500I0J-172500D01*
G01*
X5630000Y-38597500D01*
G75*
G02*
X5457500Y-38770000I-172500J0D01*
G01*
X5112500Y-38770000D01*
G75*
G02*
X4940000Y-38597500I0J172500D01*
G01*
G37*
G36*
G01*
X3970000Y-38597500D02*
X3970000Y-38202500D01*
G75*
G02*
X4142500Y-38030000I172500J0D01*
G01*
X4487500Y-38030000D01*
G75*
G02*
X4660000Y-38202500I0J-172500D01*
G01*
X4660000Y-38597500D01*
G75*
G02*
X4487500Y-38770000I-172500J0D01*
G01*
X4142500Y-38770000D01*
G75*
G02*
X3970000Y-38597500I0J172500D01*
G01*
G37*
%TD*%
%TO.C,R24*%
G36*
G01*
X16453100Y-53403000D02*
X16058100Y-53403000D01*
G75*
G02*
X15885600Y-53230500I0J172500D01*
G01*
X15885600Y-52885500D01*
G75*
G02*
X16058100Y-52713000I172500J0D01*
G01*
X16453100Y-52713000D01*
G75*
G02*
X16625600Y-52885500I0J-172500D01*
G01*
X16625600Y-53230500D01*
G75*
G02*
X16453100Y-53403000I-172500J0D01*
G01*
G37*
G36*
G01*
X16453100Y-54373000D02*
X16058100Y-54373000D01*
G75*
G02*
X15885600Y-54200500I0J172500D01*
G01*
X15885600Y-53855500D01*
G75*
G02*
X16058100Y-53683000I172500J0D01*
G01*
X16453100Y-53683000D01*
G75*
G02*
X16625600Y-53855500I0J-172500D01*
G01*
X16625600Y-54200500D01*
G75*
G02*
X16453100Y-54373000I-172500J0D01*
G01*
G37*
%TD*%
%TO.C,R25*%
G36*
G01*
X19094700Y-55310400D02*
X18699700Y-55310400D01*
G75*
G02*
X18527200Y-55137900I0J172500D01*
G01*
X18527200Y-54792900D01*
G75*
G02*
X18699700Y-54620400I172500J0D01*
G01*
X19094700Y-54620400D01*
G75*
G02*
X19267200Y-54792900I0J-172500D01*
G01*
X19267200Y-55137900D01*
G75*
G02*
X19094700Y-55310400I-172500J0D01*
G01*
G37*
G36*
G01*
X19094700Y-54340400D02*
X18699700Y-54340400D01*
G75*
G02*
X18527200Y-54167900I0J172500D01*
G01*
X18527200Y-53822900D01*
G75*
G02*
X18699700Y-53650400I172500J0D01*
G01*
X19094700Y-53650400D01*
G75*
G02*
X19267200Y-53822900I0J-172500D01*
G01*
X19267200Y-54167900D01*
G75*
G02*
X19094700Y-54340400I-172500J0D01*
G01*
G37*
%TD*%
D14*
%TO.C,SW1*%
X7620000Y-2850000D03*
X2540000Y-2850000D03*
X12700000Y-2850000D03*
%TD*%
%TO.C,SW4*%
X1520000Y-11550000D03*
X11680000Y-11550000D03*
X6600000Y-11550000D03*
%TD*%
D16*
%TO.C,U1*%
X32925220Y-62480100D03*
X32925220Y-67080100D03*
X32925220Y-64780100D03*
D17*
X39225220Y-64780100D03*
%TD*%
D18*
%TO.C,U2*%
X29690000Y-37850000D03*
X27910000Y-37850000D03*
X26130000Y-37850000D03*
X24350000Y-37850000D03*
X22570000Y-37850000D03*
X20790000Y-37850000D03*
X19050000Y-37850000D03*
X17230000Y-37850000D03*
X28800000Y-27150000D03*
X27020000Y-27150000D03*
X25240000Y-27150000D03*
X23460000Y-27150000D03*
X21680000Y-27150000D03*
X19900000Y-27150000D03*
X18120000Y-27150000D03*
X16340000Y-27150000D03*
%TD*%
D19*
%TO.C,U3*%
X31366020Y-51166960D03*
X32316020Y-51166960D03*
X33266020Y-51166960D03*
X33266020Y-48466960D03*
X31366020Y-48466960D03*
%TD*%
D10*
%TO.C,J4*%
X20980000Y-64183200D03*
D11*
X20980000Y-62183200D03*
X20980000Y-60183200D03*
%TD*%
%TO.C,U5*%
G36*
G01*
X6350000Y-55450000D02*
X6150000Y-55450000D01*
G75*
G02*
X6050000Y-55350000I0J100000D01*
G01*
X6050000Y-53975000D01*
G75*
G02*
X6150000Y-53875000I100000J0D01*
G01*
X6350000Y-53875000D01*
G75*
G02*
X6450000Y-53975000I0J-100000D01*
G01*
X6450000Y-55350000D01*
G75*
G02*
X6350000Y-55450000I-100000J0D01*
G01*
G37*
G36*
G01*
X6850000Y-55450000D02*
X6650000Y-55450000D01*
G75*
G02*
X6550000Y-55350000I0J100000D01*
G01*
X6550000Y-53975000D01*
G75*
G02*
X6650000Y-53875000I100000J0D01*
G01*
X6850000Y-53875000D01*
G75*
G02*
X6950000Y-53975000I0J-100000D01*
G01*
X6950000Y-55350000D01*
G75*
G02*
X6850000Y-55450000I-100000J0D01*
G01*
G37*
G36*
G01*
X7350000Y-55450000D02*
X7150000Y-55450000D01*
G75*
G02*
X7050000Y-55350000I0J100000D01*
G01*
X7050000Y-53975000D01*
G75*
G02*
X7150000Y-53875000I100000J0D01*
G01*
X7350000Y-53875000D01*
G75*
G02*
X7450000Y-53975000I0J-100000D01*
G01*
X7450000Y-55350000D01*
G75*
G02*
X7350000Y-55450000I-100000J0D01*
G01*
G37*
G36*
G01*
X7850000Y-55450000D02*
X7650000Y-55450000D01*
G75*
G02*
X7550000Y-55350000I0J100000D01*
G01*
X7550000Y-53975000D01*
G75*
G02*
X7650000Y-53875000I100000J0D01*
G01*
X7850000Y-53875000D01*
G75*
G02*
X7950000Y-53975000I0J-100000D01*
G01*
X7950000Y-55350000D01*
G75*
G02*
X7850000Y-55450000I-100000J0D01*
G01*
G37*
G36*
G01*
X8350000Y-55450000D02*
X8150000Y-55450000D01*
G75*
G02*
X8050000Y-55350000I0J100000D01*
G01*
X8050000Y-53975000D01*
G75*
G02*
X8150000Y-53875000I100000J0D01*
G01*
X8350000Y-53875000D01*
G75*
G02*
X8450000Y-53975000I0J-100000D01*
G01*
X8450000Y-55350000D01*
G75*
G02*
X8350000Y-55450000I-100000J0D01*
G01*
G37*
G36*
G01*
X8850000Y-55450000D02*
X8650000Y-55450000D01*
G75*
G02*
X8550000Y-55350000I0J100000D01*
G01*
X8550000Y-53975000D01*
G75*
G02*
X8650000Y-53875000I100000J0D01*
G01*
X8850000Y-53875000D01*
G75*
G02*
X8950000Y-53975000I0J-100000D01*
G01*
X8950000Y-55350000D01*
G75*
G02*
X8850000Y-55450000I-100000J0D01*
G01*
G37*
G36*
G01*
X9350000Y-55450000D02*
X9150000Y-55450000D01*
G75*
G02*
X9050000Y-55350000I0J100000D01*
G01*
X9050000Y-53975000D01*
G75*
G02*
X9150000Y-53875000I100000J0D01*
G01*
X9350000Y-53875000D01*
G75*
G02*
X9450000Y-53975000I0J-100000D01*
G01*
X9450000Y-55350000D01*
G75*
G02*
X9350000Y-55450000I-100000J0D01*
G01*
G37*
G36*
G01*
X9850000Y-55450000D02*
X9650000Y-55450000D01*
G75*
G02*
X9550000Y-55350000I0J100000D01*
G01*
X9550000Y-53975000D01*
G75*
G02*
X9650000Y-53875000I100000J0D01*
G01*
X9850000Y-53875000D01*
G75*
G02*
X9950000Y-53975000I0J-100000D01*
G01*
X9950000Y-55350000D01*
G75*
G02*
X9850000Y-55450000I-100000J0D01*
G01*
G37*
G36*
G01*
X10350000Y-55450000D02*
X10150000Y-55450000D01*
G75*
G02*
X10050000Y-55350000I0J100000D01*
G01*
X10050000Y-53975000D01*
G75*
G02*
X10150000Y-53875000I100000J0D01*
G01*
X10350000Y-53875000D01*
G75*
G02*
X10450000Y-53975000I0J-100000D01*
G01*
X10450000Y-55350000D01*
G75*
G02*
X10350000Y-55450000I-100000J0D01*
G01*
G37*
G36*
G01*
X10850000Y-55450000D02*
X10650000Y-55450000D01*
G75*
G02*
X10550000Y-55350000I0J100000D01*
G01*
X10550000Y-53975000D01*
G75*
G02*
X10650000Y-53875000I100000J0D01*
G01*
X10850000Y-53875000D01*
G75*
G02*
X10950000Y-53975000I0J-100000D01*
G01*
X10950000Y-55350000D01*
G75*
G02*
X10850000Y-55450000I-100000J0D01*
G01*
G37*
G36*
G01*
X11350000Y-55450000D02*
X11150000Y-55450000D01*
G75*
G02*
X11050000Y-55350000I0J100000D01*
G01*
X11050000Y-53975000D01*
G75*
G02*
X11150000Y-53875000I100000J0D01*
G01*
X11350000Y-53875000D01*
G75*
G02*
X11450000Y-53975000I0J-100000D01*
G01*
X11450000Y-55350000D01*
G75*
G02*
X11350000Y-55450000I-100000J0D01*
G01*
G37*
G36*
G01*
X11850000Y-55450000D02*
X11650000Y-55450000D01*
G75*
G02*
X11550000Y-55350000I0J100000D01*
G01*
X11550000Y-53975000D01*
G75*
G02*
X11650000Y-53875000I100000J0D01*
G01*
X11850000Y-53875000D01*
G75*
G02*
X11950000Y-53975000I0J-100000D01*
G01*
X11950000Y-55350000D01*
G75*
G02*
X11850000Y-55450000I-100000J0D01*
G01*
G37*
G36*
G01*
X13850000Y-53450000D02*
X12475000Y-53450000D01*
G75*
G02*
X12375000Y-53350000I0J100000D01*
G01*
X12375000Y-53150000D01*
G75*
G02*
X12475000Y-53050000I100000J0D01*
G01*
X13850000Y-53050000D01*
G75*
G02*
X13950000Y-53150000I0J-100000D01*
G01*
X13950000Y-53350000D01*
G75*
G02*
X13850000Y-53450000I-100000J0D01*
G01*
G37*
G36*
G01*
X13850000Y-52950000D02*
X12475000Y-52950000D01*
G75*
G02*
X12375000Y-52850000I0J100000D01*
G01*
X12375000Y-52650000D01*
G75*
G02*
X12475000Y-52550000I100000J0D01*
G01*
X13850000Y-52550000D01*
G75*
G02*
X13950000Y-52650000I0J-100000D01*
G01*
X13950000Y-52850000D01*
G75*
G02*
X13850000Y-52950000I-100000J0D01*
G01*
G37*
G36*
G01*
X13850000Y-52450000D02*
X12475000Y-52450000D01*
G75*
G02*
X12375000Y-52350000I0J100000D01*
G01*
X12375000Y-52150000D01*
G75*
G02*
X12475000Y-52050000I100000J0D01*
G01*
X13850000Y-52050000D01*
G75*
G02*
X13950000Y-52150000I0J-100000D01*
G01*
X13950000Y-52350000D01*
G75*
G02*
X13850000Y-52450000I-100000J0D01*
G01*
G37*
G36*
G01*
X13850000Y-51950000D02*
X12475000Y-51950000D01*
G75*
G02*
X12375000Y-51850000I0J100000D01*
G01*
X12375000Y-51650000D01*
G75*
G02*
X12475000Y-51550000I100000J0D01*
G01*
X13850000Y-51550000D01*
G75*
G02*
X13950000Y-51650000I0J-100000D01*
G01*
X13950000Y-51850000D01*
G75*
G02*
X13850000Y-51950000I-100000J0D01*
G01*
G37*
G36*
G01*
X13850000Y-51450000D02*
X12475000Y-51450000D01*
G75*
G02*
X12375000Y-51350000I0J100000D01*
G01*
X12375000Y-51150000D01*
G75*
G02*
X12475000Y-51050000I100000J0D01*
G01*
X13850000Y-51050000D01*
G75*
G02*
X13950000Y-51150000I0J-100000D01*
G01*
X13950000Y-51350000D01*
G75*
G02*
X13850000Y-51450000I-100000J0D01*
G01*
G37*
G36*
G01*
X13850000Y-50950000D02*
X12475000Y-50950000D01*
G75*
G02*
X12375000Y-50850000I0J100000D01*
G01*
X12375000Y-50650000D01*
G75*
G02*
X12475000Y-50550000I100000J0D01*
G01*
X13850000Y-50550000D01*
G75*
G02*
X13950000Y-50650000I0J-100000D01*
G01*
X13950000Y-50850000D01*
G75*
G02*
X13850000Y-50950000I-100000J0D01*
G01*
G37*
G36*
G01*
X13850000Y-50450000D02*
X12475000Y-50450000D01*
G75*
G02*
X12375000Y-50350000I0J100000D01*
G01*
X12375000Y-50150000D01*
G75*
G02*
X12475000Y-50050000I100000J0D01*
G01*
X13850000Y-50050000D01*
G75*
G02*
X13950000Y-50150000I0J-100000D01*
G01*
X13950000Y-50350000D01*
G75*
G02*
X13850000Y-50450000I-100000J0D01*
G01*
G37*
G36*
G01*
X13850000Y-49950000D02*
X12475000Y-49950000D01*
G75*
G02*
X12375000Y-49850000I0J100000D01*
G01*
X12375000Y-49650000D01*
G75*
G02*
X12475000Y-49550000I100000J0D01*
G01*
X13850000Y-49550000D01*
G75*
G02*
X13950000Y-49650000I0J-100000D01*
G01*
X13950000Y-49850000D01*
G75*
G02*
X13850000Y-49950000I-100000J0D01*
G01*
G37*
G36*
G01*
X13850000Y-49450000D02*
X12475000Y-49450000D01*
G75*
G02*
X12375000Y-49350000I0J100000D01*
G01*
X12375000Y-49150000D01*
G75*
G02*
X12475000Y-49050000I100000J0D01*
G01*
X13850000Y-49050000D01*
G75*
G02*
X13950000Y-49150000I0J-100000D01*
G01*
X13950000Y-49350000D01*
G75*
G02*
X13850000Y-49450000I-100000J0D01*
G01*
G37*
G36*
G01*
X13850000Y-48950000D02*
X12475000Y-48950000D01*
G75*
G02*
X12375000Y-48850000I0J100000D01*
G01*
X12375000Y-48650000D01*
G75*
G02*
X12475000Y-48550000I100000J0D01*
G01*
X13850000Y-48550000D01*
G75*
G02*
X13950000Y-48650000I0J-100000D01*
G01*
X13950000Y-48850000D01*
G75*
G02*
X13850000Y-48950000I-100000J0D01*
G01*
G37*
G36*
G01*
X13850000Y-48450000D02*
X12475000Y-48450000D01*
G75*
G02*
X12375000Y-48350000I0J100000D01*
G01*
X12375000Y-48150000D01*
G75*
G02*
X12475000Y-48050000I100000J0D01*
G01*
X13850000Y-48050000D01*
G75*
G02*
X13950000Y-48150000I0J-100000D01*
G01*
X13950000Y-48350000D01*
G75*
G02*
X13850000Y-48450000I-100000J0D01*
G01*
G37*
G36*
G01*
X13850000Y-47950000D02*
X12475000Y-47950000D01*
G75*
G02*
X12375000Y-47850000I0J100000D01*
G01*
X12375000Y-47650000D01*
G75*
G02*
X12475000Y-47550000I100000J0D01*
G01*
X13850000Y-47550000D01*
G75*
G02*
X13950000Y-47650000I0J-100000D01*
G01*
X13950000Y-47850000D01*
G75*
G02*
X13850000Y-47950000I-100000J0D01*
G01*
G37*
G36*
G01*
X11850000Y-47125000D02*
X11650000Y-47125000D01*
G75*
G02*
X11550000Y-47025000I0J100000D01*
G01*
X11550000Y-45650000D01*
G75*
G02*
X11650000Y-45550000I100000J0D01*
G01*
X11850000Y-45550000D01*
G75*
G02*
X11950000Y-45650000I0J-100000D01*
G01*
X11950000Y-47025000D01*
G75*
G02*
X11850000Y-47125000I-100000J0D01*
G01*
G37*
G36*
G01*
X11350000Y-47125000D02*
X11150000Y-47125000D01*
G75*
G02*
X11050000Y-47025000I0J100000D01*
G01*
X11050000Y-45650000D01*
G75*
G02*
X11150000Y-45550000I100000J0D01*
G01*
X11350000Y-45550000D01*
G75*
G02*
X11450000Y-45650000I0J-100000D01*
G01*
X11450000Y-47025000D01*
G75*
G02*
X11350000Y-47125000I-100000J0D01*
G01*
G37*
G36*
G01*
X10850000Y-47125000D02*
X10650000Y-47125000D01*
G75*
G02*
X10550000Y-47025000I0J100000D01*
G01*
X10550000Y-45650000D01*
G75*
G02*
X10650000Y-45550000I100000J0D01*
G01*
X10850000Y-45550000D01*
G75*
G02*
X10950000Y-45650000I0J-100000D01*
G01*
X10950000Y-47025000D01*
G75*
G02*
X10850000Y-47125000I-100000J0D01*
G01*
G37*
G36*
G01*
X10350000Y-47125000D02*
X10150000Y-47125000D01*
G75*
G02*
X10050000Y-47025000I0J100000D01*
G01*
X10050000Y-45650000D01*
G75*
G02*
X10150000Y-45550000I100000J0D01*
G01*
X10350000Y-45550000D01*
G75*
G02*
X10450000Y-45650000I0J-100000D01*
G01*
X10450000Y-47025000D01*
G75*
G02*
X10350000Y-47125000I-100000J0D01*
G01*
G37*
G36*
G01*
X9850000Y-47125000D02*
X9650000Y-47125000D01*
G75*
G02*
X9550000Y-47025000I0J100000D01*
G01*
X9550000Y-45650000D01*
G75*
G02*
X9650000Y-45550000I100000J0D01*
G01*
X9850000Y-45550000D01*
G75*
G02*
X9950000Y-45650000I0J-100000D01*
G01*
X9950000Y-47025000D01*
G75*
G02*
X9850000Y-47125000I-100000J0D01*
G01*
G37*
G36*
G01*
X9350000Y-47125000D02*
X9150000Y-47125000D01*
G75*
G02*
X9050000Y-47025000I0J100000D01*
G01*
X9050000Y-45650000D01*
G75*
G02*
X9150000Y-45550000I100000J0D01*
G01*
X9350000Y-45550000D01*
G75*
G02*
X9450000Y-45650000I0J-100000D01*
G01*
X9450000Y-47025000D01*
G75*
G02*
X9350000Y-47125000I-100000J0D01*
G01*
G37*
G36*
G01*
X8850000Y-47125000D02*
X8650000Y-47125000D01*
G75*
G02*
X8550000Y-47025000I0J100000D01*
G01*
X8550000Y-45650000D01*
G75*
G02*
X8650000Y-45550000I100000J0D01*
G01*
X8850000Y-45550000D01*
G75*
G02*
X8950000Y-45650000I0J-100000D01*
G01*
X8950000Y-47025000D01*
G75*
G02*
X8850000Y-47125000I-100000J0D01*
G01*
G37*
G36*
G01*
X8350000Y-47125000D02*
X8150000Y-47125000D01*
G75*
G02*
X8050000Y-47025000I0J100000D01*
G01*
X8050000Y-45650000D01*
G75*
G02*
X8150000Y-45550000I100000J0D01*
G01*
X8350000Y-45550000D01*
G75*
G02*
X8450000Y-45650000I0J-100000D01*
G01*
X8450000Y-47025000D01*
G75*
G02*
X8350000Y-47125000I-100000J0D01*
G01*
G37*
G36*
G01*
X7850000Y-47125000D02*
X7650000Y-47125000D01*
G75*
G02*
X7550000Y-47025000I0J100000D01*
G01*
X7550000Y-45650000D01*
G75*
G02*
X7650000Y-45550000I100000J0D01*
G01*
X7850000Y-45550000D01*
G75*
G02*
X7950000Y-45650000I0J-100000D01*
G01*
X7950000Y-47025000D01*
G75*
G02*
X7850000Y-47125000I-100000J0D01*
G01*
G37*
G36*
G01*
X7350000Y-47125000D02*
X7150000Y-47125000D01*
G75*
G02*
X7050000Y-47025000I0J100000D01*
G01*
X7050000Y-45650000D01*
G75*
G02*
X7150000Y-45550000I100000J0D01*
G01*
X7350000Y-45550000D01*
G75*
G02*
X7450000Y-45650000I0J-100000D01*
G01*
X7450000Y-47025000D01*
G75*
G02*
X7350000Y-47125000I-100000J0D01*
G01*
G37*
G36*
G01*
X6850000Y-47125000D02*
X6650000Y-47125000D01*
G75*
G02*
X6550000Y-47025000I0J100000D01*
G01*
X6550000Y-45650000D01*
G75*
G02*
X6650000Y-45550000I100000J0D01*
G01*
X6850000Y-45550000D01*
G75*
G02*
X6950000Y-45650000I0J-100000D01*
G01*
X6950000Y-47025000D01*
G75*
G02*
X6850000Y-47125000I-100000J0D01*
G01*
G37*
G36*
G01*
X6350000Y-47125000D02*
X6150000Y-47125000D01*
G75*
G02*
X6050000Y-47025000I0J100000D01*
G01*
X6050000Y-45650000D01*
G75*
G02*
X6150000Y-45550000I100000J0D01*
G01*
X6350000Y-45550000D01*
G75*
G02*
X6450000Y-45650000I0J-100000D01*
G01*
X6450000Y-47025000D01*
G75*
G02*
X6350000Y-47125000I-100000J0D01*
G01*
G37*
G36*
G01*
X5525000Y-47950000D02*
X4150000Y-47950000D01*
G75*
G02*
X4050000Y-47850000I0J100000D01*
G01*
X4050000Y-47650000D01*
G75*
G02*
X4150000Y-47550000I100000J0D01*
G01*
X5525000Y-47550000D01*
G75*
G02*
X5625000Y-47650000I0J-100000D01*
G01*
X5625000Y-47850000D01*
G75*
G02*
X5525000Y-47950000I-100000J0D01*
G01*
G37*
G36*
G01*
X5525000Y-48450000D02*
X4150000Y-48450000D01*
G75*
G02*
X4050000Y-48350000I0J100000D01*
G01*
X4050000Y-48150000D01*
G75*
G02*
X4150000Y-48050000I100000J0D01*
G01*
X5525000Y-48050000D01*
G75*
G02*
X5625000Y-48150000I0J-100000D01*
G01*
X5625000Y-48350000D01*
G75*
G02*
X5525000Y-48450000I-100000J0D01*
G01*
G37*
G36*
G01*
X5525000Y-48950000D02*
X4150000Y-48950000D01*
G75*
G02*
X4050000Y-48850000I0J100000D01*
G01*
X4050000Y-48650000D01*
G75*
G02*
X4150000Y-48550000I100000J0D01*
G01*
X5525000Y-48550000D01*
G75*
G02*
X5625000Y-48650000I0J-100000D01*
G01*
X5625000Y-48850000D01*
G75*
G02*
X5525000Y-48950000I-100000J0D01*
G01*
G37*
G36*
G01*
X5525000Y-49450000D02*
X4150000Y-49450000D01*
G75*
G02*
X4050000Y-49350000I0J100000D01*
G01*
X4050000Y-49150000D01*
G75*
G02*
X4150000Y-49050000I100000J0D01*
G01*
X5525000Y-49050000D01*
G75*
G02*
X5625000Y-49150000I0J-100000D01*
G01*
X5625000Y-49350000D01*
G75*
G02*
X5525000Y-49450000I-100000J0D01*
G01*
G37*
G36*
G01*
X5525000Y-49950000D02*
X4150000Y-49950000D01*
G75*
G02*
X4050000Y-49850000I0J100000D01*
G01*
X4050000Y-49650000D01*
G75*
G02*
X4150000Y-49550000I100000J0D01*
G01*
X5525000Y-49550000D01*
G75*
G02*
X5625000Y-49650000I0J-100000D01*
G01*
X5625000Y-49850000D01*
G75*
G02*
X5525000Y-49950000I-100000J0D01*
G01*
G37*
G36*
G01*
X5525000Y-50450000D02*
X4150000Y-50450000D01*
G75*
G02*
X4050000Y-50350000I0J100000D01*
G01*
X4050000Y-50150000D01*
G75*
G02*
X4150000Y-50050000I100000J0D01*
G01*
X5525000Y-50050000D01*
G75*
G02*
X5625000Y-50150000I0J-100000D01*
G01*
X5625000Y-50350000D01*
G75*
G02*
X5525000Y-50450000I-100000J0D01*
G01*
G37*
G36*
G01*
X5525000Y-50950000D02*
X4150000Y-50950000D01*
G75*
G02*
X4050000Y-50850000I0J100000D01*
G01*
X4050000Y-50650000D01*
G75*
G02*
X4150000Y-50550000I100000J0D01*
G01*
X5525000Y-50550000D01*
G75*
G02*
X5625000Y-50650000I0J-100000D01*
G01*
X5625000Y-50850000D01*
G75*
G02*
X5525000Y-50950000I-100000J0D01*
G01*
G37*
G36*
G01*
X5525000Y-51450000D02*
X4150000Y-51450000D01*
G75*
G02*
X4050000Y-51350000I0J100000D01*
G01*
X4050000Y-51150000D01*
G75*
G02*
X4150000Y-51050000I100000J0D01*
G01*
X5525000Y-51050000D01*
G75*
G02*
X5625000Y-51150000I0J-100000D01*
G01*
X5625000Y-51350000D01*
G75*
G02*
X5525000Y-51450000I-100000J0D01*
G01*
G37*
G36*
G01*
X5525000Y-51950000D02*
X4150000Y-51950000D01*
G75*
G02*
X4050000Y-51850000I0J100000D01*
G01*
X4050000Y-51650000D01*
G75*
G02*
X4150000Y-51550000I100000J0D01*
G01*
X5525000Y-51550000D01*
G75*
G02*
X5625000Y-51650000I0J-100000D01*
G01*
X5625000Y-51850000D01*
G75*
G02*
X5525000Y-51950000I-100000J0D01*
G01*
G37*
G36*
G01*
X5525000Y-52450000D02*
X4150000Y-52450000D01*
G75*
G02*
X4050000Y-52350000I0J100000D01*
G01*
X4050000Y-52150000D01*
G75*
G02*
X4150000Y-52050000I100000J0D01*
G01*
X5525000Y-52050000D01*
G75*
G02*
X5625000Y-52150000I0J-100000D01*
G01*
X5625000Y-52350000D01*
G75*
G02*
X5525000Y-52450000I-100000J0D01*
G01*
G37*
G36*
G01*
X5525000Y-52950000D02*
X4150000Y-52950000D01*
G75*
G02*
X4050000Y-52850000I0J100000D01*
G01*
X4050000Y-52650000D01*
G75*
G02*
X4150000Y-52550000I100000J0D01*
G01*
X5525000Y-52550000D01*
G75*
G02*
X5625000Y-52650000I0J-100000D01*
G01*
X5625000Y-52850000D01*
G75*
G02*
X5525000Y-52950000I-100000J0D01*
G01*
G37*
G36*
G01*
X5525000Y-53450000D02*
X4150000Y-53450000D01*
G75*
G02*
X4050000Y-53350000I0J100000D01*
G01*
X4050000Y-53150000D01*
G75*
G02*
X4150000Y-53050000I100000J0D01*
G01*
X5525000Y-53050000D01*
G75*
G02*
X5625000Y-53150000I0J-100000D01*
G01*
X5625000Y-53350000D01*
G75*
G02*
X5525000Y-53450000I-100000J0D01*
G01*
G37*
%TD*%
M02*
