%TF.GenerationSoftware,KiCad,Pcbnew,(5.1.6-0-10_14)*%
%TF.CreationDate,2020-12-05T10:50:09+01:00*%
%TF.ProjectId,Mys,4d79732e-6b69-4636-9164-5f7063625858,rev?*%
%TF.SameCoordinates,PX223cd58PY13c0734*%
%TF.FileFunction,Profile,NP*%
%FSLAX46Y46*%
G04 Gerber Fmt 4.6, Leading zero omitted, Abs format (unit mm)*
G04 Created by KiCad (PCBNEW (5.1.6-0-10_14)) date 2020-12-05 10:50:09*
%MOMM*%
%LPD*%
G01*
G04 APERTURE LIST*
%TA.AperFunction,Profile*%
%ADD10C,0.050000*%
%TD*%
%TA.AperFunction,Profile*%
%ADD11C,0.150000*%
%TD*%
G04 APERTURE END LIST*
D10*
X1666666Y0D02*
G75*
G03*
X1666666Y0I-1666666J0D01*
G01*
X-2500000Y0D02*
X2500000Y0D01*
X0Y2500000D02*
X0Y-2500000D01*
D11*
X30900000Y-36800000D02*
X13500000Y-36800000D01*
X30900000Y-28200000D02*
X30900000Y-36800000D01*
X13500000Y-28200000D02*
X30900000Y-28200000D01*
X13500000Y-36800000D02*
X13500000Y-28200000D01*
D10*
X2000000Y-21000000D02*
G75*
G03*
X2000000Y-21000000I-1000000J0D01*
G01*
X13000000Y-19000000D02*
X13000000Y-5700000D01*
X13000000Y-19000000D02*
X25000000Y-19000000D01*
X25000000Y-5700000D02*
X25000000Y-19000000D01*
X13000000Y-5700000D02*
X25000000Y-5700000D01*
X-50000Y-48000000D02*
G75*
G03*
X-50000Y-48000000I-850000J0D01*
G01*
X39750000Y-48000000D02*
G75*
G03*
X39750000Y-48000000I-850000J0D01*
G01*
X38000000Y-21000000D02*
G75*
G03*
X38000000Y-21000000I-1000000J0D01*
G01*
X41000000Y-70000000D02*
X-3000000Y-70000000D01*
X41000000Y-20000000D02*
X41000000Y-70000000D01*
X-3000000Y-20000000D02*
X-3000000Y-70000000D01*
X38000000Y0D02*
X41000000Y-20000000D01*
X0Y0D02*
X-3000000Y-20000000D01*
X0Y0D02*
X38000000Y0D01*
M02*
