  0
SECTION
  2
HEADER
  9
$ANGBASE
  50
0.0
  9
$ANGDIR
  70
1
  9
$MEASUREMENT
  70
0
  0
ENDSEC
  0
SECTION
  2
TABLES
  0
TABLE
  2
LTYPE
  70
4
  0
LTYPE
  5
40F
  2
CONTINUOUS
  70
0
  3
Solid line
  72
65
  73
0
  40
0.0
  0
LTYPE
  5
410
  2
DASHDOT
 70
0
  3
Dash Dot ____ _ ____ _
 72
65
 73
4
 40
2.0
 49
1.25
 49
-0.25
 49
0.25
 49
-0.25
  0
LTYPE
  5
411
  2
DASHED
 70
0
  3
Dashed __ __ __ __ __
 72
65
 73
2
 40
0.75
 49
0.5
 49
-0.25
  0
LTYPE
  5
43B
  2
DOTTED
 70
0
  3
Dotted .  .  .  .
 72
65
 73
2
 40
0.2
 49
0.0
 49
-0.2
  0
ENDTAB
  0
TABLE
  2
STYLE
  70
4
  0
STYLE
  2
KICAD
  70
0
  40
0
  41
1
  42
1
  50
0
  71
0
  3
isocp.shx
  0
STYLE
  2
KICADB
  70
0
  40
0
  41
1
  42
1
  50
0
  71
0
  3
isocp.shx
  0
STYLE
  2
KICADI
  70
0
  40
0
  41
1
  42
1
  50
15
  71
0
  3
isocp.shx
  0
STYLE
  2
KICADBI
  70
0
  40
0
  41
1
  42
1
  50
15
  71
0
  3
isocp.shx
  0
ENDTAB
  0
TABLE
  2
LAYER
  70
1
  0
LAYER
  2
BLACK
  70
0
  62
7
  6
CONTINUOUS
  0
ENDTAB
  0
ENDSEC
  0
SECTION
  2
ENTITIES
0
LINE
8
BLACK
6
CONTINUOUS
10
1.49618
20
0.000977205
11
1.49626
21
0.000969961
0
LINE
8
BLACK
6
CONTINUOUS
10
1.49626
20
0.000969961
11
1.49628
21
0.00096311
0
LINE
8
BLACK
6
CONTINUOUS
10
1.49628
20
0.00096311
11
1.4963
21
0.000959724
0
LINE
8
BLACK
6
CONTINUOUS
10
1.4963
20
0.000959724
11
1.49637
21
0.000935079
0
LINE
8
BLACK
6
CONTINUOUS
10
1.49637
20
0.000935079
11
1.49644
21
0.000913701
0
LINE
8
BLACK
6
CONTINUOUS
10
1.49644
20
0.000913701
11
1.49646
21
0.000902598
0
LINE
8
BLACK
6
CONTINUOUS
10
1.49646
20
0.000902598
11
1.49648
21
0.000894724
0
LINE
8
BLACK
6
CONTINUOUS
10
1.49648
20
0.000894724
11
1.49655
21
0.000857087
0
LINE
8
BLACK
6
CONTINUOUS
10
1.49655
20
0.000857087
11
1.49661
21
0.000822323
0
LINE
8
BLACK
6
CONTINUOUS
10
1.49661
20
0.000822323
11
1.49663
21
0.000807323
0
LINE
8
BLACK
6
CONTINUOUS
10
1.49663
20
0.000807323
11
1.49665
21
0.000795315
0
LINE
8
BLACK
6
CONTINUOUS
10
1.49665
20
0.000795315
11
1.4967
21
0.000746457
0
LINE
8
BLACK
6
CONTINUOUS
10
1.4967
20
0.000746457
11
1.49676
21
0.000699331
0
LINE
8
BLACK
6
CONTINUOUS
10
1.49676
20
0.000699331
11
1.49678
21
0.000680866
0
LINE
8
BLACK
6
CONTINUOUS
10
1.49678
20
0.000680866
11
1.49679
21
0.000665315
0
LINE
8
BLACK
6
CONTINUOUS
10
1.49679
20
0.000665315
11
1.49684
21
0.000607008
0
LINE
8
BLACK
6
CONTINUOUS
10
1.49684
20
0.000607008
11
1.49689
21
0.000549449
0
LINE
8
BLACK
6
CONTINUOUS
10
1.49689
20
0.000549449
11
1.4969
21
0.000528543
0
LINE
8
BLACK
6
CONTINUOUS
10
1.4969
20
0.000528543
11
1.49691
21
0.000509803
0
LINE
8
BLACK
6
CONTINUOUS
10
1.49691
20
0.000509803
11
1.49694
21
0.000443858
0
LINE
8
BLACK
6
CONTINUOUS
10
1.49694
20
0.000443858
11
1.49698
21
0.000378465
0
LINE
8
BLACK
6
CONTINUOUS
10
1.49698
20
0.000378465
11
1.49698
21
0.000355748
0
LINE
8
BLACK
6
CONTINUOUS
10
1.49698
20
0.000355748
11
1.49699
21
0.000334685
0
LINE
8
BLACK
6
CONTINUOUS
10
1.49699
20
0.000334685
11
1.49701
21
0.000263898
0
LINE
8
BLACK
6
CONTINUOUS
10
1.49701
20
0.000263898
11
1.49703
21
0.000192953
0
LINE
8
BLACK
6
CONTINUOUS
10
1.49703
20
0.000192953
11
1.49704
21
0.000121614
0
LINE
8
BLACK
6
CONTINUOUS
10
1.49704
20
0.000121614
11
1.61514
21
-0.787185
0
LINE
8
BLACK
6
CONTINUOUS
10
1.61514
20
-0.787185
11
1.61514
21
-0.787209
0
LINE
8
BLACK
6
CONTINUOUS
10
1.61514
20
-0.787209
11
1.61515
21
-0.787279
0
LINE
8
BLACK
6
CONTINUOUS
10
1.61515
20
-0.787279
11
1.61515
21
-0.787303
0
LINE
8
BLACK
6
CONTINUOUS
10
1.61515
20
-0.787303
11
1.61515
21
-0.787328
0
LINE
8
BLACK
6
CONTINUOUS
10
1.61515
20
-0.787328
11
1.61516
21
-0.787354
0
LINE
8
BLACK
6
CONTINUOUS
10
1.61516
20
-0.787354
11
1.61516
21
-0.787378
0
LINE
8
BLACK
6
CONTINUOUS
10
1.61516
20
-0.787378
11
1.61516
21
-0.787448
0
LINE
8
BLACK
6
CONTINUOUS
10
1.61516
20
-0.787448
11
1.61516
21
-0.787473
0
LINE
8
BLACK
6
CONTINUOUS
10
1.61516
20
-0.787473
11
1.61516
21
-2.75586
0
LINE
8
BLACK
6
CONTINUOUS
10
1.61516
20
-2.75586
11
1.61516
21
-2.75591
0
LINE
8
BLACK
6
CONTINUOUS
10
1.61516
20
-2.75591
11
1.61516
21
-2.75595
0
LINE
8
BLACK
6
CONTINUOUS
10
1.61516
20
-2.75595
11
1.61514
21
-2.7561
0
LINE
8
BLACK
6
CONTINUOUS
10
1.61514
20
-2.7561
11
1.61509
21
-2.75628
0
LINE
8
BLACK
6
CONTINUOUS
10
1.61509
20
-2.75628
11
1.615
21
-2.75645
0
LINE
8
BLACK
6
CONTINUOUS
10
1.615
20
-2.75645
11
1.61487
21
-2.7566
0
LINE
8
BLACK
6
CONTINUOUS
10
1.61487
20
-2.7566
11
1.61472
21
-2.75673
0
LINE
8
BLACK
6
CONTINUOUS
10
1.61472
20
-2.75673
11
1.61455
21
-2.75682
0
LINE
8
BLACK
6
CONTINUOUS
10
1.61455
20
-2.75682
11
1.61437
21
-2.75688
0
LINE
8
BLACK
6
CONTINUOUS
10
1.61437
20
-2.75688
11
1.61417
21
-2.75689
0
LINE
8
BLACK
6
CONTINUOUS
10
1.61417
20
-2.75689
11
1.61413
21
-2.75689
0
LINE
8
BLACK
6
CONTINUOUS
10
1.61413
20
-2.75689
11
-0.118062
21
-2.75689
0
LINE
8
BLACK
6
CONTINUOUS
10
-0.118062
20
-2.75689
11
-0.11811
21
-2.75689
0
LINE
8
BLACK
6
CONTINUOUS
10
-0.11811
20
-2.75689
11
-0.118158
21
-2.75689
0
LINE
8
BLACK
6
CONTINUOUS
10
-0.118158
20
-2.75689
11
-0.118158
21
-2.75689
0
LINE
8
BLACK
6
CONTINUOUS
10
-0.118158
20
-2.75689
11
-0.118303
21
-2.75688
0
LINE
8
BLACK
6
CONTINUOUS
10
-0.118303
20
-2.75688
11
-0.118489
21
-2.75682
0
LINE
8
BLACK
6
CONTINUOUS
10
-0.118489
20
-2.75682
11
-0.11866
21
-2.75673
0
LINE
8
BLACK
6
CONTINUOUS
10
-0.11866
20
-2.75673
11
-0.11881
21
-2.7566
0
LINE
8
BLACK
6
CONTINUOUS
10
-0.11881
20
-2.7566
11
-0.118933
21
-2.75645
0
LINE
8
BLACK
6
CONTINUOUS
10
-0.118933
20
-2.75645
11
-0.119024
21
-2.75628
0
LINE
8
BLACK
6
CONTINUOUS
10
-0.119024
20
-2.75628
11
-0.11908
21
-2.7561
0
LINE
8
BLACK
6
CONTINUOUS
10
-0.11908
20
-2.7561
11
-0.119099
21
-2.75591
0
LINE
8
BLACK
6
CONTINUOUS
10
-0.119099
20
-2.75591
11
-0.119094
21
-2.75586
0
LINE
8
BLACK
6
CONTINUOUS
10
-0.119094
20
-2.75586
11
-0.119094
21
-0.787473
0
LINE
8
BLACK
6
CONTINUOUS
10
-0.119094
20
-0.787473
11
-0.119098
21
-0.787449
0
LINE
8
BLACK
6
CONTINUOUS
10
-0.119098
20
-0.787449
11
-0.119094
21
-0.787378
0
LINE
8
BLACK
6
CONTINUOUS
10
-0.119094
20
-0.787378
11
-0.119094
21
-0.787354
0
LINE
8
BLACK
6
CONTINUOUS
10
-0.119094
20
-0.787354
11
-0.119092
21
-0.787328
0
LINE
8
BLACK
6
CONTINUOUS
10
-0.119092
20
-0.787328
11
-0.119091
21
-0.787303
0
LINE
8
BLACK
6
CONTINUOUS
10
-0.119091
20
-0.787303
11
-0.119087
21
-0.787279
0
LINE
8
BLACK
6
CONTINUOUS
10
-0.119087
20
-0.787279
11
-0.11908
21
-0.787209
0
LINE
8
BLACK
6
CONTINUOUS
10
-0.11908
20
-0.787209
11
-0.119073
21
-0.787185
0
LINE
8
BLACK
6
CONTINUOUS
10
-0.119073
20
-0.787185
11
-0.000976929
21
0.000122283
0
LINE
8
BLACK
6
CONTINUOUS
10
-0.000976929
20
0.000122283
11
-0.000969961
21
0.000192953
0
LINE
8
BLACK
6
CONTINUOUS
10
-0.000969961
20
0.000192953
11
-0.000948661
21
0.000263228
0
LINE
8
BLACK
6
CONTINUOUS
10
-0.000948661
20
0.000263228
11
-0.00093063
21
0.000334685
0
LINE
8
BLACK
6
CONTINUOUS
10
-0.00093063
20
0.000334685
11
-0.000920512
21
0.000355945
0
LINE
8
BLACK
6
CONTINUOUS
10
-0.000920512
20
0.000355945
11
-0.000913701
21
0.000378465
0
LINE
8
BLACK
6
CONTINUOUS
10
-0.000913701
20
0.000378465
11
-0.000879016
21
0.000443386
0
LINE
8
BLACK
6
CONTINUOUS
10
-0.000879016
20
0.000443386
11
-0.00084748
21
0.000509764
0
LINE
8
BLACK
6
CONTINUOUS
10
-0.00084748
20
0.000509764
11
-0.000833465
21
0.000528583
0
LINE
8
BLACK
6
CONTINUOUS
10
-0.000833465
20
0.000528583
11
-0.000822323
21
0.000549449
0
LINE
8
BLACK
6
CONTINUOUS
10
-0.000822323
20
0.000549449
11
-0.000775394
21
0.000606614
0
LINE
8
BLACK
6
CONTINUOUS
10
-0.000775394
20
0.000606614
11
-0.000731732
21
0.000665315
0
LINE
8
BLACK
6
CONTINUOUS
10
-0.000731732
20
0.000665315
11
-0.00071437
21
0.000681024
0
LINE
8
BLACK
6
CONTINUOUS
10
-0.00071437
20
0.000681024
11
-0.000699331
21
0.000699331
0
LINE
8
BLACK
6
CONTINUOUS
10
-0.000699331
20
0.000699331
11
-0.000642323
21
0.000746102
0
LINE
8
BLACK
6
CONTINUOUS
10
-0.000642323
20
0.000746102
11
-0.000587874
21
0.000795315
0
LINE
8
BLACK
6
CONTINUOUS
10
-0.000587874
20
0.000795315
11
-0.000567638
21
0.000807402
0
LINE
8
BLACK
6
CONTINUOUS
10
-0.000567638
20
0.000807402
11
-0.000549449
21
0.000822323
0
LINE
8
BLACK
6
CONTINUOUS
10
-0.000549449
20
0.000822323
11
-0.000484409
21
0.000857087
0
LINE
8
BLACK
6
CONTINUOUS
10
-0.000484409
20
0.000857087
11
-0.000421417
21
0.000894685
0
LINE
8
BLACK
6
CONTINUOUS
10
-0.000421417
20
0.000894685
11
-0.00039937
21
0.00090252
0
LINE
8
BLACK
6
CONTINUOUS
10
-0.00039937
20
0.00090252
11
-0.000378465
21
0.000913701
0
LINE
8
BLACK
6
CONTINUOUS
10
-0.000378465
20
0.000913701
11
-0.000307598
21
0.000935197
0
LINE
8
BLACK
6
CONTINUOUS
10
-0.000307598
20
0.000935197
11
-0.00023878
21
0.000959685
0
LINE
8
BLACK
6
CONTINUOUS
10
-0.00023878
20
0.000959685
11
-0.00021563
21
0.000963071
0
LINE
8
BLACK
6
CONTINUOUS
10
-0.00021563
20
0.000963071
11
-0.000192953
21
0.000969961
0
LINE
8
BLACK
6
CONTINUOUS
10
-0.000192953
20
0.000969961
11
-0.000119291
21
0.000977205
0
LINE
8
BLACK
6
CONTINUOUS
10
-0.000119291
20
0.000977205
11
-4.69685e-05
21
0.000987835
0
LINE
8
BLACK
6
CONTINUOUS
10
-4.69685e-05
20
0.000987835
11
2.35433e-05
21
0.000984252
0
LINE
8
BLACK
6
CONTINUOUS
10
2.35433e-05
20
0.000984252
11
1.49604
21
0.000984252
0
LINE
8
BLACK
6
CONTINUOUS
10
1.49604
20
0.000984252
11
1.49611
21
0.000987835
0
LINE
8
BLACK
6
CONTINUOUS
10
1.49611
20
0.000987835
11
1.49618
21
0.000977205
0
LINE
8
BLACK
6
CONTINUOUS
10
0.000847638
20
-0.000984252
11
-0.117126
21
-0.787475
0
LINE
8
BLACK
6
CONTINUOUS
10
-0.117126
20
-0.787475
11
-0.117126
21
-2.75492
0
LINE
8
BLACK
6
CONTINUOUS
10
-0.117126
20
-2.75492
11
1.61319
21
-2.75492
0
LINE
8
BLACK
6
CONTINUOUS
10
1.61319
20
-2.75492
11
1.61319
21
-0.787475
0
LINE
8
BLACK
6
CONTINUOUS
10
1.61319
20
-0.787475
11
1.49522
21
-0.000984252
0
LINE
8
BLACK
6
CONTINUOUS
10
1.49522
20
-0.000984252
11
0.000847638
21
-0.000984252
0
LINE
8
BLACK
6
CONTINUOUS
10
1.21668
20
-1.10728
11
1.21711
21
-1.10733
0
LINE
8
BLACK
6
CONTINUOUS
10
1.21711
20
-1.10733
11
1.21767
21
-1.1075
0
LINE
8
BLACK
6
CONTINUOUS
10
1.21767
20
-1.1075
11
1.21818
21
-1.10777
0
LINE
8
BLACK
6
CONTINUOUS
10
1.21818
20
-1.10777
11
1.21863
21
-1.10814
0
LINE
8
BLACK
6
CONTINUOUS
10
1.21863
20
-1.10814
11
1.219
21
-1.10859
0
LINE
8
BLACK
6
CONTINUOUS
10
1.219
20
-1.10859
11
1.21928
21
-1.1091
0
LINE
8
BLACK
6
CONTINUOUS
10
1.21928
20
-1.1091
11
1.21945
21
-1.10966
0
LINE
8
BLACK
6
CONTINUOUS
10
1.21945
20
-1.10966
11
1.2195
21
-1.11024
0
LINE
8
BLACK
6
CONTINUOUS
10
1.2195
20
-1.11024
11
1.21949
21
-1.11038
0
LINE
8
BLACK
6
CONTINUOUS
10
1.21949
20
-1.11038
11
1.21949
21
-1.44867
0
LINE
8
BLACK
6
CONTINUOUS
10
1.21949
20
-1.44867
11
1.2195
21
-1.44882
0
LINE
8
BLACK
6
CONTINUOUS
10
1.2195
20
-1.44882
11
1.21945
21
-1.4494
0
LINE
8
BLACK
6
CONTINUOUS
10
1.21945
20
-1.4494
11
1.21928
21
-1.44995
0
LINE
8
BLACK
6
CONTINUOUS
10
1.21928
20
-1.44995
11
1.219
21
-1.45047
0
LINE
8
BLACK
6
CONTINUOUS
10
1.219
20
-1.45047
11
1.21863
21
-1.45092
0
LINE
8
BLACK
6
CONTINUOUS
10
1.21863
20
-1.45092
11
1.21818
21
-1.45129
0
LINE
8
BLACK
6
CONTINUOUS
10
1.21818
20
-1.45129
11
1.21767
21
-1.45156
0
LINE
8
BLACK
6
CONTINUOUS
10
1.21767
20
-1.45156
11
1.21711
21
-1.45173
0
LINE
8
BLACK
6
CONTINUOUS
10
1.21711
20
-1.45173
11
1.21668
21
-1.45177
0
LINE
8
BLACK
6
CONTINUOUS
10
1.21668
20
-1.45177
11
1.21654
21
-1.45179
0
LINE
8
BLACK
6
CONTINUOUS
10
1.21654
20
-1.45179
11
1.21639
21
-1.45177
0
LINE
8
BLACK
6
CONTINUOUS
10
1.21639
20
-1.45177
11
0.531641
21
-1.45177
0
LINE
8
BLACK
6
CONTINUOUS
10
0.531641
20
-1.45177
11
0.531496
21
-1.45179
0
LINE
8
BLACK
6
CONTINUOUS
10
0.531496
20
-1.45179
11
0.530917
21
-1.45173
0
LINE
8
BLACK
6
CONTINUOUS
10
0.530917
20
-1.45173
11
0.530361
21
-1.45156
0
LINE
8
BLACK
6
CONTINUOUS
10
0.530361
20
-1.45156
11
0.529848
21
-1.45129
0
LINE
8
BLACK
6
CONTINUOUS
10
0.529848
20
-1.45129
11
0.529398
21
-1.45092
0
LINE
8
BLACK
6
CONTINUOUS
10
0.529398
20
-1.45092
11
0.529029
21
-1.45047
0
LINE
8
BLACK
6
CONTINUOUS
10
0.529029
20
-1.45047
11
0.528755
21
-1.44995
0
LINE
8
BLACK
6
CONTINUOUS
10
0.528755
20
-1.44995
11
0.528586
21
-1.4494
0
LINE
8
BLACK
6
CONTINUOUS
10
0.528586
20
-1.4494
11
0.528529
21
-1.44882
0
LINE
8
BLACK
6
CONTINUOUS
10
0.528529
20
-1.44882
11
0.528543
21
-1.44867
0
LINE
8
BLACK
6
CONTINUOUS
10
0.528543
20
-1.44867
11
0.528543
21
-1.11038
0
LINE
8
BLACK
6
CONTINUOUS
10
0.528543
20
-1.11038
11
0.528529
21
-1.11024
0
LINE
8
BLACK
6
CONTINUOUS
10
0.528529
20
-1.11024
11
0.528586
21
-1.10966
0
LINE
8
BLACK
6
CONTINUOUS
10
0.528586
20
-1.10966
11
0.528755
21
-1.1091
0
LINE
8
BLACK
6
CONTINUOUS
10
0.528755
20
-1.1091
11
0.529029
21
-1.10859
0
LINE
8
BLACK
6
CONTINUOUS
10
0.529029
20
-1.10859
11
0.529398
21
-1.10814
0
LINE
8
BLACK
6
CONTINUOUS
10
0.529398
20
-1.10814
11
0.529848
21
-1.10777
0
LINE
8
BLACK
6
CONTINUOUS
10
0.529848
20
-1.10777
11
0.530361
21
-1.1075
0
LINE
8
BLACK
6
CONTINUOUS
10
0.530361
20
-1.1075
11
0.530917
21
-1.10733
0
LINE
8
BLACK
6
CONTINUOUS
10
0.530917
20
-1.10733
11
0.531351
21
-1.10728
0
LINE
8
BLACK
6
CONTINUOUS
10
0.531351
20
-1.10728
11
0.531496
21
-1.10727
0
LINE
8
BLACK
6
CONTINUOUS
10
0.531496
20
-1.10727
11
0.531641
21
-1.10728
0
LINE
8
BLACK
6
CONTINUOUS
10
0.531641
20
-1.10728
11
1.21639
21
-1.10728
0
LINE
8
BLACK
6
CONTINUOUS
10
1.21639
20
-1.10728
11
1.21654
21
-1.10727
0
LINE
8
BLACK
6
CONTINUOUS
10
1.21654
20
-1.10727
11
1.21668
21
-1.10728
0
LINE
8
BLACK
6
CONTINUOUS
10
0.534449
20
-1.11319
11
0.534449
21
-1.44587
0
LINE
8
BLACK
6
CONTINUOUS
10
0.534449
20
-1.44587
11
1.21358
21
-1.44587
0
LINE
8
BLACK
6
CONTINUOUS
10
1.21358
20
-1.44587
11
1.21358
21
-1.11319
0
LINE
8
BLACK
6
CONTINUOUS
10
1.21358
20
-1.11319
11
0.534449
21
-1.11319
0
LINE
8
BLACK
6
CONTINUOUS
10
0.9843
20
-0.223425
11
0.9843
21
-0.223425
0
LINE
8
BLACK
6
CONTINUOUS
10
0.9843
20
-0.223425
11
0.984445
21
-0.223439
0
LINE
8
BLACK
6
CONTINUOUS
10
0.984445
20
-0.223439
11
0.98463
21
-0.223496
0
LINE
8
BLACK
6
CONTINUOUS
10
0.98463
20
-0.223496
11
0.984801
21
-0.223587
0
LINE
8
BLACK
6
CONTINUOUS
10
0.984801
20
-0.223587
11
0.984951
21
-0.22371
0
LINE
8
BLACK
6
CONTINUOUS
10
0.984951
20
-0.22371
11
0.985074
21
-0.22386
0
LINE
8
BLACK
6
CONTINUOUS
10
0.985074
20
-0.22386
11
0.985166
21
-0.224031
0
LINE
8
BLACK
6
CONTINUOUS
10
0.985166
20
-0.224031
11
0.985222
21
-0.224216
0
LINE
8
BLACK
6
CONTINUOUS
10
0.985222
20
-0.224216
11
0.985241
21
-0.224409
0
LINE
8
BLACK
6
CONTINUOUS
10
0.985241
20
-0.224409
11
0.985236
21
-0.224457
0
LINE
8
BLACK
6
CONTINUOUS
10
0.985236
20
-0.224457
11
0.985236
21
-0.747984
0
LINE
8
BLACK
6
CONTINUOUS
10
0.985236
20
-0.747984
11
0.985241
21
-0.748031
0
LINE
8
BLACK
6
CONTINUOUS
10
0.985241
20
-0.748031
11
0.985236
21
-0.748079
0
LINE
8
BLACK
6
CONTINUOUS
10
0.985236
20
-0.748079
11
0.985236
21
-0.748079
0
LINE
8
BLACK
6
CONTINUOUS
10
0.985236
20
-0.748079
11
0.985222
21
-0.748224
0
LINE
8
BLACK
6
CONTINUOUS
10
0.985222
20
-0.748224
11
0.985166
21
-0.74841
0
LINE
8
BLACK
6
CONTINUOUS
10
0.985166
20
-0.74841
11
0.985074
21
-0.748581
0
LINE
8
BLACK
6
CONTINUOUS
10
0.985074
20
-0.748581
11
0.984951
21
-0.748731
0
LINE
8
BLACK
6
CONTINUOUS
10
0.984951
20
-0.748731
11
0.984801
21
-0.748854
0
LINE
8
BLACK
6
CONTINUOUS
10
0.984801
20
-0.748854
11
0.98463
21
-0.748945
0
LINE
8
BLACK
6
CONTINUOUS
10
0.98463
20
-0.748945
11
0.984445
21
-0.749001
0
LINE
8
BLACK
6
CONTINUOUS
10
0.984445
20
-0.749001
11
0.984252
21
-0.74902
0
LINE
8
BLACK
6
CONTINUOUS
10
0.984252
20
-0.74902
11
0.984204
21
-0.749016
0
LINE
8
BLACK
6
CONTINUOUS
10
0.984204
20
-0.749016
11
0.511859
21
-0.749016
0
LINE
8
BLACK
6
CONTINUOUS
10
0.511859
20
-0.749016
11
0.511811
21
-0.74902
0
LINE
8
BLACK
6
CONTINUOUS
10
0.511811
20
-0.74902
11
0.511618
21
-0.749001
0
LINE
8
BLACK
6
CONTINUOUS
10
0.511618
20
-0.749001
11
0.511433
21
-0.748945
0
LINE
8
BLACK
6
CONTINUOUS
10
0.511433
20
-0.748945
11
0.511262
21
-0.748854
0
LINE
8
BLACK
6
CONTINUOUS
10
0.511262
20
-0.748854
11
0.511112
21
-0.748731
0
LINE
8
BLACK
6
CONTINUOUS
10
0.511112
20
-0.748731
11
0.510989
21
-0.748581
0
LINE
8
BLACK
6
CONTINUOUS
10
0.510989
20
-0.748581
11
0.510897
21
-0.74841
0
LINE
8
BLACK
6
CONTINUOUS
10
0.510897
20
-0.74841
11
0.510841
21
-0.748224
0
LINE
8
BLACK
6
CONTINUOUS
10
0.510841
20
-0.748224
11
0.510822
21
-0.748031
0
LINE
8
BLACK
6
CONTINUOUS
10
0.510822
20
-0.748031
11
0.510827
21
-0.747984
0
LINE
8
BLACK
6
CONTINUOUS
10
0.510827
20
-0.747984
11
0.510827
21
-0.224458
0
LINE
8
BLACK
6
CONTINUOUS
10
0.510827
20
-0.224458
11
0.510822
21
-0.224409
0
LINE
8
BLACK
6
CONTINUOUS
10
0.510822
20
-0.224409
11
0.510841
21
-0.224216
0
LINE
8
BLACK
6
CONTINUOUS
10
0.510841
20
-0.224216
11
0.510897
21
-0.224031
0
LINE
8
BLACK
6
CONTINUOUS
10
0.510897
20
-0.224031
11
0.510989
21
-0.22386
0
LINE
8
BLACK
6
CONTINUOUS
10
0.510989
20
-0.22386
11
0.511112
21
-0.22371
0
LINE
8
BLACK
6
CONTINUOUS
10
0.511112
20
-0.22371
11
0.511262
21
-0.223587
0
LINE
8
BLACK
6
CONTINUOUS
10
0.511262
20
-0.223587
11
0.511433
21
-0.223496
0
LINE
8
BLACK
6
CONTINUOUS
10
0.511433
20
-0.223496
11
0.511618
21
-0.223439
0
LINE
8
BLACK
6
CONTINUOUS
10
0.511618
20
-0.223439
11
0.511763
21
-0.223425
0
LINE
8
BLACK
6
CONTINUOUS
10
0.511763
20
-0.223425
11
0.511763
21
-0.223425
0
LINE
8
BLACK
6
CONTINUOUS
10
0.511763
20
-0.223425
11
0.511811
21
-0.22342
0
LINE
8
BLACK
6
CONTINUOUS
10
0.511811
20
-0.22342
11
0.511859
21
-0.223425
0
LINE
8
BLACK
6
CONTINUOUS
10
0.511859
20
-0.223425
11
0.984204
21
-0.223425
0
LINE
8
BLACK
6
CONTINUOUS
10
0.984204
20
-0.223425
11
0.984252
21
-0.22342
0
LINE
8
BLACK
6
CONTINUOUS
10
0.984252
20
-0.22342
11
0.9843
21
-0.223425
0
LINE
8
BLACK
6
CONTINUOUS
10
0.512795
20
-0.225394
11
0.512795
21
-0.747047
0
LINE
8
BLACK
6
CONTINUOUS
10
0.512795
20
-0.747047
11
0.983268
21
-0.747047
0
LINE
8
BLACK
6
CONTINUOUS
10
0.983268
20
-0.747047
11
0.983268
21
-0.225394
0
LINE
8
BLACK
6
CONTINUOUS
10
0.983268
20
-0.225394
11
0.512795
21
-0.225394
0
LINE
8
BLACK
6
CONTINUOUS
10
-0.069152
20
-1.87954
11
-0.0665087
21
-1.87315
0
LINE
8
BLACK
6
CONTINUOUS
10
-0.0665087
20
-1.87315
11
-0.062671
21
-1.86741
0
LINE
8
BLACK
6
CONTINUOUS
10
-0.062671
20
-1.86741
11
-0.0577867
21
-1.86253
0
LINE
8
BLACK
6
CONTINUOUS
10
-0.0577867
20
-1.86253
11
-0.0520433
21
-1.85869
0
LINE
8
BLACK
6
CONTINUOUS
10
-0.0520433
20
-1.85869
11
-0.0456616
21
-1.85604
0
LINE
8
BLACK
6
CONTINUOUS
10
-0.0456616
20
-1.85604
11
-0.0388868
21
-1.8547
0
LINE
8
BLACK
6
CONTINUOUS
10
-0.0388868
20
-1.8547
11
-0.0319793
21
-1.8547
0
LINE
8
BLACK
6
CONTINUOUS
10
-0.0319793
20
-1.8547
11
-0.0252045
21
-1.85604
0
LINE
8
BLACK
6
CONTINUOUS
10
-0.0252045
20
-1.85604
11
-0.0188228
21
-1.85869
0
LINE
8
BLACK
6
CONTINUOUS
10
-0.0188228
20
-1.85869
11
-0.0130794
21
-1.86253
0
LINE
8
BLACK
6
CONTINUOUS
10
-0.0130794
20
-1.86253
11
-0.00819512
21
-1.86741
0
LINE
8
BLACK
6
CONTINUOUS
10
-0.00819512
20
-1.86741
11
-0.00435748
21
-1.87315
0
LINE
8
BLACK
6
CONTINUOUS
10
-0.00435748
20
-1.87315
11
-0.00171409
21
-1.87954
0
LINE
8
BLACK
6
CONTINUOUS
10
-0.00171409
20
-1.87954
11
-0.000366535
21
-1.88631
0
LINE
8
BLACK
6
CONTINUOUS
10
-0.000366535
20
-1.88631
11
-0.000366535
21
-1.89322
0
LINE
8
BLACK
6
CONTINUOUS
10
-0.000366535
20
-1.89322
11
-0.00171409
21
-1.89999
0
LINE
8
BLACK
6
CONTINUOUS
10
-0.00171409
20
-1.89999
11
-0.00435748
21
-1.90637
0
LINE
8
BLACK
6
CONTINUOUS
10
-0.00435748
20
-1.90637
11
-0.00819512
21
-1.91212
0
LINE
8
BLACK
6
CONTINUOUS
10
-0.00819512
20
-1.91212
11
-0.0130794
21
-1.917
0
LINE
8
BLACK
6
CONTINUOUS
10
-0.0130794
20
-1.917
11
-0.0188228
21
-1.92084
0
LINE
8
BLACK
6
CONTINUOUS
10
-0.0188228
20
-1.92084
11
-0.0252045
21
-1.92348
0
LINE
8
BLACK
6
CONTINUOUS
10
-0.0252045
20
-1.92348
11
-0.0319793
21
-1.92483
0
LINE
8
BLACK
6
CONTINUOUS
10
-0.0319793
20
-1.92483
11
-0.0388868
21
-1.92483
0
LINE
8
BLACK
6
CONTINUOUS
10
-0.0388868
20
-1.92483
11
-0.0456616
21
-1.92348
0
LINE
8
BLACK
6
CONTINUOUS
10
-0.0456616
20
-1.92348
11
-0.0520433
21
-1.92084
0
LINE
8
BLACK
6
CONTINUOUS
10
-0.0520433
20
-1.92084
11
-0.0577867
21
-1.917
0
LINE
8
BLACK
6
CONTINUOUS
10
-0.0577867
20
-1.917
11
-0.062671
21
-1.91212
0
LINE
8
BLACK
6
CONTINUOUS
10
-0.062671
20
-1.91212
11
-0.0665087
21
-1.90637
0
LINE
8
BLACK
6
CONTINUOUS
10
-0.0665087
20
-1.90637
11
-0.069152
21
-1.89999
0
LINE
8
BLACK
6
CONTINUOUS
10
-0.069152
20
-1.89999
11
-0.0704996
21
-1.89322
0
LINE
8
BLACK
6
CONTINUOUS
10
-0.0704996
20
-1.89322
11
-0.0704996
21
-1.88631
0
LINE
8
BLACK
6
CONTINUOUS
10
-0.0704996
20
-1.88631
11
-0.069152
21
-1.87954
0
LINE
8
BLACK
6
CONTINUOUS
10
-0.0665148
20
-1.89919
11
-0.0640781
21
-1.90507
0
LINE
8
BLACK
6
CONTINUOUS
10
-0.0640781
20
-1.90507
11
-0.0605407
21
-1.91037
0
LINE
8
BLACK
6
CONTINUOUS
10
-0.0605407
20
-1.91037
11
-0.0560383
21
-1.91487
0
LINE
8
BLACK
6
CONTINUOUS
10
-0.0560383
20
-1.91487
11
-0.0507442
21
-1.91841
0
LINE
8
BLACK
6
CONTINUOUS
10
-0.0507442
20
-1.91841
11
-0.0448616
21
-1.92085
0
LINE
8
BLACK
6
CONTINUOUS
10
-0.0448616
20
-1.92085
11
-0.0386167
21
-1.92209
0
LINE
8
BLACK
6
CONTINUOUS
10
-0.0386167
20
-1.92209
11
-0.0322494
21
-1.92209
0
LINE
8
BLACK
6
CONTINUOUS
10
-0.0322494
20
-1.92209
11
-0.0260045
21
-1.92085
0
LINE
8
BLACK
6
CONTINUOUS
10
-0.0260045
20
-1.92085
11
-0.020122
21
-1.91841
0
LINE
8
BLACK
6
CONTINUOUS
10
-0.020122
20
-1.91841
11
-0.0148278
21
-1.91487
0
LINE
8
BLACK
6
CONTINUOUS
10
-0.0148278
20
-1.91487
11
-0.0103254
21
-1.91037
0
LINE
8
BLACK
6
CONTINUOUS
10
-0.0103254
20
-1.91037
11
-0.00678799
21
-1.90507
0
LINE
8
BLACK
6
CONTINUOUS
10
-0.00678799
20
-1.90507
11
-0.00435134
21
-1.89919
0
LINE
8
BLACK
6
CONTINUOUS
10
-0.00435134
20
-1.89919
11
-0.00310917
21
-1.89295
0
LINE
8
BLACK
6
CONTINUOUS
10
-0.00310917
20
-1.89295
11
-0.00310917
21
-1.88658
0
LINE
8
BLACK
6
CONTINUOUS
10
-0.00310917
20
-1.88658
11
-0.00435134
21
-1.88034
0
LINE
8
BLACK
6
CONTINUOUS
10
-0.00435134
20
-1.88034
11
-0.00678799
21
-1.87445
0
LINE
8
BLACK
6
CONTINUOUS
10
-0.00678799
20
-1.87445
11
-0.0103254
21
-1.86916
0
LINE
8
BLACK
6
CONTINUOUS
10
-0.0103254
20
-1.86916
11
-0.0148278
21
-1.86466
0
LINE
8
BLACK
6
CONTINUOUS
10
-0.0148278
20
-1.86466
11
-0.020122
21
-1.86112
0
LINE
8
BLACK
6
CONTINUOUS
10
-0.020122
20
-1.86112
11
-0.0260045
21
-1.85868
0
LINE
8
BLACK
6
CONTINUOUS
10
-0.0260045
20
-1.85868
11
-0.0322494
21
-1.85744
0
LINE
8
BLACK
6
CONTINUOUS
10
-0.0322494
20
-1.85744
11
-0.0386167
21
-1.85744
0
LINE
8
BLACK
6
CONTINUOUS
10
-0.0386167
20
-1.85744
11
-0.0448616
21
-1.85868
0
LINE
8
BLACK
6
CONTINUOUS
10
-0.0448616
20
-1.85868
11
-0.0507442
21
-1.86112
0
LINE
8
BLACK
6
CONTINUOUS
10
-0.0507442
20
-1.86112
11
-0.0560383
21
-1.86466
0
LINE
8
BLACK
6
CONTINUOUS
10
-0.0560383
20
-1.86466
11
-0.0605407
21
-1.86916
0
LINE
8
BLACK
6
CONTINUOUS
10
-0.0605407
20
-1.86916
11
-0.0640781
21
-1.87445
0
LINE
8
BLACK
6
CONTINUOUS
10
-0.0640781
20
-1.87445
11
-0.0665148
21
-1.88034
0
LINE
8
BLACK
6
CONTINUOUS
10
-0.0665148
20
-1.88034
11
-0.067757
21
-1.88658
0
LINE
8
BLACK
6
CONTINUOUS
10
-0.067757
20
-1.88658
11
-0.067757
21
-1.89295
0
LINE
8
BLACK
6
CONTINUOUS
10
-0.067757
20
-1.89295
11
-0.0665148
21
-1.89919
0
LINE
8
BLACK
6
CONTINUOUS
10
1.49778
20
-1.87954
11
1.50042
21
-1.87315
0
LINE
8
BLACK
6
CONTINUOUS
10
1.50042
20
-1.87315
11
1.50426
21
-1.86741
0
LINE
8
BLACK
6
CONTINUOUS
10
1.50426
20
-1.86741
11
1.50914
21
-1.86253
0
LINE
8
BLACK
6
CONTINUOUS
10
1.50914
20
-1.86253
11
1.51489
21
-1.85869
0
LINE
8
BLACK
6
CONTINUOUS
10
1.51489
20
-1.85869
11
1.52127
21
-1.85604
0
LINE
8
BLACK
6
CONTINUOUS
10
1.52127
20
-1.85604
11
1.52804
21
-1.8547
0
LINE
8
BLACK
6
CONTINUOUS
10
1.52804
20
-1.8547
11
1.53495
21
-1.8547
0
LINE
8
BLACK
6
CONTINUOUS
10
1.53495
20
-1.8547
11
1.54172
21
-1.85604
0
LINE
8
BLACK
6
CONTINUOUS
10
1.54172
20
-1.85604
11
1.54811
21
-1.85869
0
LINE
8
BLACK
6
CONTINUOUS
10
1.54811
20
-1.85869
11
1.55385
21
-1.86253
0
LINE
8
BLACK
6
CONTINUOUS
10
1.55385
20
-1.86253
11
1.55873
21
-1.86741
0
LINE
8
BLACK
6
CONTINUOUS
10
1.55873
20
-1.86741
11
1.56257
21
-1.87315
0
LINE
8
BLACK
6
CONTINUOUS
10
1.56257
20
-1.87315
11
1.56522
21
-1.87954
0
LINE
8
BLACK
6
CONTINUOUS
10
1.56522
20
-1.87954
11
1.56656
21
-1.88631
0
LINE
8
BLACK
6
CONTINUOUS
10
1.56656
20
-1.88631
11
1.56656
21
-1.89322
0
LINE
8
BLACK
6
CONTINUOUS
10
1.56656
20
-1.89322
11
1.56522
21
-1.89999
0
LINE
8
BLACK
6
CONTINUOUS
10
1.56522
20
-1.89999
11
1.56257
21
-1.90637
0
LINE
8
BLACK
6
CONTINUOUS
10
1.56257
20
-1.90637
11
1.55873
21
-1.91212
0
LINE
8
BLACK
6
CONTINUOUS
10
1.55873
20
-1.91212
11
1.55385
21
-1.917
0
LINE
8
BLACK
6
CONTINUOUS
10
1.55385
20
-1.917
11
1.54811
21
-1.92084
0
LINE
8
BLACK
6
CONTINUOUS
10
1.54811
20
-1.92084
11
1.54172
21
-1.92348
0
LINE
8
BLACK
6
CONTINUOUS
10
1.54172
20
-1.92348
11
1.53495
21
-1.92483
0
LINE
8
BLACK
6
CONTINUOUS
10
1.53495
20
-1.92483
11
1.52804
21
-1.92483
0
LINE
8
BLACK
6
CONTINUOUS
10
1.52804
20
-1.92483
11
1.52127
21
-1.92348
0
LINE
8
BLACK
6
CONTINUOUS
10
1.52127
20
-1.92348
11
1.51489
21
-1.92084
0
LINE
8
BLACK
6
CONTINUOUS
10
1.51489
20
-1.92084
11
1.50914
21
-1.917
0
LINE
8
BLACK
6
CONTINUOUS
10
1.50914
20
-1.917
11
1.50426
21
-1.91212
0
LINE
8
BLACK
6
CONTINUOUS
10
1.50426
20
-1.91212
11
1.50042
21
-1.90637
0
LINE
8
BLACK
6
CONTINUOUS
10
1.50042
20
-1.90637
11
1.49778
21
-1.89999
0
LINE
8
BLACK
6
CONTINUOUS
10
1.49778
20
-1.89999
11
1.49643
21
-1.89322
0
LINE
8
BLACK
6
CONTINUOUS
10
1.49643
20
-1.89322
11
1.49643
21
-1.88631
0
LINE
8
BLACK
6
CONTINUOUS
10
1.49643
20
-1.88631
11
1.49778
21
-1.87954
0
LINE
8
BLACK
6
CONTINUOUS
10
1.50041
20
-1.89919
11
1.50285
21
-1.90507
0
LINE
8
BLACK
6
CONTINUOUS
10
1.50285
20
-1.90507
11
1.50639
21
-1.91037
0
LINE
8
BLACK
6
CONTINUOUS
10
1.50639
20
-1.91037
11
1.51089
21
-1.91487
0
LINE
8
BLACK
6
CONTINUOUS
10
1.51089
20
-1.91487
11
1.51618
21
-1.91841
0
LINE
8
BLACK
6
CONTINUOUS
10
1.51618
20
-1.91841
11
1.52207
21
-1.92085
0
LINE
8
BLACK
6
CONTINUOUS
10
1.52207
20
-1.92085
11
1.52831
21
-1.92209
0
LINE
8
BLACK
6
CONTINUOUS
10
1.52831
20
-1.92209
11
1.53468
21
-1.92209
0
LINE
8
BLACK
6
CONTINUOUS
10
1.53468
20
-1.92209
11
1.54092
21
-1.92085
0
LINE
8
BLACK
6
CONTINUOUS
10
1.54092
20
-1.92085
11
1.54681
21
-1.91841
0
LINE
8
BLACK
6
CONTINUOUS
10
1.54681
20
-1.91841
11
1.5521
21
-1.91487
0
LINE
8
BLACK
6
CONTINUOUS
10
1.5521
20
-1.91487
11
1.5566
21
-1.91037
0
LINE
8
BLACK
6
CONTINUOUS
10
1.5566
20
-1.91037
11
1.56014
21
-1.90507
0
LINE
8
BLACK
6
CONTINUOUS
10
1.56014
20
-1.90507
11
1.56258
21
-1.89919
0
LINE
8
BLACK
6
CONTINUOUS
10
1.56258
20
-1.89919
11
1.56382
21
-1.89295
0
LINE
8
BLACK
6
CONTINUOUS
10
1.56382
20
-1.89295
11
1.56382
21
-1.88658
0
LINE
8
BLACK
6
CONTINUOUS
10
1.56382
20
-1.88658
11
1.56258
21
-1.88034
0
LINE
8
BLACK
6
CONTINUOUS
10
1.56258
20
-1.88034
11
1.56014
21
-1.87445
0
LINE
8
BLACK
6
CONTINUOUS
10
1.56014
20
-1.87445
11
1.5566
21
-1.86916
0
LINE
8
BLACK
6
CONTINUOUS
10
1.5566
20
-1.86916
11
1.5521
21
-1.86466
0
LINE
8
BLACK
6
CONTINUOUS
10
1.5521
20
-1.86466
11
1.54681
21
-1.86112
0
LINE
8
BLACK
6
CONTINUOUS
10
1.54681
20
-1.86112
11
1.54092
21
-1.85868
0
LINE
8
BLACK
6
CONTINUOUS
10
1.54092
20
-1.85868
11
1.53468
21
-1.85744
0
LINE
8
BLACK
6
CONTINUOUS
10
1.53468
20
-1.85744
11
1.52831
21
-1.85744
0
LINE
8
BLACK
6
CONTINUOUS
10
1.52831
20
-1.85744
11
1.52207
21
-1.85868
0
LINE
8
BLACK
6
CONTINUOUS
10
1.52207
20
-1.85868
11
1.51618
21
-1.86112
0
LINE
8
BLACK
6
CONTINUOUS
10
1.51618
20
-1.86112
11
1.51089
21
-1.86466
0
LINE
8
BLACK
6
CONTINUOUS
10
1.51089
20
-1.86466
11
1.50639
21
-1.86916
0
LINE
8
BLACK
6
CONTINUOUS
10
1.50639
20
-1.86916
11
1.50285
21
-1.87445
0
LINE
8
BLACK
6
CONTINUOUS
10
1.50285
20
-1.87445
11
1.50041
21
-1.88034
0
LINE
8
BLACK
6
CONTINUOUS
10
1.50041
20
-1.88034
11
1.49917
21
-1.88658
0
LINE
8
BLACK
6
CONTINUOUS
10
1.49917
20
-1.88658
11
1.49917
21
-1.89295
0
LINE
8
BLACK
6
CONTINUOUS
10
1.49917
20
-1.89295
11
1.50041
21
-1.89919
0
LINE
8
BLACK
6
CONTINUOUS
10
-1.1811e-07
20
-0.814829
11
0.0030863
21
-0.807378
0
LINE
8
BLACK
6
CONTINUOUS
10
0.0030863
20
-0.807378
11
0.00756709
21
-0.800672
0
LINE
8
BLACK
6
CONTINUOUS
10
0.00756709
20
-0.800672
11
0.01327
21
-0.794969
0
LINE
8
BLACK
6
CONTINUOUS
10
0.01327
20
-0.794969
11
0.019976
21
-0.790488
0
LINE
8
BLACK
6
CONTINUOUS
10
0.019976
20
-0.790488
11
0.0274273
21
-0.787401
0
LINE
8
BLACK
6
CONTINUOUS
10
0.0274273
20
-0.787401
11
0.0353375
21
-0.785828
0
LINE
8
BLACK
6
CONTINUOUS
10
0.0353375
20
-0.785828
11
0.0434027
21
-0.785828
0
LINE
8
BLACK
6
CONTINUOUS
10
0.0434027
20
-0.785828
11
0.0513129
21
-0.787401
0
LINE
8
BLACK
6
CONTINUOUS
10
0.0513129
20
-0.787401
11
0.0587642
21
-0.790488
0
LINE
8
BLACK
6
CONTINUOUS
10
0.0587642
20
-0.790488
11
0.0654701
21
-0.794969
0
LINE
8
BLACK
6
CONTINUOUS
10
0.0654701
20
-0.794969
11
0.0711731
21
-0.800672
0
LINE
8
BLACK
6
CONTINUOUS
10
0.0711731
20
-0.800672
11
0.0756539
21
-0.807378
0
LINE
8
BLACK
6
CONTINUOUS
10
0.0756539
20
-0.807378
11
0.0787403
21
-0.814829
0
LINE
8
BLACK
6
CONTINUOUS
10
0.0787403
20
-0.814829
11
0.0803137
21
-0.822739
0
LINE
8
BLACK
6
CONTINUOUS
10
0.0803137
20
-0.822739
11
0.0803137
21
-0.830804
0
LINE
8
BLACK
6
CONTINUOUS
10
0.0803137
20
-0.830804
11
0.0787403
21
-0.838714
0
LINE
8
BLACK
6
CONTINUOUS
10
0.0787403
20
-0.838714
11
0.0756539
21
-0.846166
0
LINE
8
BLACK
6
CONTINUOUS
10
0.0756539
20
-0.846166
11
0.0711731
21
-0.852872
0
LINE
8
BLACK
6
CONTINUOUS
10
0.0711731
20
-0.852872
11
0.0654701
21
-0.858575
0
LINE
8
BLACK
6
CONTINUOUS
10
0.0654701
20
-0.858575
11
0.0587642
21
-0.863055
0
LINE
8
BLACK
6
CONTINUOUS
10
0.0587642
20
-0.863055
11
0.0513129
21
-0.866142
0
LINE
8
BLACK
6
CONTINUOUS
10
0.0513129
20
-0.866142
11
0.0434027
21
-0.867715
0
LINE
8
BLACK
6
CONTINUOUS
10
0.0434027
20
-0.867715
11
0.0353375
21
-0.867715
0
LINE
8
BLACK
6
CONTINUOUS
10
0.0353375
20
-0.867715
11
0.0274273
21
-0.866142
0
LINE
8
BLACK
6
CONTINUOUS
10
0.0274273
20
-0.866142
11
0.019976
21
-0.863055
0
LINE
8
BLACK
6
CONTINUOUS
10
0.019976
20
-0.863055
11
0.01327
21
-0.858575
0
LINE
8
BLACK
6
CONTINUOUS
10
0.01327
20
-0.858575
11
0.00756709
21
-0.852872
0
LINE
8
BLACK
6
CONTINUOUS
10
0.00756709
20
-0.852872
11
0.0030863
21
-0.846166
0
LINE
8
BLACK
6
CONTINUOUS
10
0.0030863
20
-0.846166
11
-1.1811e-07
21
-0.838714
0
LINE
8
BLACK
6
CONTINUOUS
10
-1.1811e-07
20
-0.838714
11
-0.00157354
21
-0.830804
0
LINE
8
BLACK
6
CONTINUOUS
10
-0.00157354
20
-0.830804
11
-0.00157354
21
-0.822739
0
LINE
8
BLACK
6
CONTINUOUS
10
-0.00157354
20
-0.822739
11
-1.1811e-07
21
-0.814829
0
LINE
8
BLACK
6
CONTINUOUS
10
0.00263713
20
-0.837914
11
0.00551681
21
-0.844867
0
LINE
8
BLACK
6
CONTINUOUS
10
0.00551681
20
-0.844867
11
0.00969744
21
-0.851123
0
LINE
8
BLACK
6
CONTINUOUS
10
0.00969744
20
-0.851123
11
0.0150184
21
-0.856444
0
LINE
8
BLACK
6
CONTINUOUS
10
0.0150184
20
-0.856444
11
0.0212751
21
-0.860625
0
LINE
8
BLACK
6
CONTINUOUS
10
0.0212751
20
-0.860625
11
0.0282272
21
-0.863505
0
LINE
8
BLACK
6
CONTINUOUS
10
0.0282272
20
-0.863505
11
0.0356076
21
-0.864973
0
LINE
8
BLACK
6
CONTINUOUS
10
0.0356076
20
-0.864973
11
0.0431326
21
-0.864973
0
LINE
8
BLACK
6
CONTINUOUS
10
0.0431326
20
-0.864973
11
0.0505129
21
-0.863505
0
LINE
8
BLACK
6
CONTINUOUS
10
0.0505129
20
-0.863505
11
0.057465
21
-0.860625
0
LINE
8
BLACK
6
CONTINUOUS
10
0.057465
20
-0.860625
11
0.0637218
21
-0.856444
0
LINE
8
BLACK
6
CONTINUOUS
10
0.0637218
20
-0.856444
11
0.0690427
21
-0.851123
0
LINE
8
BLACK
6
CONTINUOUS
10
0.0690427
20
-0.851123
11
0.0732233
21
-0.844867
0
LINE
8
BLACK
6
CONTINUOUS
10
0.0732233
20
-0.844867
11
0.076103
21
-0.837914
0
LINE
8
BLACK
6
CONTINUOUS
10
0.076103
20
-0.837914
11
0.0775711
21
-0.830534
0
LINE
8
BLACK
6
CONTINUOUS
10
0.0775711
20
-0.830534
11
0.0775711
21
-0.823009
0
LINE
8
BLACK
6
CONTINUOUS
10
0.0775711
20
-0.823009
11
0.076103
21
-0.815629
0
LINE
8
BLACK
6
CONTINUOUS
10
0.076103
20
-0.815629
11
0.0732233
21
-0.808677
0
LINE
8
BLACK
6
CONTINUOUS
10
0.0732233
20
-0.808677
11
0.0690427
21
-0.80242
0
LINE
8
BLACK
6
CONTINUOUS
10
0.0690427
20
-0.80242
11
0.0637218
21
-0.797099
0
LINE
8
BLACK
6
CONTINUOUS
10
0.0637218
20
-0.797099
11
0.057465
21
-0.792918
0
LINE
8
BLACK
6
CONTINUOUS
10
0.057465
20
-0.792918
11
0.0505129
21
-0.790039
0
LINE
8
BLACK
6
CONTINUOUS
10
0.0505129
20
-0.790039
11
0.0431326
21
-0.788571
0
LINE
8
BLACK
6
CONTINUOUS
10
0.0431326
20
-0.788571
11
0.0356076
21
-0.788571
0
LINE
8
BLACK
6
CONTINUOUS
10
0.0356076
20
-0.788571
11
0.0282272
21
-0.790039
0
LINE
8
BLACK
6
CONTINUOUS
10
0.0282272
20
-0.790039
11
0.0212751
21
-0.792918
0
LINE
8
BLACK
6
CONTINUOUS
10
0.0212751
20
-0.792918
11
0.0150184
21
-0.797099
0
LINE
8
BLACK
6
CONTINUOUS
10
0.0150184
20
-0.797099
11
0.00969744
21
-0.80242
0
LINE
8
BLACK
6
CONTINUOUS
10
0.00969744
20
-0.80242
11
0.00551681
21
-0.808677
0
LINE
8
BLACK
6
CONTINUOUS
10
0.00551681
20
-0.808677
11
0.00263713
21
-0.815629
0
LINE
8
BLACK
6
CONTINUOUS
10
0.00263713
20
-0.815629
11
0.00116909
21
-0.823009
0
LINE
8
BLACK
6
CONTINUOUS
10
0.00116909
20
-0.823009
11
0.00116909
21
-0.830534
0
LINE
8
BLACK
6
CONTINUOUS
10
0.00116909
20
-0.830534
11
0.00263713
21
-0.837914
0
LINE
8
BLACK
6
CONTINUOUS
10
1.41732
20
-0.814829
11
1.42041
21
-0.807378
0
LINE
8
BLACK
6
CONTINUOUS
10
1.42041
20
-0.807378
11
1.42489
21
-0.800672
0
LINE
8
BLACK
6
CONTINUOUS
10
1.42489
20
-0.800672
11
1.43059
21
-0.794969
0
LINE
8
BLACK
6
CONTINUOUS
10
1.43059
20
-0.794969
11
1.4373
21
-0.790488
0
LINE
8
BLACK
6
CONTINUOUS
10
1.4373
20
-0.790488
11
1.44475
21
-0.787401
0
LINE
8
BLACK
6
CONTINUOUS
10
1.44475
20
-0.787401
11
1.45266
21
-0.785828
0
LINE
8
BLACK
6
CONTINUOUS
10
1.45266
20
-0.785828
11
1.46073
21
-0.785828
0
LINE
8
BLACK
6
CONTINUOUS
10
1.46073
20
-0.785828
11
1.46864
21
-0.787401
0
LINE
8
BLACK
6
CONTINUOUS
10
1.46864
20
-0.787401
11
1.47609
21
-0.790488
0
LINE
8
BLACK
6
CONTINUOUS
10
1.47609
20
-0.790488
11
1.48279
21
-0.794969
0
LINE
8
BLACK
6
CONTINUOUS
10
1.48279
20
-0.794969
11
1.4885
21
-0.800672
0
LINE
8
BLACK
6
CONTINUOUS
10
1.4885
20
-0.800672
11
1.49298
21
-0.807378
0
LINE
8
BLACK
6
CONTINUOUS
10
1.49298
20
-0.807378
11
1.49606
21
-0.814829
0
LINE
8
BLACK
6
CONTINUOUS
10
1.49606
20
-0.814829
11
1.49764
21
-0.822739
0
LINE
8
BLACK
6
CONTINUOUS
10
1.49764
20
-0.822739
11
1.49764
21
-0.830804
0
LINE
8
BLACK
6
CONTINUOUS
10
1.49764
20
-0.830804
11
1.49606
21
-0.838714
0
LINE
8
BLACK
6
CONTINUOUS
10
1.49606
20
-0.838714
11
1.49298
21
-0.846166
0
LINE
8
BLACK
6
CONTINUOUS
10
1.49298
20
-0.846166
11
1.4885
21
-0.852872
0
LINE
8
BLACK
6
CONTINUOUS
10
1.4885
20
-0.852872
11
1.48279
21
-0.858575
0
LINE
8
BLACK
6
CONTINUOUS
10
1.48279
20
-0.858575
11
1.47609
21
-0.863055
0
LINE
8
BLACK
6
CONTINUOUS
10
1.47609
20
-0.863055
11
1.46864
21
-0.866142
0
LINE
8
BLACK
6
CONTINUOUS
10
1.46864
20
-0.866142
11
1.46073
21
-0.867715
0
LINE
8
BLACK
6
CONTINUOUS
10
1.46073
20
-0.867715
11
1.45266
21
-0.867715
0
LINE
8
BLACK
6
CONTINUOUS
10
1.45266
20
-0.867715
11
1.44475
21
-0.866142
0
LINE
8
BLACK
6
CONTINUOUS
10
1.44475
20
-0.866142
11
1.4373
21
-0.863055
0
LINE
8
BLACK
6
CONTINUOUS
10
1.4373
20
-0.863055
11
1.43059
21
-0.858575
0
LINE
8
BLACK
6
CONTINUOUS
10
1.43059
20
-0.858575
11
1.42489
21
-0.852872
0
LINE
8
BLACK
6
CONTINUOUS
10
1.42489
20
-0.852872
11
1.42041
21
-0.846166
0
LINE
8
BLACK
6
CONTINUOUS
10
1.42041
20
-0.846166
11
1.41732
21
-0.838714
0
LINE
8
BLACK
6
CONTINUOUS
10
1.41732
20
-0.838714
11
1.41575
21
-0.830804
0
LINE
8
BLACK
6
CONTINUOUS
10
1.41575
20
-0.830804
11
1.41575
21
-0.822739
0
LINE
8
BLACK
6
CONTINUOUS
10
1.41575
20
-0.822739
11
1.41732
21
-0.814829
0
LINE
8
BLACK
6
CONTINUOUS
10
1.41996
20
-0.837914
11
1.42284
21
-0.844867
0
LINE
8
BLACK
6
CONTINUOUS
10
1.42284
20
-0.844867
11
1.42702
21
-0.851123
0
LINE
8
BLACK
6
CONTINUOUS
10
1.42702
20
-0.851123
11
1.43234
21
-0.856444
0
LINE
8
BLACK
6
CONTINUOUS
10
1.43234
20
-0.856444
11
1.4386
21
-0.860625
0
LINE
8
BLACK
6
CONTINUOUS
10
1.4386
20
-0.860625
11
1.44555
21
-0.863505
0
LINE
8
BLACK
6
CONTINUOUS
10
1.44555
20
-0.863505
11
1.45293
21
-0.864973
0
LINE
8
BLACK
6
CONTINUOUS
10
1.45293
20
-0.864973
11
1.46046
21
-0.864973
0
LINE
8
BLACK
6
CONTINUOUS
10
1.46046
20
-0.864973
11
1.46784
21
-0.863505
0
LINE
8
BLACK
6
CONTINUOUS
10
1.46784
20
-0.863505
11
1.47479
21
-0.860625
0
LINE
8
BLACK
6
CONTINUOUS
10
1.47479
20
-0.860625
11
1.48104
21
-0.856444
0
LINE
8
BLACK
6
CONTINUOUS
10
1.48104
20
-0.856444
11
1.48637
21
-0.851123
0
LINE
8
BLACK
6
CONTINUOUS
10
1.48637
20
-0.851123
11
1.49055
21
-0.844867
0
LINE
8
BLACK
6
CONTINUOUS
10
1.49055
20
-0.844867
11
1.49343
21
-0.837914
0
LINE
8
BLACK
6
CONTINUOUS
10
1.49343
20
-0.837914
11
1.49489
21
-0.830534
0
LINE
8
BLACK
6
CONTINUOUS
10
1.49489
20
-0.830534
11
1.49489
21
-0.823009
0
LINE
8
BLACK
6
CONTINUOUS
10
1.49489
20
-0.823009
11
1.49343
21
-0.815629
0
LINE
8
BLACK
6
CONTINUOUS
10
1.49343
20
-0.815629
11
1.49055
21
-0.808677
0
LINE
8
BLACK
6
CONTINUOUS
10
1.49055
20
-0.808677
11
1.48637
21
-0.80242
0
LINE
8
BLACK
6
CONTINUOUS
10
1.48637
20
-0.80242
11
1.48104
21
-0.797099
0
LINE
8
BLACK
6
CONTINUOUS
10
1.48104
20
-0.797099
11
1.47479
21
-0.792918
0
LINE
8
BLACK
6
CONTINUOUS
10
1.47479
20
-0.792918
11
1.46784
21
-0.790039
0
LINE
8
BLACK
6
CONTINUOUS
10
1.46784
20
-0.790039
11
1.46046
21
-0.788571
0
LINE
8
BLACK
6
CONTINUOUS
10
1.46046
20
-0.788571
11
1.45293
21
-0.788571
0
LINE
8
BLACK
6
CONTINUOUS
10
1.45293
20
-0.788571
11
1.44555
21
-0.790039
0
LINE
8
BLACK
6
CONTINUOUS
10
1.44555
20
-0.790039
11
1.4386
21
-0.792918
0
LINE
8
BLACK
6
CONTINUOUS
10
1.4386
20
-0.792918
11
1.43234
21
-0.797099
0
LINE
8
BLACK
6
CONTINUOUS
10
1.43234
20
-0.797099
11
1.42702
21
-0.80242
0
LINE
8
BLACK
6
CONTINUOUS
10
1.42702
20
-0.80242
11
1.42284
21
-0.808677
0
LINE
8
BLACK
6
CONTINUOUS
10
1.42284
20
-0.808677
11
1.41996
21
-0.815629
0
LINE
8
BLACK
6
CONTINUOUS
10
1.41996
20
-0.815629
11
1.41849
21
-0.823009
0
LINE
8
BLACK
6
CONTINUOUS
10
1.41849
20
-0.823009
11
1.41849
21
-0.830534
0
LINE
8
BLACK
6
CONTINUOUS
10
1.41849
20
-0.830534
11
1.41996
21
-0.837914
  0
ENDSEC
  0
EOF
