M48
; DRILL file {KiCad (5.1.6-0-10_14)} date Saturday, December 05, 2020 at 10:50:17 AM
; FORMAT={-:-/ absolute / inch / decimal}
; #@! TF.CreationDate,2020-12-05T10:50:17+01:00
; #@! TF.GenerationSoftware,Kicad,Pcbnew,(5.1.6-0-10_14)
; #@! TF.FileFunction,Plated,1,2,PTH
FMAT,2
INCH
T1C0.0157
T2C0.0276
T3C0.0315
T4C0.0394
T5C0.0472
T6C0.0709
%
G90
G05
T1
X0.122Y-2.1949
X0.162Y-1.3371
X0.2559Y-1.9016
X0.258Y-1.3171
X0.266Y-1.9789
X0.2808Y-2.0847
X0.3031Y-1.4409
X0.342Y-2.0821
X0.352Y-1.0589
X0.3701Y-1.5472
X0.4435Y-1.9989
X0.45Y-1.8869
X0.602Y-1.9849
X0.636Y-1.8809
X0.636Y-2.1689
X0.69Y-2.0889
X0.75Y-1.7049
X0.7568Y-2.0015
X0.7666Y-2.0879
X0.884Y-2.1729
X0.936Y-1.0014
X0.938Y-0.9249
X1.024Y-2.2849
X1.0866Y-0.6811
X1.114Y-1.9009
X1.211Y-1.0039
X1.231Y-2.3594
X1.276Y-2.1869
X1.386Y-2.1609
T2
X0.6433Y-1.0689
X0.6783Y-1.4902
X0.7134Y-1.0689
X0.75Y-1.4902
X0.7835Y-1.0689
X0.8185Y-1.4902
X0.8535Y-1.0689
X0.8886Y-1.4902
X0.9236Y-1.0689
X0.9587Y-1.4902
X0.9937Y-1.0689
X1.0287Y-1.4902
X1.0638Y-1.0689
X1.0988Y-1.4902
X1.1339Y-1.0689
X1.1689Y-1.4902
T3
X1.041Y-2.4038
X1.041Y-2.4825
X1.041Y-2.5613
X1.041Y-2.64
X0.1417Y-1.6496
X0.2205Y-1.6496
X0.2992Y-1.6496
X0.0669Y-1.8307
X0.0669Y-1.9094
X0.0669Y-1.9882
X0.826Y-2.3694
X0.826Y-2.4482
X0.826Y-2.5269
X-0.0079Y-1.1024
X0.0709Y-1.1024
X0.1496Y-1.1024
X0.0276Y-1.252
X0.0276Y-1.3307
X0.0276Y-1.4094
X0.0276Y-1.4882
T4
X1.1022Y-0.3605
X1.1022Y-0.4589
X1.1022Y-0.5573
T5
X0.3Y-0.1122
X0.5Y-0.1122
X0.0598Y-0.4547
X0.2598Y-0.4547
X0.4598Y-0.4547
X0.9921Y-0.1122
X1.1921Y-0.1122
X1.3921Y-0.1122
X0.1Y-0.1122
T6
G00X1.1731Y-0.2817
M15
G01X1.1889Y-0.2817
M16
G05
G00X1.1731Y-0.6361
M15
G01X1.1889Y-0.6361
M16
G05
T0
M30
