%TF.GenerationSoftware,KiCad,Pcbnew,(5.1.6-0-10_14)*%
%TF.CreationDate,2020-12-05T10:50:09+01:00*%
%TF.ProjectId,Mys,4d79732e-6b69-4636-9164-5f7063625858,rev?*%
%TF.SameCoordinates,PX223cd58PY13c0734*%
%TF.FileFunction,Copper,L2,Bot*%
%TF.FilePolarity,Positive*%
%FSLAX46Y46*%
G04 Gerber Fmt 4.6, Leading zero omitted, Abs format (unit mm)*
G04 Created by KiCad (PCBNEW (5.1.6-0-10_14)) date 2020-12-05 10:50:09*
%MOMM*%
%LPD*%
G01*
G04 APERTURE LIST*
%TA.AperFunction,ComponentPad*%
%ADD10R,1.350000X1.350000*%
%TD*%
%TA.AperFunction,ComponentPad*%
%ADD11O,1.350000X1.350000*%
%TD*%
%TA.AperFunction,SMDPad,CuDef*%
%ADD12R,2.000000X1.300000*%
%TD*%
%TA.AperFunction,SMDPad,CuDef*%
%ADD13R,2.000000X2.000000*%
%TD*%
%TA.AperFunction,ComponentPad*%
%ADD14C,1.600000*%
%TD*%
%TA.AperFunction,ComponentPad*%
%ADD15C,1.524000*%
%TD*%
%TA.AperFunction,ComponentPad*%
%ADD16C,2.000000*%
%TD*%
%TA.AperFunction,ComponentPad*%
%ADD17C,1.350000*%
%TD*%
%TA.AperFunction,ViaPad*%
%ADD18C,0.800000*%
%TD*%
%TA.AperFunction,Conductor*%
%ADD19C,0.250000*%
%TD*%
%TA.AperFunction,Conductor*%
%ADD20C,0.500000*%
%TD*%
%TA.AperFunction,Conductor*%
%ADD21C,0.254000*%
%TD*%
G04 APERTURE END LIST*
D10*
%TO.P,J3,1*%
%TO.N,Net-(J3-Pad1)*%
X700000Y-31800000D03*
D11*
%TO.P,J3,2*%
%TO.N,Net-(J3-Pad2)*%
X700000Y-33800000D03*
%TO.P,J3,3*%
%TO.N,5V*%
X700000Y-35800000D03*
%TO.P,J3,4*%
%TO.N,GND*%
X700000Y-37800000D03*
%TD*%
%TO.P,J2,3*%
%TO.N,GND*%
X1700000Y-50500000D03*
%TO.P,J2,2*%
%TO.N,Net-(J2-Pad2)*%
X1700000Y-48500000D03*
D10*
%TO.P,J2,1*%
%TO.N,VCC*%
X1700000Y-46500000D03*
%TD*%
D11*
%TO.P,J6,3*%
%TO.N,Net-(J6-Pad3)*%
X7600000Y-41900000D03*
%TO.P,J6,2*%
%TO.N,Net-(J6-Pad2)*%
X5600000Y-41900000D03*
D10*
%TO.P,J6,1*%
%TO.N,GND*%
X3600000Y-41900000D03*
%TD*%
D11*
%TO.P,J5,3*%
%TO.N,GND*%
X3800000Y-28000000D03*
%TO.P,J5,2*%
%TO.N,Net-(J5-Pad2)*%
X1800000Y-28000000D03*
D10*
%TO.P,J5,1*%
%TO.N,5V*%
X-200000Y-28000000D03*
%TD*%
D12*
%TO.P,RV1,1*%
%TO.N,Net-(J5-Pad2)*%
X4500000Y-19950000D03*
D13*
%TO.P,RV1,2*%
%TO.N,Net-(J3-Pad2)*%
X8500000Y-21100000D03*
D12*
%TO.P,RV1,3*%
%TO.N,N/C*%
X4500000Y-22250000D03*
%TD*%
D14*
%TO.P,SW3,1*%
%TO.N,Net-(D4-Pad2)*%
X27997000Y-14156000D03*
%TO.P,SW3,2*%
%TO.N,Net-(D2-Pad2)*%
X27997000Y-11656000D03*
%TO.P,SW3,3*%
%TO.N,GND*%
X27997000Y-9156000D03*
%TO.P,SW3,*%
%TO.N,*%
%TA.AperFunction,ComponentPad*%
G36*
G01*
X30396000Y-17456000D02*
X29598000Y-17456000D01*
G75*
G02*
X28597000Y-16455000I0J1001000D01*
G01*
X28597000Y-15857000D01*
G75*
G02*
X29598000Y-14856000I1001000J0D01*
G01*
X30396000Y-14856000D01*
G75*
G02*
X31397000Y-15857000I0J-1001000D01*
G01*
X31397000Y-16455000D01*
G75*
G02*
X30396000Y-17456000I-1001000J0D01*
G01*
G37*
%TD.AperFunction*%
%TA.AperFunction,ComponentPad*%
G36*
G01*
X30396000Y-8456000D02*
X29598000Y-8456000D01*
G75*
G02*
X28597000Y-7455000I0J1001000D01*
G01*
X28597000Y-6857000D01*
G75*
G02*
X29598000Y-5856000I1001000J0D01*
G01*
X30396000Y-5856000D01*
G75*
G02*
X31397000Y-6857000I0J-1001000D01*
G01*
X31397000Y-7455000D01*
G75*
G02*
X30396000Y-8456000I-1001000J0D01*
G01*
G37*
%TD.AperFunction*%
%TD*%
D15*
%TO.P,J1,2*%
%TO.N,GND*%
X26441000Y-65056200D03*
%TO.P,J1,3*%
%TO.N,DP*%
X26441000Y-63056200D03*
%TO.P,J1,4*%
%TO.N,DM*%
X26441000Y-61056200D03*
%TO.P,J1,1*%
%TO.N,5V*%
X26441000Y-67056200D03*
%TD*%
D16*
%TO.P,SW2,3*%
%TO.N,GND*%
X30280000Y-2850000D03*
%TO.P,SW2,2*%
X35360000Y-2850000D03*
%TO.P,SW2,1*%
%TO.N,Net-(D3-Pad2)*%
X25200000Y-2850000D03*
%TD*%
%TO.P,SW1,3*%
%TO.N,GND*%
X7620000Y-2850000D03*
%TO.P,SW1,2*%
X2540000Y-2850000D03*
%TO.P,SW1,1*%
%TO.N,Net-(D1-Pad2)*%
X12700000Y-2850000D03*
%TD*%
%TO.P,SW4,1*%
%TO.N,Net-(D5-Pad2)*%
X1520000Y-11550000D03*
%TO.P,SW4,2*%
%TO.N,GND*%
X11680000Y-11550000D03*
%TO.P,SW4,3*%
X6600000Y-11550000D03*
%TD*%
D17*
%TO.P,U2,9*%
%TO.N,Net-(R12-Pad1)*%
X29690000Y-37850000D03*
%TO.P,U2,10*%
%TO.N,SCLK*%
X27910000Y-37850000D03*
%TO.P,U2,11*%
%TO.N,MOSI*%
X26130000Y-37850000D03*
%TO.P,U2,12*%
%TO.N,MISO*%
X24350000Y-37850000D03*
%TO.P,U2,13*%
%TO.N,NSS*%
X22570000Y-37850000D03*
%TO.P,U2,14*%
%TO.N,N/C*%
X20790000Y-37850000D03*
%TO.P,U2,15*%
%TO.N,Net-(R11-Pad2)*%
X19050000Y-37850000D03*
%TO.P,U2,16*%
%TO.N,N/C*%
X17230000Y-37850000D03*
%TO.P,U2,8*%
%TO.N,GND*%
X28800000Y-27150000D03*
%TO.P,U2,7*%
%TO.N,Net-(R5-Pad2)*%
X27020000Y-27150000D03*
%TO.P,U2,6*%
%TO.N,N/C*%
X25240000Y-27150000D03*
%TO.P,U2,5*%
%TO.N,VCC*%
X23460000Y-27150000D03*
%TO.P,U2,4*%
%TO.N,VCC1.9*%
X21680000Y-27150000D03*
%TO.P,U2,3*%
%TO.N,Net-(C10-Pad2)*%
X19900000Y-27150000D03*
%TO.P,U2,2*%
%TO.N,N/C*%
X18120000Y-27150000D03*
%TO.P,U2,1*%
X16340000Y-27150000D03*
%TD*%
D10*
%TO.P,J4,1*%
%TO.N,VCC*%
X20980000Y-64183200D03*
D11*
%TO.P,J4,2*%
%TO.N,Net-(C24-Pad1)*%
X20980000Y-62183200D03*
%TO.P,J4,3*%
%TO.N,GND*%
X20980000Y-60183200D03*
%TD*%
D18*
%TO.N,VCC1.9*%
X28295200Y-48282800D03*
X23774000Y-25435500D03*
X19049600Y-43304400D03*
%TO.N,VCC*%
X11429600Y-47927200D03*
X6756000Y-50264000D03*
X26009200Y-58036400D03*
X4114400Y-33962000D03*
X8940400Y-26896000D03*
%TO.N,5V*%
X6552800Y-33454000D03*
%TO.N,ADC_IN8*%
X9400000Y-39300000D03*
X11264500Y-50772000D03*
%TO.N,DP*%
X7131920Y-52951320D03*
%TO.N,DM*%
X8686400Y-52885280D03*
%TO.N,Net-(R5-Pad2)*%
X30759000Y-25499000D03*
%TO.N,PA2*%
X22453200Y-55191600D03*
X16154000Y-55090000D03*
%TO.N,NSS*%
X17525600Y-53058000D03*
%TO.N,MOSI*%
X19222320Y-50838040D03*
X19471240Y-53032600D03*
%TO.N,GND*%
X32410000Y-55547200D03*
X7700000Y-36600000D03*
X31267000Y-59928700D03*
X3098400Y-55750400D03*
X23824800Y-23492400D03*
X16154000Y-47774800D03*
X27600000Y-17300000D03*
%TO.N,PB1*%
X15290400Y-50416400D03*
X35204000Y-54886800D03*
%TO.N,Net-(J6-Pad2)*%
X6500000Y-48300000D03*
%TD*%
D19*
%TO.N,VCC1.9*%
X16611200Y-53616800D02*
X16865200Y-53870800D01*
X16865200Y-53870800D02*
X22707200Y-53870800D01*
X19049600Y-48638400D02*
X16611200Y-51076800D01*
X16611200Y-51076800D02*
X16611200Y-53616800D01*
X22707200Y-53870800D02*
X28295200Y-48282800D01*
X19049600Y-43304400D02*
X19049600Y-48638400D01*
X32054400Y-25219600D02*
X32054400Y-44523600D01*
X31608799Y-24773999D02*
X32054400Y-25219600D01*
X28537601Y-24773999D02*
X31608799Y-24773999D01*
X32054400Y-44523600D02*
X28295200Y-48282800D01*
X27876100Y-25435500D02*
X28537601Y-24773999D01*
X23774000Y-25435500D02*
X27876100Y-25435500D01*
%TO.N,VCC*%
X8940400Y-26896000D02*
X13614000Y-26896000D01*
X13614000Y-26896000D02*
X15442800Y-25067200D01*
X15442800Y-25067200D02*
X22046800Y-25067200D01*
X23460000Y-26480400D02*
X23460000Y-27150000D01*
X22046800Y-25067200D02*
X23460000Y-26480400D01*
D20*
X12140800Y-30096400D02*
X8940400Y-26896000D01*
D19*
X12039200Y-47927200D02*
X12140800Y-48028800D01*
D20*
X12140800Y-48028800D02*
X12140800Y-30096400D01*
D19*
X11429600Y-47927200D02*
X12039200Y-47927200D01*
X6756000Y-50264000D02*
X8432400Y-50264000D01*
X10566000Y-52397600D02*
X12140800Y-52397600D01*
X8432400Y-50264000D02*
X10566000Y-52397600D01*
D20*
X12140800Y-52397600D02*
X12140800Y-48028800D01*
X13507775Y-58158179D02*
X25887421Y-58158179D01*
X12140800Y-56791204D02*
X13507775Y-58158179D01*
X25887421Y-58158179D02*
X26009200Y-58036400D01*
X12140800Y-52397600D02*
X12140800Y-56791204D01*
D19*
X8940400Y-29136000D02*
X4114400Y-33962000D01*
X8940400Y-26896000D02*
X8940400Y-29136000D01*
%TO.N,5V*%
X309600Y-35809600D02*
X300000Y-35800000D01*
X6552800Y-33454000D02*
X4197200Y-35809600D01*
X8674999Y-35576199D02*
X6552800Y-33454000D01*
X8674999Y-48525001D02*
X8674999Y-35576199D01*
X7700000Y-49500000D02*
X8674999Y-48525001D01*
X11256200Y-67056200D02*
X6030999Y-61830999D01*
X6446998Y-49500000D02*
X7700000Y-49500000D01*
X6030999Y-49915999D02*
X6446998Y-49500000D01*
X6030999Y-61830999D02*
X6030999Y-49915999D01*
X26441000Y-67056200D02*
X11256200Y-67056200D01*
X4187600Y-35800000D02*
X4197200Y-35809600D01*
X4187600Y-35800000D02*
X700000Y-35800000D01*
%TO.N,ADC_IN8*%
X9900000Y-39800000D02*
X9400000Y-39300000D01*
X9900000Y-48277200D02*
X9900000Y-39800000D01*
X11264500Y-49641700D02*
X9900000Y-48277200D01*
X11264500Y-50772000D02*
X11264500Y-49641700D01*
%TO.N,DP*%
X7391000Y-52829400D02*
X7365600Y-52804000D01*
X11885839Y-58785839D02*
X12685839Y-58785839D01*
X13083199Y-59183199D02*
X22567999Y-59183199D01*
X7131920Y-54031920D02*
X11885839Y-58785839D01*
X12685839Y-58785839D02*
X13083199Y-59183199D01*
X22567999Y-59183199D02*
X26441000Y-63056200D01*
X7131920Y-52951320D02*
X7131920Y-54031920D01*
%TO.N,DM*%
X24117989Y-58733189D02*
X26441000Y-61056200D01*
X12235829Y-58335829D02*
X12872240Y-58335830D01*
X12872240Y-58335830D02*
X13269599Y-58733189D01*
X8686400Y-54786400D02*
X12235829Y-58335829D01*
X13269599Y-58733189D02*
X24117989Y-58733189D01*
X8686400Y-52885280D02*
X8686400Y-54786400D01*
%TO.N,Net-(J3-Pad2)*%
X8500000Y-21100000D02*
X8500000Y-20900000D01*
X5900000Y-30500000D02*
X2600000Y-33800000D01*
X8500000Y-25500000D02*
X5900000Y-28100000D01*
X8500000Y-21100000D02*
X8500000Y-25500000D01*
X5900000Y-30500000D02*
X5900000Y-28100000D01*
X2600000Y-33800000D02*
X700000Y-33800000D01*
%TO.N,Net-(R5-Pad2)*%
X27020000Y-27150000D02*
X28671000Y-25499000D01*
X28671000Y-25499000D02*
X30759000Y-25499000D01*
%TO.N,PA2*%
X22402400Y-55140800D02*
X22453200Y-55191600D01*
X22351600Y-55090000D02*
X22453200Y-55191600D01*
X16154000Y-55090000D02*
X22351600Y-55090000D01*
%TO.N,NSS*%
X22570000Y-46083200D02*
X22570000Y-37850000D01*
X17525600Y-51127600D02*
X22570000Y-46083200D01*
X17525600Y-53058000D02*
X17525600Y-51127600D01*
%TO.N,MOSI*%
X26130000Y-46841200D02*
X26130000Y-37850000D01*
X19964000Y-53007200D02*
X26130000Y-46841200D01*
X19222320Y-52783680D02*
X19471240Y-53032600D01*
X19222320Y-50838040D02*
X19222320Y-52783680D01*
X19496640Y-53007200D02*
X19471240Y-53032600D01*
X19964000Y-53007200D02*
X19496640Y-53007200D01*
%TO.N,PB1*%
X34783799Y-54466599D02*
X35204000Y-54886800D01*
X16824589Y-54466599D02*
X34783799Y-54466599D01*
X15290400Y-52932410D02*
X16824589Y-54466599D01*
X15290400Y-50416400D02*
X15290400Y-52932410D01*
%TO.N,Net-(J5-Pad2)*%
X2300000Y-21614000D02*
X2300000Y-21600000D01*
X3950000Y-19950000D02*
X4500000Y-19950000D01*
X1800000Y-22106117D02*
X2300000Y-21614000D01*
X2300000Y-21600000D02*
X3950000Y-19950000D01*
X1800000Y-28000000D02*
X1800000Y-22106117D01*
%TO.N,Net-(J6-Pad2)*%
X5600000Y-47400000D02*
X5600000Y-47100000D01*
X6500000Y-48300000D02*
X5600000Y-47400000D01*
X5600000Y-47100000D02*
X5600000Y-41900000D01*
%TD*%
D21*
%TO.N,GND*%
G36*
X40340000Y-20049231D02*
G01*
X40340001Y-47497636D01*
X40249340Y-47278763D01*
X40082706Y-47029378D01*
X39870622Y-46817294D01*
X39621237Y-46650660D01*
X39344136Y-46535881D01*
X39049966Y-46477367D01*
X38750034Y-46477367D01*
X38455864Y-46535881D01*
X38178763Y-46650660D01*
X37929378Y-46817294D01*
X37717294Y-47029378D01*
X37550660Y-47278763D01*
X37435881Y-47555864D01*
X37377367Y-47850034D01*
X37377367Y-48149966D01*
X37435881Y-48444136D01*
X37550660Y-48721237D01*
X37717294Y-48970622D01*
X37929378Y-49182706D01*
X38178763Y-49349340D01*
X38455864Y-49464119D01*
X38750034Y-49522633D01*
X39049966Y-49522633D01*
X39344136Y-49464119D01*
X39621237Y-49349340D01*
X39870622Y-49182706D01*
X40082706Y-48970622D01*
X40249340Y-48721237D01*
X40340001Y-48502364D01*
X40340001Y-69340000D01*
X-2340000Y-69340000D01*
X-2340000Y-50829400D01*
X432090Y-50829400D01*
X462762Y-50930528D01*
X570527Y-51163629D01*
X721697Y-51371227D01*
X910463Y-51545344D01*
X1129570Y-51679289D01*
X1370599Y-51767915D01*
X1573000Y-51645085D01*
X1573000Y-50627000D01*
X1827000Y-50627000D01*
X1827000Y-51645085D01*
X2029401Y-51767915D01*
X2270430Y-51679289D01*
X2489537Y-51545344D01*
X2678303Y-51371227D01*
X2829473Y-51163629D01*
X2937238Y-50930528D01*
X2967910Y-50829400D01*
X2844224Y-50627000D01*
X1827000Y-50627000D01*
X1573000Y-50627000D01*
X555776Y-50627000D01*
X432090Y-50829400D01*
X-2340000Y-50829400D01*
X-2340000Y-48502364D01*
X-2249340Y-48721237D01*
X-2082706Y-48970622D01*
X-1870622Y-49182706D01*
X-1621237Y-49349340D01*
X-1344136Y-49464119D01*
X-1049966Y-49522633D01*
X-750034Y-49522633D01*
X-455864Y-49464119D01*
X-178763Y-49349340D01*
X70622Y-49182706D01*
X282706Y-48970622D01*
X417747Y-48768519D01*
X440342Y-48882113D01*
X539093Y-49120518D01*
X682456Y-49335077D01*
X854060Y-49506681D01*
X721697Y-49628773D01*
X570527Y-49836371D01*
X462762Y-50069472D01*
X432090Y-50170600D01*
X555776Y-50373000D01*
X1573000Y-50373000D01*
X1573000Y-50353000D01*
X1827000Y-50353000D01*
X1827000Y-50373000D01*
X2844224Y-50373000D01*
X2967910Y-50170600D01*
X2937238Y-50069472D01*
X2829473Y-49836371D01*
X2678303Y-49628773D01*
X2545940Y-49506681D01*
X2717544Y-49335077D01*
X2860907Y-49120518D01*
X2959658Y-48882113D01*
X3010000Y-48629024D01*
X3010000Y-48370976D01*
X2959658Y-48117887D01*
X2860907Y-47879482D01*
X2739303Y-47697487D01*
X2826185Y-47626185D01*
X2905537Y-47529494D01*
X2964502Y-47419180D01*
X3000812Y-47299482D01*
X3013072Y-47175000D01*
X3013072Y-45825000D01*
X3000812Y-45700518D01*
X2964502Y-45580820D01*
X2905537Y-45470506D01*
X2826185Y-45373815D01*
X2729494Y-45294463D01*
X2619180Y-45235498D01*
X2499482Y-45199188D01*
X2375000Y-45186928D01*
X1025000Y-45186928D01*
X900518Y-45199188D01*
X780820Y-45235498D01*
X670506Y-45294463D01*
X573815Y-45373815D01*
X494463Y-45470506D01*
X435498Y-45580820D01*
X399188Y-45700518D01*
X386928Y-45825000D01*
X386928Y-47175000D01*
X388124Y-47187148D01*
X282706Y-47029378D01*
X70622Y-46817294D01*
X-178763Y-46650660D01*
X-455864Y-46535881D01*
X-750034Y-46477367D01*
X-1049966Y-46477367D01*
X-1344136Y-46535881D01*
X-1621237Y-46650660D01*
X-1870622Y-46817294D01*
X-2082706Y-47029378D01*
X-2249340Y-47278763D01*
X-2340000Y-47497636D01*
X-2340000Y-42575000D01*
X2286928Y-42575000D01*
X2299188Y-42699482D01*
X2335498Y-42819180D01*
X2394463Y-42929494D01*
X2473815Y-43026185D01*
X2570506Y-43105537D01*
X2680820Y-43164502D01*
X2800518Y-43200812D01*
X2925000Y-43213072D01*
X3314250Y-43210000D01*
X3473000Y-43051250D01*
X3473000Y-42027000D01*
X2448750Y-42027000D01*
X2290000Y-42185750D01*
X2286928Y-42575000D01*
X-2340000Y-42575000D01*
X-2340000Y-41225000D01*
X2286928Y-41225000D01*
X2290000Y-41614250D01*
X2448750Y-41773000D01*
X3473000Y-41773000D01*
X3473000Y-40748750D01*
X3314250Y-40590000D01*
X2925000Y-40586928D01*
X2800518Y-40599188D01*
X2680820Y-40635498D01*
X2570506Y-40694463D01*
X2473815Y-40773815D01*
X2394463Y-40870506D01*
X2335498Y-40980820D01*
X2299188Y-41100518D01*
X2286928Y-41225000D01*
X-2340000Y-41225000D01*
X-2340000Y-38129400D01*
X-567910Y-38129400D01*
X-537238Y-38230528D01*
X-429473Y-38463629D01*
X-278303Y-38671227D01*
X-89537Y-38845344D01*
X129570Y-38979289D01*
X370599Y-39067915D01*
X573000Y-38945085D01*
X573000Y-37927000D01*
X827000Y-37927000D01*
X827000Y-38945085D01*
X1029401Y-39067915D01*
X1270430Y-38979289D01*
X1489537Y-38845344D01*
X1678303Y-38671227D01*
X1829473Y-38463629D01*
X1937238Y-38230528D01*
X1967910Y-38129400D01*
X1844224Y-37927000D01*
X827000Y-37927000D01*
X573000Y-37927000D01*
X-444224Y-37927000D01*
X-567910Y-38129400D01*
X-2340000Y-38129400D01*
X-2340000Y-31125000D01*
X-613072Y-31125000D01*
X-613072Y-32475000D01*
X-600812Y-32599482D01*
X-564502Y-32719180D01*
X-505537Y-32829494D01*
X-426185Y-32926185D01*
X-339303Y-32997487D01*
X-460907Y-33179482D01*
X-559658Y-33417887D01*
X-610000Y-33670976D01*
X-610000Y-33929024D01*
X-559658Y-34182113D01*
X-460907Y-34420518D01*
X-317544Y-34635077D01*
X-152621Y-34800000D01*
X-317544Y-34964923D01*
X-460907Y-35179482D01*
X-559658Y-35417887D01*
X-610000Y-35670976D01*
X-610000Y-35929024D01*
X-559658Y-36182113D01*
X-460907Y-36420518D01*
X-317544Y-36635077D01*
X-145940Y-36806681D01*
X-278303Y-36928773D01*
X-429473Y-37136371D01*
X-537238Y-37369472D01*
X-567910Y-37470600D01*
X-444224Y-37673000D01*
X573000Y-37673000D01*
X573000Y-37653000D01*
X827000Y-37653000D01*
X827000Y-37673000D01*
X1844224Y-37673000D01*
X1967910Y-37470600D01*
X1937238Y-37369472D01*
X1829473Y-37136371D01*
X1678303Y-36928773D01*
X1545940Y-36806681D01*
X1717544Y-36635077D01*
X1767709Y-36560000D01*
X4062408Y-36560000D01*
X4197199Y-36573276D01*
X4197200Y-36573276D01*
X4346185Y-36558602D01*
X4489446Y-36515146D01*
X4621476Y-36444574D01*
X4708202Y-36373399D01*
X4708207Y-36373394D01*
X4737200Y-36349600D01*
X4760993Y-36320608D01*
X6552801Y-34528802D01*
X7915000Y-35891002D01*
X7915000Y-40626992D01*
X7729024Y-40590000D01*
X7470976Y-40590000D01*
X7217887Y-40640342D01*
X6979482Y-40739093D01*
X6764923Y-40882456D01*
X6600000Y-41047379D01*
X6435077Y-40882456D01*
X6220518Y-40739093D01*
X5982113Y-40640342D01*
X5729024Y-40590000D01*
X5470976Y-40590000D01*
X5217887Y-40640342D01*
X4979482Y-40739093D01*
X4797487Y-40860697D01*
X4726185Y-40773815D01*
X4629494Y-40694463D01*
X4519180Y-40635498D01*
X4399482Y-40599188D01*
X4275000Y-40586928D01*
X3885750Y-40590000D01*
X3727000Y-40748750D01*
X3727000Y-41773000D01*
X3747000Y-41773000D01*
X3747000Y-42027000D01*
X3727000Y-42027000D01*
X3727000Y-43051250D01*
X3885750Y-43210000D01*
X4275000Y-43213072D01*
X4399482Y-43200812D01*
X4519180Y-43164502D01*
X4629494Y-43105537D01*
X4726185Y-43026185D01*
X4797487Y-42939303D01*
X4840001Y-42967709D01*
X4840000Y-47062667D01*
X4840000Y-47362678D01*
X4836324Y-47400000D01*
X4840000Y-47437322D01*
X4840000Y-47437332D01*
X4850997Y-47548985D01*
X4879281Y-47642226D01*
X4894454Y-47692246D01*
X4965026Y-47824276D01*
X4993133Y-47858524D01*
X5059999Y-47940001D01*
X5089002Y-47963803D01*
X5465000Y-48339801D01*
X5465000Y-48401939D01*
X5504774Y-48601898D01*
X5582795Y-48790256D01*
X5696063Y-48959774D01*
X5804243Y-49067954D01*
X5519997Y-49352200D01*
X5490999Y-49375998D01*
X5467201Y-49404996D01*
X5467200Y-49404997D01*
X5396025Y-49491723D01*
X5325453Y-49623753D01*
X5302264Y-49700201D01*
X5281997Y-49767013D01*
X5279512Y-49792246D01*
X5267323Y-49915999D01*
X5271000Y-49953331D01*
X5270999Y-61793677D01*
X5267323Y-61830999D01*
X5270999Y-61868321D01*
X5270999Y-61868331D01*
X5281996Y-61979984D01*
X5304502Y-62054176D01*
X5325453Y-62123245D01*
X5396025Y-62255275D01*
X5435870Y-62303825D01*
X5490998Y-62371000D01*
X5520002Y-62394803D01*
X10692401Y-67567203D01*
X10716199Y-67596201D01*
X10745197Y-67619999D01*
X10831923Y-67691174D01*
X10963953Y-67761746D01*
X11107214Y-67805203D01*
X11218867Y-67816200D01*
X11218876Y-67816200D01*
X11256199Y-67819876D01*
X11293522Y-67816200D01*
X25268659Y-67816200D01*
X25355880Y-67946735D01*
X25550465Y-68141320D01*
X25779273Y-68294205D01*
X26033510Y-68399514D01*
X26303408Y-68453200D01*
X26578592Y-68453200D01*
X26848490Y-68399514D01*
X27102727Y-68294205D01*
X27331535Y-68141320D01*
X27526120Y-67946735D01*
X27679005Y-67717927D01*
X27784314Y-67463690D01*
X27838000Y-67193792D01*
X27838000Y-66918608D01*
X27784314Y-66648710D01*
X27679005Y-66394473D01*
X27526120Y-66165665D01*
X27331535Y-65971080D01*
X27102727Y-65818195D01*
X26967290Y-65762095D01*
X26441000Y-65235805D01*
X25914710Y-65762095D01*
X25779273Y-65818195D01*
X25550465Y-65971080D01*
X25355880Y-66165665D01*
X25268659Y-66296200D01*
X11571002Y-66296200D01*
X8783002Y-63508200D01*
X19666928Y-63508200D01*
X19666928Y-64858200D01*
X19679188Y-64982682D01*
X19715498Y-65102380D01*
X19774463Y-65212694D01*
X19853815Y-65309385D01*
X19950506Y-65388737D01*
X20060820Y-65447702D01*
X20180518Y-65484012D01*
X20305000Y-65496272D01*
X21655000Y-65496272D01*
X21779482Y-65484012D01*
X21899180Y-65447702D01*
X22009494Y-65388737D01*
X22106185Y-65309385D01*
X22185537Y-65212694D01*
X22230691Y-65128217D01*
X25039090Y-65128217D01*
X25080078Y-65400333D01*
X25173364Y-65659223D01*
X25235344Y-65775180D01*
X25475435Y-65842160D01*
X26261395Y-65056200D01*
X26620605Y-65056200D01*
X27406565Y-65842160D01*
X27646656Y-65775180D01*
X27763756Y-65526152D01*
X27830023Y-65259065D01*
X27842910Y-64984183D01*
X27801922Y-64712067D01*
X27708636Y-64453177D01*
X27646656Y-64337220D01*
X27406565Y-64270240D01*
X26620605Y-65056200D01*
X26261395Y-65056200D01*
X25475435Y-64270240D01*
X25235344Y-64337220D01*
X25118244Y-64586248D01*
X25051977Y-64853335D01*
X25039090Y-65128217D01*
X22230691Y-65128217D01*
X22244502Y-65102380D01*
X22280812Y-64982682D01*
X22293072Y-64858200D01*
X22293072Y-63508200D01*
X22280812Y-63383718D01*
X22244502Y-63264020D01*
X22185537Y-63153706D01*
X22106185Y-63057015D01*
X22019303Y-62985713D01*
X22140907Y-62803718D01*
X22239658Y-62565313D01*
X22290000Y-62312224D01*
X22290000Y-62054176D01*
X22239658Y-61801087D01*
X22140907Y-61562682D01*
X21997544Y-61348123D01*
X21825940Y-61176519D01*
X21958303Y-61054427D01*
X22109473Y-60846829D01*
X22217238Y-60613728D01*
X22247910Y-60512600D01*
X22124224Y-60310200D01*
X21107000Y-60310200D01*
X21107000Y-60330200D01*
X20853000Y-60330200D01*
X20853000Y-60310200D01*
X19835776Y-60310200D01*
X19712090Y-60512600D01*
X19742762Y-60613728D01*
X19850527Y-60846829D01*
X20001697Y-61054427D01*
X20134060Y-61176519D01*
X19962456Y-61348123D01*
X19819093Y-61562682D01*
X19720342Y-61801087D01*
X19670000Y-62054176D01*
X19670000Y-62312224D01*
X19720342Y-62565313D01*
X19819093Y-62803718D01*
X19940697Y-62985713D01*
X19853815Y-63057015D01*
X19774463Y-63153706D01*
X19715498Y-63264020D01*
X19679188Y-63383718D01*
X19666928Y-63508200D01*
X8783002Y-63508200D01*
X6790999Y-61516198D01*
X6790999Y-54765800D01*
X11322039Y-59296841D01*
X11345838Y-59325840D01*
X11461563Y-59420813D01*
X11593592Y-59491385D01*
X11736853Y-59534842D01*
X11848506Y-59545839D01*
X11848514Y-59545839D01*
X11885839Y-59549515D01*
X11923164Y-59545839D01*
X12371038Y-59545839D01*
X12519395Y-59694196D01*
X12543198Y-59723200D01*
X12658923Y-59818173D01*
X12790952Y-59888745D01*
X12934213Y-59932202D01*
X13045866Y-59943199D01*
X13045876Y-59943199D01*
X13083199Y-59946875D01*
X13120522Y-59943199D01*
X19766721Y-59943199D01*
X19835776Y-60056200D01*
X20853000Y-60056200D01*
X20853000Y-60036200D01*
X21107000Y-60036200D01*
X21107000Y-60056200D01*
X22124224Y-60056200D01*
X22193279Y-59943199D01*
X22253198Y-59943199D01*
X25074628Y-62764630D01*
X25044000Y-62918608D01*
X25044000Y-63193792D01*
X25097686Y-63463690D01*
X25202995Y-63717927D01*
X25355880Y-63946735D01*
X25550465Y-64141320D01*
X25779273Y-64294205D01*
X25914710Y-64350305D01*
X26441000Y-64876595D01*
X26967290Y-64350305D01*
X27102727Y-64294205D01*
X27331535Y-64141320D01*
X27526120Y-63946735D01*
X27679005Y-63717927D01*
X27784314Y-63463690D01*
X27838000Y-63193792D01*
X27838000Y-62918608D01*
X27784314Y-62648710D01*
X27679005Y-62394473D01*
X27526120Y-62165665D01*
X27416655Y-62056200D01*
X27526120Y-61946735D01*
X27679005Y-61717927D01*
X27784314Y-61463690D01*
X27838000Y-61193792D01*
X27838000Y-60918608D01*
X27784314Y-60648710D01*
X27679005Y-60394473D01*
X27526120Y-60165665D01*
X27331535Y-59971080D01*
X27102727Y-59818195D01*
X26848490Y-59712886D01*
X26578592Y-59659200D01*
X26303408Y-59659200D01*
X26149430Y-59689828D01*
X25502780Y-59043179D01*
X25765383Y-59043179D01*
X25907261Y-59071400D01*
X26111139Y-59071400D01*
X26311098Y-59031626D01*
X26499456Y-58953605D01*
X26668974Y-58840337D01*
X26813137Y-58696174D01*
X26926405Y-58526656D01*
X27004426Y-58338298D01*
X27044200Y-58138339D01*
X27044200Y-57934461D01*
X27004426Y-57734502D01*
X26926405Y-57546144D01*
X26813137Y-57376626D01*
X26668974Y-57232463D01*
X26499456Y-57119195D01*
X26311098Y-57041174D01*
X26111139Y-57001400D01*
X25907261Y-57001400D01*
X25707302Y-57041174D01*
X25518944Y-57119195D01*
X25349426Y-57232463D01*
X25308710Y-57273179D01*
X13874354Y-57273179D01*
X13025800Y-56424626D01*
X13025800Y-37329321D01*
X13103637Y-37393200D01*
X13226980Y-37459128D01*
X13360816Y-37499727D01*
X13500000Y-37513435D01*
X13534877Y-37510000D01*
X15961965Y-37510000D01*
X15920000Y-37720976D01*
X15920000Y-37979024D01*
X15970342Y-38232113D01*
X16069093Y-38470518D01*
X16212456Y-38685077D01*
X16394923Y-38867544D01*
X16609482Y-39010907D01*
X16847887Y-39109658D01*
X17100976Y-39160000D01*
X17359024Y-39160000D01*
X17612113Y-39109658D01*
X17850518Y-39010907D01*
X18065077Y-38867544D01*
X18140000Y-38792621D01*
X18214923Y-38867544D01*
X18429482Y-39010907D01*
X18667887Y-39109658D01*
X18920976Y-39160000D01*
X19179024Y-39160000D01*
X19432113Y-39109658D01*
X19670518Y-39010907D01*
X19885077Y-38867544D01*
X19920000Y-38832621D01*
X19954923Y-38867544D01*
X20169482Y-39010907D01*
X20407887Y-39109658D01*
X20660976Y-39160000D01*
X20919024Y-39160000D01*
X21172113Y-39109658D01*
X21410518Y-39010907D01*
X21625077Y-38867544D01*
X21680000Y-38812621D01*
X21734923Y-38867544D01*
X21810001Y-38917709D01*
X21810000Y-45768398D01*
X19809600Y-47768798D01*
X19809600Y-44008111D01*
X19853537Y-43964174D01*
X19966805Y-43794656D01*
X20044826Y-43606298D01*
X20084600Y-43406339D01*
X20084600Y-43202461D01*
X20044826Y-43002502D01*
X19966805Y-42814144D01*
X19853537Y-42644626D01*
X19709374Y-42500463D01*
X19539856Y-42387195D01*
X19351498Y-42309174D01*
X19151539Y-42269400D01*
X18947661Y-42269400D01*
X18747702Y-42309174D01*
X18559344Y-42387195D01*
X18389826Y-42500463D01*
X18245663Y-42644626D01*
X18132395Y-42814144D01*
X18054374Y-43002502D01*
X18014600Y-43202461D01*
X18014600Y-43406339D01*
X18054374Y-43606298D01*
X18132395Y-43794656D01*
X18245663Y-43964174D01*
X18289600Y-44008111D01*
X18289601Y-48323597D01*
X16320977Y-50292222D01*
X16285626Y-50114502D01*
X16207605Y-49926144D01*
X16094337Y-49756626D01*
X15950174Y-49612463D01*
X15780656Y-49499195D01*
X15592298Y-49421174D01*
X15392339Y-49381400D01*
X15188461Y-49381400D01*
X14988502Y-49421174D01*
X14800144Y-49499195D01*
X14630626Y-49612463D01*
X14486463Y-49756626D01*
X14373195Y-49926144D01*
X14295174Y-50114502D01*
X14255400Y-50314461D01*
X14255400Y-50518339D01*
X14295174Y-50718298D01*
X14373195Y-50906656D01*
X14486463Y-51076174D01*
X14530400Y-51120111D01*
X14530401Y-52895078D01*
X14526724Y-52932410D01*
X14530401Y-52969743D01*
X14541398Y-53081396D01*
X14553653Y-53121797D01*
X14584854Y-53224656D01*
X14655426Y-53356686D01*
X14725094Y-53441576D01*
X14750400Y-53472411D01*
X14779398Y-53496209D01*
X15539201Y-54256012D01*
X15494226Y-54286063D01*
X15350063Y-54430226D01*
X15236795Y-54599744D01*
X15158774Y-54788102D01*
X15119000Y-54988061D01*
X15119000Y-55191939D01*
X15158774Y-55391898D01*
X15236795Y-55580256D01*
X15350063Y-55749774D01*
X15494226Y-55893937D01*
X15663744Y-56007205D01*
X15852102Y-56085226D01*
X16052061Y-56125000D01*
X16255939Y-56125000D01*
X16455898Y-56085226D01*
X16644256Y-56007205D01*
X16813774Y-55893937D01*
X16857711Y-55850000D01*
X21648345Y-55850000D01*
X21649263Y-55851374D01*
X21793426Y-55995537D01*
X21962944Y-56108805D01*
X22151302Y-56186826D01*
X22351261Y-56226600D01*
X22555139Y-56226600D01*
X22755098Y-56186826D01*
X22943456Y-56108805D01*
X23112974Y-55995537D01*
X23257137Y-55851374D01*
X23370405Y-55681856D01*
X23448426Y-55493498D01*
X23488200Y-55293539D01*
X23488200Y-55226599D01*
X34224473Y-55226599D01*
X34286795Y-55377056D01*
X34400063Y-55546574D01*
X34544226Y-55690737D01*
X34713744Y-55804005D01*
X34902102Y-55882026D01*
X35102061Y-55921800D01*
X35305939Y-55921800D01*
X35505898Y-55882026D01*
X35694256Y-55804005D01*
X35863774Y-55690737D01*
X36007937Y-55546574D01*
X36121205Y-55377056D01*
X36199226Y-55188698D01*
X36239000Y-54988739D01*
X36239000Y-54784861D01*
X36199226Y-54584902D01*
X36121205Y-54396544D01*
X36007937Y-54227026D01*
X35863774Y-54082863D01*
X35694256Y-53969595D01*
X35505898Y-53891574D01*
X35305939Y-53851800D01*
X35232658Y-53851800D01*
X35208075Y-53831625D01*
X35076046Y-53761053D01*
X34932785Y-53717596D01*
X34821132Y-53706599D01*
X34821121Y-53706599D01*
X34783799Y-53702923D01*
X34746477Y-53706599D01*
X23946202Y-53706599D01*
X28335003Y-49317800D01*
X28397139Y-49317800D01*
X28597098Y-49278026D01*
X28785456Y-49200005D01*
X28954974Y-49086737D01*
X29099137Y-48942574D01*
X29212405Y-48773056D01*
X29290426Y-48584698D01*
X29330200Y-48384739D01*
X29330200Y-48322601D01*
X32565403Y-45087399D01*
X32594401Y-45063601D01*
X32689374Y-44947876D01*
X32759946Y-44815847D01*
X32803403Y-44672586D01*
X32814400Y-44560933D01*
X32818077Y-44523600D01*
X32814400Y-44486267D01*
X32814400Y-25256923D01*
X32818076Y-25219600D01*
X32814400Y-25182277D01*
X32814400Y-25182267D01*
X32803403Y-25070614D01*
X32759946Y-24927353D01*
X32755061Y-24918214D01*
X32689374Y-24795323D01*
X32635726Y-24729954D01*
X32594401Y-24679599D01*
X32565398Y-24655797D01*
X32172603Y-24263002D01*
X32148800Y-24233998D01*
X32033075Y-24139025D01*
X31901046Y-24068453D01*
X31757785Y-24024996D01*
X31646132Y-24013999D01*
X31646121Y-24013999D01*
X31608799Y-24010323D01*
X31571477Y-24013999D01*
X28574926Y-24013999D01*
X28537601Y-24010323D01*
X28500276Y-24013999D01*
X28500268Y-24013999D01*
X28388615Y-24024996D01*
X28245354Y-24068453D01*
X28113325Y-24139025D01*
X27997600Y-24233998D01*
X27973801Y-24262997D01*
X27561299Y-24675500D01*
X24477711Y-24675500D01*
X24433774Y-24631563D01*
X24264256Y-24518295D01*
X24075898Y-24440274D01*
X23875939Y-24400500D01*
X23672061Y-24400500D01*
X23472102Y-24440274D01*
X23283744Y-24518295D01*
X23114226Y-24631563D01*
X22970063Y-24775726D01*
X22914013Y-24859611D01*
X22610604Y-24556203D01*
X22586801Y-24527199D01*
X22471076Y-24432226D01*
X22339047Y-24361654D01*
X22195786Y-24318197D01*
X22084133Y-24307200D01*
X22084122Y-24307200D01*
X22046800Y-24303524D01*
X22009478Y-24307200D01*
X15480125Y-24307200D01*
X15442800Y-24303524D01*
X15405475Y-24307200D01*
X15405467Y-24307200D01*
X15293814Y-24318197D01*
X15150553Y-24361654D01*
X15018524Y-24432226D01*
X14902799Y-24527199D01*
X14879001Y-24556197D01*
X13299199Y-26136000D01*
X9644111Y-26136000D01*
X9600174Y-26092063D01*
X9430656Y-25978795D01*
X9242298Y-25900774D01*
X9156643Y-25883736D01*
X9205546Y-25792247D01*
X9249003Y-25648986D01*
X9260000Y-25537333D01*
X9260000Y-25537324D01*
X9263676Y-25500001D01*
X9260000Y-25462678D01*
X9260000Y-22738072D01*
X9500000Y-22738072D01*
X9624482Y-22725812D01*
X9744180Y-22689502D01*
X9854494Y-22630537D01*
X9951185Y-22551185D01*
X10030537Y-22454494D01*
X10089502Y-22344180D01*
X10125812Y-22224482D01*
X10138072Y-22100000D01*
X10138072Y-20835331D01*
X35328090Y-20835331D01*
X35328090Y-21164669D01*
X35392340Y-21487678D01*
X35518372Y-21791947D01*
X35701342Y-22065781D01*
X35934219Y-22298658D01*
X36208053Y-22481628D01*
X36512322Y-22607660D01*
X36835331Y-22671910D01*
X37164669Y-22671910D01*
X37487678Y-22607660D01*
X37791947Y-22481628D01*
X38065781Y-22298658D01*
X38298658Y-22065781D01*
X38481628Y-21791947D01*
X38607660Y-21487678D01*
X38671910Y-21164669D01*
X38671910Y-20835331D01*
X38607660Y-20512322D01*
X38481628Y-20208053D01*
X38298658Y-19934219D01*
X38065781Y-19701342D01*
X37791947Y-19518372D01*
X37487678Y-19392340D01*
X37164669Y-19328090D01*
X36835331Y-19328090D01*
X36512322Y-19392340D01*
X36208053Y-19518372D01*
X35934219Y-19701342D01*
X35701342Y-19934219D01*
X35518372Y-20208053D01*
X35392340Y-20512322D01*
X35328090Y-20835331D01*
X10138072Y-20835331D01*
X10138072Y-20100000D01*
X10125812Y-19975518D01*
X10089502Y-19855820D01*
X10030537Y-19745506D01*
X9951185Y-19648815D01*
X9854494Y-19569463D01*
X9744180Y-19510498D01*
X9624482Y-19474188D01*
X9500000Y-19461928D01*
X7500000Y-19461928D01*
X7375518Y-19474188D01*
X7255820Y-19510498D01*
X7145506Y-19569463D01*
X7048815Y-19648815D01*
X6969463Y-19745506D01*
X6910498Y-19855820D01*
X6874188Y-19975518D01*
X6861928Y-20100000D01*
X6861928Y-22100000D01*
X6874188Y-22224482D01*
X6910498Y-22344180D01*
X6969463Y-22454494D01*
X7048815Y-22551185D01*
X7145506Y-22630537D01*
X7255820Y-22689502D01*
X7375518Y-22725812D01*
X7500000Y-22738072D01*
X7740000Y-22738072D01*
X7740001Y-25185197D01*
X5388998Y-27536201D01*
X5360000Y-27559999D01*
X5336202Y-27588997D01*
X5336201Y-27588998D01*
X5265026Y-27675724D01*
X5194454Y-27807754D01*
X5150998Y-27951015D01*
X5136324Y-28100000D01*
X5140001Y-28137332D01*
X5140000Y-30185198D01*
X2285199Y-33040000D01*
X1767709Y-33040000D01*
X1739303Y-32997487D01*
X1826185Y-32926185D01*
X1905537Y-32829494D01*
X1964502Y-32719180D01*
X2000812Y-32599482D01*
X2013072Y-32475000D01*
X2013072Y-31125000D01*
X2000812Y-31000518D01*
X1964502Y-30880820D01*
X1905537Y-30770506D01*
X1826185Y-30673815D01*
X1729494Y-30594463D01*
X1619180Y-30535498D01*
X1499482Y-30499188D01*
X1375000Y-30486928D01*
X25000Y-30486928D01*
X-99482Y-30499188D01*
X-219180Y-30535498D01*
X-329494Y-30594463D01*
X-426185Y-30673815D01*
X-505537Y-30770506D01*
X-564502Y-30880820D01*
X-600812Y-31000518D01*
X-613072Y-31125000D01*
X-2340000Y-31125000D01*
X-2340000Y-27325000D01*
X-1513072Y-27325000D01*
X-1513072Y-28675000D01*
X-1500812Y-28799482D01*
X-1464502Y-28919180D01*
X-1405537Y-29029494D01*
X-1326185Y-29126185D01*
X-1229494Y-29205537D01*
X-1119180Y-29264502D01*
X-999482Y-29300812D01*
X-875000Y-29313072D01*
X475000Y-29313072D01*
X599482Y-29300812D01*
X719180Y-29264502D01*
X829494Y-29205537D01*
X926185Y-29126185D01*
X997487Y-29039303D01*
X1179482Y-29160907D01*
X1417887Y-29259658D01*
X1670976Y-29310000D01*
X1929024Y-29310000D01*
X2182113Y-29259658D01*
X2420518Y-29160907D01*
X2635077Y-29017544D01*
X2806681Y-28845940D01*
X2928773Y-28978303D01*
X3136371Y-29129473D01*
X3369472Y-29237238D01*
X3470600Y-29267910D01*
X3673000Y-29144224D01*
X3673000Y-28127000D01*
X3927000Y-28127000D01*
X3927000Y-29144224D01*
X4129400Y-29267910D01*
X4230528Y-29237238D01*
X4463629Y-29129473D01*
X4671227Y-28978303D01*
X4845344Y-28789537D01*
X4979289Y-28570430D01*
X5067915Y-28329401D01*
X4945085Y-28127000D01*
X3927000Y-28127000D01*
X3673000Y-28127000D01*
X3653000Y-28127000D01*
X3653000Y-27873000D01*
X3673000Y-27873000D01*
X3673000Y-26855776D01*
X3927000Y-26855776D01*
X3927000Y-27873000D01*
X4945085Y-27873000D01*
X5067915Y-27670599D01*
X4979289Y-27429570D01*
X4845344Y-27210463D01*
X4671227Y-27021697D01*
X4463629Y-26870527D01*
X4230528Y-26762762D01*
X4129400Y-26732090D01*
X3927000Y-26855776D01*
X3673000Y-26855776D01*
X3470600Y-26732090D01*
X3369472Y-26762762D01*
X3136371Y-26870527D01*
X2928773Y-27021697D01*
X2806681Y-27154060D01*
X2635077Y-26982456D01*
X2560000Y-26932291D01*
X2560000Y-22424462D01*
X2808662Y-22179720D01*
X2840001Y-22154001D01*
X2861928Y-22127283D01*
X2861928Y-22900000D01*
X2874188Y-23024482D01*
X2910498Y-23144180D01*
X2969463Y-23254494D01*
X3048815Y-23351185D01*
X3145506Y-23430537D01*
X3255820Y-23489502D01*
X3375518Y-23525812D01*
X3500000Y-23538072D01*
X5500000Y-23538072D01*
X5624482Y-23525812D01*
X5744180Y-23489502D01*
X5854494Y-23430537D01*
X5951185Y-23351185D01*
X6030537Y-23254494D01*
X6089502Y-23144180D01*
X6125812Y-23024482D01*
X6138072Y-22900000D01*
X6138072Y-21600000D01*
X6125812Y-21475518D01*
X6089502Y-21355820D01*
X6030537Y-21245506D01*
X5951185Y-21148815D01*
X5891704Y-21100000D01*
X5951185Y-21051185D01*
X6030537Y-20954494D01*
X6089502Y-20844180D01*
X6125812Y-20724482D01*
X6138072Y-20600000D01*
X6138072Y-19300000D01*
X6125812Y-19175518D01*
X6089502Y-19055820D01*
X6030537Y-18945506D01*
X5951185Y-18848815D01*
X5854494Y-18769463D01*
X5744180Y-18710498D01*
X5624482Y-18674188D01*
X5500000Y-18661928D01*
X3500000Y-18661928D01*
X3375518Y-18674188D01*
X3255820Y-18710498D01*
X3145506Y-18769463D01*
X3048815Y-18848815D01*
X2969463Y-18945506D01*
X2910498Y-19055820D01*
X2874188Y-19175518D01*
X2861928Y-19300000D01*
X2861928Y-19963270D01*
X2521320Y-20303878D01*
X2481628Y-20208053D01*
X2298658Y-19934219D01*
X2065781Y-19701342D01*
X1791947Y-19518372D01*
X1487678Y-19392340D01*
X1164669Y-19328090D01*
X835331Y-19328090D01*
X512322Y-19392340D01*
X208053Y-19518372D01*
X-65781Y-19701342D01*
X-298658Y-19934219D01*
X-481628Y-20208053D01*
X-607660Y-20512322D01*
X-671910Y-20835331D01*
X-671910Y-21164669D01*
X-607660Y-21487678D01*
X-481628Y-21791947D01*
X-298658Y-22065781D01*
X-65781Y-22298658D01*
X208053Y-22481628D01*
X512322Y-22607660D01*
X835331Y-22671910D01*
X1040001Y-22671910D01*
X1040000Y-26932291D01*
X997487Y-26960697D01*
X926185Y-26873815D01*
X829494Y-26794463D01*
X719180Y-26735498D01*
X599482Y-26699188D01*
X475000Y-26686928D01*
X-875000Y-26686928D01*
X-999482Y-26699188D01*
X-1119180Y-26735498D01*
X-1229494Y-26794463D01*
X-1326185Y-26873815D01*
X-1405537Y-26970506D01*
X-1464502Y-27080820D01*
X-1500812Y-27200518D01*
X-1513072Y-27325000D01*
X-2340000Y-27325000D01*
X-2340000Y-20049218D01*
X-1040963Y-11388967D01*
X-115000Y-11388967D01*
X-115000Y-11711033D01*
X-52168Y-12026912D01*
X71082Y-12324463D01*
X250013Y-12592252D01*
X477748Y-12819987D01*
X745537Y-12998918D01*
X1043088Y-13122168D01*
X1358967Y-13185000D01*
X1681033Y-13185000D01*
X1996912Y-13122168D01*
X2294463Y-12998918D01*
X2562252Y-12819987D01*
X2696826Y-12685413D01*
X5644192Y-12685413D01*
X5739956Y-12949814D01*
X6029571Y-13090704D01*
X6341108Y-13172384D01*
X6662595Y-13191718D01*
X6981675Y-13147961D01*
X7286088Y-13042795D01*
X7460044Y-12949814D01*
X7555808Y-12685413D01*
X6600000Y-11729605D01*
X5644192Y-12685413D01*
X2696826Y-12685413D01*
X2789987Y-12592252D01*
X2968918Y-12324463D01*
X3092168Y-12026912D01*
X3155000Y-11711033D01*
X3155000Y-11612595D01*
X4958282Y-11612595D01*
X5002039Y-11931675D01*
X5107205Y-12236088D01*
X5200186Y-12410044D01*
X5464587Y-12505808D01*
X6420395Y-11550000D01*
X6779605Y-11550000D01*
X7735413Y-12505808D01*
X7999814Y-12410044D01*
X8140704Y-12120429D01*
X8222384Y-11808892D01*
X8234189Y-11612595D01*
X10038282Y-11612595D01*
X10082039Y-11931675D01*
X10187205Y-12236088D01*
X10280186Y-12410044D01*
X10544587Y-12505808D01*
X11500395Y-11550000D01*
X10544587Y-10594192D01*
X10280186Y-10689956D01*
X10139296Y-10979571D01*
X10057616Y-11291108D01*
X10038282Y-11612595D01*
X8234189Y-11612595D01*
X8241718Y-11487405D01*
X8197961Y-11168325D01*
X8092795Y-10863912D01*
X7999814Y-10689956D01*
X7735413Y-10594192D01*
X6779605Y-11550000D01*
X6420395Y-11550000D01*
X5464587Y-10594192D01*
X5200186Y-10689956D01*
X5059296Y-10979571D01*
X4977616Y-11291108D01*
X4958282Y-11612595D01*
X3155000Y-11612595D01*
X3155000Y-11388967D01*
X3092168Y-11073088D01*
X2968918Y-10775537D01*
X2789987Y-10507748D01*
X2696826Y-10414587D01*
X5644192Y-10414587D01*
X6600000Y-11370395D01*
X7555808Y-10414587D01*
X10724192Y-10414587D01*
X11680000Y-11370395D01*
X11694143Y-11356253D01*
X11873748Y-11535858D01*
X11859605Y-11550000D01*
X11873748Y-11564143D01*
X11694143Y-11743748D01*
X11680000Y-11729605D01*
X10724192Y-12685413D01*
X10819956Y-12949814D01*
X11109571Y-13090704D01*
X11421108Y-13172384D01*
X11742595Y-13191718D01*
X12061675Y-13147961D01*
X12340000Y-13051808D01*
X12340000Y-18967581D01*
X12336807Y-19000000D01*
X12349550Y-19129383D01*
X12387290Y-19253793D01*
X12448575Y-19368450D01*
X12514332Y-19448575D01*
X12531052Y-19468948D01*
X12631550Y-19551425D01*
X12746207Y-19612710D01*
X12870617Y-19650450D01*
X13000000Y-19663193D01*
X13032419Y-19660000D01*
X24967581Y-19660000D01*
X25000000Y-19663193D01*
X25032419Y-19660000D01*
X25055224Y-19657754D01*
X25129383Y-19650450D01*
X25253793Y-19612710D01*
X25368450Y-19551425D01*
X25468948Y-19468948D01*
X25551425Y-19368450D01*
X25612710Y-19253793D01*
X25650450Y-19129383D01*
X25660000Y-19032419D01*
X25660000Y-19032418D01*
X25663193Y-19000000D01*
X25660000Y-18967581D01*
X25660000Y-11514665D01*
X26562000Y-11514665D01*
X26562000Y-11797335D01*
X26617147Y-12074574D01*
X26725320Y-12335727D01*
X26882363Y-12570759D01*
X27082241Y-12770637D01*
X27284827Y-12906000D01*
X27082241Y-13041363D01*
X26882363Y-13241241D01*
X26725320Y-13476273D01*
X26617147Y-13737426D01*
X26562000Y-14014665D01*
X26562000Y-14297335D01*
X26617147Y-14574574D01*
X26725320Y-14835727D01*
X26882363Y-15070759D01*
X27082241Y-15270637D01*
X27317273Y-15427680D01*
X27578426Y-15535853D01*
X27855665Y-15591000D01*
X27985126Y-15591000D01*
X27958928Y-15857000D01*
X27958928Y-16455000D01*
X27990422Y-16774767D01*
X28083695Y-17082246D01*
X28235161Y-17365620D01*
X28439001Y-17613999D01*
X28687380Y-17817839D01*
X28970754Y-17969305D01*
X29278233Y-18062578D01*
X29598000Y-18094072D01*
X30396000Y-18094072D01*
X30715767Y-18062578D01*
X31023246Y-17969305D01*
X31306620Y-17817839D01*
X31554999Y-17613999D01*
X31758839Y-17365620D01*
X31910305Y-17082246D01*
X32003578Y-16774767D01*
X32035072Y-16455000D01*
X32035072Y-15857000D01*
X32003578Y-15537233D01*
X31910305Y-15229754D01*
X31758839Y-14946380D01*
X31554999Y-14698001D01*
X31306620Y-14494161D01*
X31023246Y-14342695D01*
X30715767Y-14249422D01*
X30396000Y-14217928D01*
X29598000Y-14217928D01*
X29432000Y-14234277D01*
X29432000Y-14014665D01*
X29376853Y-13737426D01*
X29268680Y-13476273D01*
X29111637Y-13241241D01*
X28911759Y-13041363D01*
X28709173Y-12906000D01*
X28911759Y-12770637D01*
X29111637Y-12570759D01*
X29268680Y-12335727D01*
X29376853Y-12074574D01*
X29432000Y-11797335D01*
X29432000Y-11514665D01*
X29376853Y-11237426D01*
X29268680Y-10976273D01*
X29111637Y-10741241D01*
X28911759Y-10541363D01*
X28711131Y-10407308D01*
X28738514Y-10392671D01*
X28810097Y-10148702D01*
X27997000Y-9335605D01*
X27183903Y-10148702D01*
X27255486Y-10392671D01*
X27284341Y-10406324D01*
X27082241Y-10541363D01*
X26882363Y-10741241D01*
X26725320Y-10976273D01*
X26617147Y-11237426D01*
X26562000Y-11514665D01*
X25660000Y-11514665D01*
X25660000Y-9226512D01*
X26556783Y-9226512D01*
X26598213Y-9506130D01*
X26693397Y-9772292D01*
X26760329Y-9897514D01*
X27004298Y-9969097D01*
X27817395Y-9156000D01*
X27004298Y-8342903D01*
X26760329Y-8414486D01*
X26639429Y-8669996D01*
X26570700Y-8944184D01*
X26556783Y-9226512D01*
X25660000Y-9226512D01*
X25660000Y-8163298D01*
X27183903Y-8163298D01*
X27997000Y-8976395D01*
X28011143Y-8962253D01*
X28190748Y-9141858D01*
X28176605Y-9156000D01*
X28989702Y-9969097D01*
X29233671Y-9897514D01*
X29354571Y-9642004D01*
X29423300Y-9367816D01*
X29437217Y-9085488D01*
X29436127Y-9078129D01*
X29598000Y-9094072D01*
X30396000Y-9094072D01*
X30715767Y-9062578D01*
X31023246Y-8969305D01*
X31306620Y-8817839D01*
X31554999Y-8613999D01*
X31758839Y-8365620D01*
X31910305Y-8082246D01*
X32003578Y-7774767D01*
X32035072Y-7455000D01*
X32035072Y-6857000D01*
X32003578Y-6537233D01*
X31910305Y-6229754D01*
X31758839Y-5946380D01*
X31554999Y-5698001D01*
X31306620Y-5494161D01*
X31023246Y-5342695D01*
X30715767Y-5249422D01*
X30396000Y-5217928D01*
X29598000Y-5217928D01*
X29278233Y-5249422D01*
X28970754Y-5342695D01*
X28687380Y-5494161D01*
X28439001Y-5698001D01*
X28235161Y-5946380D01*
X28083695Y-6229754D01*
X27990422Y-6537233D01*
X27958928Y-6857000D01*
X27958928Y-7455000D01*
X27984896Y-7718662D01*
X27926488Y-7715783D01*
X27646870Y-7757213D01*
X27380708Y-7852397D01*
X27255486Y-7919329D01*
X27183903Y-8163298D01*
X25660000Y-8163298D01*
X25660000Y-5732419D01*
X25663193Y-5700000D01*
X25650450Y-5570617D01*
X25612710Y-5446207D01*
X25551425Y-5331550D01*
X25468948Y-5231052D01*
X25368450Y-5148575D01*
X25253793Y-5087290D01*
X25129383Y-5049550D01*
X25032419Y-5040000D01*
X25000000Y-5036807D01*
X24967581Y-5040000D01*
X13032419Y-5040000D01*
X13000000Y-5036807D01*
X12967581Y-5040000D01*
X12870617Y-5049550D01*
X12746207Y-5087290D01*
X12631550Y-5148575D01*
X12531052Y-5231052D01*
X12448575Y-5331550D01*
X12387290Y-5446207D01*
X12349550Y-5570617D01*
X12336807Y-5700000D01*
X12340001Y-5732429D01*
X12340001Y-10052870D01*
X12250429Y-10009296D01*
X11938892Y-9927616D01*
X11617405Y-9908282D01*
X11298325Y-9952039D01*
X10993912Y-10057205D01*
X10819956Y-10150186D01*
X10724192Y-10414587D01*
X7555808Y-10414587D01*
X7460044Y-10150186D01*
X7170429Y-10009296D01*
X6858892Y-9927616D01*
X6537405Y-9908282D01*
X6218325Y-9952039D01*
X5913912Y-10057205D01*
X5739956Y-10150186D01*
X5644192Y-10414587D01*
X2696826Y-10414587D01*
X2562252Y-10280013D01*
X2294463Y-10101082D01*
X1996912Y-9977832D01*
X1681033Y-9915000D01*
X1358967Y-9915000D01*
X1043088Y-9977832D01*
X745537Y-10101082D01*
X477748Y-10280013D01*
X250013Y-10507748D01*
X71082Y-10775537D01*
X-52168Y-11073088D01*
X-115000Y-11388967D01*
X-1040963Y-11388967D01*
X69570Y-3985413D01*
X1584192Y-3985413D01*
X1679956Y-4249814D01*
X1969571Y-4390704D01*
X2281108Y-4472384D01*
X2602595Y-4491718D01*
X2921675Y-4447961D01*
X3226088Y-4342795D01*
X3400044Y-4249814D01*
X3495808Y-3985413D01*
X6664192Y-3985413D01*
X6759956Y-4249814D01*
X7049571Y-4390704D01*
X7361108Y-4472384D01*
X7682595Y-4491718D01*
X8001675Y-4447961D01*
X8306088Y-4342795D01*
X8480044Y-4249814D01*
X8575808Y-3985413D01*
X7620000Y-3029605D01*
X6664192Y-3985413D01*
X3495808Y-3985413D01*
X2540000Y-3029605D01*
X1584192Y-3985413D01*
X69570Y-3985413D01*
X230493Y-2912595D01*
X898282Y-2912595D01*
X942039Y-3231675D01*
X1047205Y-3536088D01*
X1140186Y-3710044D01*
X1404587Y-3805808D01*
X2360395Y-2850000D01*
X2719605Y-2850000D01*
X3675413Y-3805808D01*
X3939814Y-3710044D01*
X4080704Y-3420429D01*
X4162384Y-3108892D01*
X4174189Y-2912595D01*
X5978282Y-2912595D01*
X6022039Y-3231675D01*
X6127205Y-3536088D01*
X6220186Y-3710044D01*
X6484587Y-3805808D01*
X7440395Y-2850000D01*
X7799605Y-2850000D01*
X8755413Y-3805808D01*
X9019814Y-3710044D01*
X9160704Y-3420429D01*
X9242384Y-3108892D01*
X9261718Y-2787405D01*
X9248219Y-2688967D01*
X11065000Y-2688967D01*
X11065000Y-3011033D01*
X11127832Y-3326912D01*
X11251082Y-3624463D01*
X11430013Y-3892252D01*
X11657748Y-4119987D01*
X11925537Y-4298918D01*
X12223088Y-4422168D01*
X12538967Y-4485000D01*
X12861033Y-4485000D01*
X13176912Y-4422168D01*
X13474463Y-4298918D01*
X13742252Y-4119987D01*
X13969987Y-3892252D01*
X14148918Y-3624463D01*
X14272168Y-3326912D01*
X14335000Y-3011033D01*
X14335000Y-2688967D01*
X23565000Y-2688967D01*
X23565000Y-3011033D01*
X23627832Y-3326912D01*
X23751082Y-3624463D01*
X23930013Y-3892252D01*
X24157748Y-4119987D01*
X24425537Y-4298918D01*
X24723088Y-4422168D01*
X25038967Y-4485000D01*
X25361033Y-4485000D01*
X25676912Y-4422168D01*
X25974463Y-4298918D01*
X26242252Y-4119987D01*
X26376826Y-3985413D01*
X29324192Y-3985413D01*
X29419956Y-4249814D01*
X29709571Y-4390704D01*
X30021108Y-4472384D01*
X30342595Y-4491718D01*
X30661675Y-4447961D01*
X30966088Y-4342795D01*
X31140044Y-4249814D01*
X31235808Y-3985413D01*
X34404192Y-3985413D01*
X34499956Y-4249814D01*
X34789571Y-4390704D01*
X35101108Y-4472384D01*
X35422595Y-4491718D01*
X35741675Y-4447961D01*
X36046088Y-4342795D01*
X36220044Y-4249814D01*
X36315808Y-3985413D01*
X35360000Y-3029605D01*
X34404192Y-3985413D01*
X31235808Y-3985413D01*
X30280000Y-3029605D01*
X29324192Y-3985413D01*
X26376826Y-3985413D01*
X26469987Y-3892252D01*
X26648918Y-3624463D01*
X26772168Y-3326912D01*
X26835000Y-3011033D01*
X26835000Y-2912595D01*
X28638282Y-2912595D01*
X28682039Y-3231675D01*
X28787205Y-3536088D01*
X28880186Y-3710044D01*
X29144587Y-3805808D01*
X30100395Y-2850000D01*
X30459605Y-2850000D01*
X31415413Y-3805808D01*
X31679814Y-3710044D01*
X31820704Y-3420429D01*
X31902384Y-3108892D01*
X31914189Y-2912595D01*
X33718282Y-2912595D01*
X33762039Y-3231675D01*
X33867205Y-3536088D01*
X33960186Y-3710044D01*
X34224587Y-3805808D01*
X35180395Y-2850000D01*
X35539605Y-2850000D01*
X36495413Y-3805808D01*
X36759814Y-3710044D01*
X36900704Y-3420429D01*
X36982384Y-3108892D01*
X37001718Y-2787405D01*
X36957961Y-2468325D01*
X36852795Y-2163912D01*
X36759814Y-1989956D01*
X36495413Y-1894192D01*
X35539605Y-2850000D01*
X35180395Y-2850000D01*
X34224587Y-1894192D01*
X33960186Y-1989956D01*
X33819296Y-2279571D01*
X33737616Y-2591108D01*
X33718282Y-2912595D01*
X31914189Y-2912595D01*
X31921718Y-2787405D01*
X31877961Y-2468325D01*
X31772795Y-2163912D01*
X31679814Y-1989956D01*
X31415413Y-1894192D01*
X30459605Y-2850000D01*
X30100395Y-2850000D01*
X29144587Y-1894192D01*
X28880186Y-1989956D01*
X28739296Y-2279571D01*
X28657616Y-2591108D01*
X28638282Y-2912595D01*
X26835000Y-2912595D01*
X26835000Y-2688967D01*
X26772168Y-2373088D01*
X26648918Y-2075537D01*
X26469987Y-1807748D01*
X26376826Y-1714587D01*
X29324192Y-1714587D01*
X30280000Y-2670395D01*
X31235808Y-1714587D01*
X34404192Y-1714587D01*
X35360000Y-2670395D01*
X36315808Y-1714587D01*
X36220044Y-1450186D01*
X35930429Y-1309296D01*
X35618892Y-1227616D01*
X35297405Y-1208282D01*
X34978325Y-1252039D01*
X34673912Y-1357205D01*
X34499956Y-1450186D01*
X34404192Y-1714587D01*
X31235808Y-1714587D01*
X31140044Y-1450186D01*
X30850429Y-1309296D01*
X30538892Y-1227616D01*
X30217405Y-1208282D01*
X29898325Y-1252039D01*
X29593912Y-1357205D01*
X29419956Y-1450186D01*
X29324192Y-1714587D01*
X26376826Y-1714587D01*
X26242252Y-1580013D01*
X25974463Y-1401082D01*
X25676912Y-1277832D01*
X25361033Y-1215000D01*
X25038967Y-1215000D01*
X24723088Y-1277832D01*
X24425537Y-1401082D01*
X24157748Y-1580013D01*
X23930013Y-1807748D01*
X23751082Y-2075537D01*
X23627832Y-2373088D01*
X23565000Y-2688967D01*
X14335000Y-2688967D01*
X14272168Y-2373088D01*
X14148918Y-2075537D01*
X13969987Y-1807748D01*
X13742252Y-1580013D01*
X13474463Y-1401082D01*
X13176912Y-1277832D01*
X12861033Y-1215000D01*
X12538967Y-1215000D01*
X12223088Y-1277832D01*
X11925537Y-1401082D01*
X11657748Y-1580013D01*
X11430013Y-1807748D01*
X11251082Y-2075537D01*
X11127832Y-2373088D01*
X11065000Y-2688967D01*
X9248219Y-2688967D01*
X9217961Y-2468325D01*
X9112795Y-2163912D01*
X9019814Y-1989956D01*
X8755413Y-1894192D01*
X7799605Y-2850000D01*
X7440395Y-2850000D01*
X6484587Y-1894192D01*
X6220186Y-1989956D01*
X6079296Y-2279571D01*
X5997616Y-2591108D01*
X5978282Y-2912595D01*
X4174189Y-2912595D01*
X4181718Y-2787405D01*
X4137961Y-2468325D01*
X4032795Y-2163912D01*
X3939814Y-1989956D01*
X3675413Y-1894192D01*
X2719605Y-2850000D01*
X2360395Y-2850000D01*
X1404587Y-1894192D01*
X1140186Y-1989956D01*
X999296Y-2279571D01*
X917616Y-2591108D01*
X898282Y-2912595D01*
X230493Y-2912595D01*
X410194Y-1714587D01*
X1584192Y-1714587D01*
X2540000Y-2670395D01*
X3495808Y-1714587D01*
X6664192Y-1714587D01*
X7620000Y-2670395D01*
X8575808Y-1714587D01*
X8480044Y-1450186D01*
X8190429Y-1309296D01*
X7878892Y-1227616D01*
X7557405Y-1208282D01*
X7238325Y-1252039D01*
X6933912Y-1357205D01*
X6759956Y-1450186D01*
X6664192Y-1714587D01*
X3495808Y-1714587D01*
X3400044Y-1450186D01*
X3110429Y-1309296D01*
X2798892Y-1227616D01*
X2477405Y-1208282D01*
X2158325Y-1252039D01*
X1853912Y-1357205D01*
X1679956Y-1450186D01*
X1584192Y-1714587D01*
X410194Y-1714587D01*
X568383Y-660000D01*
X37431616Y-660000D01*
X40340000Y-20049231D01*
G37*
X40340000Y-20049231D02*
X40340001Y-47497636D01*
X40249340Y-47278763D01*
X40082706Y-47029378D01*
X39870622Y-46817294D01*
X39621237Y-46650660D01*
X39344136Y-46535881D01*
X39049966Y-46477367D01*
X38750034Y-46477367D01*
X38455864Y-46535881D01*
X38178763Y-46650660D01*
X37929378Y-46817294D01*
X37717294Y-47029378D01*
X37550660Y-47278763D01*
X37435881Y-47555864D01*
X37377367Y-47850034D01*
X37377367Y-48149966D01*
X37435881Y-48444136D01*
X37550660Y-48721237D01*
X37717294Y-48970622D01*
X37929378Y-49182706D01*
X38178763Y-49349340D01*
X38455864Y-49464119D01*
X38750034Y-49522633D01*
X39049966Y-49522633D01*
X39344136Y-49464119D01*
X39621237Y-49349340D01*
X39870622Y-49182706D01*
X40082706Y-48970622D01*
X40249340Y-48721237D01*
X40340001Y-48502364D01*
X40340001Y-69340000D01*
X-2340000Y-69340000D01*
X-2340000Y-50829400D01*
X432090Y-50829400D01*
X462762Y-50930528D01*
X570527Y-51163629D01*
X721697Y-51371227D01*
X910463Y-51545344D01*
X1129570Y-51679289D01*
X1370599Y-51767915D01*
X1573000Y-51645085D01*
X1573000Y-50627000D01*
X1827000Y-50627000D01*
X1827000Y-51645085D01*
X2029401Y-51767915D01*
X2270430Y-51679289D01*
X2489537Y-51545344D01*
X2678303Y-51371227D01*
X2829473Y-51163629D01*
X2937238Y-50930528D01*
X2967910Y-50829400D01*
X2844224Y-50627000D01*
X1827000Y-50627000D01*
X1573000Y-50627000D01*
X555776Y-50627000D01*
X432090Y-50829400D01*
X-2340000Y-50829400D01*
X-2340000Y-48502364D01*
X-2249340Y-48721237D01*
X-2082706Y-48970622D01*
X-1870622Y-49182706D01*
X-1621237Y-49349340D01*
X-1344136Y-49464119D01*
X-1049966Y-49522633D01*
X-750034Y-49522633D01*
X-455864Y-49464119D01*
X-178763Y-49349340D01*
X70622Y-49182706D01*
X282706Y-48970622D01*
X417747Y-48768519D01*
X440342Y-48882113D01*
X539093Y-49120518D01*
X682456Y-49335077D01*
X854060Y-49506681D01*
X721697Y-49628773D01*
X570527Y-49836371D01*
X462762Y-50069472D01*
X432090Y-50170600D01*
X555776Y-50373000D01*
X1573000Y-50373000D01*
X1573000Y-50353000D01*
X1827000Y-50353000D01*
X1827000Y-50373000D01*
X2844224Y-50373000D01*
X2967910Y-50170600D01*
X2937238Y-50069472D01*
X2829473Y-49836371D01*
X2678303Y-49628773D01*
X2545940Y-49506681D01*
X2717544Y-49335077D01*
X2860907Y-49120518D01*
X2959658Y-48882113D01*
X3010000Y-48629024D01*
X3010000Y-48370976D01*
X2959658Y-48117887D01*
X2860907Y-47879482D01*
X2739303Y-47697487D01*
X2826185Y-47626185D01*
X2905537Y-47529494D01*
X2964502Y-47419180D01*
X3000812Y-47299482D01*
X3013072Y-47175000D01*
X3013072Y-45825000D01*
X3000812Y-45700518D01*
X2964502Y-45580820D01*
X2905537Y-45470506D01*
X2826185Y-45373815D01*
X2729494Y-45294463D01*
X2619180Y-45235498D01*
X2499482Y-45199188D01*
X2375000Y-45186928D01*
X1025000Y-45186928D01*
X900518Y-45199188D01*
X780820Y-45235498D01*
X670506Y-45294463D01*
X573815Y-45373815D01*
X494463Y-45470506D01*
X435498Y-45580820D01*
X399188Y-45700518D01*
X386928Y-45825000D01*
X386928Y-47175000D01*
X388124Y-47187148D01*
X282706Y-47029378D01*
X70622Y-46817294D01*
X-178763Y-46650660D01*
X-455864Y-46535881D01*
X-750034Y-46477367D01*
X-1049966Y-46477367D01*
X-1344136Y-46535881D01*
X-1621237Y-46650660D01*
X-1870622Y-46817294D01*
X-2082706Y-47029378D01*
X-2249340Y-47278763D01*
X-2340000Y-47497636D01*
X-2340000Y-42575000D01*
X2286928Y-42575000D01*
X2299188Y-42699482D01*
X2335498Y-42819180D01*
X2394463Y-42929494D01*
X2473815Y-43026185D01*
X2570506Y-43105537D01*
X2680820Y-43164502D01*
X2800518Y-43200812D01*
X2925000Y-43213072D01*
X3314250Y-43210000D01*
X3473000Y-43051250D01*
X3473000Y-42027000D01*
X2448750Y-42027000D01*
X2290000Y-42185750D01*
X2286928Y-42575000D01*
X-2340000Y-42575000D01*
X-2340000Y-41225000D01*
X2286928Y-41225000D01*
X2290000Y-41614250D01*
X2448750Y-41773000D01*
X3473000Y-41773000D01*
X3473000Y-40748750D01*
X3314250Y-40590000D01*
X2925000Y-40586928D01*
X2800518Y-40599188D01*
X2680820Y-40635498D01*
X2570506Y-40694463D01*
X2473815Y-40773815D01*
X2394463Y-40870506D01*
X2335498Y-40980820D01*
X2299188Y-41100518D01*
X2286928Y-41225000D01*
X-2340000Y-41225000D01*
X-2340000Y-38129400D01*
X-567910Y-38129400D01*
X-537238Y-38230528D01*
X-429473Y-38463629D01*
X-278303Y-38671227D01*
X-89537Y-38845344D01*
X129570Y-38979289D01*
X370599Y-39067915D01*
X573000Y-38945085D01*
X573000Y-37927000D01*
X827000Y-37927000D01*
X827000Y-38945085D01*
X1029401Y-39067915D01*
X1270430Y-38979289D01*
X1489537Y-38845344D01*
X1678303Y-38671227D01*
X1829473Y-38463629D01*
X1937238Y-38230528D01*
X1967910Y-38129400D01*
X1844224Y-37927000D01*
X827000Y-37927000D01*
X573000Y-37927000D01*
X-444224Y-37927000D01*
X-567910Y-38129400D01*
X-2340000Y-38129400D01*
X-2340000Y-31125000D01*
X-613072Y-31125000D01*
X-613072Y-32475000D01*
X-600812Y-32599482D01*
X-564502Y-32719180D01*
X-505537Y-32829494D01*
X-426185Y-32926185D01*
X-339303Y-32997487D01*
X-460907Y-33179482D01*
X-559658Y-33417887D01*
X-610000Y-33670976D01*
X-610000Y-33929024D01*
X-559658Y-34182113D01*
X-460907Y-34420518D01*
X-317544Y-34635077D01*
X-152621Y-34800000D01*
X-317544Y-34964923D01*
X-460907Y-35179482D01*
X-559658Y-35417887D01*
X-610000Y-35670976D01*
X-610000Y-35929024D01*
X-559658Y-36182113D01*
X-460907Y-36420518D01*
X-317544Y-36635077D01*
X-145940Y-36806681D01*
X-278303Y-36928773D01*
X-429473Y-37136371D01*
X-537238Y-37369472D01*
X-567910Y-37470600D01*
X-444224Y-37673000D01*
X573000Y-37673000D01*
X573000Y-37653000D01*
X827000Y-37653000D01*
X827000Y-37673000D01*
X1844224Y-37673000D01*
X1967910Y-37470600D01*
X1937238Y-37369472D01*
X1829473Y-37136371D01*
X1678303Y-36928773D01*
X1545940Y-36806681D01*
X1717544Y-36635077D01*
X1767709Y-36560000D01*
X4062408Y-36560000D01*
X4197199Y-36573276D01*
X4197200Y-36573276D01*
X4346185Y-36558602D01*
X4489446Y-36515146D01*
X4621476Y-36444574D01*
X4708202Y-36373399D01*
X4708207Y-36373394D01*
X4737200Y-36349600D01*
X4760993Y-36320608D01*
X6552801Y-34528802D01*
X7915000Y-35891002D01*
X7915000Y-40626992D01*
X7729024Y-40590000D01*
X7470976Y-40590000D01*
X7217887Y-40640342D01*
X6979482Y-40739093D01*
X6764923Y-40882456D01*
X6600000Y-41047379D01*
X6435077Y-40882456D01*
X6220518Y-40739093D01*
X5982113Y-40640342D01*
X5729024Y-40590000D01*
X5470976Y-40590000D01*
X5217887Y-40640342D01*
X4979482Y-40739093D01*
X4797487Y-40860697D01*
X4726185Y-40773815D01*
X4629494Y-40694463D01*
X4519180Y-40635498D01*
X4399482Y-40599188D01*
X4275000Y-40586928D01*
X3885750Y-40590000D01*
X3727000Y-40748750D01*
X3727000Y-41773000D01*
X3747000Y-41773000D01*
X3747000Y-42027000D01*
X3727000Y-42027000D01*
X3727000Y-43051250D01*
X3885750Y-43210000D01*
X4275000Y-43213072D01*
X4399482Y-43200812D01*
X4519180Y-43164502D01*
X4629494Y-43105537D01*
X4726185Y-43026185D01*
X4797487Y-42939303D01*
X4840001Y-42967709D01*
X4840000Y-47062667D01*
X4840000Y-47362678D01*
X4836324Y-47400000D01*
X4840000Y-47437322D01*
X4840000Y-47437332D01*
X4850997Y-47548985D01*
X4879281Y-47642226D01*
X4894454Y-47692246D01*
X4965026Y-47824276D01*
X4993133Y-47858524D01*
X5059999Y-47940001D01*
X5089002Y-47963803D01*
X5465000Y-48339801D01*
X5465000Y-48401939D01*
X5504774Y-48601898D01*
X5582795Y-48790256D01*
X5696063Y-48959774D01*
X5804243Y-49067954D01*
X5519997Y-49352200D01*
X5490999Y-49375998D01*
X5467201Y-49404996D01*
X5467200Y-49404997D01*
X5396025Y-49491723D01*
X5325453Y-49623753D01*
X5302264Y-49700201D01*
X5281997Y-49767013D01*
X5279512Y-49792246D01*
X5267323Y-49915999D01*
X5271000Y-49953331D01*
X5270999Y-61793677D01*
X5267323Y-61830999D01*
X5270999Y-61868321D01*
X5270999Y-61868331D01*
X5281996Y-61979984D01*
X5304502Y-62054176D01*
X5325453Y-62123245D01*
X5396025Y-62255275D01*
X5435870Y-62303825D01*
X5490998Y-62371000D01*
X5520002Y-62394803D01*
X10692401Y-67567203D01*
X10716199Y-67596201D01*
X10745197Y-67619999D01*
X10831923Y-67691174D01*
X10963953Y-67761746D01*
X11107214Y-67805203D01*
X11218867Y-67816200D01*
X11218876Y-67816200D01*
X11256199Y-67819876D01*
X11293522Y-67816200D01*
X25268659Y-67816200D01*
X25355880Y-67946735D01*
X25550465Y-68141320D01*
X25779273Y-68294205D01*
X26033510Y-68399514D01*
X26303408Y-68453200D01*
X26578592Y-68453200D01*
X26848490Y-68399514D01*
X27102727Y-68294205D01*
X27331535Y-68141320D01*
X27526120Y-67946735D01*
X27679005Y-67717927D01*
X27784314Y-67463690D01*
X27838000Y-67193792D01*
X27838000Y-66918608D01*
X27784314Y-66648710D01*
X27679005Y-66394473D01*
X27526120Y-66165665D01*
X27331535Y-65971080D01*
X27102727Y-65818195D01*
X26967290Y-65762095D01*
X26441000Y-65235805D01*
X25914710Y-65762095D01*
X25779273Y-65818195D01*
X25550465Y-65971080D01*
X25355880Y-66165665D01*
X25268659Y-66296200D01*
X11571002Y-66296200D01*
X8783002Y-63508200D01*
X19666928Y-63508200D01*
X19666928Y-64858200D01*
X19679188Y-64982682D01*
X19715498Y-65102380D01*
X19774463Y-65212694D01*
X19853815Y-65309385D01*
X19950506Y-65388737D01*
X20060820Y-65447702D01*
X20180518Y-65484012D01*
X20305000Y-65496272D01*
X21655000Y-65496272D01*
X21779482Y-65484012D01*
X21899180Y-65447702D01*
X22009494Y-65388737D01*
X22106185Y-65309385D01*
X22185537Y-65212694D01*
X22230691Y-65128217D01*
X25039090Y-65128217D01*
X25080078Y-65400333D01*
X25173364Y-65659223D01*
X25235344Y-65775180D01*
X25475435Y-65842160D01*
X26261395Y-65056200D01*
X26620605Y-65056200D01*
X27406565Y-65842160D01*
X27646656Y-65775180D01*
X27763756Y-65526152D01*
X27830023Y-65259065D01*
X27842910Y-64984183D01*
X27801922Y-64712067D01*
X27708636Y-64453177D01*
X27646656Y-64337220D01*
X27406565Y-64270240D01*
X26620605Y-65056200D01*
X26261395Y-65056200D01*
X25475435Y-64270240D01*
X25235344Y-64337220D01*
X25118244Y-64586248D01*
X25051977Y-64853335D01*
X25039090Y-65128217D01*
X22230691Y-65128217D01*
X22244502Y-65102380D01*
X22280812Y-64982682D01*
X22293072Y-64858200D01*
X22293072Y-63508200D01*
X22280812Y-63383718D01*
X22244502Y-63264020D01*
X22185537Y-63153706D01*
X22106185Y-63057015D01*
X22019303Y-62985713D01*
X22140907Y-62803718D01*
X22239658Y-62565313D01*
X22290000Y-62312224D01*
X22290000Y-62054176D01*
X22239658Y-61801087D01*
X22140907Y-61562682D01*
X21997544Y-61348123D01*
X21825940Y-61176519D01*
X21958303Y-61054427D01*
X22109473Y-60846829D01*
X22217238Y-60613728D01*
X22247910Y-60512600D01*
X22124224Y-60310200D01*
X21107000Y-60310200D01*
X21107000Y-60330200D01*
X20853000Y-60330200D01*
X20853000Y-60310200D01*
X19835776Y-60310200D01*
X19712090Y-60512600D01*
X19742762Y-60613728D01*
X19850527Y-60846829D01*
X20001697Y-61054427D01*
X20134060Y-61176519D01*
X19962456Y-61348123D01*
X19819093Y-61562682D01*
X19720342Y-61801087D01*
X19670000Y-62054176D01*
X19670000Y-62312224D01*
X19720342Y-62565313D01*
X19819093Y-62803718D01*
X19940697Y-62985713D01*
X19853815Y-63057015D01*
X19774463Y-63153706D01*
X19715498Y-63264020D01*
X19679188Y-63383718D01*
X19666928Y-63508200D01*
X8783002Y-63508200D01*
X6790999Y-61516198D01*
X6790999Y-54765800D01*
X11322039Y-59296841D01*
X11345838Y-59325840D01*
X11461563Y-59420813D01*
X11593592Y-59491385D01*
X11736853Y-59534842D01*
X11848506Y-59545839D01*
X11848514Y-59545839D01*
X11885839Y-59549515D01*
X11923164Y-59545839D01*
X12371038Y-59545839D01*
X12519395Y-59694196D01*
X12543198Y-59723200D01*
X12658923Y-59818173D01*
X12790952Y-59888745D01*
X12934213Y-59932202D01*
X13045866Y-59943199D01*
X13045876Y-59943199D01*
X13083199Y-59946875D01*
X13120522Y-59943199D01*
X19766721Y-59943199D01*
X19835776Y-60056200D01*
X20853000Y-60056200D01*
X20853000Y-60036200D01*
X21107000Y-60036200D01*
X21107000Y-60056200D01*
X22124224Y-60056200D01*
X22193279Y-59943199D01*
X22253198Y-59943199D01*
X25074628Y-62764630D01*
X25044000Y-62918608D01*
X25044000Y-63193792D01*
X25097686Y-63463690D01*
X25202995Y-63717927D01*
X25355880Y-63946735D01*
X25550465Y-64141320D01*
X25779273Y-64294205D01*
X25914710Y-64350305D01*
X26441000Y-64876595D01*
X26967290Y-64350305D01*
X27102727Y-64294205D01*
X27331535Y-64141320D01*
X27526120Y-63946735D01*
X27679005Y-63717927D01*
X27784314Y-63463690D01*
X27838000Y-63193792D01*
X27838000Y-62918608D01*
X27784314Y-62648710D01*
X27679005Y-62394473D01*
X27526120Y-62165665D01*
X27416655Y-62056200D01*
X27526120Y-61946735D01*
X27679005Y-61717927D01*
X27784314Y-61463690D01*
X27838000Y-61193792D01*
X27838000Y-60918608D01*
X27784314Y-60648710D01*
X27679005Y-60394473D01*
X27526120Y-60165665D01*
X27331535Y-59971080D01*
X27102727Y-59818195D01*
X26848490Y-59712886D01*
X26578592Y-59659200D01*
X26303408Y-59659200D01*
X26149430Y-59689828D01*
X25502780Y-59043179D01*
X25765383Y-59043179D01*
X25907261Y-59071400D01*
X26111139Y-59071400D01*
X26311098Y-59031626D01*
X26499456Y-58953605D01*
X26668974Y-58840337D01*
X26813137Y-58696174D01*
X26926405Y-58526656D01*
X27004426Y-58338298D01*
X27044200Y-58138339D01*
X27044200Y-57934461D01*
X27004426Y-57734502D01*
X26926405Y-57546144D01*
X26813137Y-57376626D01*
X26668974Y-57232463D01*
X26499456Y-57119195D01*
X26311098Y-57041174D01*
X26111139Y-57001400D01*
X25907261Y-57001400D01*
X25707302Y-57041174D01*
X25518944Y-57119195D01*
X25349426Y-57232463D01*
X25308710Y-57273179D01*
X13874354Y-57273179D01*
X13025800Y-56424626D01*
X13025800Y-37329321D01*
X13103637Y-37393200D01*
X13226980Y-37459128D01*
X13360816Y-37499727D01*
X13500000Y-37513435D01*
X13534877Y-37510000D01*
X15961965Y-37510000D01*
X15920000Y-37720976D01*
X15920000Y-37979024D01*
X15970342Y-38232113D01*
X16069093Y-38470518D01*
X16212456Y-38685077D01*
X16394923Y-38867544D01*
X16609482Y-39010907D01*
X16847887Y-39109658D01*
X17100976Y-39160000D01*
X17359024Y-39160000D01*
X17612113Y-39109658D01*
X17850518Y-39010907D01*
X18065077Y-38867544D01*
X18140000Y-38792621D01*
X18214923Y-38867544D01*
X18429482Y-39010907D01*
X18667887Y-39109658D01*
X18920976Y-39160000D01*
X19179024Y-39160000D01*
X19432113Y-39109658D01*
X19670518Y-39010907D01*
X19885077Y-38867544D01*
X19920000Y-38832621D01*
X19954923Y-38867544D01*
X20169482Y-39010907D01*
X20407887Y-39109658D01*
X20660976Y-39160000D01*
X20919024Y-39160000D01*
X21172113Y-39109658D01*
X21410518Y-39010907D01*
X21625077Y-38867544D01*
X21680000Y-38812621D01*
X21734923Y-38867544D01*
X21810001Y-38917709D01*
X21810000Y-45768398D01*
X19809600Y-47768798D01*
X19809600Y-44008111D01*
X19853537Y-43964174D01*
X19966805Y-43794656D01*
X20044826Y-43606298D01*
X20084600Y-43406339D01*
X20084600Y-43202461D01*
X20044826Y-43002502D01*
X19966805Y-42814144D01*
X19853537Y-42644626D01*
X19709374Y-42500463D01*
X19539856Y-42387195D01*
X19351498Y-42309174D01*
X19151539Y-42269400D01*
X18947661Y-42269400D01*
X18747702Y-42309174D01*
X18559344Y-42387195D01*
X18389826Y-42500463D01*
X18245663Y-42644626D01*
X18132395Y-42814144D01*
X18054374Y-43002502D01*
X18014600Y-43202461D01*
X18014600Y-43406339D01*
X18054374Y-43606298D01*
X18132395Y-43794656D01*
X18245663Y-43964174D01*
X18289600Y-44008111D01*
X18289601Y-48323597D01*
X16320977Y-50292222D01*
X16285626Y-50114502D01*
X16207605Y-49926144D01*
X16094337Y-49756626D01*
X15950174Y-49612463D01*
X15780656Y-49499195D01*
X15592298Y-49421174D01*
X15392339Y-49381400D01*
X15188461Y-49381400D01*
X14988502Y-49421174D01*
X14800144Y-49499195D01*
X14630626Y-49612463D01*
X14486463Y-49756626D01*
X14373195Y-49926144D01*
X14295174Y-50114502D01*
X14255400Y-50314461D01*
X14255400Y-50518339D01*
X14295174Y-50718298D01*
X14373195Y-50906656D01*
X14486463Y-51076174D01*
X14530400Y-51120111D01*
X14530401Y-52895078D01*
X14526724Y-52932410D01*
X14530401Y-52969743D01*
X14541398Y-53081396D01*
X14553653Y-53121797D01*
X14584854Y-53224656D01*
X14655426Y-53356686D01*
X14725094Y-53441576D01*
X14750400Y-53472411D01*
X14779398Y-53496209D01*
X15539201Y-54256012D01*
X15494226Y-54286063D01*
X15350063Y-54430226D01*
X15236795Y-54599744D01*
X15158774Y-54788102D01*
X15119000Y-54988061D01*
X15119000Y-55191939D01*
X15158774Y-55391898D01*
X15236795Y-55580256D01*
X15350063Y-55749774D01*
X15494226Y-55893937D01*
X15663744Y-56007205D01*
X15852102Y-56085226D01*
X16052061Y-56125000D01*
X16255939Y-56125000D01*
X16455898Y-56085226D01*
X16644256Y-56007205D01*
X16813774Y-55893937D01*
X16857711Y-55850000D01*
X21648345Y-55850000D01*
X21649263Y-55851374D01*
X21793426Y-55995537D01*
X21962944Y-56108805D01*
X22151302Y-56186826D01*
X22351261Y-56226600D01*
X22555139Y-56226600D01*
X22755098Y-56186826D01*
X22943456Y-56108805D01*
X23112974Y-55995537D01*
X23257137Y-55851374D01*
X23370405Y-55681856D01*
X23448426Y-55493498D01*
X23488200Y-55293539D01*
X23488200Y-55226599D01*
X34224473Y-55226599D01*
X34286795Y-55377056D01*
X34400063Y-55546574D01*
X34544226Y-55690737D01*
X34713744Y-55804005D01*
X34902102Y-55882026D01*
X35102061Y-55921800D01*
X35305939Y-55921800D01*
X35505898Y-55882026D01*
X35694256Y-55804005D01*
X35863774Y-55690737D01*
X36007937Y-55546574D01*
X36121205Y-55377056D01*
X36199226Y-55188698D01*
X36239000Y-54988739D01*
X36239000Y-54784861D01*
X36199226Y-54584902D01*
X36121205Y-54396544D01*
X36007937Y-54227026D01*
X35863774Y-54082863D01*
X35694256Y-53969595D01*
X35505898Y-53891574D01*
X35305939Y-53851800D01*
X35232658Y-53851800D01*
X35208075Y-53831625D01*
X35076046Y-53761053D01*
X34932785Y-53717596D01*
X34821132Y-53706599D01*
X34821121Y-53706599D01*
X34783799Y-53702923D01*
X34746477Y-53706599D01*
X23946202Y-53706599D01*
X28335003Y-49317800D01*
X28397139Y-49317800D01*
X28597098Y-49278026D01*
X28785456Y-49200005D01*
X28954974Y-49086737D01*
X29099137Y-48942574D01*
X29212405Y-48773056D01*
X29290426Y-48584698D01*
X29330200Y-48384739D01*
X29330200Y-48322601D01*
X32565403Y-45087399D01*
X32594401Y-45063601D01*
X32689374Y-44947876D01*
X32759946Y-44815847D01*
X32803403Y-44672586D01*
X32814400Y-44560933D01*
X32818077Y-44523600D01*
X32814400Y-44486267D01*
X32814400Y-25256923D01*
X32818076Y-25219600D01*
X32814400Y-25182277D01*
X32814400Y-25182267D01*
X32803403Y-25070614D01*
X32759946Y-24927353D01*
X32755061Y-24918214D01*
X32689374Y-24795323D01*
X32635726Y-24729954D01*
X32594401Y-24679599D01*
X32565398Y-24655797D01*
X32172603Y-24263002D01*
X32148800Y-24233998D01*
X32033075Y-24139025D01*
X31901046Y-24068453D01*
X31757785Y-24024996D01*
X31646132Y-24013999D01*
X31646121Y-24013999D01*
X31608799Y-24010323D01*
X31571477Y-24013999D01*
X28574926Y-24013999D01*
X28537601Y-24010323D01*
X28500276Y-24013999D01*
X28500268Y-24013999D01*
X28388615Y-24024996D01*
X28245354Y-24068453D01*
X28113325Y-24139025D01*
X27997600Y-24233998D01*
X27973801Y-24262997D01*
X27561299Y-24675500D01*
X24477711Y-24675500D01*
X24433774Y-24631563D01*
X24264256Y-24518295D01*
X24075898Y-24440274D01*
X23875939Y-24400500D01*
X23672061Y-24400500D01*
X23472102Y-24440274D01*
X23283744Y-24518295D01*
X23114226Y-24631563D01*
X22970063Y-24775726D01*
X22914013Y-24859611D01*
X22610604Y-24556203D01*
X22586801Y-24527199D01*
X22471076Y-24432226D01*
X22339047Y-24361654D01*
X22195786Y-24318197D01*
X22084133Y-24307200D01*
X22084122Y-24307200D01*
X22046800Y-24303524D01*
X22009478Y-24307200D01*
X15480125Y-24307200D01*
X15442800Y-24303524D01*
X15405475Y-24307200D01*
X15405467Y-24307200D01*
X15293814Y-24318197D01*
X15150553Y-24361654D01*
X15018524Y-24432226D01*
X14902799Y-24527199D01*
X14879001Y-24556197D01*
X13299199Y-26136000D01*
X9644111Y-26136000D01*
X9600174Y-26092063D01*
X9430656Y-25978795D01*
X9242298Y-25900774D01*
X9156643Y-25883736D01*
X9205546Y-25792247D01*
X9249003Y-25648986D01*
X9260000Y-25537333D01*
X9260000Y-25537324D01*
X9263676Y-25500001D01*
X9260000Y-25462678D01*
X9260000Y-22738072D01*
X9500000Y-22738072D01*
X9624482Y-22725812D01*
X9744180Y-22689502D01*
X9854494Y-22630537D01*
X9951185Y-22551185D01*
X10030537Y-22454494D01*
X10089502Y-22344180D01*
X10125812Y-22224482D01*
X10138072Y-22100000D01*
X10138072Y-20835331D01*
X35328090Y-20835331D01*
X35328090Y-21164669D01*
X35392340Y-21487678D01*
X35518372Y-21791947D01*
X35701342Y-22065781D01*
X35934219Y-22298658D01*
X36208053Y-22481628D01*
X36512322Y-22607660D01*
X36835331Y-22671910D01*
X37164669Y-22671910D01*
X37487678Y-22607660D01*
X37791947Y-22481628D01*
X38065781Y-22298658D01*
X38298658Y-22065781D01*
X38481628Y-21791947D01*
X38607660Y-21487678D01*
X38671910Y-21164669D01*
X38671910Y-20835331D01*
X38607660Y-20512322D01*
X38481628Y-20208053D01*
X38298658Y-19934219D01*
X38065781Y-19701342D01*
X37791947Y-19518372D01*
X37487678Y-19392340D01*
X37164669Y-19328090D01*
X36835331Y-19328090D01*
X36512322Y-19392340D01*
X36208053Y-19518372D01*
X35934219Y-19701342D01*
X35701342Y-19934219D01*
X35518372Y-20208053D01*
X35392340Y-20512322D01*
X35328090Y-20835331D01*
X10138072Y-20835331D01*
X10138072Y-20100000D01*
X10125812Y-19975518D01*
X10089502Y-19855820D01*
X10030537Y-19745506D01*
X9951185Y-19648815D01*
X9854494Y-19569463D01*
X9744180Y-19510498D01*
X9624482Y-19474188D01*
X9500000Y-19461928D01*
X7500000Y-19461928D01*
X7375518Y-19474188D01*
X7255820Y-19510498D01*
X7145506Y-19569463D01*
X7048815Y-19648815D01*
X6969463Y-19745506D01*
X6910498Y-19855820D01*
X6874188Y-19975518D01*
X6861928Y-20100000D01*
X6861928Y-22100000D01*
X6874188Y-22224482D01*
X6910498Y-22344180D01*
X6969463Y-22454494D01*
X7048815Y-22551185D01*
X7145506Y-22630537D01*
X7255820Y-22689502D01*
X7375518Y-22725812D01*
X7500000Y-22738072D01*
X7740000Y-22738072D01*
X7740001Y-25185197D01*
X5388998Y-27536201D01*
X5360000Y-27559999D01*
X5336202Y-27588997D01*
X5336201Y-27588998D01*
X5265026Y-27675724D01*
X5194454Y-27807754D01*
X5150998Y-27951015D01*
X5136324Y-28100000D01*
X5140001Y-28137332D01*
X5140000Y-30185198D01*
X2285199Y-33040000D01*
X1767709Y-33040000D01*
X1739303Y-32997487D01*
X1826185Y-32926185D01*
X1905537Y-32829494D01*
X1964502Y-32719180D01*
X2000812Y-32599482D01*
X2013072Y-32475000D01*
X2013072Y-31125000D01*
X2000812Y-31000518D01*
X1964502Y-30880820D01*
X1905537Y-30770506D01*
X1826185Y-30673815D01*
X1729494Y-30594463D01*
X1619180Y-30535498D01*
X1499482Y-30499188D01*
X1375000Y-30486928D01*
X25000Y-30486928D01*
X-99482Y-30499188D01*
X-219180Y-30535498D01*
X-329494Y-30594463D01*
X-426185Y-30673815D01*
X-505537Y-30770506D01*
X-564502Y-30880820D01*
X-600812Y-31000518D01*
X-613072Y-31125000D01*
X-2340000Y-31125000D01*
X-2340000Y-27325000D01*
X-1513072Y-27325000D01*
X-1513072Y-28675000D01*
X-1500812Y-28799482D01*
X-1464502Y-28919180D01*
X-1405537Y-29029494D01*
X-1326185Y-29126185D01*
X-1229494Y-29205537D01*
X-1119180Y-29264502D01*
X-999482Y-29300812D01*
X-875000Y-29313072D01*
X475000Y-29313072D01*
X599482Y-29300812D01*
X719180Y-29264502D01*
X829494Y-29205537D01*
X926185Y-29126185D01*
X997487Y-29039303D01*
X1179482Y-29160907D01*
X1417887Y-29259658D01*
X1670976Y-29310000D01*
X1929024Y-29310000D01*
X2182113Y-29259658D01*
X2420518Y-29160907D01*
X2635077Y-29017544D01*
X2806681Y-28845940D01*
X2928773Y-28978303D01*
X3136371Y-29129473D01*
X3369472Y-29237238D01*
X3470600Y-29267910D01*
X3673000Y-29144224D01*
X3673000Y-28127000D01*
X3927000Y-28127000D01*
X3927000Y-29144224D01*
X4129400Y-29267910D01*
X4230528Y-29237238D01*
X4463629Y-29129473D01*
X4671227Y-28978303D01*
X4845344Y-28789537D01*
X4979289Y-28570430D01*
X5067915Y-28329401D01*
X4945085Y-28127000D01*
X3927000Y-28127000D01*
X3673000Y-28127000D01*
X3653000Y-28127000D01*
X3653000Y-27873000D01*
X3673000Y-27873000D01*
X3673000Y-26855776D01*
X3927000Y-26855776D01*
X3927000Y-27873000D01*
X4945085Y-27873000D01*
X5067915Y-27670599D01*
X4979289Y-27429570D01*
X4845344Y-27210463D01*
X4671227Y-27021697D01*
X4463629Y-26870527D01*
X4230528Y-26762762D01*
X4129400Y-26732090D01*
X3927000Y-26855776D01*
X3673000Y-26855776D01*
X3470600Y-26732090D01*
X3369472Y-26762762D01*
X3136371Y-26870527D01*
X2928773Y-27021697D01*
X2806681Y-27154060D01*
X2635077Y-26982456D01*
X2560000Y-26932291D01*
X2560000Y-22424462D01*
X2808662Y-22179720D01*
X2840001Y-22154001D01*
X2861928Y-22127283D01*
X2861928Y-22900000D01*
X2874188Y-23024482D01*
X2910498Y-23144180D01*
X2969463Y-23254494D01*
X3048815Y-23351185D01*
X3145506Y-23430537D01*
X3255820Y-23489502D01*
X3375518Y-23525812D01*
X3500000Y-23538072D01*
X5500000Y-23538072D01*
X5624482Y-23525812D01*
X5744180Y-23489502D01*
X5854494Y-23430537D01*
X5951185Y-23351185D01*
X6030537Y-23254494D01*
X6089502Y-23144180D01*
X6125812Y-23024482D01*
X6138072Y-22900000D01*
X6138072Y-21600000D01*
X6125812Y-21475518D01*
X6089502Y-21355820D01*
X6030537Y-21245506D01*
X5951185Y-21148815D01*
X5891704Y-21100000D01*
X5951185Y-21051185D01*
X6030537Y-20954494D01*
X6089502Y-20844180D01*
X6125812Y-20724482D01*
X6138072Y-20600000D01*
X6138072Y-19300000D01*
X6125812Y-19175518D01*
X6089502Y-19055820D01*
X6030537Y-18945506D01*
X5951185Y-18848815D01*
X5854494Y-18769463D01*
X5744180Y-18710498D01*
X5624482Y-18674188D01*
X5500000Y-18661928D01*
X3500000Y-18661928D01*
X3375518Y-18674188D01*
X3255820Y-18710498D01*
X3145506Y-18769463D01*
X3048815Y-18848815D01*
X2969463Y-18945506D01*
X2910498Y-19055820D01*
X2874188Y-19175518D01*
X2861928Y-19300000D01*
X2861928Y-19963270D01*
X2521320Y-20303878D01*
X2481628Y-20208053D01*
X2298658Y-19934219D01*
X2065781Y-19701342D01*
X1791947Y-19518372D01*
X1487678Y-19392340D01*
X1164669Y-19328090D01*
X835331Y-19328090D01*
X512322Y-19392340D01*
X208053Y-19518372D01*
X-65781Y-19701342D01*
X-298658Y-19934219D01*
X-481628Y-20208053D01*
X-607660Y-20512322D01*
X-671910Y-20835331D01*
X-671910Y-21164669D01*
X-607660Y-21487678D01*
X-481628Y-21791947D01*
X-298658Y-22065781D01*
X-65781Y-22298658D01*
X208053Y-22481628D01*
X512322Y-22607660D01*
X835331Y-22671910D01*
X1040001Y-22671910D01*
X1040000Y-26932291D01*
X997487Y-26960697D01*
X926185Y-26873815D01*
X829494Y-26794463D01*
X719180Y-26735498D01*
X599482Y-26699188D01*
X475000Y-26686928D01*
X-875000Y-26686928D01*
X-999482Y-26699188D01*
X-1119180Y-26735498D01*
X-1229494Y-26794463D01*
X-1326185Y-26873815D01*
X-1405537Y-26970506D01*
X-1464502Y-27080820D01*
X-1500812Y-27200518D01*
X-1513072Y-27325000D01*
X-2340000Y-27325000D01*
X-2340000Y-20049218D01*
X-1040963Y-11388967D01*
X-115000Y-11388967D01*
X-115000Y-11711033D01*
X-52168Y-12026912D01*
X71082Y-12324463D01*
X250013Y-12592252D01*
X477748Y-12819987D01*
X745537Y-12998918D01*
X1043088Y-13122168D01*
X1358967Y-13185000D01*
X1681033Y-13185000D01*
X1996912Y-13122168D01*
X2294463Y-12998918D01*
X2562252Y-12819987D01*
X2696826Y-12685413D01*
X5644192Y-12685413D01*
X5739956Y-12949814D01*
X6029571Y-13090704D01*
X6341108Y-13172384D01*
X6662595Y-13191718D01*
X6981675Y-13147961D01*
X7286088Y-13042795D01*
X7460044Y-12949814D01*
X7555808Y-12685413D01*
X6600000Y-11729605D01*
X5644192Y-12685413D01*
X2696826Y-12685413D01*
X2789987Y-12592252D01*
X2968918Y-12324463D01*
X3092168Y-12026912D01*
X3155000Y-11711033D01*
X3155000Y-11612595D01*
X4958282Y-11612595D01*
X5002039Y-11931675D01*
X5107205Y-12236088D01*
X5200186Y-12410044D01*
X5464587Y-12505808D01*
X6420395Y-11550000D01*
X6779605Y-11550000D01*
X7735413Y-12505808D01*
X7999814Y-12410044D01*
X8140704Y-12120429D01*
X8222384Y-11808892D01*
X8234189Y-11612595D01*
X10038282Y-11612595D01*
X10082039Y-11931675D01*
X10187205Y-12236088D01*
X10280186Y-12410044D01*
X10544587Y-12505808D01*
X11500395Y-11550000D01*
X10544587Y-10594192D01*
X10280186Y-10689956D01*
X10139296Y-10979571D01*
X10057616Y-11291108D01*
X10038282Y-11612595D01*
X8234189Y-11612595D01*
X8241718Y-11487405D01*
X8197961Y-11168325D01*
X8092795Y-10863912D01*
X7999814Y-10689956D01*
X7735413Y-10594192D01*
X6779605Y-11550000D01*
X6420395Y-11550000D01*
X5464587Y-10594192D01*
X5200186Y-10689956D01*
X5059296Y-10979571D01*
X4977616Y-11291108D01*
X4958282Y-11612595D01*
X3155000Y-11612595D01*
X3155000Y-11388967D01*
X3092168Y-11073088D01*
X2968918Y-10775537D01*
X2789987Y-10507748D01*
X2696826Y-10414587D01*
X5644192Y-10414587D01*
X6600000Y-11370395D01*
X7555808Y-10414587D01*
X10724192Y-10414587D01*
X11680000Y-11370395D01*
X11694143Y-11356253D01*
X11873748Y-11535858D01*
X11859605Y-11550000D01*
X11873748Y-11564143D01*
X11694143Y-11743748D01*
X11680000Y-11729605D01*
X10724192Y-12685413D01*
X10819956Y-12949814D01*
X11109571Y-13090704D01*
X11421108Y-13172384D01*
X11742595Y-13191718D01*
X12061675Y-13147961D01*
X12340000Y-13051808D01*
X12340000Y-18967581D01*
X12336807Y-19000000D01*
X12349550Y-19129383D01*
X12387290Y-19253793D01*
X12448575Y-19368450D01*
X12514332Y-19448575D01*
X12531052Y-19468948D01*
X12631550Y-19551425D01*
X12746207Y-19612710D01*
X12870617Y-19650450D01*
X13000000Y-19663193D01*
X13032419Y-19660000D01*
X24967581Y-19660000D01*
X25000000Y-19663193D01*
X25032419Y-19660000D01*
X25055224Y-19657754D01*
X25129383Y-19650450D01*
X25253793Y-19612710D01*
X25368450Y-19551425D01*
X25468948Y-19468948D01*
X25551425Y-19368450D01*
X25612710Y-19253793D01*
X25650450Y-19129383D01*
X25660000Y-19032419D01*
X25660000Y-19032418D01*
X25663193Y-19000000D01*
X25660000Y-18967581D01*
X25660000Y-11514665D01*
X26562000Y-11514665D01*
X26562000Y-11797335D01*
X26617147Y-12074574D01*
X26725320Y-12335727D01*
X26882363Y-12570759D01*
X27082241Y-12770637D01*
X27284827Y-12906000D01*
X27082241Y-13041363D01*
X26882363Y-13241241D01*
X26725320Y-13476273D01*
X26617147Y-13737426D01*
X26562000Y-14014665D01*
X26562000Y-14297335D01*
X26617147Y-14574574D01*
X26725320Y-14835727D01*
X26882363Y-15070759D01*
X27082241Y-15270637D01*
X27317273Y-15427680D01*
X27578426Y-15535853D01*
X27855665Y-15591000D01*
X27985126Y-15591000D01*
X27958928Y-15857000D01*
X27958928Y-16455000D01*
X27990422Y-16774767D01*
X28083695Y-17082246D01*
X28235161Y-17365620D01*
X28439001Y-17613999D01*
X28687380Y-17817839D01*
X28970754Y-17969305D01*
X29278233Y-18062578D01*
X29598000Y-18094072D01*
X30396000Y-18094072D01*
X30715767Y-18062578D01*
X31023246Y-17969305D01*
X31306620Y-17817839D01*
X31554999Y-17613999D01*
X31758839Y-17365620D01*
X31910305Y-17082246D01*
X32003578Y-16774767D01*
X32035072Y-16455000D01*
X32035072Y-15857000D01*
X32003578Y-15537233D01*
X31910305Y-15229754D01*
X31758839Y-14946380D01*
X31554999Y-14698001D01*
X31306620Y-14494161D01*
X31023246Y-14342695D01*
X30715767Y-14249422D01*
X30396000Y-14217928D01*
X29598000Y-14217928D01*
X29432000Y-14234277D01*
X29432000Y-14014665D01*
X29376853Y-13737426D01*
X29268680Y-13476273D01*
X29111637Y-13241241D01*
X28911759Y-13041363D01*
X28709173Y-12906000D01*
X28911759Y-12770637D01*
X29111637Y-12570759D01*
X29268680Y-12335727D01*
X29376853Y-12074574D01*
X29432000Y-11797335D01*
X29432000Y-11514665D01*
X29376853Y-11237426D01*
X29268680Y-10976273D01*
X29111637Y-10741241D01*
X28911759Y-10541363D01*
X28711131Y-10407308D01*
X28738514Y-10392671D01*
X28810097Y-10148702D01*
X27997000Y-9335605D01*
X27183903Y-10148702D01*
X27255486Y-10392671D01*
X27284341Y-10406324D01*
X27082241Y-10541363D01*
X26882363Y-10741241D01*
X26725320Y-10976273D01*
X26617147Y-11237426D01*
X26562000Y-11514665D01*
X25660000Y-11514665D01*
X25660000Y-9226512D01*
X26556783Y-9226512D01*
X26598213Y-9506130D01*
X26693397Y-9772292D01*
X26760329Y-9897514D01*
X27004298Y-9969097D01*
X27817395Y-9156000D01*
X27004298Y-8342903D01*
X26760329Y-8414486D01*
X26639429Y-8669996D01*
X26570700Y-8944184D01*
X26556783Y-9226512D01*
X25660000Y-9226512D01*
X25660000Y-8163298D01*
X27183903Y-8163298D01*
X27997000Y-8976395D01*
X28011143Y-8962253D01*
X28190748Y-9141858D01*
X28176605Y-9156000D01*
X28989702Y-9969097D01*
X29233671Y-9897514D01*
X29354571Y-9642004D01*
X29423300Y-9367816D01*
X29437217Y-9085488D01*
X29436127Y-9078129D01*
X29598000Y-9094072D01*
X30396000Y-9094072D01*
X30715767Y-9062578D01*
X31023246Y-8969305D01*
X31306620Y-8817839D01*
X31554999Y-8613999D01*
X31758839Y-8365620D01*
X31910305Y-8082246D01*
X32003578Y-7774767D01*
X32035072Y-7455000D01*
X32035072Y-6857000D01*
X32003578Y-6537233D01*
X31910305Y-6229754D01*
X31758839Y-5946380D01*
X31554999Y-5698001D01*
X31306620Y-5494161D01*
X31023246Y-5342695D01*
X30715767Y-5249422D01*
X30396000Y-5217928D01*
X29598000Y-5217928D01*
X29278233Y-5249422D01*
X28970754Y-5342695D01*
X28687380Y-5494161D01*
X28439001Y-5698001D01*
X28235161Y-5946380D01*
X28083695Y-6229754D01*
X27990422Y-6537233D01*
X27958928Y-6857000D01*
X27958928Y-7455000D01*
X27984896Y-7718662D01*
X27926488Y-7715783D01*
X27646870Y-7757213D01*
X27380708Y-7852397D01*
X27255486Y-7919329D01*
X27183903Y-8163298D01*
X25660000Y-8163298D01*
X25660000Y-5732419D01*
X25663193Y-5700000D01*
X25650450Y-5570617D01*
X25612710Y-5446207D01*
X25551425Y-5331550D01*
X25468948Y-5231052D01*
X25368450Y-5148575D01*
X25253793Y-5087290D01*
X25129383Y-5049550D01*
X25032419Y-5040000D01*
X25000000Y-5036807D01*
X24967581Y-5040000D01*
X13032419Y-5040000D01*
X13000000Y-5036807D01*
X12967581Y-5040000D01*
X12870617Y-5049550D01*
X12746207Y-5087290D01*
X12631550Y-5148575D01*
X12531052Y-5231052D01*
X12448575Y-5331550D01*
X12387290Y-5446207D01*
X12349550Y-5570617D01*
X12336807Y-5700000D01*
X12340001Y-5732429D01*
X12340001Y-10052870D01*
X12250429Y-10009296D01*
X11938892Y-9927616D01*
X11617405Y-9908282D01*
X11298325Y-9952039D01*
X10993912Y-10057205D01*
X10819956Y-10150186D01*
X10724192Y-10414587D01*
X7555808Y-10414587D01*
X7460044Y-10150186D01*
X7170429Y-10009296D01*
X6858892Y-9927616D01*
X6537405Y-9908282D01*
X6218325Y-9952039D01*
X5913912Y-10057205D01*
X5739956Y-10150186D01*
X5644192Y-10414587D01*
X2696826Y-10414587D01*
X2562252Y-10280013D01*
X2294463Y-10101082D01*
X1996912Y-9977832D01*
X1681033Y-9915000D01*
X1358967Y-9915000D01*
X1043088Y-9977832D01*
X745537Y-10101082D01*
X477748Y-10280013D01*
X250013Y-10507748D01*
X71082Y-10775537D01*
X-52168Y-11073088D01*
X-115000Y-11388967D01*
X-1040963Y-11388967D01*
X69570Y-3985413D01*
X1584192Y-3985413D01*
X1679956Y-4249814D01*
X1969571Y-4390704D01*
X2281108Y-4472384D01*
X2602595Y-4491718D01*
X2921675Y-4447961D01*
X3226088Y-4342795D01*
X3400044Y-4249814D01*
X3495808Y-3985413D01*
X6664192Y-3985413D01*
X6759956Y-4249814D01*
X7049571Y-4390704D01*
X7361108Y-4472384D01*
X7682595Y-4491718D01*
X8001675Y-4447961D01*
X8306088Y-4342795D01*
X8480044Y-4249814D01*
X8575808Y-3985413D01*
X7620000Y-3029605D01*
X6664192Y-3985413D01*
X3495808Y-3985413D01*
X2540000Y-3029605D01*
X1584192Y-3985413D01*
X69570Y-3985413D01*
X230493Y-2912595D01*
X898282Y-2912595D01*
X942039Y-3231675D01*
X1047205Y-3536088D01*
X1140186Y-3710044D01*
X1404587Y-3805808D01*
X2360395Y-2850000D01*
X2719605Y-2850000D01*
X3675413Y-3805808D01*
X3939814Y-3710044D01*
X4080704Y-3420429D01*
X4162384Y-3108892D01*
X4174189Y-2912595D01*
X5978282Y-2912595D01*
X6022039Y-3231675D01*
X6127205Y-3536088D01*
X6220186Y-3710044D01*
X6484587Y-3805808D01*
X7440395Y-2850000D01*
X7799605Y-2850000D01*
X8755413Y-3805808D01*
X9019814Y-3710044D01*
X9160704Y-3420429D01*
X9242384Y-3108892D01*
X9261718Y-2787405D01*
X9248219Y-2688967D01*
X11065000Y-2688967D01*
X11065000Y-3011033D01*
X11127832Y-3326912D01*
X11251082Y-3624463D01*
X11430013Y-3892252D01*
X11657748Y-4119987D01*
X11925537Y-4298918D01*
X12223088Y-4422168D01*
X12538967Y-4485000D01*
X12861033Y-4485000D01*
X13176912Y-4422168D01*
X13474463Y-4298918D01*
X13742252Y-4119987D01*
X13969987Y-3892252D01*
X14148918Y-3624463D01*
X14272168Y-3326912D01*
X14335000Y-3011033D01*
X14335000Y-2688967D01*
X23565000Y-2688967D01*
X23565000Y-3011033D01*
X23627832Y-3326912D01*
X23751082Y-3624463D01*
X23930013Y-3892252D01*
X24157748Y-4119987D01*
X24425537Y-4298918D01*
X24723088Y-4422168D01*
X25038967Y-4485000D01*
X25361033Y-4485000D01*
X25676912Y-4422168D01*
X25974463Y-4298918D01*
X26242252Y-4119987D01*
X26376826Y-3985413D01*
X29324192Y-3985413D01*
X29419956Y-4249814D01*
X29709571Y-4390704D01*
X30021108Y-4472384D01*
X30342595Y-4491718D01*
X30661675Y-4447961D01*
X30966088Y-4342795D01*
X31140044Y-4249814D01*
X31235808Y-3985413D01*
X34404192Y-3985413D01*
X34499956Y-4249814D01*
X34789571Y-4390704D01*
X35101108Y-4472384D01*
X35422595Y-4491718D01*
X35741675Y-4447961D01*
X36046088Y-4342795D01*
X36220044Y-4249814D01*
X36315808Y-3985413D01*
X35360000Y-3029605D01*
X34404192Y-3985413D01*
X31235808Y-3985413D01*
X30280000Y-3029605D01*
X29324192Y-3985413D01*
X26376826Y-3985413D01*
X26469987Y-3892252D01*
X26648918Y-3624463D01*
X26772168Y-3326912D01*
X26835000Y-3011033D01*
X26835000Y-2912595D01*
X28638282Y-2912595D01*
X28682039Y-3231675D01*
X28787205Y-3536088D01*
X28880186Y-3710044D01*
X29144587Y-3805808D01*
X30100395Y-2850000D01*
X30459605Y-2850000D01*
X31415413Y-3805808D01*
X31679814Y-3710044D01*
X31820704Y-3420429D01*
X31902384Y-3108892D01*
X31914189Y-2912595D01*
X33718282Y-2912595D01*
X33762039Y-3231675D01*
X33867205Y-3536088D01*
X33960186Y-3710044D01*
X34224587Y-3805808D01*
X35180395Y-2850000D01*
X35539605Y-2850000D01*
X36495413Y-3805808D01*
X36759814Y-3710044D01*
X36900704Y-3420429D01*
X36982384Y-3108892D01*
X37001718Y-2787405D01*
X36957961Y-2468325D01*
X36852795Y-2163912D01*
X36759814Y-1989956D01*
X36495413Y-1894192D01*
X35539605Y-2850000D01*
X35180395Y-2850000D01*
X34224587Y-1894192D01*
X33960186Y-1989956D01*
X33819296Y-2279571D01*
X33737616Y-2591108D01*
X33718282Y-2912595D01*
X31914189Y-2912595D01*
X31921718Y-2787405D01*
X31877961Y-2468325D01*
X31772795Y-2163912D01*
X31679814Y-1989956D01*
X31415413Y-1894192D01*
X30459605Y-2850000D01*
X30100395Y-2850000D01*
X29144587Y-1894192D01*
X28880186Y-1989956D01*
X28739296Y-2279571D01*
X28657616Y-2591108D01*
X28638282Y-2912595D01*
X26835000Y-2912595D01*
X26835000Y-2688967D01*
X26772168Y-2373088D01*
X26648918Y-2075537D01*
X26469987Y-1807748D01*
X26376826Y-1714587D01*
X29324192Y-1714587D01*
X30280000Y-2670395D01*
X31235808Y-1714587D01*
X34404192Y-1714587D01*
X35360000Y-2670395D01*
X36315808Y-1714587D01*
X36220044Y-1450186D01*
X35930429Y-1309296D01*
X35618892Y-1227616D01*
X35297405Y-1208282D01*
X34978325Y-1252039D01*
X34673912Y-1357205D01*
X34499956Y-1450186D01*
X34404192Y-1714587D01*
X31235808Y-1714587D01*
X31140044Y-1450186D01*
X30850429Y-1309296D01*
X30538892Y-1227616D01*
X30217405Y-1208282D01*
X29898325Y-1252039D01*
X29593912Y-1357205D01*
X29419956Y-1450186D01*
X29324192Y-1714587D01*
X26376826Y-1714587D01*
X26242252Y-1580013D01*
X25974463Y-1401082D01*
X25676912Y-1277832D01*
X25361033Y-1215000D01*
X25038967Y-1215000D01*
X24723088Y-1277832D01*
X24425537Y-1401082D01*
X24157748Y-1580013D01*
X23930013Y-1807748D01*
X23751082Y-2075537D01*
X23627832Y-2373088D01*
X23565000Y-2688967D01*
X14335000Y-2688967D01*
X14272168Y-2373088D01*
X14148918Y-2075537D01*
X13969987Y-1807748D01*
X13742252Y-1580013D01*
X13474463Y-1401082D01*
X13176912Y-1277832D01*
X12861033Y-1215000D01*
X12538967Y-1215000D01*
X12223088Y-1277832D01*
X11925537Y-1401082D01*
X11657748Y-1580013D01*
X11430013Y-1807748D01*
X11251082Y-2075537D01*
X11127832Y-2373088D01*
X11065000Y-2688967D01*
X9248219Y-2688967D01*
X9217961Y-2468325D01*
X9112795Y-2163912D01*
X9019814Y-1989956D01*
X8755413Y-1894192D01*
X7799605Y-2850000D01*
X7440395Y-2850000D01*
X6484587Y-1894192D01*
X6220186Y-1989956D01*
X6079296Y-2279571D01*
X5997616Y-2591108D01*
X5978282Y-2912595D01*
X4174189Y-2912595D01*
X4181718Y-2787405D01*
X4137961Y-2468325D01*
X4032795Y-2163912D01*
X3939814Y-1989956D01*
X3675413Y-1894192D01*
X2719605Y-2850000D01*
X2360395Y-2850000D01*
X1404587Y-1894192D01*
X1140186Y-1989956D01*
X999296Y-2279571D01*
X917616Y-2591108D01*
X898282Y-2912595D01*
X230493Y-2912595D01*
X410194Y-1714587D01*
X1584192Y-1714587D01*
X2540000Y-2670395D01*
X3495808Y-1714587D01*
X6664192Y-1714587D01*
X7620000Y-2670395D01*
X8575808Y-1714587D01*
X8480044Y-1450186D01*
X8190429Y-1309296D01*
X7878892Y-1227616D01*
X7557405Y-1208282D01*
X7238325Y-1252039D01*
X6933912Y-1357205D01*
X6759956Y-1450186D01*
X6664192Y-1714587D01*
X3495808Y-1714587D01*
X3400044Y-1450186D01*
X3110429Y-1309296D01*
X2798892Y-1227616D01*
X2477405Y-1208282D01*
X2158325Y-1252039D01*
X1853912Y-1357205D01*
X1679956Y-1450186D01*
X1584192Y-1714587D01*
X410194Y-1714587D01*
X568383Y-660000D01*
X37431616Y-660000D01*
X40340000Y-20049231D01*
G36*
X28993748Y-27135858D02*
G01*
X28979605Y-27150000D01*
X28993748Y-27164143D01*
X28814143Y-27343748D01*
X28800000Y-27329605D01*
X28785858Y-27343748D01*
X28606253Y-27164143D01*
X28620395Y-27150000D01*
X28606253Y-27135858D01*
X28785858Y-26956253D01*
X28800000Y-26970395D01*
X28814143Y-26956253D01*
X28993748Y-27135858D01*
G37*
X28993748Y-27135858D02*
X28979605Y-27150000D01*
X28993748Y-27164143D01*
X28814143Y-27343748D01*
X28800000Y-27329605D01*
X28785858Y-27343748D01*
X28606253Y-27164143D01*
X28620395Y-27150000D01*
X28606253Y-27135858D01*
X28785858Y-26956253D01*
X28800000Y-26970395D01*
X28814143Y-26956253D01*
X28993748Y-27135858D01*
%TD*%
M02*
