%TF.GenerationSoftware,KiCad,Pcbnew,(5.1.6-0-10_14)*%
%TF.CreationDate,2020-12-05T10:50:09+01:00*%
%TF.ProjectId,Mys,4d79732e-6b69-4636-9164-5f7063625858,rev?*%
%TF.SameCoordinates,PX223cd58PY13c0734*%
%TF.FileFunction,Soldermask,Bot*%
%TF.FilePolarity,Negative*%
%FSLAX46Y46*%
G04 Gerber Fmt 4.6, Leading zero omitted, Abs format (unit mm)*
G04 Created by KiCad (PCBNEW (5.1.6-0-10_14)) date 2020-12-05 10:50:09*
%MOMM*%
%LPD*%
G01*
G04 APERTURE LIST*
%ADD10R,1.450000X1.450000*%
%ADD11O,1.450000X1.450000*%
%ADD12R,2.100000X1.400000*%
%ADD13R,2.100000X2.100000*%
%ADD14C,1.700000*%
%ADD15C,1.624000*%
%ADD16C,2.100000*%
%ADD17C,1.450000*%
G04 APERTURE END LIST*
D10*
%TO.C,J3*%
X700000Y-31800000D03*
D11*
X700000Y-33800000D03*
X700000Y-35800000D03*
X700000Y-37800000D03*
%TD*%
%TO.C,J2*%
X1700000Y-50500000D03*
X1700000Y-48500000D03*
D10*
X1700000Y-46500000D03*
%TD*%
D11*
%TO.C,J6*%
X7600000Y-41900000D03*
X5600000Y-41900000D03*
D10*
X3600000Y-41900000D03*
%TD*%
D11*
%TO.C,J5*%
X3800000Y-28000000D03*
X1800000Y-28000000D03*
D10*
X-200000Y-28000000D03*
%TD*%
D12*
%TO.C,RV1*%
X4500000Y-19950000D03*
D13*
X8500000Y-21100000D03*
D12*
X4500000Y-22250000D03*
%TD*%
D14*
%TO.C,SW3*%
X27997000Y-14156000D03*
X27997000Y-11656000D03*
X27997000Y-9156000D03*
G36*
G01*
X30407500Y-17506000D02*
X29586500Y-17506000D01*
G75*
G02*
X28547000Y-16466500I0J1039500D01*
G01*
X28547000Y-15845500D01*
G75*
G02*
X29586500Y-14806000I1039500J0D01*
G01*
X30407500Y-14806000D01*
G75*
G02*
X31447000Y-15845500I0J-1039500D01*
G01*
X31447000Y-16466500D01*
G75*
G02*
X30407500Y-17506000I-1039500J0D01*
G01*
G37*
G36*
G01*
X30407500Y-8506000D02*
X29586500Y-8506000D01*
G75*
G02*
X28547000Y-7466500I0J1039500D01*
G01*
X28547000Y-6845500D01*
G75*
G02*
X29586500Y-5806000I1039500J0D01*
G01*
X30407500Y-5806000D01*
G75*
G02*
X31447000Y-6845500I0J-1039500D01*
G01*
X31447000Y-7466500D01*
G75*
G02*
X30407500Y-8506000I-1039500J0D01*
G01*
G37*
%TD*%
D15*
%TO.C,J1*%
X26441000Y-65056200D03*
X26441000Y-63056200D03*
X26441000Y-61056200D03*
X26441000Y-67056200D03*
%TD*%
D16*
%TO.C,SW2*%
X30280000Y-2850000D03*
X35360000Y-2850000D03*
X25200000Y-2850000D03*
%TD*%
%TO.C,SW1*%
X7620000Y-2850000D03*
X2540000Y-2850000D03*
X12700000Y-2850000D03*
%TD*%
%TO.C,SW4*%
X1520000Y-11550000D03*
X11680000Y-11550000D03*
X6600000Y-11550000D03*
%TD*%
D17*
%TO.C,U2*%
X29690000Y-37850000D03*
X27910000Y-37850000D03*
X26130000Y-37850000D03*
X24350000Y-37850000D03*
X22570000Y-37850000D03*
X20790000Y-37850000D03*
X19050000Y-37850000D03*
X17230000Y-37850000D03*
X28800000Y-27150000D03*
X27020000Y-27150000D03*
X25240000Y-27150000D03*
X23460000Y-27150000D03*
X21680000Y-27150000D03*
X19900000Y-27150000D03*
X18120000Y-27150000D03*
X16340000Y-27150000D03*
%TD*%
D10*
%TO.C,J4*%
X20980000Y-64183200D03*
D11*
X20980000Y-62183200D03*
X20980000Y-60183200D03*
%TD*%
M02*
