%TF.GenerationSoftware,KiCad,Pcbnew,(5.1.6-0-10_14)*%
%TF.CreationDate,2020-12-05T10:50:09+01:00*%
%TF.ProjectId,Mys,4d79732e-6b69-4636-9164-5f7063625858,rev?*%
%TF.SameCoordinates,PX223cd58PY13c0734*%
%TF.FileFunction,Copper,L1,Top*%
%TF.FilePolarity,Positive*%
%FSLAX46Y46*%
G04 Gerber Fmt 4.6, Leading zero omitted, Abs format (unit mm)*
G04 Created by KiCad (PCBNEW (5.1.6-0-10_14)) date 2020-12-05 10:50:09*
%MOMM*%
%LPD*%
G01*
G04 APERTURE LIST*
%TA.AperFunction,ComponentPad*%
%ADD10R,1.350000X1.350000*%
%TD*%
%TA.AperFunction,ComponentPad*%
%ADD11O,1.350000X1.350000*%
%TD*%
%TA.AperFunction,ComponentPad*%
%ADD12C,1.600000*%
%TD*%
%TA.AperFunction,ComponentPad*%
%ADD13C,1.524000*%
%TD*%
%TA.AperFunction,ComponentPad*%
%ADD14C,2.000000*%
%TD*%
%TA.AperFunction,SMDPad,CuDef*%
%ADD15R,0.900000X0.800000*%
%TD*%
%TA.AperFunction,SMDPad,CuDef*%
%ADD16R,2.000000X1.500000*%
%TD*%
%TA.AperFunction,SMDPad,CuDef*%
%ADD17R,2.000000X3.800000*%
%TD*%
%TA.AperFunction,ComponentPad*%
%ADD18C,1.350000*%
%TD*%
%TA.AperFunction,SMDPad,CuDef*%
%ADD19R,0.650000X1.560000*%
%TD*%
%TA.AperFunction,ViaPad*%
%ADD20C,0.800000*%
%TD*%
%TA.AperFunction,Conductor*%
%ADD21C,0.250000*%
%TD*%
%TA.AperFunction,Conductor*%
%ADD22C,0.500000*%
%TD*%
G04 APERTURE END LIST*
D10*
%TO.P,J3,1*%
%TO.N,Net-(J3-Pad1)*%
X700000Y-31800000D03*
D11*
%TO.P,J3,2*%
%TO.N,Net-(J3-Pad2)*%
X700000Y-33800000D03*
%TO.P,J3,3*%
%TO.N,5V*%
X700000Y-35800000D03*
%TO.P,J3,4*%
%TO.N,GND*%
X700000Y-37800000D03*
%TD*%
%TO.P,J2,3*%
%TO.N,GND*%
X1700000Y-50500000D03*
%TO.P,J2,2*%
%TO.N,Net-(J2-Pad2)*%
X1700000Y-48500000D03*
D10*
%TO.P,J2,1*%
%TO.N,VCC*%
X1700000Y-46500000D03*
%TD*%
D11*
%TO.P,J6,3*%
%TO.N,Net-(J6-Pad3)*%
X7600000Y-41900000D03*
%TO.P,J6,2*%
%TO.N,Net-(J6-Pad2)*%
X5600000Y-41900000D03*
D10*
%TO.P,J6,1*%
%TO.N,GND*%
X3600000Y-41900000D03*
%TD*%
D11*
%TO.P,J5,3*%
%TO.N,GND*%
X3800000Y-28000000D03*
%TO.P,J5,2*%
%TO.N,Net-(J5-Pad2)*%
X1800000Y-28000000D03*
D10*
%TO.P,J5,1*%
%TO.N,5V*%
X-200000Y-28000000D03*
%TD*%
%TO.P,C33,2*%
%TO.N,5V*%
%TA.AperFunction,SMDPad,CuDef*%
G36*
G01*
X-625000Y-41962500D02*
X-625000Y-42437500D01*
G75*
G02*
X-862500Y-42675000I-237500J0D01*
G01*
X-1437500Y-42675000D01*
G75*
G02*
X-1675000Y-42437500I0J237500D01*
G01*
X-1675000Y-41962500D01*
G75*
G02*
X-1437500Y-41725000I237500J0D01*
G01*
X-862500Y-41725000D01*
G75*
G02*
X-625000Y-41962500I0J-237500D01*
G01*
G37*
%TD.AperFunction*%
%TO.P,C33,1*%
%TO.N,GND*%
%TA.AperFunction,SMDPad,CuDef*%
G36*
G01*
X1125000Y-41962500D02*
X1125000Y-42437500D01*
G75*
G02*
X887500Y-42675000I-237500J0D01*
G01*
X312500Y-42675000D01*
G75*
G02*
X75000Y-42437500I0J237500D01*
G01*
X75000Y-41962500D01*
G75*
G02*
X312500Y-41725000I237500J0D01*
G01*
X887500Y-41725000D01*
G75*
G02*
X1125000Y-41962500I0J-237500D01*
G01*
G37*
%TD.AperFunction*%
%TD*%
%TO.P,C32,2*%
%TO.N,5V*%
%TA.AperFunction,SMDPad,CuDef*%
G36*
G01*
X-875000Y-40627500D02*
X-875000Y-40972500D01*
G75*
G02*
X-1022500Y-41120000I-147500J0D01*
G01*
X-1317500Y-41120000D01*
G75*
G02*
X-1465000Y-40972500I0J147500D01*
G01*
X-1465000Y-40627500D01*
G75*
G02*
X-1317500Y-40480000I147500J0D01*
G01*
X-1022500Y-40480000D01*
G75*
G02*
X-875000Y-40627500I0J-147500D01*
G01*
G37*
%TD.AperFunction*%
%TO.P,C32,1*%
%TO.N,GND*%
%TA.AperFunction,SMDPad,CuDef*%
G36*
G01*
X95000Y-40627500D02*
X95000Y-40972500D01*
G75*
G02*
X-52500Y-41120000I-147500J0D01*
G01*
X-347500Y-41120000D01*
G75*
G02*
X-495000Y-40972500I0J147500D01*
G01*
X-495000Y-40627500D01*
G75*
G02*
X-347500Y-40480000I147500J0D01*
G01*
X-52500Y-40480000D01*
G75*
G02*
X95000Y-40627500I0J-147500D01*
G01*
G37*
%TD.AperFunction*%
%TD*%
D12*
%TO.P,SW3,1*%
%TO.N,Net-(D4-Pad2)*%
X27997000Y-14156000D03*
%TO.P,SW3,2*%
%TO.N,Net-(D2-Pad2)*%
X27997000Y-11656000D03*
%TO.P,SW3,3*%
%TO.N,GND*%
X27997000Y-9156000D03*
%TO.P,SW3,*%
%TO.N,*%
%TA.AperFunction,ComponentPad*%
G36*
G01*
X30396000Y-17456000D02*
X29598000Y-17456000D01*
G75*
G02*
X28597000Y-16455000I0J1001000D01*
G01*
X28597000Y-15857000D01*
G75*
G02*
X29598000Y-14856000I1001000J0D01*
G01*
X30396000Y-14856000D01*
G75*
G02*
X31397000Y-15857000I0J-1001000D01*
G01*
X31397000Y-16455000D01*
G75*
G02*
X30396000Y-17456000I-1001000J0D01*
G01*
G37*
%TD.AperFunction*%
%TA.AperFunction,ComponentPad*%
G36*
G01*
X30396000Y-8456000D02*
X29598000Y-8456000D01*
G75*
G02*
X28597000Y-7455000I0J1001000D01*
G01*
X28597000Y-6857000D01*
G75*
G02*
X29598000Y-5856000I1001000J0D01*
G01*
X30396000Y-5856000D01*
G75*
G02*
X31397000Y-6857000I0J-1001000D01*
G01*
X31397000Y-7455000D01*
G75*
G02*
X30396000Y-8456000I-1001000J0D01*
G01*
G37*
%TD.AperFunction*%
%TD*%
%TO.P,U4,8*%
%TO.N,GND*%
%TA.AperFunction,SMDPad,CuDef*%
G36*
G01*
X6415500Y-35587500D02*
X6715500Y-35587500D01*
G75*
G02*
X6865500Y-35737500I0J-150000D01*
G01*
X6865500Y-37387500D01*
G75*
G02*
X6715500Y-37537500I-150000J0D01*
G01*
X6415500Y-37537500D01*
G75*
G02*
X6265500Y-37387500I0J150000D01*
G01*
X6265500Y-35737500D01*
G75*
G02*
X6415500Y-35587500I150000J0D01*
G01*
G37*
%TD.AperFunction*%
%TO.P,U4,7*%
%TO.N,Net-(R23-Pad2)*%
%TA.AperFunction,SMDPad,CuDef*%
G36*
G01*
X5145500Y-35587500D02*
X5445500Y-35587500D01*
G75*
G02*
X5595500Y-35737500I0J-150000D01*
G01*
X5595500Y-37387500D01*
G75*
G02*
X5445500Y-37537500I-150000J0D01*
G01*
X5145500Y-37537500D01*
G75*
G02*
X4995500Y-37387500I0J150000D01*
G01*
X4995500Y-35737500D01*
G75*
G02*
X5145500Y-35587500I150000J0D01*
G01*
G37*
%TD.AperFunction*%
%TO.P,U4,6*%
%TO.N,VCC*%
%TA.AperFunction,SMDPad,CuDef*%
G36*
G01*
X3875500Y-35587500D02*
X4175500Y-35587500D01*
G75*
G02*
X4325500Y-35737500I0J-150000D01*
G01*
X4325500Y-37387500D01*
G75*
G02*
X4175500Y-37537500I-150000J0D01*
G01*
X3875500Y-37537500D01*
G75*
G02*
X3725500Y-37387500I0J150000D01*
G01*
X3725500Y-35737500D01*
G75*
G02*
X3875500Y-35587500I150000J0D01*
G01*
G37*
%TD.AperFunction*%
%TO.P,U4,5*%
%TO.N,Net-(J3-Pad2)*%
%TA.AperFunction,SMDPad,CuDef*%
G36*
G01*
X2605500Y-35587500D02*
X2905500Y-35587500D01*
G75*
G02*
X3055500Y-35737500I0J-150000D01*
G01*
X3055500Y-37387500D01*
G75*
G02*
X2905500Y-37537500I-150000J0D01*
G01*
X2605500Y-37537500D01*
G75*
G02*
X2455500Y-37387500I0J150000D01*
G01*
X2455500Y-35737500D01*
G75*
G02*
X2605500Y-35587500I150000J0D01*
G01*
G37*
%TD.AperFunction*%
%TO.P,U4,4*%
%TO.N,Net-(J3-Pad1)*%
%TA.AperFunction,SMDPad,CuDef*%
G36*
G01*
X2605500Y-30637500D02*
X2905500Y-30637500D01*
G75*
G02*
X3055500Y-30787500I0J-150000D01*
G01*
X3055500Y-32437500D01*
G75*
G02*
X2905500Y-32587500I-150000J0D01*
G01*
X2605500Y-32587500D01*
G75*
G02*
X2455500Y-32437500I0J150000D01*
G01*
X2455500Y-30787500D01*
G75*
G02*
X2605500Y-30637500I150000J0D01*
G01*
G37*
%TD.AperFunction*%
%TO.P,U4,3*%
%TO.N,Net-(Q1-Pad3)*%
%TA.AperFunction,SMDPad,CuDef*%
G36*
G01*
X3875500Y-30637500D02*
X4175500Y-30637500D01*
G75*
G02*
X4325500Y-30787500I0J-150000D01*
G01*
X4325500Y-32437500D01*
G75*
G02*
X4175500Y-32587500I-150000J0D01*
G01*
X3875500Y-32587500D01*
G75*
G02*
X3725500Y-32437500I0J150000D01*
G01*
X3725500Y-30787500D01*
G75*
G02*
X3875500Y-30637500I150000J0D01*
G01*
G37*
%TD.AperFunction*%
%TO.P,U4,2*%
%TO.N,N/C*%
%TA.AperFunction,SMDPad,CuDef*%
G36*
G01*
X5145500Y-30637500D02*
X5445500Y-30637500D01*
G75*
G02*
X5595500Y-30787500I0J-150000D01*
G01*
X5595500Y-32437500D01*
G75*
G02*
X5445500Y-32587500I-150000J0D01*
G01*
X5145500Y-32587500D01*
G75*
G02*
X4995500Y-32437500I0J150000D01*
G01*
X4995500Y-30787500D01*
G75*
G02*
X5145500Y-30637500I150000J0D01*
G01*
G37*
%TD.AperFunction*%
%TO.P,U4,1*%
%TO.N,5V*%
%TA.AperFunction,SMDPad,CuDef*%
G36*
G01*
X6415500Y-30637500D02*
X6715500Y-30637500D01*
G75*
G02*
X6865500Y-30787500I0J-150000D01*
G01*
X6865500Y-32437500D01*
G75*
G02*
X6715500Y-32587500I-150000J0D01*
G01*
X6415500Y-32587500D01*
G75*
G02*
X6265500Y-32437500I0J150000D01*
G01*
X6265500Y-30787500D01*
G75*
G02*
X6415500Y-30637500I150000J0D01*
G01*
G37*
%TD.AperFunction*%
%TD*%
D13*
%TO.P,J1,2*%
%TO.N,GND*%
X26441000Y-65056200D03*
%TO.P,J1,3*%
%TO.N,DP*%
X26441000Y-63056200D03*
%TO.P,J1,4*%
%TO.N,DM*%
X26441000Y-61056200D03*
%TO.P,J1,1*%
%TO.N,5V*%
X26441000Y-67056200D03*
%TD*%
D14*
%TO.P,SW2,3*%
%TO.N,GND*%
X30280000Y-2850000D03*
%TO.P,SW2,2*%
X35360000Y-2850000D03*
%TO.P,SW2,1*%
%TO.N,Net-(D3-Pad2)*%
X25200000Y-2850000D03*
%TD*%
%TO.P,C1,1*%
%TO.N,GND*%
%TA.AperFunction,SMDPad,CuDef*%
G36*
G01*
X8107500Y-6327000D02*
X8452500Y-6327000D01*
G75*
G02*
X8600000Y-6474500I0J-147500D01*
G01*
X8600000Y-6769500D01*
G75*
G02*
X8452500Y-6917000I-147500J0D01*
G01*
X8107500Y-6917000D01*
G75*
G02*
X7960000Y-6769500I0J147500D01*
G01*
X7960000Y-6474500D01*
G75*
G02*
X8107500Y-6327000I147500J0D01*
G01*
G37*
%TD.AperFunction*%
%TO.P,C1,2*%
%TO.N,PA9*%
%TA.AperFunction,SMDPad,CuDef*%
G36*
G01*
X8107500Y-7297000D02*
X8452500Y-7297000D01*
G75*
G02*
X8600000Y-7444500I0J-147500D01*
G01*
X8600000Y-7739500D01*
G75*
G02*
X8452500Y-7887000I-147500J0D01*
G01*
X8107500Y-7887000D01*
G75*
G02*
X7960000Y-7739500I0J147500D01*
G01*
X7960000Y-7444500D01*
G75*
G02*
X8107500Y-7297000I147500J0D01*
G01*
G37*
%TD.AperFunction*%
%TD*%
%TO.P,C2,2*%
%TO.N,VCC1.9*%
%TA.AperFunction,SMDPad,CuDef*%
G36*
G01*
X20679000Y-24593000D02*
X21154000Y-24593000D01*
G75*
G02*
X21391500Y-24830500I0J-237500D01*
G01*
X21391500Y-25405500D01*
G75*
G02*
X21154000Y-25643000I-237500J0D01*
G01*
X20679000Y-25643000D01*
G75*
G02*
X20441500Y-25405500I0J237500D01*
G01*
X20441500Y-24830500D01*
G75*
G02*
X20679000Y-24593000I237500J0D01*
G01*
G37*
%TD.AperFunction*%
%TO.P,C2,1*%
%TO.N,GND*%
%TA.AperFunction,SMDPad,CuDef*%
G36*
G01*
X20679000Y-22843000D02*
X21154000Y-22843000D01*
G75*
G02*
X21391500Y-23080500I0J-237500D01*
G01*
X21391500Y-23655500D01*
G75*
G02*
X21154000Y-23893000I-237500J0D01*
G01*
X20679000Y-23893000D01*
G75*
G02*
X20441500Y-23655500I0J237500D01*
G01*
X20441500Y-23080500D01*
G75*
G02*
X20679000Y-22843000I237500J0D01*
G01*
G37*
%TD.AperFunction*%
%TD*%
%TO.P,C3,1*%
%TO.N,GND*%
%TA.AperFunction,SMDPad,CuDef*%
G36*
G01*
X26547900Y-24134800D02*
X26892900Y-24134800D01*
G75*
G02*
X27040400Y-24282300I0J-147500D01*
G01*
X27040400Y-24577300D01*
G75*
G02*
X26892900Y-24724800I-147500J0D01*
G01*
X26547900Y-24724800D01*
G75*
G02*
X26400400Y-24577300I0J147500D01*
G01*
X26400400Y-24282300D01*
G75*
G02*
X26547900Y-24134800I147500J0D01*
G01*
G37*
%TD.AperFunction*%
%TO.P,C3,2*%
%TO.N,VCC*%
%TA.AperFunction,SMDPad,CuDef*%
G36*
G01*
X26547900Y-25104800D02*
X26892900Y-25104800D01*
G75*
G02*
X27040400Y-25252300I0J-147500D01*
G01*
X27040400Y-25547300D01*
G75*
G02*
X26892900Y-25694800I-147500J0D01*
G01*
X26547900Y-25694800D01*
G75*
G02*
X26400400Y-25547300I0J147500D01*
G01*
X26400400Y-25252300D01*
G75*
G02*
X26547900Y-25104800I147500J0D01*
G01*
G37*
%TD.AperFunction*%
%TD*%
%TO.P,C4,2*%
%TO.N,5V*%
%TA.AperFunction,SMDPad,CuDef*%
G36*
G01*
X30332500Y-66151200D02*
X30677500Y-66151200D01*
G75*
G02*
X30825000Y-66298700I0J-147500D01*
G01*
X30825000Y-66593700D01*
G75*
G02*
X30677500Y-66741200I-147500J0D01*
G01*
X30332500Y-66741200D01*
G75*
G02*
X30185000Y-66593700I0J147500D01*
G01*
X30185000Y-66298700D01*
G75*
G02*
X30332500Y-66151200I147500J0D01*
G01*
G37*
%TD.AperFunction*%
%TO.P,C4,1*%
%TO.N,GND*%
%TA.AperFunction,SMDPad,CuDef*%
G36*
G01*
X30332500Y-65181200D02*
X30677500Y-65181200D01*
G75*
G02*
X30825000Y-65328700I0J-147500D01*
G01*
X30825000Y-65623700D01*
G75*
G02*
X30677500Y-65771200I-147500J0D01*
G01*
X30332500Y-65771200D01*
G75*
G02*
X30185000Y-65623700I0J147500D01*
G01*
X30185000Y-65328700D01*
G75*
G02*
X30332500Y-65181200I147500J0D01*
G01*
G37*
%TD.AperFunction*%
%TD*%
%TO.P,C5,1*%
%TO.N,GND*%
%TA.AperFunction,SMDPad,CuDef*%
G36*
G01*
X22331500Y-24147500D02*
X22676500Y-24147500D01*
G75*
G02*
X22824000Y-24295000I0J-147500D01*
G01*
X22824000Y-24590000D01*
G75*
G02*
X22676500Y-24737500I-147500J0D01*
G01*
X22331500Y-24737500D01*
G75*
G02*
X22184000Y-24590000I0J147500D01*
G01*
X22184000Y-24295000D01*
G75*
G02*
X22331500Y-24147500I147500J0D01*
G01*
G37*
%TD.AperFunction*%
%TO.P,C5,2*%
%TO.N,VCC1.9*%
%TA.AperFunction,SMDPad,CuDef*%
G36*
G01*
X22331500Y-25117500D02*
X22676500Y-25117500D01*
G75*
G02*
X22824000Y-25265000I0J-147500D01*
G01*
X22824000Y-25560000D01*
G75*
G02*
X22676500Y-25707500I-147500J0D01*
G01*
X22331500Y-25707500D01*
G75*
G02*
X22184000Y-25560000I0J147500D01*
G01*
X22184000Y-25265000D01*
G75*
G02*
X22331500Y-25117500I147500J0D01*
G01*
G37*
%TD.AperFunction*%
%TD*%
%TO.P,C6,1*%
%TO.N,GND*%
%TA.AperFunction,SMDPad,CuDef*%
G36*
G01*
X24958900Y-22905200D02*
X25433900Y-22905200D01*
G75*
G02*
X25671400Y-23142700I0J-237500D01*
G01*
X25671400Y-23717700D01*
G75*
G02*
X25433900Y-23955200I-237500J0D01*
G01*
X24958900Y-23955200D01*
G75*
G02*
X24721400Y-23717700I0J237500D01*
G01*
X24721400Y-23142700D01*
G75*
G02*
X24958900Y-22905200I237500J0D01*
G01*
G37*
%TD.AperFunction*%
%TO.P,C6,2*%
%TO.N,VCC*%
%TA.AperFunction,SMDPad,CuDef*%
G36*
G01*
X24958900Y-24655200D02*
X25433900Y-24655200D01*
G75*
G02*
X25671400Y-24892700I0J-237500D01*
G01*
X25671400Y-25467700D01*
G75*
G02*
X25433900Y-25705200I-237500J0D01*
G01*
X24958900Y-25705200D01*
G75*
G02*
X24721400Y-25467700I0J237500D01*
G01*
X24721400Y-24892700D01*
G75*
G02*
X24958900Y-24655200I237500J0D01*
G01*
G37*
%TD.AperFunction*%
%TD*%
%TO.P,C7,2*%
%TO.N,PB14*%
%TA.AperFunction,SMDPad,CuDef*%
G36*
G01*
X38079500Y-8544000D02*
X38424500Y-8544000D01*
G75*
G02*
X38572000Y-8691500I0J-147500D01*
G01*
X38572000Y-8986500D01*
G75*
G02*
X38424500Y-9134000I-147500J0D01*
G01*
X38079500Y-9134000D01*
G75*
G02*
X37932000Y-8986500I0J147500D01*
G01*
X37932000Y-8691500D01*
G75*
G02*
X38079500Y-8544000I147500J0D01*
G01*
G37*
%TD.AperFunction*%
%TO.P,C7,1*%
%TO.N,GND*%
%TA.AperFunction,SMDPad,CuDef*%
G36*
G01*
X38079500Y-7574000D02*
X38424500Y-7574000D01*
G75*
G02*
X38572000Y-7721500I0J-147500D01*
G01*
X38572000Y-8016500D01*
G75*
G02*
X38424500Y-8164000I-147500J0D01*
G01*
X38079500Y-8164000D01*
G75*
G02*
X37932000Y-8016500I0J147500D01*
G01*
X37932000Y-7721500D01*
G75*
G02*
X38079500Y-7574000I147500J0D01*
G01*
G37*
%TD.AperFunction*%
%TD*%
%TO.P,C8,1*%
%TO.N,GND*%
%TA.AperFunction,SMDPad,CuDef*%
G36*
G01*
X32607660Y-60145880D02*
X32607660Y-59670880D01*
G75*
G02*
X32845160Y-59433380I237500J0D01*
G01*
X33420160Y-59433380D01*
G75*
G02*
X33657660Y-59670880I0J-237500D01*
G01*
X33657660Y-60145880D01*
G75*
G02*
X33420160Y-60383380I-237500J0D01*
G01*
X32845160Y-60383380D01*
G75*
G02*
X32607660Y-60145880I0J237500D01*
G01*
G37*
%TD.AperFunction*%
%TO.P,C8,2*%
%TO.N,VCC*%
%TA.AperFunction,SMDPad,CuDef*%
G36*
G01*
X34357660Y-60145880D02*
X34357660Y-59670880D01*
G75*
G02*
X34595160Y-59433380I237500J0D01*
G01*
X35170160Y-59433380D01*
G75*
G02*
X35407660Y-59670880I0J-237500D01*
G01*
X35407660Y-60145880D01*
G75*
G02*
X35170160Y-60383380I-237500J0D01*
G01*
X34595160Y-60383380D01*
G75*
G02*
X34357660Y-60145880I0J237500D01*
G01*
G37*
%TD.AperFunction*%
%TD*%
%TO.P,C9,2*%
%TO.N,Net-(C10-Pad2)*%
%TA.AperFunction,SMDPad,CuDef*%
G36*
G01*
X17377000Y-24579000D02*
X17852000Y-24579000D01*
G75*
G02*
X18089500Y-24816500I0J-237500D01*
G01*
X18089500Y-25391500D01*
G75*
G02*
X17852000Y-25629000I-237500J0D01*
G01*
X17377000Y-25629000D01*
G75*
G02*
X17139500Y-25391500I0J237500D01*
G01*
X17139500Y-24816500D01*
G75*
G02*
X17377000Y-24579000I237500J0D01*
G01*
G37*
%TD.AperFunction*%
%TO.P,C9,1*%
%TO.N,GND*%
%TA.AperFunction,SMDPad,CuDef*%
G36*
G01*
X17377000Y-22829000D02*
X17852000Y-22829000D01*
G75*
G02*
X18089500Y-23066500I0J-237500D01*
G01*
X18089500Y-23641500D01*
G75*
G02*
X17852000Y-23879000I-237500J0D01*
G01*
X17377000Y-23879000D01*
G75*
G02*
X17139500Y-23641500I0J237500D01*
G01*
X17139500Y-23066500D01*
G75*
G02*
X17377000Y-22829000I237500J0D01*
G01*
G37*
%TD.AperFunction*%
%TD*%
%TO.P,C10,1*%
%TO.N,GND*%
%TA.AperFunction,SMDPad,CuDef*%
G36*
G01*
X19093000Y-24170500D02*
X19438000Y-24170500D01*
G75*
G02*
X19585500Y-24318000I0J-147500D01*
G01*
X19585500Y-24613000D01*
G75*
G02*
X19438000Y-24760500I-147500J0D01*
G01*
X19093000Y-24760500D01*
G75*
G02*
X18945500Y-24613000I0J147500D01*
G01*
X18945500Y-24318000D01*
G75*
G02*
X19093000Y-24170500I147500J0D01*
G01*
G37*
%TD.AperFunction*%
%TO.P,C10,2*%
%TO.N,Net-(C10-Pad2)*%
%TA.AperFunction,SMDPad,CuDef*%
G36*
G01*
X19093000Y-25140500D02*
X19438000Y-25140500D01*
G75*
G02*
X19585500Y-25288000I0J-147500D01*
G01*
X19585500Y-25583000D01*
G75*
G02*
X19438000Y-25730500I-147500J0D01*
G01*
X19093000Y-25730500D01*
G75*
G02*
X18945500Y-25583000I0J147500D01*
G01*
X18945500Y-25288000D01*
G75*
G02*
X19093000Y-25140500I147500J0D01*
G01*
G37*
%TD.AperFunction*%
%TD*%
%TO.P,C11,2*%
%TO.N,PA8*%
%TA.AperFunction,SMDPad,CuDef*%
G36*
G01*
X26020000Y-17960500D02*
X26020000Y-18305500D01*
G75*
G02*
X25872500Y-18453000I-147500J0D01*
G01*
X25577500Y-18453000D01*
G75*
G02*
X25430000Y-18305500I0J147500D01*
G01*
X25430000Y-17960500D01*
G75*
G02*
X25577500Y-17813000I147500J0D01*
G01*
X25872500Y-17813000D01*
G75*
G02*
X26020000Y-17960500I0J-147500D01*
G01*
G37*
%TD.AperFunction*%
%TO.P,C11,1*%
%TO.N,GND*%
%TA.AperFunction,SMDPad,CuDef*%
G36*
G01*
X26990000Y-17960500D02*
X26990000Y-18305500D01*
G75*
G02*
X26842500Y-18453000I-147500J0D01*
G01*
X26547500Y-18453000D01*
G75*
G02*
X26400000Y-18305500I0J147500D01*
G01*
X26400000Y-17960500D01*
G75*
G02*
X26547500Y-17813000I147500J0D01*
G01*
X26842500Y-17813000D01*
G75*
G02*
X26990000Y-17960500I0J-147500D01*
G01*
G37*
%TD.AperFunction*%
%TD*%
%TO.P,C12,1*%
%TO.N,GND*%
%TA.AperFunction,SMDPad,CuDef*%
G36*
G01*
X32676780Y-53070920D02*
X32676780Y-53415920D01*
G75*
G02*
X32529280Y-53563420I-147500J0D01*
G01*
X32234280Y-53563420D01*
G75*
G02*
X32086780Y-53415920I0J147500D01*
G01*
X32086780Y-53070920D01*
G75*
G02*
X32234280Y-52923420I147500J0D01*
G01*
X32529280Y-52923420D01*
G75*
G02*
X32676780Y-53070920I0J-147500D01*
G01*
G37*
%TD.AperFunction*%
%TO.P,C12,2*%
%TO.N,VCC*%
%TA.AperFunction,SMDPad,CuDef*%
G36*
G01*
X31706780Y-53070920D02*
X31706780Y-53415920D01*
G75*
G02*
X31559280Y-53563420I-147500J0D01*
G01*
X31264280Y-53563420D01*
G75*
G02*
X31116780Y-53415920I0J147500D01*
G01*
X31116780Y-53070920D01*
G75*
G02*
X31264280Y-52923420I147500J0D01*
G01*
X31559280Y-52923420D01*
G75*
G02*
X31706780Y-53070920I0J-147500D01*
G01*
G37*
%TD.AperFunction*%
%TD*%
%TO.P,C13,2*%
%TO.N,PB15*%
%TA.AperFunction,SMDPad,CuDef*%
G36*
G01*
X34228000Y-17416500D02*
X34228000Y-17071500D01*
G75*
G02*
X34375500Y-16924000I147500J0D01*
G01*
X34670500Y-16924000D01*
G75*
G02*
X34818000Y-17071500I0J-147500D01*
G01*
X34818000Y-17416500D01*
G75*
G02*
X34670500Y-17564000I-147500J0D01*
G01*
X34375500Y-17564000D01*
G75*
G02*
X34228000Y-17416500I0J147500D01*
G01*
G37*
%TD.AperFunction*%
%TO.P,C13,1*%
%TO.N,GND*%
%TA.AperFunction,SMDPad,CuDef*%
G36*
G01*
X33258000Y-17416500D02*
X33258000Y-17071500D01*
G75*
G02*
X33405500Y-16924000I147500J0D01*
G01*
X33700500Y-16924000D01*
G75*
G02*
X33848000Y-17071500I0J-147500D01*
G01*
X33848000Y-17416500D01*
G75*
G02*
X33700500Y-17564000I-147500J0D01*
G01*
X33405500Y-17564000D01*
G75*
G02*
X33258000Y-17416500I0J147500D01*
G01*
G37*
%TD.AperFunction*%
%TD*%
%TO.P,C14,2*%
%TO.N,VCC1.9*%
%TA.AperFunction,SMDPad,CuDef*%
G36*
G01*
X17520300Y-42024600D02*
X17175300Y-42024600D01*
G75*
G02*
X17027800Y-41877100I0J147500D01*
G01*
X17027800Y-41582100D01*
G75*
G02*
X17175300Y-41434600I147500J0D01*
G01*
X17520300Y-41434600D01*
G75*
G02*
X17667800Y-41582100I0J-147500D01*
G01*
X17667800Y-41877100D01*
G75*
G02*
X17520300Y-42024600I-147500J0D01*
G01*
G37*
%TD.AperFunction*%
%TO.P,C14,1*%
%TO.N,GND*%
%TA.AperFunction,SMDPad,CuDef*%
G36*
G01*
X17520300Y-42994600D02*
X17175300Y-42994600D01*
G75*
G02*
X17027800Y-42847100I0J147500D01*
G01*
X17027800Y-42552100D01*
G75*
G02*
X17175300Y-42404600I147500J0D01*
G01*
X17520300Y-42404600D01*
G75*
G02*
X17667800Y-42552100I0J-147500D01*
G01*
X17667800Y-42847100D01*
G75*
G02*
X17520300Y-42994600I-147500J0D01*
G01*
G37*
%TD.AperFunction*%
%TD*%
%TO.P,C15,2*%
%TO.N,VCC1.9*%
%TA.AperFunction,SMDPad,CuDef*%
G36*
G01*
X29824060Y-48570460D02*
X29479060Y-48570460D01*
G75*
G02*
X29331560Y-48422960I0J147500D01*
G01*
X29331560Y-48127960D01*
G75*
G02*
X29479060Y-47980460I147500J0D01*
G01*
X29824060Y-47980460D01*
G75*
G02*
X29971560Y-48127960I0J-147500D01*
G01*
X29971560Y-48422960D01*
G75*
G02*
X29824060Y-48570460I-147500J0D01*
G01*
G37*
%TD.AperFunction*%
%TO.P,C15,1*%
%TO.N,GND*%
%TA.AperFunction,SMDPad,CuDef*%
G36*
G01*
X29824060Y-49540460D02*
X29479060Y-49540460D01*
G75*
G02*
X29331560Y-49392960I0J147500D01*
G01*
X29331560Y-49097960D01*
G75*
G02*
X29479060Y-48950460I147500J0D01*
G01*
X29824060Y-48950460D01*
G75*
G02*
X29971560Y-49097960I0J-147500D01*
G01*
X29971560Y-49392960D01*
G75*
G02*
X29824060Y-49540460I-147500J0D01*
G01*
G37*
%TD.AperFunction*%
%TD*%
%TO.P,C16,1*%
%TO.N,GND*%
%TA.AperFunction,SMDPad,CuDef*%
G36*
G01*
X15870800Y-43941100D02*
X15395800Y-43941100D01*
G75*
G02*
X15158300Y-43703600I0J237500D01*
G01*
X15158300Y-43128600D01*
G75*
G02*
X15395800Y-42891100I237500J0D01*
G01*
X15870800Y-42891100D01*
G75*
G02*
X16108300Y-43128600I0J-237500D01*
G01*
X16108300Y-43703600D01*
G75*
G02*
X15870800Y-43941100I-237500J0D01*
G01*
G37*
%TD.AperFunction*%
%TO.P,C16,2*%
%TO.N,VCC1.9*%
%TA.AperFunction,SMDPad,CuDef*%
G36*
G01*
X15870800Y-42191100D02*
X15395800Y-42191100D01*
G75*
G02*
X15158300Y-41953600I0J237500D01*
G01*
X15158300Y-41378600D01*
G75*
G02*
X15395800Y-41141100I237500J0D01*
G01*
X15870800Y-41141100D01*
G75*
G02*
X16108300Y-41378600I0J-237500D01*
G01*
X16108300Y-41953600D01*
G75*
G02*
X15870800Y-42191100I-237500J0D01*
G01*
G37*
%TD.AperFunction*%
%TD*%
%TO.P,C17,1*%
%TO.N,GND*%
%TA.AperFunction,SMDPad,CuDef*%
G36*
G01*
X3980000Y-15547500D02*
X3980000Y-15892500D01*
G75*
G02*
X3832500Y-16040000I-147500J0D01*
G01*
X3537500Y-16040000D01*
G75*
G02*
X3390000Y-15892500I0J147500D01*
G01*
X3390000Y-15547500D01*
G75*
G02*
X3537500Y-15400000I147500J0D01*
G01*
X3832500Y-15400000D01*
G75*
G02*
X3980000Y-15547500I0J-147500D01*
G01*
G37*
%TD.AperFunction*%
%TO.P,C17,2*%
%TO.N,PA10*%
%TA.AperFunction,SMDPad,CuDef*%
G36*
G01*
X3010000Y-15547500D02*
X3010000Y-15892500D01*
G75*
G02*
X2862500Y-16040000I-147500J0D01*
G01*
X2567500Y-16040000D01*
G75*
G02*
X2420000Y-15892500I0J147500D01*
G01*
X2420000Y-15547500D01*
G75*
G02*
X2567500Y-15400000I147500J0D01*
G01*
X2862500Y-15400000D01*
G75*
G02*
X3010000Y-15547500I0J-147500D01*
G01*
G37*
%TD.AperFunction*%
%TD*%
%TO.P,C18,1*%
%TO.N,GND*%
%TA.AperFunction,SMDPad,CuDef*%
G36*
G01*
X8194900Y-27696600D02*
X8669900Y-27696600D01*
G75*
G02*
X8907400Y-27934100I0J-237500D01*
G01*
X8907400Y-28509100D01*
G75*
G02*
X8669900Y-28746600I-237500J0D01*
G01*
X8194900Y-28746600D01*
G75*
G02*
X7957400Y-28509100I0J237500D01*
G01*
X7957400Y-27934100D01*
G75*
G02*
X8194900Y-27696600I237500J0D01*
G01*
G37*
%TD.AperFunction*%
%TO.P,C18,2*%
%TO.N,5V*%
%TA.AperFunction,SMDPad,CuDef*%
G36*
G01*
X8194900Y-29446600D02*
X8669900Y-29446600D01*
G75*
G02*
X8907400Y-29684100I0J-237500D01*
G01*
X8907400Y-30259100D01*
G75*
G02*
X8669900Y-30496600I-237500J0D01*
G01*
X8194900Y-30496600D01*
G75*
G02*
X7957400Y-30259100I0J237500D01*
G01*
X7957400Y-29684100D01*
G75*
G02*
X8194900Y-29446600I237500J0D01*
G01*
G37*
%TD.AperFunction*%
%TD*%
%TO.P,C19,1*%
%TO.N,GND*%
%TA.AperFunction,SMDPad,CuDef*%
G36*
G01*
X9400500Y-31440000D02*
X9400500Y-31785000D01*
G75*
G02*
X9253000Y-31932500I-147500J0D01*
G01*
X8958000Y-31932500D01*
G75*
G02*
X8810500Y-31785000I0J147500D01*
G01*
X8810500Y-31440000D01*
G75*
G02*
X8958000Y-31292500I147500J0D01*
G01*
X9253000Y-31292500D01*
G75*
G02*
X9400500Y-31440000I0J-147500D01*
G01*
G37*
%TD.AperFunction*%
%TO.P,C19,2*%
%TO.N,5V*%
%TA.AperFunction,SMDPad,CuDef*%
G36*
G01*
X8430500Y-31440000D02*
X8430500Y-31785000D01*
G75*
G02*
X8283000Y-31932500I-147500J0D01*
G01*
X7988000Y-31932500D01*
G75*
G02*
X7840500Y-31785000I0J147500D01*
G01*
X7840500Y-31440000D01*
G75*
G02*
X7988000Y-31292500I147500J0D01*
G01*
X8283000Y-31292500D01*
G75*
G02*
X8430500Y-31440000I0J-147500D01*
G01*
G37*
%TD.AperFunction*%
%TD*%
%TO.P,C22,1*%
%TO.N,GND*%
%TA.AperFunction,SMDPad,CuDef*%
G36*
G01*
X6305000Y-38570000D02*
X6305000Y-38225000D01*
G75*
G02*
X6452500Y-38077500I147500J0D01*
G01*
X6747500Y-38077500D01*
G75*
G02*
X6895000Y-38225000I0J-147500D01*
G01*
X6895000Y-38570000D01*
G75*
G02*
X6747500Y-38717500I-147500J0D01*
G01*
X6452500Y-38717500D01*
G75*
G02*
X6305000Y-38570000I0J147500D01*
G01*
G37*
%TD.AperFunction*%
%TO.P,C22,2*%
%TO.N,ADC_IN8*%
%TA.AperFunction,SMDPad,CuDef*%
G36*
G01*
X7275000Y-38570000D02*
X7275000Y-38225000D01*
G75*
G02*
X7422500Y-38077500I147500J0D01*
G01*
X7717500Y-38077500D01*
G75*
G02*
X7865000Y-38225000I0J-147500D01*
G01*
X7865000Y-38570000D01*
G75*
G02*
X7717500Y-38717500I-147500J0D01*
G01*
X7422500Y-38717500D01*
G75*
G02*
X7275000Y-38570000I0J147500D01*
G01*
G37*
%TD.AperFunction*%
%TD*%
%TO.P,C23,2*%
%TO.N,GND*%
%TA.AperFunction,SMDPad,CuDef*%
G36*
G01*
X8298000Y-34342500D02*
X8643000Y-34342500D01*
G75*
G02*
X8790500Y-34490000I0J-147500D01*
G01*
X8790500Y-34785000D01*
G75*
G02*
X8643000Y-34932500I-147500J0D01*
G01*
X8298000Y-34932500D01*
G75*
G02*
X8150500Y-34785000I0J147500D01*
G01*
X8150500Y-34490000D01*
G75*
G02*
X8298000Y-34342500I147500J0D01*
G01*
G37*
%TD.AperFunction*%
%TO.P,C23,1*%
%TO.N,VCC*%
%TA.AperFunction,SMDPad,CuDef*%
G36*
G01*
X8298000Y-33372500D02*
X8643000Y-33372500D01*
G75*
G02*
X8790500Y-33520000I0J-147500D01*
G01*
X8790500Y-33815000D01*
G75*
G02*
X8643000Y-33962500I-147500J0D01*
G01*
X8298000Y-33962500D01*
G75*
G02*
X8150500Y-33815000I0J147500D01*
G01*
X8150500Y-33520000D01*
G75*
G02*
X8298000Y-33372500I147500J0D01*
G01*
G37*
%TD.AperFunction*%
%TD*%
%TO.P,C24,1*%
%TO.N,Net-(C24-Pad1)*%
%TA.AperFunction,SMDPad,CuDef*%
G36*
G01*
X18676000Y-61544500D02*
X18331000Y-61544500D01*
G75*
G02*
X18183500Y-61397000I0J147500D01*
G01*
X18183500Y-61102000D01*
G75*
G02*
X18331000Y-60954500I147500J0D01*
G01*
X18676000Y-60954500D01*
G75*
G02*
X18823500Y-61102000I0J-147500D01*
G01*
X18823500Y-61397000D01*
G75*
G02*
X18676000Y-61544500I-147500J0D01*
G01*
G37*
%TD.AperFunction*%
%TO.P,C24,2*%
%TO.N,GND*%
%TA.AperFunction,SMDPad,CuDef*%
G36*
G01*
X18676000Y-60574500D02*
X18331000Y-60574500D01*
G75*
G02*
X18183500Y-60427000I0J147500D01*
G01*
X18183500Y-60132000D01*
G75*
G02*
X18331000Y-59984500I147500J0D01*
G01*
X18676000Y-59984500D01*
G75*
G02*
X18823500Y-60132000I0J-147500D01*
G01*
X18823500Y-60427000D01*
G75*
G02*
X18676000Y-60574500I-147500J0D01*
G01*
G37*
%TD.AperFunction*%
%TD*%
%TO.P,C25,2*%
%TO.N,GND*%
%TA.AperFunction,SMDPad,CuDef*%
G36*
G01*
X4437500Y-45150000D02*
X3962500Y-45150000D01*
G75*
G02*
X3725000Y-44912500I0J237500D01*
G01*
X3725000Y-44337500D01*
G75*
G02*
X3962500Y-44100000I237500J0D01*
G01*
X4437500Y-44100000D01*
G75*
G02*
X4675000Y-44337500I0J-237500D01*
G01*
X4675000Y-44912500D01*
G75*
G02*
X4437500Y-45150000I-237500J0D01*
G01*
G37*
%TD.AperFunction*%
%TO.P,C25,1*%
%TO.N,VCC*%
%TA.AperFunction,SMDPad,CuDef*%
G36*
G01*
X4437500Y-46900000D02*
X3962500Y-46900000D01*
G75*
G02*
X3725000Y-46662500I0J237500D01*
G01*
X3725000Y-46087500D01*
G75*
G02*
X3962500Y-45850000I237500J0D01*
G01*
X4437500Y-45850000D01*
G75*
G02*
X4675000Y-46087500I0J-237500D01*
G01*
X4675000Y-46662500D01*
G75*
G02*
X4437500Y-46900000I-237500J0D01*
G01*
G37*
%TD.AperFunction*%
%TD*%
%TO.P,C26,1*%
%TO.N,VCC*%
%TA.AperFunction,SMDPad,CuDef*%
G36*
G01*
X4828500Y-54155500D02*
X4828500Y-54500500D01*
G75*
G02*
X4681000Y-54648000I-147500J0D01*
G01*
X4386000Y-54648000D01*
G75*
G02*
X4238500Y-54500500I0J147500D01*
G01*
X4238500Y-54155500D01*
G75*
G02*
X4386000Y-54008000I147500J0D01*
G01*
X4681000Y-54008000D01*
G75*
G02*
X4828500Y-54155500I0J-147500D01*
G01*
G37*
%TD.AperFunction*%
%TO.P,C26,2*%
%TO.N,GND*%
%TA.AperFunction,SMDPad,CuDef*%
G36*
G01*
X3858500Y-54155500D02*
X3858500Y-54500500D01*
G75*
G02*
X3711000Y-54648000I-147500J0D01*
G01*
X3416000Y-54648000D01*
G75*
G02*
X3268500Y-54500500I0J147500D01*
G01*
X3268500Y-54155500D01*
G75*
G02*
X3416000Y-54008000I147500J0D01*
G01*
X3711000Y-54008000D01*
G75*
G02*
X3858500Y-54155500I0J-147500D01*
G01*
G37*
%TD.AperFunction*%
%TD*%
%TO.P,C27,2*%
%TO.N,GND*%
%TA.AperFunction,SMDPad,CuDef*%
G36*
G01*
X6105000Y-44972500D02*
X6105000Y-44627500D01*
G75*
G02*
X6252500Y-44480000I147500J0D01*
G01*
X6547500Y-44480000D01*
G75*
G02*
X6695000Y-44627500I0J-147500D01*
G01*
X6695000Y-44972500D01*
G75*
G02*
X6547500Y-45120000I-147500J0D01*
G01*
X6252500Y-45120000D01*
G75*
G02*
X6105000Y-44972500I0J147500D01*
G01*
G37*
%TD.AperFunction*%
%TO.P,C27,1*%
%TO.N,VCC*%
%TA.AperFunction,SMDPad,CuDef*%
G36*
G01*
X5135000Y-44972500D02*
X5135000Y-44627500D01*
G75*
G02*
X5282500Y-44480000I147500J0D01*
G01*
X5577500Y-44480000D01*
G75*
G02*
X5725000Y-44627500I0J-147500D01*
G01*
X5725000Y-44972500D01*
G75*
G02*
X5577500Y-45120000I-147500J0D01*
G01*
X5282500Y-45120000D01*
G75*
G02*
X5135000Y-44972500I0J147500D01*
G01*
G37*
%TD.AperFunction*%
%TD*%
%TO.P,C28,1*%
%TO.N,VCC*%
%TA.AperFunction,SMDPad,CuDef*%
G36*
G01*
X5463500Y-55425500D02*
X5463500Y-55770500D01*
G75*
G02*
X5316000Y-55918000I-147500J0D01*
G01*
X5021000Y-55918000D01*
G75*
G02*
X4873500Y-55770500I0J147500D01*
G01*
X4873500Y-55425500D01*
G75*
G02*
X5021000Y-55278000I147500J0D01*
G01*
X5316000Y-55278000D01*
G75*
G02*
X5463500Y-55425500I0J-147500D01*
G01*
G37*
%TD.AperFunction*%
%TO.P,C28,2*%
%TO.N,GND*%
%TA.AperFunction,SMDPad,CuDef*%
G36*
G01*
X4493500Y-55425500D02*
X4493500Y-55770500D01*
G75*
G02*
X4346000Y-55918000I-147500J0D01*
G01*
X4051000Y-55918000D01*
G75*
G02*
X3903500Y-55770500I0J147500D01*
G01*
X3903500Y-55425500D01*
G75*
G02*
X4051000Y-55278000I147500J0D01*
G01*
X4346000Y-55278000D01*
G75*
G02*
X4493500Y-55425500I0J-147500D01*
G01*
G37*
%TD.AperFunction*%
%TD*%
%TO.P,C29,2*%
%TO.N,GND*%
%TA.AperFunction,SMDPad,CuDef*%
G36*
G01*
X10425000Y-56227500D02*
X10425000Y-56572500D01*
G75*
G02*
X10277500Y-56720000I-147500J0D01*
G01*
X9982500Y-56720000D01*
G75*
G02*
X9835000Y-56572500I0J147500D01*
G01*
X9835000Y-56227500D01*
G75*
G02*
X9982500Y-56080000I147500J0D01*
G01*
X10277500Y-56080000D01*
G75*
G02*
X10425000Y-56227500I0J-147500D01*
G01*
G37*
%TD.AperFunction*%
%TO.P,C29,1*%
%TO.N,Net-(C29-Pad1)*%
%TA.AperFunction,SMDPad,CuDef*%
G36*
G01*
X11395000Y-56227500D02*
X11395000Y-56572500D01*
G75*
G02*
X11247500Y-56720000I-147500J0D01*
G01*
X10952500Y-56720000D01*
G75*
G02*
X10805000Y-56572500I0J147500D01*
G01*
X10805000Y-56227500D01*
G75*
G02*
X10952500Y-56080000I147500J0D01*
G01*
X11247500Y-56080000D01*
G75*
G02*
X11395000Y-56227500I0J-147500D01*
G01*
G37*
%TD.AperFunction*%
%TD*%
%TO.P,C30,2*%
%TO.N,GND*%
%TA.AperFunction,SMDPad,CuDef*%
G36*
G01*
X14527500Y-47775000D02*
X14872500Y-47775000D01*
G75*
G02*
X15020000Y-47922500I0J-147500D01*
G01*
X15020000Y-48217500D01*
G75*
G02*
X14872500Y-48365000I-147500J0D01*
G01*
X14527500Y-48365000D01*
G75*
G02*
X14380000Y-48217500I0J147500D01*
G01*
X14380000Y-47922500D01*
G75*
G02*
X14527500Y-47775000I147500J0D01*
G01*
G37*
%TD.AperFunction*%
%TO.P,C30,1*%
%TO.N,VCC*%
%TA.AperFunction,SMDPad,CuDef*%
G36*
G01*
X14527500Y-46805000D02*
X14872500Y-46805000D01*
G75*
G02*
X15020000Y-46952500I0J-147500D01*
G01*
X15020000Y-47247500D01*
G75*
G02*
X14872500Y-47395000I-147500J0D01*
G01*
X14527500Y-47395000D01*
G75*
G02*
X14380000Y-47247500I0J147500D01*
G01*
X14380000Y-46952500D01*
G75*
G02*
X14527500Y-46805000I147500J0D01*
G01*
G37*
%TD.AperFunction*%
%TD*%
%TO.P,C31,2*%
%TO.N,GND*%
%TA.AperFunction,SMDPad,CuDef*%
G36*
G01*
X11251080Y-57961460D02*
X11251080Y-58436460D01*
G75*
G02*
X11013580Y-58673960I-237500J0D01*
G01*
X10438580Y-58673960D01*
G75*
G02*
X10201080Y-58436460I0J237500D01*
G01*
X10201080Y-57961460D01*
G75*
G02*
X10438580Y-57723960I237500J0D01*
G01*
X11013580Y-57723960D01*
G75*
G02*
X11251080Y-57961460I0J-237500D01*
G01*
G37*
%TD.AperFunction*%
%TO.P,C31,1*%
%TO.N,Net-(C29-Pad1)*%
%TA.AperFunction,SMDPad,CuDef*%
G36*
G01*
X13001080Y-57961460D02*
X13001080Y-58436460D01*
G75*
G02*
X12763580Y-58673960I-237500J0D01*
G01*
X12188580Y-58673960D01*
G75*
G02*
X11951080Y-58436460I0J237500D01*
G01*
X11951080Y-57961460D01*
G75*
G02*
X12188580Y-57723960I237500J0D01*
G01*
X12763580Y-57723960D01*
G75*
G02*
X13001080Y-57961460I0J-237500D01*
G01*
G37*
%TD.AperFunction*%
%TD*%
%TO.P,D1,2*%
%TO.N,Net-(D1-Pad2)*%
%TA.AperFunction,SMDPad,CuDef*%
G36*
G01*
X17407000Y-4781500D02*
X17407000Y-4306500D01*
G75*
G02*
X17644500Y-4069000I237500J0D01*
G01*
X18219500Y-4069000D01*
G75*
G02*
X18457000Y-4306500I0J-237500D01*
G01*
X18457000Y-4781500D01*
G75*
G02*
X18219500Y-5019000I-237500J0D01*
G01*
X17644500Y-5019000D01*
G75*
G02*
X17407000Y-4781500I0J237500D01*
G01*
G37*
%TD.AperFunction*%
%TO.P,D1,1*%
%TO.N,PA9*%
%TA.AperFunction,SMDPad,CuDef*%
G36*
G01*
X15657000Y-4781500D02*
X15657000Y-4306500D01*
G75*
G02*
X15894500Y-4069000I237500J0D01*
G01*
X16469500Y-4069000D01*
G75*
G02*
X16707000Y-4306500I0J-237500D01*
G01*
X16707000Y-4781500D01*
G75*
G02*
X16469500Y-5019000I-237500J0D01*
G01*
X15894500Y-5019000D01*
G75*
G02*
X15657000Y-4781500I0J237500D01*
G01*
G37*
%TD.AperFunction*%
%TD*%
%TO.P,D2,1*%
%TO.N,PB14*%
%TA.AperFunction,SMDPad,CuDef*%
G36*
G01*
X34171500Y-11405000D02*
X33696500Y-11405000D01*
G75*
G02*
X33459000Y-11167500I0J237500D01*
G01*
X33459000Y-10592500D01*
G75*
G02*
X33696500Y-10355000I237500J0D01*
G01*
X34171500Y-10355000D01*
G75*
G02*
X34409000Y-10592500I0J-237500D01*
G01*
X34409000Y-11167500D01*
G75*
G02*
X34171500Y-11405000I-237500J0D01*
G01*
G37*
%TD.AperFunction*%
%TO.P,D2,2*%
%TO.N,Net-(D2-Pad2)*%
%TA.AperFunction,SMDPad,CuDef*%
G36*
G01*
X34171500Y-9655000D02*
X33696500Y-9655000D01*
G75*
G02*
X33459000Y-9417500I0J237500D01*
G01*
X33459000Y-8842500D01*
G75*
G02*
X33696500Y-8605000I237500J0D01*
G01*
X34171500Y-8605000D01*
G75*
G02*
X34409000Y-8842500I0J-237500D01*
G01*
X34409000Y-9417500D01*
G75*
G02*
X34171500Y-9655000I-237500J0D01*
G01*
G37*
%TD.AperFunction*%
%TD*%
%TO.P,D3,2*%
%TO.N,Net-(D3-Pad2)*%
%TA.AperFunction,SMDPad,CuDef*%
G36*
G01*
X20771000Y-4306500D02*
X20771000Y-4781500D01*
G75*
G02*
X20533500Y-5019000I-237500J0D01*
G01*
X19958500Y-5019000D01*
G75*
G02*
X19721000Y-4781500I0J237500D01*
G01*
X19721000Y-4306500D01*
G75*
G02*
X19958500Y-4069000I237500J0D01*
G01*
X20533500Y-4069000D01*
G75*
G02*
X20771000Y-4306500I0J-237500D01*
G01*
G37*
%TD.AperFunction*%
%TO.P,D3,1*%
%TO.N,PA8*%
%TA.AperFunction,SMDPad,CuDef*%
G36*
G01*
X22521000Y-4306500D02*
X22521000Y-4781500D01*
G75*
G02*
X22283500Y-5019000I-237500J0D01*
G01*
X21708500Y-5019000D01*
G75*
G02*
X21471000Y-4781500I0J237500D01*
G01*
X21471000Y-4306500D01*
G75*
G02*
X21708500Y-4069000I237500J0D01*
G01*
X22283500Y-4069000D01*
G75*
G02*
X22521000Y-4306500I0J-237500D01*
G01*
G37*
%TD.AperFunction*%
%TD*%
%TO.P,D4,1*%
%TO.N,PB15*%
%TA.AperFunction,SMDPad,CuDef*%
G36*
G01*
X35856000Y-13958500D02*
X35856000Y-14433500D01*
G75*
G02*
X35618500Y-14671000I-237500J0D01*
G01*
X35043500Y-14671000D01*
G75*
G02*
X34806000Y-14433500I0J237500D01*
G01*
X34806000Y-13958500D01*
G75*
G02*
X35043500Y-13721000I237500J0D01*
G01*
X35618500Y-13721000D01*
G75*
G02*
X35856000Y-13958500I0J-237500D01*
G01*
G37*
%TD.AperFunction*%
%TO.P,D4,2*%
%TO.N,Net-(D4-Pad2)*%
%TA.AperFunction,SMDPad,CuDef*%
G36*
G01*
X34106000Y-13958500D02*
X34106000Y-14433500D01*
G75*
G02*
X33868500Y-14671000I-237500J0D01*
G01*
X33293500Y-14671000D01*
G75*
G02*
X33056000Y-14433500I0J237500D01*
G01*
X33056000Y-13958500D01*
G75*
G02*
X33293500Y-13721000I237500J0D01*
G01*
X33868500Y-13721000D01*
G75*
G02*
X34106000Y-13958500I0J-237500D01*
G01*
G37*
%TD.AperFunction*%
%TD*%
%TO.P,D5,1*%
%TO.N,PA10*%
%TA.AperFunction,SMDPad,CuDef*%
G36*
G01*
X2963000Y-17260500D02*
X2963000Y-17735500D01*
G75*
G02*
X2725500Y-17973000I-237500J0D01*
G01*
X2150500Y-17973000D01*
G75*
G02*
X1913000Y-17735500I0J237500D01*
G01*
X1913000Y-17260500D01*
G75*
G02*
X2150500Y-17023000I237500J0D01*
G01*
X2725500Y-17023000D01*
G75*
G02*
X2963000Y-17260500I0J-237500D01*
G01*
G37*
%TD.AperFunction*%
%TO.P,D5,2*%
%TO.N,Net-(D5-Pad2)*%
%TA.AperFunction,SMDPad,CuDef*%
G36*
G01*
X1213000Y-17260500D02*
X1213000Y-17735500D01*
G75*
G02*
X975500Y-17973000I-237500J0D01*
G01*
X400500Y-17973000D01*
G75*
G02*
X163000Y-17735500I0J237500D01*
G01*
X163000Y-17260500D01*
G75*
G02*
X400500Y-17023000I237500J0D01*
G01*
X975500Y-17023000D01*
G75*
G02*
X1213000Y-17260500I0J-237500D01*
G01*
G37*
%TD.AperFunction*%
%TD*%
%TO.P,D6,2*%
%TO.N,Net-(D6-Pad2)*%
%TA.AperFunction,SMDPad,CuDef*%
G36*
G01*
X2962500Y-59645000D02*
X3437500Y-59645000D01*
G75*
G02*
X3675000Y-59882500I0J-237500D01*
G01*
X3675000Y-60457500D01*
G75*
G02*
X3437500Y-60695000I-237500J0D01*
G01*
X2962500Y-60695000D01*
G75*
G02*
X2725000Y-60457500I0J237500D01*
G01*
X2725000Y-59882500D01*
G75*
G02*
X2962500Y-59645000I237500J0D01*
G01*
G37*
%TD.AperFunction*%
%TO.P,D6,1*%
%TO.N,GND*%
%TA.AperFunction,SMDPad,CuDef*%
G36*
G01*
X2962500Y-57895000D02*
X3437500Y-57895000D01*
G75*
G02*
X3675000Y-58132500I0J-237500D01*
G01*
X3675000Y-58707500D01*
G75*
G02*
X3437500Y-58945000I-237500J0D01*
G01*
X2962500Y-58945000D01*
G75*
G02*
X2725000Y-58707500I0J237500D01*
G01*
X2725000Y-58132500D01*
G75*
G02*
X2962500Y-57895000I237500J0D01*
G01*
G37*
%TD.AperFunction*%
%TD*%
%TO.P,D7,1*%
%TO.N,GND*%
%TA.AperFunction,SMDPad,CuDef*%
G36*
G01*
X1488500Y-52693500D02*
X1488500Y-53168500D01*
G75*
G02*
X1251000Y-53406000I-237500J0D01*
G01*
X676000Y-53406000D01*
G75*
G02*
X438500Y-53168500I0J237500D01*
G01*
X438500Y-52693500D01*
G75*
G02*
X676000Y-52456000I237500J0D01*
G01*
X1251000Y-52456000D01*
G75*
G02*
X1488500Y-52693500I0J-237500D01*
G01*
G37*
%TD.AperFunction*%
%TO.P,D7,2*%
%TO.N,Net-(D7-Pad2)*%
%TA.AperFunction,SMDPad,CuDef*%
G36*
G01*
X-261500Y-52693500D02*
X-261500Y-53168500D01*
G75*
G02*
X-499000Y-53406000I-237500J0D01*
G01*
X-1074000Y-53406000D01*
G75*
G02*
X-1311500Y-53168500I0J237500D01*
G01*
X-1311500Y-52693500D01*
G75*
G02*
X-1074000Y-52456000I237500J0D01*
G01*
X-499000Y-52456000D01*
G75*
G02*
X-261500Y-52693500I0J-237500D01*
G01*
G37*
%TD.AperFunction*%
%TD*%
%TO.P,FB1,1*%
%TO.N,VCC*%
%TA.AperFunction,SMDPad,CuDef*%
G36*
G01*
X17757200Y-57844620D02*
X17757200Y-58319620D01*
G75*
G02*
X17519700Y-58557120I-237500J0D01*
G01*
X16944700Y-58557120D01*
G75*
G02*
X16707200Y-58319620I0J237500D01*
G01*
X16707200Y-57844620D01*
G75*
G02*
X16944700Y-57607120I237500J0D01*
G01*
X17519700Y-57607120D01*
G75*
G02*
X17757200Y-57844620I0J-237500D01*
G01*
G37*
%TD.AperFunction*%
%TO.P,FB1,2*%
%TO.N,Net-(C29-Pad1)*%
%TA.AperFunction,SMDPad,CuDef*%
G36*
G01*
X16007200Y-57844620D02*
X16007200Y-58319620D01*
G75*
G02*
X15769700Y-58557120I-237500J0D01*
G01*
X15194700Y-58557120D01*
G75*
G02*
X14957200Y-58319620I0J237500D01*
G01*
X14957200Y-57844620D01*
G75*
G02*
X15194700Y-57607120I237500J0D01*
G01*
X15769700Y-57607120D01*
G75*
G02*
X16007200Y-57844620I0J-237500D01*
G01*
G37*
%TD.AperFunction*%
%TD*%
D15*
%TO.P,Q1,1*%
%TO.N,Net-(Q1-Pad1)*%
X2128880Y-23379760D03*
%TO.P,Q1,2*%
%TO.N,GND*%
X2128880Y-25279760D03*
%TO.P,Q1,3*%
%TO.N,Net-(Q1-Pad3)*%
X4128880Y-24329760D03*
%TD*%
%TO.P,R1,1*%
%TO.N,Net-(D1-Pad2)*%
%TA.AperFunction,SMDPad,CuDef*%
G36*
G01*
X18104500Y-3038000D02*
X17759500Y-3038000D01*
G75*
G02*
X17612000Y-2890500I0J147500D01*
G01*
X17612000Y-2595500D01*
G75*
G02*
X17759500Y-2448000I147500J0D01*
G01*
X18104500Y-2448000D01*
G75*
G02*
X18252000Y-2595500I0J-147500D01*
G01*
X18252000Y-2890500D01*
G75*
G02*
X18104500Y-3038000I-147500J0D01*
G01*
G37*
%TD.AperFunction*%
%TO.P,R1,2*%
%TO.N,VCC*%
%TA.AperFunction,SMDPad,CuDef*%
G36*
G01*
X18104500Y-2068000D02*
X17759500Y-2068000D01*
G75*
G02*
X17612000Y-1920500I0J147500D01*
G01*
X17612000Y-1625500D01*
G75*
G02*
X17759500Y-1478000I147500J0D01*
G01*
X18104500Y-1478000D01*
G75*
G02*
X18252000Y-1625500I0J-147500D01*
G01*
X18252000Y-1920500D01*
G75*
G02*
X18104500Y-2068000I-147500J0D01*
G01*
G37*
%TD.AperFunction*%
%TD*%
%TO.P,R2,2*%
%TO.N,Net-(D1-Pad2)*%
%TA.AperFunction,SMDPad,CuDef*%
G36*
G01*
X9722500Y-6894000D02*
X9377500Y-6894000D01*
G75*
G02*
X9230000Y-6746500I0J147500D01*
G01*
X9230000Y-6451500D01*
G75*
G02*
X9377500Y-6304000I147500J0D01*
G01*
X9722500Y-6304000D01*
G75*
G02*
X9870000Y-6451500I0J-147500D01*
G01*
X9870000Y-6746500D01*
G75*
G02*
X9722500Y-6894000I-147500J0D01*
G01*
G37*
%TD.AperFunction*%
%TO.P,R2,1*%
%TO.N,PA9*%
%TA.AperFunction,SMDPad,CuDef*%
G36*
G01*
X9722500Y-7864000D02*
X9377500Y-7864000D01*
G75*
G02*
X9230000Y-7716500I0J147500D01*
G01*
X9230000Y-7421500D01*
G75*
G02*
X9377500Y-7274000I147500J0D01*
G01*
X9722500Y-7274000D01*
G75*
G02*
X9870000Y-7421500I0J-147500D01*
G01*
X9870000Y-7716500D01*
G75*
G02*
X9722500Y-7864000I-147500J0D01*
G01*
G37*
%TD.AperFunction*%
%TD*%
%TO.P,R3,1*%
%TO.N,PB14*%
%TA.AperFunction,SMDPad,CuDef*%
G36*
G01*
X36138500Y-11547000D02*
X35793500Y-11547000D01*
G75*
G02*
X35646000Y-11399500I0J147500D01*
G01*
X35646000Y-11104500D01*
G75*
G02*
X35793500Y-10957000I147500J0D01*
G01*
X36138500Y-10957000D01*
G75*
G02*
X36286000Y-11104500I0J-147500D01*
G01*
X36286000Y-11399500D01*
G75*
G02*
X36138500Y-11547000I-147500J0D01*
G01*
G37*
%TD.AperFunction*%
%TO.P,R3,2*%
%TO.N,Net-(D2-Pad2)*%
%TA.AperFunction,SMDPad,CuDef*%
G36*
G01*
X36138500Y-10577000D02*
X35793500Y-10577000D01*
G75*
G02*
X35646000Y-10429500I0J147500D01*
G01*
X35646000Y-10134500D01*
G75*
G02*
X35793500Y-9987000I147500J0D01*
G01*
X36138500Y-9987000D01*
G75*
G02*
X36286000Y-10134500I0J-147500D01*
G01*
X36286000Y-10429500D01*
G75*
G02*
X36138500Y-10577000I-147500J0D01*
G01*
G37*
%TD.AperFunction*%
%TD*%
%TO.P,R4,2*%
%TO.N,VCC*%
%TA.AperFunction,SMDPad,CuDef*%
G36*
G01*
X37027500Y-7252000D02*
X36682500Y-7252000D01*
G75*
G02*
X36535000Y-7104500I0J147500D01*
G01*
X36535000Y-6809500D01*
G75*
G02*
X36682500Y-6662000I147500J0D01*
G01*
X37027500Y-6662000D01*
G75*
G02*
X37175000Y-6809500I0J-147500D01*
G01*
X37175000Y-7104500D01*
G75*
G02*
X37027500Y-7252000I-147500J0D01*
G01*
G37*
%TD.AperFunction*%
%TO.P,R4,1*%
%TO.N,Net-(D2-Pad2)*%
%TA.AperFunction,SMDPad,CuDef*%
G36*
G01*
X37027500Y-8222000D02*
X36682500Y-8222000D01*
G75*
G02*
X36535000Y-8074500I0J147500D01*
G01*
X36535000Y-7779500D01*
G75*
G02*
X36682500Y-7632000I147500J0D01*
G01*
X37027500Y-7632000D01*
G75*
G02*
X37175000Y-7779500I0J-147500D01*
G01*
X37175000Y-8074500D01*
G75*
G02*
X37027500Y-8222000I-147500J0D01*
G01*
G37*
%TD.AperFunction*%
%TD*%
%TO.P,R5,1*%
%TO.N,PB13*%
%TA.AperFunction,SMDPad,CuDef*%
G36*
G01*
X30496100Y-21674600D02*
X30971100Y-21674600D01*
G75*
G02*
X31208600Y-21912100I0J-237500D01*
G01*
X31208600Y-22487100D01*
G75*
G02*
X30971100Y-22724600I-237500J0D01*
G01*
X30496100Y-22724600D01*
G75*
G02*
X30258600Y-22487100I0J237500D01*
G01*
X30258600Y-21912100D01*
G75*
G02*
X30496100Y-21674600I237500J0D01*
G01*
G37*
%TD.AperFunction*%
%TO.P,R5,2*%
%TO.N,Net-(R5-Pad2)*%
%TA.AperFunction,SMDPad,CuDef*%
G36*
G01*
X30496100Y-23424600D02*
X30971100Y-23424600D01*
G75*
G02*
X31208600Y-23662100I0J-237500D01*
G01*
X31208600Y-24237100D01*
G75*
G02*
X30971100Y-24474600I-237500J0D01*
G01*
X30496100Y-24474600D01*
G75*
G02*
X30258600Y-24237100I0J237500D01*
G01*
X30258600Y-23662100D01*
G75*
G02*
X30496100Y-23424600I237500J0D01*
G01*
G37*
%TD.AperFunction*%
%TD*%
%TO.P,R6,2*%
%TO.N,VCC*%
%TA.AperFunction,SMDPad,CuDef*%
G36*
G01*
X20644500Y-925000D02*
X20299500Y-925000D01*
G75*
G02*
X20152000Y-777500I0J147500D01*
G01*
X20152000Y-482500D01*
G75*
G02*
X20299500Y-335000I147500J0D01*
G01*
X20644500Y-335000D01*
G75*
G02*
X20792000Y-482500I0J-147500D01*
G01*
X20792000Y-777500D01*
G75*
G02*
X20644500Y-925000I-147500J0D01*
G01*
G37*
%TD.AperFunction*%
%TO.P,R6,1*%
%TO.N,Net-(D3-Pad2)*%
%TA.AperFunction,SMDPad,CuDef*%
G36*
G01*
X20644500Y-1895000D02*
X20299500Y-1895000D01*
G75*
G02*
X20152000Y-1747500I0J147500D01*
G01*
X20152000Y-1452500D01*
G75*
G02*
X20299500Y-1305000I147500J0D01*
G01*
X20644500Y-1305000D01*
G75*
G02*
X20792000Y-1452500I0J-147500D01*
G01*
X20792000Y-1747500D01*
G75*
G02*
X20644500Y-1895000I-147500J0D01*
G01*
G37*
%TD.AperFunction*%
%TD*%
%TO.P,R7,2*%
%TO.N,Net-(D3-Pad2)*%
%TA.AperFunction,SMDPad,CuDef*%
G36*
G01*
X20767000Y-2720500D02*
X20767000Y-3065500D01*
G75*
G02*
X20619500Y-3213000I-147500J0D01*
G01*
X20324500Y-3213000D01*
G75*
G02*
X20177000Y-3065500I0J147500D01*
G01*
X20177000Y-2720500D01*
G75*
G02*
X20324500Y-2573000I147500J0D01*
G01*
X20619500Y-2573000D01*
G75*
G02*
X20767000Y-2720500I0J-147500D01*
G01*
G37*
%TD.AperFunction*%
%TO.P,R7,1*%
%TO.N,PA8*%
%TA.AperFunction,SMDPad,CuDef*%
G36*
G01*
X21737000Y-2720500D02*
X21737000Y-3065500D01*
G75*
G02*
X21589500Y-3213000I-147500J0D01*
G01*
X21294500Y-3213000D01*
G75*
G02*
X21147000Y-3065500I0J147500D01*
G01*
X21147000Y-2720500D01*
G75*
G02*
X21294500Y-2573000I147500J0D01*
G01*
X21589500Y-2573000D01*
G75*
G02*
X21737000Y-2720500I0J-147500D01*
G01*
G37*
%TD.AperFunction*%
%TD*%
%TO.P,R8,1*%
%TO.N,Net-(D4-Pad2)*%
%TA.AperFunction,SMDPad,CuDef*%
G36*
G01*
X35285500Y-6708000D02*
X35630500Y-6708000D01*
G75*
G02*
X35778000Y-6855500I0J-147500D01*
G01*
X35778000Y-7150500D01*
G75*
G02*
X35630500Y-7298000I-147500J0D01*
G01*
X35285500Y-7298000D01*
G75*
G02*
X35138000Y-7150500I0J147500D01*
G01*
X35138000Y-6855500D01*
G75*
G02*
X35285500Y-6708000I147500J0D01*
G01*
G37*
%TD.AperFunction*%
%TO.P,R8,2*%
%TO.N,VCC*%
%TA.AperFunction,SMDPad,CuDef*%
G36*
G01*
X35285500Y-7678000D02*
X35630500Y-7678000D01*
G75*
G02*
X35778000Y-7825500I0J-147500D01*
G01*
X35778000Y-8120500D01*
G75*
G02*
X35630500Y-8268000I-147500J0D01*
G01*
X35285500Y-8268000D01*
G75*
G02*
X35138000Y-8120500I0J147500D01*
G01*
X35138000Y-7825500D01*
G75*
G02*
X35285500Y-7678000I147500J0D01*
G01*
G37*
%TD.AperFunction*%
%TD*%
%TO.P,R9,1*%
%TO.N,PB15*%
%TA.AperFunction,SMDPad,CuDef*%
G36*
G01*
X34737000Y-15674500D02*
X34737000Y-16019500D01*
G75*
G02*
X34589500Y-16167000I-147500J0D01*
G01*
X34294500Y-16167000D01*
G75*
G02*
X34147000Y-16019500I0J147500D01*
G01*
X34147000Y-15674500D01*
G75*
G02*
X34294500Y-15527000I147500J0D01*
G01*
X34589500Y-15527000D01*
G75*
G02*
X34737000Y-15674500I0J-147500D01*
G01*
G37*
%TD.AperFunction*%
%TO.P,R9,2*%
%TO.N,Net-(D4-Pad2)*%
%TA.AperFunction,SMDPad,CuDef*%
G36*
G01*
X33767000Y-15674500D02*
X33767000Y-16019500D01*
G75*
G02*
X33619500Y-16167000I-147500J0D01*
G01*
X33324500Y-16167000D01*
G75*
G02*
X33177000Y-16019500I0J147500D01*
G01*
X33177000Y-15674500D01*
G75*
G02*
X33324500Y-15527000I147500J0D01*
G01*
X33619500Y-15527000D01*
G75*
G02*
X33767000Y-15674500I0J-147500D01*
G01*
G37*
%TD.AperFunction*%
%TD*%
%TO.P,R10,2*%
%TO.N,Net-(R10-Pad2)*%
%TA.AperFunction,SMDPad,CuDef*%
G36*
G01*
X35408480Y-52150440D02*
X34933480Y-52150440D01*
G75*
G02*
X34695980Y-51912940I0J237500D01*
G01*
X34695980Y-51337940D01*
G75*
G02*
X34933480Y-51100440I237500J0D01*
G01*
X35408480Y-51100440D01*
G75*
G02*
X35645980Y-51337940I0J-237500D01*
G01*
X35645980Y-51912940D01*
G75*
G02*
X35408480Y-52150440I-237500J0D01*
G01*
G37*
%TD.AperFunction*%
%TO.P,R10,1*%
%TO.N,PB1*%
%TA.AperFunction,SMDPad,CuDef*%
G36*
G01*
X35408480Y-53900440D02*
X34933480Y-53900440D01*
G75*
G02*
X34695980Y-53662940I0J237500D01*
G01*
X34695980Y-53087940D01*
G75*
G02*
X34933480Y-52850440I237500J0D01*
G01*
X35408480Y-52850440D01*
G75*
G02*
X35645980Y-53087940I0J-237500D01*
G01*
X35645980Y-53662940D01*
G75*
G02*
X35408480Y-53900440I-237500J0D01*
G01*
G37*
%TD.AperFunction*%
%TD*%
%TO.P,R11,1*%
%TO.N,VCC1.9*%
%TA.AperFunction,SMDPad,CuDef*%
G36*
G01*
X19299800Y-42036100D02*
X18824800Y-42036100D01*
G75*
G02*
X18587300Y-41798600I0J237500D01*
G01*
X18587300Y-41223600D01*
G75*
G02*
X18824800Y-40986100I237500J0D01*
G01*
X19299800Y-40986100D01*
G75*
G02*
X19537300Y-41223600I0J-237500D01*
G01*
X19537300Y-41798600D01*
G75*
G02*
X19299800Y-42036100I-237500J0D01*
G01*
G37*
%TD.AperFunction*%
%TO.P,R11,2*%
%TO.N,Net-(R11-Pad2)*%
%TA.AperFunction,SMDPad,CuDef*%
G36*
G01*
X19299800Y-40286100D02*
X18824800Y-40286100D01*
G75*
G02*
X18587300Y-40048600I0J237500D01*
G01*
X18587300Y-39473600D01*
G75*
G02*
X18824800Y-39236100I237500J0D01*
G01*
X19299800Y-39236100D01*
G75*
G02*
X19537300Y-39473600I0J-237500D01*
G01*
X19537300Y-40048600D01*
G75*
G02*
X19299800Y-40286100I-237500J0D01*
G01*
G37*
%TD.AperFunction*%
%TD*%
%TO.P,R12,2*%
%TO.N,PA2*%
%TA.AperFunction,SMDPad,CuDef*%
G36*
G01*
X29480100Y-41216000D02*
X29955100Y-41216000D01*
G75*
G02*
X30192600Y-41453500I0J-237500D01*
G01*
X30192600Y-42028500D01*
G75*
G02*
X29955100Y-42266000I-237500J0D01*
G01*
X29480100Y-42266000D01*
G75*
G02*
X29242600Y-42028500I0J237500D01*
G01*
X29242600Y-41453500D01*
G75*
G02*
X29480100Y-41216000I237500J0D01*
G01*
G37*
%TD.AperFunction*%
%TO.P,R12,1*%
%TO.N,Net-(R12-Pad1)*%
%TA.AperFunction,SMDPad,CuDef*%
G36*
G01*
X29480100Y-39466000D02*
X29955100Y-39466000D01*
G75*
G02*
X30192600Y-39703500I0J-237500D01*
G01*
X30192600Y-40278500D01*
G75*
G02*
X29955100Y-40516000I-237500J0D01*
G01*
X29480100Y-40516000D01*
G75*
G02*
X29242600Y-40278500I0J237500D01*
G01*
X29242600Y-39703500D01*
G75*
G02*
X29480100Y-39466000I237500J0D01*
G01*
G37*
%TD.AperFunction*%
%TD*%
%TO.P,R13,2*%
%TO.N,VCC1.9*%
%TA.AperFunction,SMDPad,CuDef*%
G36*
G01*
X31722300Y-46060520D02*
X31722300Y-46405520D01*
G75*
G02*
X31574800Y-46553020I-147500J0D01*
G01*
X31279800Y-46553020D01*
G75*
G02*
X31132300Y-46405520I0J147500D01*
G01*
X31132300Y-46060520D01*
G75*
G02*
X31279800Y-45913020I147500J0D01*
G01*
X31574800Y-45913020D01*
G75*
G02*
X31722300Y-46060520I0J-147500D01*
G01*
G37*
%TD.AperFunction*%
%TO.P,R13,1*%
%TO.N,Net-(R13-Pad1)*%
%TA.AperFunction,SMDPad,CuDef*%
G36*
G01*
X32692300Y-46060520D02*
X32692300Y-46405520D01*
G75*
G02*
X32544800Y-46553020I-147500J0D01*
G01*
X32249800Y-46553020D01*
G75*
G02*
X32102300Y-46405520I0J147500D01*
G01*
X32102300Y-46060520D01*
G75*
G02*
X32249800Y-45913020I147500J0D01*
G01*
X32544800Y-45913020D01*
G75*
G02*
X32692300Y-46060520I0J-147500D01*
G01*
G37*
%TD.AperFunction*%
%TD*%
%TO.P,R14,1*%
%TO.N,GND*%
%TA.AperFunction,SMDPad,CuDef*%
G36*
G01*
X34899280Y-46060520D02*
X34899280Y-46405520D01*
G75*
G02*
X34751780Y-46553020I-147500J0D01*
G01*
X34456780Y-46553020D01*
G75*
G02*
X34309280Y-46405520I0J147500D01*
G01*
X34309280Y-46060520D01*
G75*
G02*
X34456780Y-45913020I147500J0D01*
G01*
X34751780Y-45913020D01*
G75*
G02*
X34899280Y-46060520I0J-147500D01*
G01*
G37*
%TD.AperFunction*%
%TO.P,R14,2*%
%TO.N,Net-(R13-Pad1)*%
%TA.AperFunction,SMDPad,CuDef*%
G36*
G01*
X33929280Y-46060520D02*
X33929280Y-46405520D01*
G75*
G02*
X33781780Y-46553020I-147500J0D01*
G01*
X33486780Y-46553020D01*
G75*
G02*
X33339280Y-46405520I0J147500D01*
G01*
X33339280Y-46060520D01*
G75*
G02*
X33486780Y-45913020I147500J0D01*
G01*
X33781780Y-45913020D01*
G75*
G02*
X33929280Y-46060520I0J-147500D01*
G01*
G37*
%TD.AperFunction*%
%TD*%
%TO.P,R15,2*%
%TO.N,VCC*%
%TA.AperFunction,SMDPad,CuDef*%
G36*
G01*
X-61000Y-15547500D02*
X-61000Y-15892500D01*
G75*
G02*
X-208500Y-16040000I-147500J0D01*
G01*
X-503500Y-16040000D01*
G75*
G02*
X-651000Y-15892500I0J147500D01*
G01*
X-651000Y-15547500D01*
G75*
G02*
X-503500Y-15400000I147500J0D01*
G01*
X-208500Y-15400000D01*
G75*
G02*
X-61000Y-15547500I0J-147500D01*
G01*
G37*
%TD.AperFunction*%
%TO.P,R15,1*%
%TO.N,Net-(D5-Pad2)*%
%TA.AperFunction,SMDPad,CuDef*%
G36*
G01*
X909000Y-15547500D02*
X909000Y-15892500D01*
G75*
G02*
X761500Y-16040000I-147500J0D01*
G01*
X466500Y-16040000D01*
G75*
G02*
X319000Y-15892500I0J147500D01*
G01*
X319000Y-15547500D01*
G75*
G02*
X466500Y-15400000I147500J0D01*
G01*
X761500Y-15400000D01*
G75*
G02*
X909000Y-15547500I0J-147500D01*
G01*
G37*
%TD.AperFunction*%
%TD*%
%TO.P,R16,1*%
%TO.N,PA10*%
%TA.AperFunction,SMDPad,CuDef*%
G36*
G01*
X3495000Y-19103500D02*
X3495000Y-19448500D01*
G75*
G02*
X3347500Y-19596000I-147500J0D01*
G01*
X3052500Y-19596000D01*
G75*
G02*
X2905000Y-19448500I0J147500D01*
G01*
X2905000Y-19103500D01*
G75*
G02*
X3052500Y-18956000I147500J0D01*
G01*
X3347500Y-18956000D01*
G75*
G02*
X3495000Y-19103500I0J-147500D01*
G01*
G37*
%TD.AperFunction*%
%TO.P,R16,2*%
%TO.N,Net-(D5-Pad2)*%
%TA.AperFunction,SMDPad,CuDef*%
G36*
G01*
X2525000Y-19103500D02*
X2525000Y-19448500D01*
G75*
G02*
X2377500Y-19596000I-147500J0D01*
G01*
X2082500Y-19596000D01*
G75*
G02*
X1935000Y-19448500I0J147500D01*
G01*
X1935000Y-19103500D01*
G75*
G02*
X2082500Y-18956000I147500J0D01*
G01*
X2377500Y-18956000D01*
G75*
G02*
X2525000Y-19103500I0J-147500D01*
G01*
G37*
%TD.AperFunction*%
%TD*%
%TO.P,R17,1*%
%TO.N,Net-(D6-Pad2)*%
%TA.AperFunction,SMDPad,CuDef*%
G36*
G01*
X5317100Y-60655600D02*
X4842100Y-60655600D01*
G75*
G02*
X4604600Y-60418100I0J237500D01*
G01*
X4604600Y-59843100D01*
G75*
G02*
X4842100Y-59605600I237500J0D01*
G01*
X5317100Y-59605600D01*
G75*
G02*
X5554600Y-59843100I0J-237500D01*
G01*
X5554600Y-60418100D01*
G75*
G02*
X5317100Y-60655600I-237500J0D01*
G01*
G37*
%TD.AperFunction*%
%TO.P,R17,2*%
%TO.N,VCC*%
%TA.AperFunction,SMDPad,CuDef*%
G36*
G01*
X5317100Y-58905600D02*
X4842100Y-58905600D01*
G75*
G02*
X4604600Y-58668100I0J237500D01*
G01*
X4604600Y-58093100D01*
G75*
G02*
X4842100Y-57855600I237500J0D01*
G01*
X5317100Y-57855600D01*
G75*
G02*
X5554600Y-58093100I0J-237500D01*
G01*
X5554600Y-58668100D01*
G75*
G02*
X5317100Y-58905600I-237500J0D01*
G01*
G37*
%TD.AperFunction*%
%TD*%
%TO.P,R18,1*%
%TO.N,Net-(D7-Pad2)*%
%TA.AperFunction,SMDPad,CuDef*%
G36*
G01*
X-1297500Y-54946500D02*
X-1297500Y-54471500D01*
G75*
G02*
X-1060000Y-54234000I237500J0D01*
G01*
X-485000Y-54234000D01*
G75*
G02*
X-247500Y-54471500I0J-237500D01*
G01*
X-247500Y-54946500D01*
G75*
G02*
X-485000Y-55184000I-237500J0D01*
G01*
X-1060000Y-55184000D01*
G75*
G02*
X-1297500Y-54946500I0J237500D01*
G01*
G37*
%TD.AperFunction*%
%TO.P,R18,2*%
%TO.N,PB8*%
%TA.AperFunction,SMDPad,CuDef*%
G36*
G01*
X452500Y-54946500D02*
X452500Y-54471500D01*
G75*
G02*
X690000Y-54234000I237500J0D01*
G01*
X1265000Y-54234000D01*
G75*
G02*
X1502500Y-54471500I0J-237500D01*
G01*
X1502500Y-54946500D01*
G75*
G02*
X1265000Y-55184000I-237500J0D01*
G01*
X690000Y-55184000D01*
G75*
G02*
X452500Y-54946500I0J237500D01*
G01*
G37*
%TD.AperFunction*%
%TD*%
%TO.P,R19,1*%
%TO.N,GND*%
%TA.AperFunction,SMDPad,CuDef*%
G36*
G01*
X317320Y-24998000D02*
X317320Y-25343000D01*
G75*
G02*
X169820Y-25490500I-147500J0D01*
G01*
X-125180Y-25490500D01*
G75*
G02*
X-272680Y-25343000I0J147500D01*
G01*
X-272680Y-24998000D01*
G75*
G02*
X-125180Y-24850500I147500J0D01*
G01*
X169820Y-24850500D01*
G75*
G02*
X317320Y-24998000I0J-147500D01*
G01*
G37*
%TD.AperFunction*%
%TO.P,R19,2*%
%TO.N,PB9*%
%TA.AperFunction,SMDPad,CuDef*%
G36*
G01*
X-652680Y-24998000D02*
X-652680Y-25343000D01*
G75*
G02*
X-800180Y-25490500I-147500J0D01*
G01*
X-1095180Y-25490500D01*
G75*
G02*
X-1242680Y-25343000I0J147500D01*
G01*
X-1242680Y-24998000D01*
G75*
G02*
X-1095180Y-24850500I147500J0D01*
G01*
X-800180Y-24850500D01*
G75*
G02*
X-652680Y-24998000I0J-147500D01*
G01*
G37*
%TD.AperFunction*%
%TD*%
%TO.P,R20,1*%
%TO.N,PB9*%
%TA.AperFunction,SMDPad,CuDef*%
G36*
G01*
X-1209520Y-23511660D02*
X-1209520Y-23166660D01*
G75*
G02*
X-1062020Y-23019160I147500J0D01*
G01*
X-767020Y-23019160D01*
G75*
G02*
X-619520Y-23166660I0J-147500D01*
G01*
X-619520Y-23511660D01*
G75*
G02*
X-767020Y-23659160I-147500J0D01*
G01*
X-1062020Y-23659160D01*
G75*
G02*
X-1209520Y-23511660I0J147500D01*
G01*
G37*
%TD.AperFunction*%
%TO.P,R20,2*%
%TO.N,Net-(Q1-Pad1)*%
%TA.AperFunction,SMDPad,CuDef*%
G36*
G01*
X-239520Y-23511660D02*
X-239520Y-23166660D01*
G75*
G02*
X-92020Y-23019160I147500J0D01*
G01*
X202980Y-23019160D01*
G75*
G02*
X350480Y-23166660I0J-147500D01*
G01*
X350480Y-23511660D01*
G75*
G02*
X202980Y-23659160I-147500J0D01*
G01*
X-92020Y-23659160D01*
G75*
G02*
X-239520Y-23511660I0J147500D01*
G01*
G37*
%TD.AperFunction*%
%TD*%
%TO.P,R21,2*%
%TO.N,5V*%
%TA.AperFunction,SMDPad,CuDef*%
G36*
G01*
X6427500Y-28990000D02*
X6772500Y-28990000D01*
G75*
G02*
X6920000Y-29137500I0J-147500D01*
G01*
X6920000Y-29432500D01*
G75*
G02*
X6772500Y-29580000I-147500J0D01*
G01*
X6427500Y-29580000D01*
G75*
G02*
X6280000Y-29432500I0J147500D01*
G01*
X6280000Y-29137500D01*
G75*
G02*
X6427500Y-28990000I147500J0D01*
G01*
G37*
%TD.AperFunction*%
%TO.P,R21,1*%
%TO.N,Net-(Q1-Pad3)*%
%TA.AperFunction,SMDPad,CuDef*%
G36*
G01*
X6427500Y-28020000D02*
X6772500Y-28020000D01*
G75*
G02*
X6920000Y-28167500I0J-147500D01*
G01*
X6920000Y-28462500D01*
G75*
G02*
X6772500Y-28610000I-147500J0D01*
G01*
X6427500Y-28610000D01*
G75*
G02*
X6280000Y-28462500I0J147500D01*
G01*
X6280000Y-28167500D01*
G75*
G02*
X6427500Y-28020000I147500J0D01*
G01*
G37*
%TD.AperFunction*%
%TD*%
%TO.P,R23,2*%
%TO.N,Net-(R23-Pad2)*%
%TA.AperFunction,SMDPad,CuDef*%
G36*
G01*
X4990000Y-38572500D02*
X4990000Y-38227500D01*
G75*
G02*
X5137500Y-38080000I147500J0D01*
G01*
X5432500Y-38080000D01*
G75*
G02*
X5580000Y-38227500I0J-147500D01*
G01*
X5580000Y-38572500D01*
G75*
G02*
X5432500Y-38720000I-147500J0D01*
G01*
X5137500Y-38720000D01*
G75*
G02*
X4990000Y-38572500I0J147500D01*
G01*
G37*
%TD.AperFunction*%
%TO.P,R23,1*%
%TO.N,ADC_IN8*%
%TA.AperFunction,SMDPad,CuDef*%
G36*
G01*
X4020000Y-38572500D02*
X4020000Y-38227500D01*
G75*
G02*
X4167500Y-38080000I147500J0D01*
G01*
X4462500Y-38080000D01*
G75*
G02*
X4610000Y-38227500I0J-147500D01*
G01*
X4610000Y-38572500D01*
G75*
G02*
X4462500Y-38720000I-147500J0D01*
G01*
X4167500Y-38720000D01*
G75*
G02*
X4020000Y-38572500I0J147500D01*
G01*
G37*
%TD.AperFunction*%
%TD*%
%TO.P,R24,2*%
%TO.N,NSS*%
%TA.AperFunction,SMDPad,CuDef*%
G36*
G01*
X16428100Y-53353000D02*
X16083100Y-53353000D01*
G75*
G02*
X15935600Y-53205500I0J147500D01*
G01*
X15935600Y-52910500D01*
G75*
G02*
X16083100Y-52763000I147500J0D01*
G01*
X16428100Y-52763000D01*
G75*
G02*
X16575600Y-52910500I0J-147500D01*
G01*
X16575600Y-53205500D01*
G75*
G02*
X16428100Y-53353000I-147500J0D01*
G01*
G37*
%TD.AperFunction*%
%TO.P,R24,1*%
%TO.N,VCC*%
%TA.AperFunction,SMDPad,CuDef*%
G36*
G01*
X16428100Y-54323000D02*
X16083100Y-54323000D01*
G75*
G02*
X15935600Y-54175500I0J147500D01*
G01*
X15935600Y-53880500D01*
G75*
G02*
X16083100Y-53733000I147500J0D01*
G01*
X16428100Y-53733000D01*
G75*
G02*
X16575600Y-53880500I0J-147500D01*
G01*
X16575600Y-54175500D01*
G75*
G02*
X16428100Y-54323000I-147500J0D01*
G01*
G37*
%TD.AperFunction*%
%TD*%
%TO.P,R25,1*%
%TO.N,VCC*%
%TA.AperFunction,SMDPad,CuDef*%
G36*
G01*
X19069700Y-55260400D02*
X18724700Y-55260400D01*
G75*
G02*
X18577200Y-55112900I0J147500D01*
G01*
X18577200Y-54817900D01*
G75*
G02*
X18724700Y-54670400I147500J0D01*
G01*
X19069700Y-54670400D01*
G75*
G02*
X19217200Y-54817900I0J-147500D01*
G01*
X19217200Y-55112900D01*
G75*
G02*
X19069700Y-55260400I-147500J0D01*
G01*
G37*
%TD.AperFunction*%
%TO.P,R25,2*%
%TO.N,MOSI*%
%TA.AperFunction,SMDPad,CuDef*%
G36*
G01*
X19069700Y-54290400D02*
X18724700Y-54290400D01*
G75*
G02*
X18577200Y-54142900I0J147500D01*
G01*
X18577200Y-53847900D01*
G75*
G02*
X18724700Y-53700400I147500J0D01*
G01*
X19069700Y-53700400D01*
G75*
G02*
X19217200Y-53847900I0J-147500D01*
G01*
X19217200Y-54142900D01*
G75*
G02*
X19069700Y-54290400I-147500J0D01*
G01*
G37*
%TD.AperFunction*%
%TD*%
D14*
%TO.P,SW1,3*%
%TO.N,GND*%
X7620000Y-2850000D03*
%TO.P,SW1,2*%
X2540000Y-2850000D03*
%TO.P,SW1,1*%
%TO.N,Net-(D1-Pad2)*%
X12700000Y-2850000D03*
%TD*%
%TO.P,SW4,1*%
%TO.N,Net-(D5-Pad2)*%
X1520000Y-11550000D03*
%TO.P,SW4,2*%
%TO.N,GND*%
X11680000Y-11550000D03*
%TO.P,SW4,3*%
X6600000Y-11550000D03*
%TD*%
D16*
%TO.P,U1,1*%
%TO.N,GND*%
X32925220Y-62480100D03*
%TO.P,U1,3*%
%TO.N,5V*%
X32925220Y-67080100D03*
%TO.P,U1,2*%
%TO.N,VCC*%
X32925220Y-64780100D03*
D17*
%TO.P,U1,4*%
%TO.N,N/C*%
X39225220Y-64780100D03*
%TD*%
D18*
%TO.P,U2,9*%
%TO.N,Net-(R12-Pad1)*%
X29690000Y-37850000D03*
%TO.P,U2,10*%
%TO.N,SCLK*%
X27910000Y-37850000D03*
%TO.P,U2,11*%
%TO.N,MOSI*%
X26130000Y-37850000D03*
%TO.P,U2,12*%
%TO.N,MISO*%
X24350000Y-37850000D03*
%TO.P,U2,13*%
%TO.N,NSS*%
X22570000Y-37850000D03*
%TO.P,U2,14*%
%TO.N,N/C*%
X20790000Y-37850000D03*
%TO.P,U2,15*%
%TO.N,Net-(R11-Pad2)*%
X19050000Y-37850000D03*
%TO.P,U2,16*%
%TO.N,N/C*%
X17230000Y-37850000D03*
%TO.P,U2,8*%
%TO.N,GND*%
X28800000Y-27150000D03*
%TO.P,U2,7*%
%TO.N,Net-(R5-Pad2)*%
X27020000Y-27150000D03*
%TO.P,U2,6*%
%TO.N,N/C*%
X25240000Y-27150000D03*
%TO.P,U2,5*%
%TO.N,VCC*%
X23460000Y-27150000D03*
%TO.P,U2,4*%
%TO.N,VCC1.9*%
X21680000Y-27150000D03*
%TO.P,U2,3*%
%TO.N,Net-(C10-Pad2)*%
X19900000Y-27150000D03*
%TO.P,U2,2*%
%TO.N,N/C*%
X18120000Y-27150000D03*
%TO.P,U2,1*%
X16340000Y-27150000D03*
%TD*%
D19*
%TO.P,U3,1*%
%TO.N,VCC*%
X31366020Y-51166960D03*
%TO.P,U3,2*%
%TO.N,GND*%
X32316020Y-51166960D03*
%TO.P,U3,3*%
%TO.N,Net-(R10-Pad2)*%
X33266020Y-51166960D03*
%TO.P,U3,4*%
%TO.N,Net-(R13-Pad1)*%
X33266020Y-48466960D03*
%TO.P,U3,5*%
%TO.N,VCC1.9*%
X31366020Y-48466960D03*
%TD*%
D10*
%TO.P,J4,1*%
%TO.N,VCC*%
X20980000Y-64183200D03*
D11*
%TO.P,J4,2*%
%TO.N,Net-(C24-Pad1)*%
X20980000Y-62183200D03*
%TO.P,J4,3*%
%TO.N,GND*%
X20980000Y-60183200D03*
%TD*%
%TO.P,U5,1*%
%TO.N,VCC*%
%TA.AperFunction,SMDPad,CuDef*%
G36*
G01*
X6325000Y-55400000D02*
X6175000Y-55400000D01*
G75*
G02*
X6100000Y-55325000I0J75000D01*
G01*
X6100000Y-54000000D01*
G75*
G02*
X6175000Y-53925000I75000J0D01*
G01*
X6325000Y-53925000D01*
G75*
G02*
X6400000Y-54000000I0J-75000D01*
G01*
X6400000Y-55325000D01*
G75*
G02*
X6325000Y-55400000I-75000J0D01*
G01*
G37*
%TD.AperFunction*%
%TO.P,U5,2*%
%TO.N,N/C*%
%TA.AperFunction,SMDPad,CuDef*%
G36*
G01*
X6825000Y-55400000D02*
X6675000Y-55400000D01*
G75*
G02*
X6600000Y-55325000I0J75000D01*
G01*
X6600000Y-54000000D01*
G75*
G02*
X6675000Y-53925000I75000J0D01*
G01*
X6825000Y-53925000D01*
G75*
G02*
X6900000Y-54000000I0J-75000D01*
G01*
X6900000Y-55325000D01*
G75*
G02*
X6825000Y-55400000I-75000J0D01*
G01*
G37*
%TD.AperFunction*%
%TO.P,U5,3*%
%TA.AperFunction,SMDPad,CuDef*%
G36*
G01*
X7325000Y-55400000D02*
X7175000Y-55400000D01*
G75*
G02*
X7100000Y-55325000I0J75000D01*
G01*
X7100000Y-54000000D01*
G75*
G02*
X7175000Y-53925000I75000J0D01*
G01*
X7325000Y-53925000D01*
G75*
G02*
X7400000Y-54000000I0J-75000D01*
G01*
X7400000Y-55325000D01*
G75*
G02*
X7325000Y-55400000I-75000J0D01*
G01*
G37*
%TD.AperFunction*%
%TO.P,U5,4*%
%TA.AperFunction,SMDPad,CuDef*%
G36*
G01*
X7825000Y-55400000D02*
X7675000Y-55400000D01*
G75*
G02*
X7600000Y-55325000I0J75000D01*
G01*
X7600000Y-54000000D01*
G75*
G02*
X7675000Y-53925000I75000J0D01*
G01*
X7825000Y-53925000D01*
G75*
G02*
X7900000Y-54000000I0J-75000D01*
G01*
X7900000Y-55325000D01*
G75*
G02*
X7825000Y-55400000I-75000J0D01*
G01*
G37*
%TD.AperFunction*%
%TO.P,U5,5*%
%TA.AperFunction,SMDPad,CuDef*%
G36*
G01*
X8325000Y-55400000D02*
X8175000Y-55400000D01*
G75*
G02*
X8100000Y-55325000I0J75000D01*
G01*
X8100000Y-54000000D01*
G75*
G02*
X8175000Y-53925000I75000J0D01*
G01*
X8325000Y-53925000D01*
G75*
G02*
X8400000Y-54000000I0J-75000D01*
G01*
X8400000Y-55325000D01*
G75*
G02*
X8325000Y-55400000I-75000J0D01*
G01*
G37*
%TD.AperFunction*%
%TO.P,U5,6*%
%TA.AperFunction,SMDPad,CuDef*%
G36*
G01*
X8825000Y-55400000D02*
X8675000Y-55400000D01*
G75*
G02*
X8600000Y-55325000I0J75000D01*
G01*
X8600000Y-54000000D01*
G75*
G02*
X8675000Y-53925000I75000J0D01*
G01*
X8825000Y-53925000D01*
G75*
G02*
X8900000Y-54000000I0J-75000D01*
G01*
X8900000Y-55325000D01*
G75*
G02*
X8825000Y-55400000I-75000J0D01*
G01*
G37*
%TD.AperFunction*%
%TO.P,U5,7*%
%TO.N,Net-(C24-Pad1)*%
%TA.AperFunction,SMDPad,CuDef*%
G36*
G01*
X9325000Y-55400000D02*
X9175000Y-55400000D01*
G75*
G02*
X9100000Y-55325000I0J75000D01*
G01*
X9100000Y-54000000D01*
G75*
G02*
X9175000Y-53925000I75000J0D01*
G01*
X9325000Y-53925000D01*
G75*
G02*
X9400000Y-54000000I0J-75000D01*
G01*
X9400000Y-55325000D01*
G75*
G02*
X9325000Y-55400000I-75000J0D01*
G01*
G37*
%TD.AperFunction*%
%TO.P,U5,8*%
%TO.N,GND*%
%TA.AperFunction,SMDPad,CuDef*%
G36*
G01*
X9825000Y-55400000D02*
X9675000Y-55400000D01*
G75*
G02*
X9600000Y-55325000I0J75000D01*
G01*
X9600000Y-54000000D01*
G75*
G02*
X9675000Y-53925000I75000J0D01*
G01*
X9825000Y-53925000D01*
G75*
G02*
X9900000Y-54000000I0J-75000D01*
G01*
X9900000Y-55325000D01*
G75*
G02*
X9825000Y-55400000I-75000J0D01*
G01*
G37*
%TD.AperFunction*%
%TO.P,U5,9*%
%TO.N,Net-(C29-Pad1)*%
%TA.AperFunction,SMDPad,CuDef*%
G36*
G01*
X10325000Y-55400000D02*
X10175000Y-55400000D01*
G75*
G02*
X10100000Y-55325000I0J75000D01*
G01*
X10100000Y-54000000D01*
G75*
G02*
X10175000Y-53925000I75000J0D01*
G01*
X10325000Y-53925000D01*
G75*
G02*
X10400000Y-54000000I0J-75000D01*
G01*
X10400000Y-55325000D01*
G75*
G02*
X10325000Y-55400000I-75000J0D01*
G01*
G37*
%TD.AperFunction*%
%TO.P,U5,10*%
%TO.N,N/C*%
%TA.AperFunction,SMDPad,CuDef*%
G36*
G01*
X10825000Y-55400000D02*
X10675000Y-55400000D01*
G75*
G02*
X10600000Y-55325000I0J75000D01*
G01*
X10600000Y-54000000D01*
G75*
G02*
X10675000Y-53925000I75000J0D01*
G01*
X10825000Y-53925000D01*
G75*
G02*
X10900000Y-54000000I0J-75000D01*
G01*
X10900000Y-55325000D01*
G75*
G02*
X10825000Y-55400000I-75000J0D01*
G01*
G37*
%TD.AperFunction*%
%TO.P,U5,11*%
%TA.AperFunction,SMDPad,CuDef*%
G36*
G01*
X11325000Y-55400000D02*
X11175000Y-55400000D01*
G75*
G02*
X11100000Y-55325000I0J75000D01*
G01*
X11100000Y-54000000D01*
G75*
G02*
X11175000Y-53925000I75000J0D01*
G01*
X11325000Y-53925000D01*
G75*
G02*
X11400000Y-54000000I0J-75000D01*
G01*
X11400000Y-55325000D01*
G75*
G02*
X11325000Y-55400000I-75000J0D01*
G01*
G37*
%TD.AperFunction*%
%TO.P,U5,12*%
%TO.N,PA2*%
%TA.AperFunction,SMDPad,CuDef*%
G36*
G01*
X11825000Y-55400000D02*
X11675000Y-55400000D01*
G75*
G02*
X11600000Y-55325000I0J75000D01*
G01*
X11600000Y-54000000D01*
G75*
G02*
X11675000Y-53925000I75000J0D01*
G01*
X11825000Y-53925000D01*
G75*
G02*
X11900000Y-54000000I0J-75000D01*
G01*
X11900000Y-55325000D01*
G75*
G02*
X11825000Y-55400000I-75000J0D01*
G01*
G37*
%TD.AperFunction*%
%TO.P,U5,13*%
%TO.N,N/C*%
%TA.AperFunction,SMDPad,CuDef*%
G36*
G01*
X13825000Y-53400000D02*
X12500000Y-53400000D01*
G75*
G02*
X12425000Y-53325000I0J75000D01*
G01*
X12425000Y-53175000D01*
G75*
G02*
X12500000Y-53100000I75000J0D01*
G01*
X13825000Y-53100000D01*
G75*
G02*
X13900000Y-53175000I0J-75000D01*
G01*
X13900000Y-53325000D01*
G75*
G02*
X13825000Y-53400000I-75000J0D01*
G01*
G37*
%TD.AperFunction*%
%TO.P,U5,14*%
%TO.N,NSS*%
%TA.AperFunction,SMDPad,CuDef*%
G36*
G01*
X13825000Y-52900000D02*
X12500000Y-52900000D01*
G75*
G02*
X12425000Y-52825000I0J75000D01*
G01*
X12425000Y-52675000D01*
G75*
G02*
X12500000Y-52600000I75000J0D01*
G01*
X13825000Y-52600000D01*
G75*
G02*
X13900000Y-52675000I0J-75000D01*
G01*
X13900000Y-52825000D01*
G75*
G02*
X13825000Y-52900000I-75000J0D01*
G01*
G37*
%TD.AperFunction*%
%TO.P,U5,15*%
%TO.N,SCLK*%
%TA.AperFunction,SMDPad,CuDef*%
G36*
G01*
X13825000Y-52400000D02*
X12500000Y-52400000D01*
G75*
G02*
X12425000Y-52325000I0J75000D01*
G01*
X12425000Y-52175000D01*
G75*
G02*
X12500000Y-52100000I75000J0D01*
G01*
X13825000Y-52100000D01*
G75*
G02*
X13900000Y-52175000I0J-75000D01*
G01*
X13900000Y-52325000D01*
G75*
G02*
X13825000Y-52400000I-75000J0D01*
G01*
G37*
%TD.AperFunction*%
%TO.P,U5,16*%
%TO.N,MISO*%
%TA.AperFunction,SMDPad,CuDef*%
G36*
G01*
X13825000Y-51900000D02*
X12500000Y-51900000D01*
G75*
G02*
X12425000Y-51825000I0J75000D01*
G01*
X12425000Y-51675000D01*
G75*
G02*
X12500000Y-51600000I75000J0D01*
G01*
X13825000Y-51600000D01*
G75*
G02*
X13900000Y-51675000I0J-75000D01*
G01*
X13900000Y-51825000D01*
G75*
G02*
X13825000Y-51900000I-75000J0D01*
G01*
G37*
%TD.AperFunction*%
%TO.P,U5,17*%
%TO.N,MOSI*%
%TA.AperFunction,SMDPad,CuDef*%
G36*
G01*
X13825000Y-51400000D02*
X12500000Y-51400000D01*
G75*
G02*
X12425000Y-51325000I0J75000D01*
G01*
X12425000Y-51175000D01*
G75*
G02*
X12500000Y-51100000I75000J0D01*
G01*
X13825000Y-51100000D01*
G75*
G02*
X13900000Y-51175000I0J-75000D01*
G01*
X13900000Y-51325000D01*
G75*
G02*
X13825000Y-51400000I-75000J0D01*
G01*
G37*
%TD.AperFunction*%
%TO.P,U5,18*%
%TO.N,ADC_IN8*%
%TA.AperFunction,SMDPad,CuDef*%
G36*
G01*
X13825000Y-50900000D02*
X12500000Y-50900000D01*
G75*
G02*
X12425000Y-50825000I0J75000D01*
G01*
X12425000Y-50675000D01*
G75*
G02*
X12500000Y-50600000I75000J0D01*
G01*
X13825000Y-50600000D01*
G75*
G02*
X13900000Y-50675000I0J-75000D01*
G01*
X13900000Y-50825000D01*
G75*
G02*
X13825000Y-50900000I-75000J0D01*
G01*
G37*
%TD.AperFunction*%
%TO.P,U5,19*%
%TO.N,PB1*%
%TA.AperFunction,SMDPad,CuDef*%
G36*
G01*
X13825000Y-50400000D02*
X12500000Y-50400000D01*
G75*
G02*
X12425000Y-50325000I0J75000D01*
G01*
X12425000Y-50175000D01*
G75*
G02*
X12500000Y-50100000I75000J0D01*
G01*
X13825000Y-50100000D01*
G75*
G02*
X13900000Y-50175000I0J-75000D01*
G01*
X13900000Y-50325000D01*
G75*
G02*
X13825000Y-50400000I-75000J0D01*
G01*
G37*
%TD.AperFunction*%
%TO.P,U5,20*%
%TO.N,N/C*%
%TA.AperFunction,SMDPad,CuDef*%
G36*
G01*
X13825000Y-49900000D02*
X12500000Y-49900000D01*
G75*
G02*
X12425000Y-49825000I0J75000D01*
G01*
X12425000Y-49675000D01*
G75*
G02*
X12500000Y-49600000I75000J0D01*
G01*
X13825000Y-49600000D01*
G75*
G02*
X13900000Y-49675000I0J-75000D01*
G01*
X13900000Y-49825000D01*
G75*
G02*
X13825000Y-49900000I-75000J0D01*
G01*
G37*
%TD.AperFunction*%
%TO.P,U5,21*%
%TA.AperFunction,SMDPad,CuDef*%
G36*
G01*
X13825000Y-49400000D02*
X12500000Y-49400000D01*
G75*
G02*
X12425000Y-49325000I0J75000D01*
G01*
X12425000Y-49175000D01*
G75*
G02*
X12500000Y-49100000I75000J0D01*
G01*
X13825000Y-49100000D01*
G75*
G02*
X13900000Y-49175000I0J-75000D01*
G01*
X13900000Y-49325000D01*
G75*
G02*
X13825000Y-49400000I-75000J0D01*
G01*
G37*
%TD.AperFunction*%
%TO.P,U5,22*%
%TA.AperFunction,SMDPad,CuDef*%
G36*
G01*
X13825000Y-48900000D02*
X12500000Y-48900000D01*
G75*
G02*
X12425000Y-48825000I0J75000D01*
G01*
X12425000Y-48675000D01*
G75*
G02*
X12500000Y-48600000I75000J0D01*
G01*
X13825000Y-48600000D01*
G75*
G02*
X13900000Y-48675000I0J-75000D01*
G01*
X13900000Y-48825000D01*
G75*
G02*
X13825000Y-48900000I-75000J0D01*
G01*
G37*
%TD.AperFunction*%
%TO.P,U5,23*%
%TO.N,GND*%
%TA.AperFunction,SMDPad,CuDef*%
G36*
G01*
X13825000Y-48400000D02*
X12500000Y-48400000D01*
G75*
G02*
X12425000Y-48325000I0J75000D01*
G01*
X12425000Y-48175000D01*
G75*
G02*
X12500000Y-48100000I75000J0D01*
G01*
X13825000Y-48100000D01*
G75*
G02*
X13900000Y-48175000I0J-75000D01*
G01*
X13900000Y-48325000D01*
G75*
G02*
X13825000Y-48400000I-75000J0D01*
G01*
G37*
%TD.AperFunction*%
%TO.P,U5,24*%
%TO.N,VCC*%
%TA.AperFunction,SMDPad,CuDef*%
G36*
G01*
X13825000Y-47900000D02*
X12500000Y-47900000D01*
G75*
G02*
X12425000Y-47825000I0J75000D01*
G01*
X12425000Y-47675000D01*
G75*
G02*
X12500000Y-47600000I75000J0D01*
G01*
X13825000Y-47600000D01*
G75*
G02*
X13900000Y-47675000I0J-75000D01*
G01*
X13900000Y-47825000D01*
G75*
G02*
X13825000Y-47900000I-75000J0D01*
G01*
G37*
%TD.AperFunction*%
%TO.P,U5,25*%
%TO.N,N/C*%
%TA.AperFunction,SMDPad,CuDef*%
G36*
G01*
X11825000Y-47075000D02*
X11675000Y-47075000D01*
G75*
G02*
X11600000Y-47000000I0J75000D01*
G01*
X11600000Y-45675000D01*
G75*
G02*
X11675000Y-45600000I75000J0D01*
G01*
X11825000Y-45600000D01*
G75*
G02*
X11900000Y-45675000I0J-75000D01*
G01*
X11900000Y-47000000D01*
G75*
G02*
X11825000Y-47075000I-75000J0D01*
G01*
G37*
%TD.AperFunction*%
%TO.P,U5,26*%
%TO.N,PB13*%
%TA.AperFunction,SMDPad,CuDef*%
G36*
G01*
X11325000Y-47075000D02*
X11175000Y-47075000D01*
G75*
G02*
X11100000Y-47000000I0J75000D01*
G01*
X11100000Y-45675000D01*
G75*
G02*
X11175000Y-45600000I75000J0D01*
G01*
X11325000Y-45600000D01*
G75*
G02*
X11400000Y-45675000I0J-75000D01*
G01*
X11400000Y-47000000D01*
G75*
G02*
X11325000Y-47075000I-75000J0D01*
G01*
G37*
%TD.AperFunction*%
%TO.P,U5,27*%
%TO.N,PB14*%
%TA.AperFunction,SMDPad,CuDef*%
G36*
G01*
X10825000Y-47075000D02*
X10675000Y-47075000D01*
G75*
G02*
X10600000Y-47000000I0J75000D01*
G01*
X10600000Y-45675000D01*
G75*
G02*
X10675000Y-45600000I75000J0D01*
G01*
X10825000Y-45600000D01*
G75*
G02*
X10900000Y-45675000I0J-75000D01*
G01*
X10900000Y-47000000D01*
G75*
G02*
X10825000Y-47075000I-75000J0D01*
G01*
G37*
%TD.AperFunction*%
%TO.P,U5,28*%
%TO.N,PB15*%
%TA.AperFunction,SMDPad,CuDef*%
G36*
G01*
X10325000Y-47075000D02*
X10175000Y-47075000D01*
G75*
G02*
X10100000Y-47000000I0J75000D01*
G01*
X10100000Y-45675000D01*
G75*
G02*
X10175000Y-45600000I75000J0D01*
G01*
X10325000Y-45600000D01*
G75*
G02*
X10400000Y-45675000I0J-75000D01*
G01*
X10400000Y-47000000D01*
G75*
G02*
X10325000Y-47075000I-75000J0D01*
G01*
G37*
%TD.AperFunction*%
%TO.P,U5,29*%
%TO.N,PA8*%
%TA.AperFunction,SMDPad,CuDef*%
G36*
G01*
X9825000Y-47075000D02*
X9675000Y-47075000D01*
G75*
G02*
X9600000Y-47000000I0J75000D01*
G01*
X9600000Y-45675000D01*
G75*
G02*
X9675000Y-45600000I75000J0D01*
G01*
X9825000Y-45600000D01*
G75*
G02*
X9900000Y-45675000I0J-75000D01*
G01*
X9900000Y-47000000D01*
G75*
G02*
X9825000Y-47075000I-75000J0D01*
G01*
G37*
%TD.AperFunction*%
%TO.P,U5,30*%
%TO.N,PA9*%
%TA.AperFunction,SMDPad,CuDef*%
G36*
G01*
X9325000Y-47075000D02*
X9175000Y-47075000D01*
G75*
G02*
X9100000Y-47000000I0J75000D01*
G01*
X9100000Y-45675000D01*
G75*
G02*
X9175000Y-45600000I75000J0D01*
G01*
X9325000Y-45600000D01*
G75*
G02*
X9400000Y-45675000I0J-75000D01*
G01*
X9400000Y-47000000D01*
G75*
G02*
X9325000Y-47075000I-75000J0D01*
G01*
G37*
%TD.AperFunction*%
%TO.P,U5,31*%
%TO.N,PA10*%
%TA.AperFunction,SMDPad,CuDef*%
G36*
G01*
X8825000Y-47075000D02*
X8675000Y-47075000D01*
G75*
G02*
X8600000Y-47000000I0J75000D01*
G01*
X8600000Y-45675000D01*
G75*
G02*
X8675000Y-45600000I75000J0D01*
G01*
X8825000Y-45600000D01*
G75*
G02*
X8900000Y-45675000I0J-75000D01*
G01*
X8900000Y-47000000D01*
G75*
G02*
X8825000Y-47075000I-75000J0D01*
G01*
G37*
%TD.AperFunction*%
%TO.P,U5,32*%
%TO.N,DM*%
%TA.AperFunction,SMDPad,CuDef*%
G36*
G01*
X8325000Y-47075000D02*
X8175000Y-47075000D01*
G75*
G02*
X8100000Y-47000000I0J75000D01*
G01*
X8100000Y-45675000D01*
G75*
G02*
X8175000Y-45600000I75000J0D01*
G01*
X8325000Y-45600000D01*
G75*
G02*
X8400000Y-45675000I0J-75000D01*
G01*
X8400000Y-47000000D01*
G75*
G02*
X8325000Y-47075000I-75000J0D01*
G01*
G37*
%TD.AperFunction*%
%TO.P,U5,33*%
%TO.N,DP*%
%TA.AperFunction,SMDPad,CuDef*%
G36*
G01*
X7825000Y-47075000D02*
X7675000Y-47075000D01*
G75*
G02*
X7600000Y-47000000I0J75000D01*
G01*
X7600000Y-45675000D01*
G75*
G02*
X7675000Y-45600000I75000J0D01*
G01*
X7825000Y-45600000D01*
G75*
G02*
X7900000Y-45675000I0J-75000D01*
G01*
X7900000Y-47000000D01*
G75*
G02*
X7825000Y-47075000I-75000J0D01*
G01*
G37*
%TD.AperFunction*%
%TO.P,U5,34*%
%TO.N,Net-(J6-Pad3)*%
%TA.AperFunction,SMDPad,CuDef*%
G36*
G01*
X7325000Y-47075000D02*
X7175000Y-47075000D01*
G75*
G02*
X7100000Y-47000000I0J75000D01*
G01*
X7100000Y-45675000D01*
G75*
G02*
X7175000Y-45600000I75000J0D01*
G01*
X7325000Y-45600000D01*
G75*
G02*
X7400000Y-45675000I0J-75000D01*
G01*
X7400000Y-47000000D01*
G75*
G02*
X7325000Y-47075000I-75000J0D01*
G01*
G37*
%TD.AperFunction*%
%TO.P,U5,35*%
%TO.N,GND*%
%TA.AperFunction,SMDPad,CuDef*%
G36*
G01*
X6825000Y-47075000D02*
X6675000Y-47075000D01*
G75*
G02*
X6600000Y-47000000I0J75000D01*
G01*
X6600000Y-45675000D01*
G75*
G02*
X6675000Y-45600000I75000J0D01*
G01*
X6825000Y-45600000D01*
G75*
G02*
X6900000Y-45675000I0J-75000D01*
G01*
X6900000Y-47000000D01*
G75*
G02*
X6825000Y-47075000I-75000J0D01*
G01*
G37*
%TD.AperFunction*%
%TO.P,U5,36*%
%TO.N,VCC*%
%TA.AperFunction,SMDPad,CuDef*%
G36*
G01*
X6325000Y-47075000D02*
X6175000Y-47075000D01*
G75*
G02*
X6100000Y-47000000I0J75000D01*
G01*
X6100000Y-45675000D01*
G75*
G02*
X6175000Y-45600000I75000J0D01*
G01*
X6325000Y-45600000D01*
G75*
G02*
X6400000Y-45675000I0J-75000D01*
G01*
X6400000Y-47000000D01*
G75*
G02*
X6325000Y-47075000I-75000J0D01*
G01*
G37*
%TD.AperFunction*%
%TO.P,U5,37*%
%TO.N,Net-(J6-Pad2)*%
%TA.AperFunction,SMDPad,CuDef*%
G36*
G01*
X5500000Y-47900000D02*
X4175000Y-47900000D01*
G75*
G02*
X4100000Y-47825000I0J75000D01*
G01*
X4100000Y-47675000D01*
G75*
G02*
X4175000Y-47600000I75000J0D01*
G01*
X5500000Y-47600000D01*
G75*
G02*
X5575000Y-47675000I0J-75000D01*
G01*
X5575000Y-47825000D01*
G75*
G02*
X5500000Y-47900000I-75000J0D01*
G01*
G37*
%TD.AperFunction*%
%TO.P,U5,38*%
%TO.N,N/C*%
%TA.AperFunction,SMDPad,CuDef*%
G36*
G01*
X5500000Y-48400000D02*
X4175000Y-48400000D01*
G75*
G02*
X4100000Y-48325000I0J75000D01*
G01*
X4100000Y-48175000D01*
G75*
G02*
X4175000Y-48100000I75000J0D01*
G01*
X5500000Y-48100000D01*
G75*
G02*
X5575000Y-48175000I0J-75000D01*
G01*
X5575000Y-48325000D01*
G75*
G02*
X5500000Y-48400000I-75000J0D01*
G01*
G37*
%TD.AperFunction*%
%TO.P,U5,39*%
%TA.AperFunction,SMDPad,CuDef*%
G36*
G01*
X5500000Y-48900000D02*
X4175000Y-48900000D01*
G75*
G02*
X4100000Y-48825000I0J75000D01*
G01*
X4100000Y-48675000D01*
G75*
G02*
X4175000Y-48600000I75000J0D01*
G01*
X5500000Y-48600000D01*
G75*
G02*
X5575000Y-48675000I0J-75000D01*
G01*
X5575000Y-48825000D01*
G75*
G02*
X5500000Y-48900000I-75000J0D01*
G01*
G37*
%TD.AperFunction*%
%TO.P,U5,40*%
%TA.AperFunction,SMDPad,CuDef*%
G36*
G01*
X5500000Y-49400000D02*
X4175000Y-49400000D01*
G75*
G02*
X4100000Y-49325000I0J75000D01*
G01*
X4100000Y-49175000D01*
G75*
G02*
X4175000Y-49100000I75000J0D01*
G01*
X5500000Y-49100000D01*
G75*
G02*
X5575000Y-49175000I0J-75000D01*
G01*
X5575000Y-49325000D01*
G75*
G02*
X5500000Y-49400000I-75000J0D01*
G01*
G37*
%TD.AperFunction*%
%TO.P,U5,41*%
%TA.AperFunction,SMDPad,CuDef*%
G36*
G01*
X5500000Y-49900000D02*
X4175000Y-49900000D01*
G75*
G02*
X4100000Y-49825000I0J75000D01*
G01*
X4100000Y-49675000D01*
G75*
G02*
X4175000Y-49600000I75000J0D01*
G01*
X5500000Y-49600000D01*
G75*
G02*
X5575000Y-49675000I0J-75000D01*
G01*
X5575000Y-49825000D01*
G75*
G02*
X5500000Y-49900000I-75000J0D01*
G01*
G37*
%TD.AperFunction*%
%TO.P,U5,42*%
%TA.AperFunction,SMDPad,CuDef*%
G36*
G01*
X5500000Y-50400000D02*
X4175000Y-50400000D01*
G75*
G02*
X4100000Y-50325000I0J75000D01*
G01*
X4100000Y-50175000D01*
G75*
G02*
X4175000Y-50100000I75000J0D01*
G01*
X5500000Y-50100000D01*
G75*
G02*
X5575000Y-50175000I0J-75000D01*
G01*
X5575000Y-50325000D01*
G75*
G02*
X5500000Y-50400000I-75000J0D01*
G01*
G37*
%TD.AperFunction*%
%TO.P,U5,43*%
%TA.AperFunction,SMDPad,CuDef*%
G36*
G01*
X5500000Y-50900000D02*
X4175000Y-50900000D01*
G75*
G02*
X4100000Y-50825000I0J75000D01*
G01*
X4100000Y-50675000D01*
G75*
G02*
X4175000Y-50600000I75000J0D01*
G01*
X5500000Y-50600000D01*
G75*
G02*
X5575000Y-50675000I0J-75000D01*
G01*
X5575000Y-50825000D01*
G75*
G02*
X5500000Y-50900000I-75000J0D01*
G01*
G37*
%TD.AperFunction*%
%TO.P,U5,44*%
%TO.N,Net-(J2-Pad2)*%
%TA.AperFunction,SMDPad,CuDef*%
G36*
G01*
X5500000Y-51400000D02*
X4175000Y-51400000D01*
G75*
G02*
X4100000Y-51325000I0J75000D01*
G01*
X4100000Y-51175000D01*
G75*
G02*
X4175000Y-51100000I75000J0D01*
G01*
X5500000Y-51100000D01*
G75*
G02*
X5575000Y-51175000I0J-75000D01*
G01*
X5575000Y-51325000D01*
G75*
G02*
X5500000Y-51400000I-75000J0D01*
G01*
G37*
%TD.AperFunction*%
%TO.P,U5,45*%
%TO.N,PB8*%
%TA.AperFunction,SMDPad,CuDef*%
G36*
G01*
X5500000Y-51900000D02*
X4175000Y-51900000D01*
G75*
G02*
X4100000Y-51825000I0J75000D01*
G01*
X4100000Y-51675000D01*
G75*
G02*
X4175000Y-51600000I75000J0D01*
G01*
X5500000Y-51600000D01*
G75*
G02*
X5575000Y-51675000I0J-75000D01*
G01*
X5575000Y-51825000D01*
G75*
G02*
X5500000Y-51900000I-75000J0D01*
G01*
G37*
%TD.AperFunction*%
%TO.P,U5,46*%
%TO.N,PB9*%
%TA.AperFunction,SMDPad,CuDef*%
G36*
G01*
X5500000Y-52400000D02*
X4175000Y-52400000D01*
G75*
G02*
X4100000Y-52325000I0J75000D01*
G01*
X4100000Y-52175000D01*
G75*
G02*
X4175000Y-52100000I75000J0D01*
G01*
X5500000Y-52100000D01*
G75*
G02*
X5575000Y-52175000I0J-75000D01*
G01*
X5575000Y-52325000D01*
G75*
G02*
X5500000Y-52400000I-75000J0D01*
G01*
G37*
%TD.AperFunction*%
%TO.P,U5,47*%
%TO.N,GND*%
%TA.AperFunction,SMDPad,CuDef*%
G36*
G01*
X5500000Y-52900000D02*
X4175000Y-52900000D01*
G75*
G02*
X4100000Y-52825000I0J75000D01*
G01*
X4100000Y-52675000D01*
G75*
G02*
X4175000Y-52600000I75000J0D01*
G01*
X5500000Y-52600000D01*
G75*
G02*
X5575000Y-52675000I0J-75000D01*
G01*
X5575000Y-52825000D01*
G75*
G02*
X5500000Y-52900000I-75000J0D01*
G01*
G37*
%TD.AperFunction*%
%TO.P,U5,48*%
%TO.N,VCC*%
%TA.AperFunction,SMDPad,CuDef*%
G36*
G01*
X5500000Y-53400000D02*
X4175000Y-53400000D01*
G75*
G02*
X4100000Y-53325000I0J75000D01*
G01*
X4100000Y-53175000D01*
G75*
G02*
X4175000Y-53100000I75000J0D01*
G01*
X5500000Y-53100000D01*
G75*
G02*
X5575000Y-53175000I0J-75000D01*
G01*
X5575000Y-53325000D01*
G75*
G02*
X5500000Y-53400000I-75000J0D01*
G01*
G37*
%TD.AperFunction*%
%TD*%
D20*
%TO.N,VCC1.9*%
X28295200Y-48282800D03*
X23774000Y-25435500D03*
X19049600Y-43304400D03*
%TO.N,VCC*%
X11429600Y-47927200D03*
X6756000Y-50264000D03*
X26009200Y-58036400D03*
X4114400Y-33962000D03*
X8940400Y-26896000D03*
%TO.N,5V*%
X6552800Y-33454000D03*
%TO.N,ADC_IN8*%
X9400000Y-39300000D03*
X11264500Y-50772000D03*
%TO.N,DP*%
X7131920Y-52951320D03*
%TO.N,DM*%
X8686400Y-52885280D03*
%TO.N,Net-(R5-Pad2)*%
X30759000Y-25499000D03*
%TO.N,PA2*%
X22453200Y-55191600D03*
X16154000Y-55090000D03*
%TO.N,NSS*%
X17525600Y-53058000D03*
%TO.N,MOSI*%
X19222320Y-50838040D03*
X19471240Y-53032600D03*
%TO.N,GND*%
X32410000Y-55547200D03*
X7700000Y-36600000D03*
X31267000Y-59928700D03*
X3098400Y-55750400D03*
X23824800Y-23492400D03*
X16154000Y-47774800D03*
X27600000Y-17300000D03*
%TO.N,PB1*%
X15290400Y-50416400D03*
X35204000Y-54886800D03*
%TO.N,Net-(J6-Pad2)*%
X6500000Y-48300000D03*
%TD*%
D21*
%TO.N,VCC1.9*%
X31109800Y-48210740D02*
X31366020Y-48466960D01*
X31174520Y-48275460D02*
X31366020Y-48466960D01*
X29651560Y-48275460D02*
X31174520Y-48275460D01*
X22504000Y-26326000D02*
X21680000Y-27150000D01*
X22504000Y-25412500D02*
X22504000Y-26326000D01*
X22209500Y-25118000D02*
X22504000Y-25412500D01*
X20916500Y-25118000D02*
X22209500Y-25118000D01*
X18866800Y-41706600D02*
X19062300Y-41511100D01*
X17284300Y-41666100D02*
X17347800Y-41729600D01*
X15633300Y-41666100D02*
X17284300Y-41666100D01*
X18843800Y-41729600D02*
X19062300Y-41511100D01*
X17347800Y-41729600D02*
X18843800Y-41729600D01*
X31427300Y-48405680D02*
X31366020Y-48466960D01*
X31427300Y-46233020D02*
X31427300Y-48405680D01*
X19049600Y-41523800D02*
X19062300Y-41511100D01*
X19049600Y-43304400D02*
X19049600Y-41523800D01*
X29644220Y-48282800D02*
X29651560Y-48275460D01*
X28295200Y-48282800D02*
X29644220Y-48282800D01*
X23751000Y-25412500D02*
X23774000Y-25435500D01*
X22504000Y-25412500D02*
X23751000Y-25412500D01*
%TO.N,VCC*%
X4025500Y-35422500D02*
X4025500Y-36627500D01*
X5168500Y-54963000D02*
X4533500Y-54328000D01*
X5168500Y-55598000D02*
X5168500Y-54963000D01*
X4533500Y-53550500D02*
X4816000Y-53268000D01*
X4533500Y-54328000D02*
X4533500Y-53550500D01*
X19075000Y-630000D02*
X20472000Y-630000D01*
X17932000Y-1773000D02*
X19075000Y-630000D01*
X35458000Y-7973000D02*
X35839000Y-7973000D01*
X35839000Y-7973000D02*
X36093000Y-7719000D01*
X36093000Y-7399000D02*
X36535000Y-6957000D01*
X36535000Y-6957000D02*
X36855000Y-6957000D01*
X36093000Y-7719000D02*
X36093000Y-7399000D01*
D22*
X34882660Y-59908380D02*
X34882660Y-63996540D01*
X34099100Y-64780100D02*
X32925220Y-64780100D01*
X34882660Y-63996540D02*
X34099100Y-64780100D01*
D21*
X31411780Y-51212720D02*
X31366020Y-51166960D01*
D22*
X31411780Y-53243420D02*
X31411780Y-51212720D01*
D21*
X23883500Y-26726500D02*
X23460000Y-27150000D01*
X23901000Y-26709000D02*
X23460000Y-27150000D01*
X5168500Y-55598000D02*
X5168500Y-55864700D01*
X5168500Y-55864700D02*
X4825600Y-56207600D01*
X4825600Y-58126600D02*
X5079600Y-58380600D01*
X4825600Y-56207600D02*
X4825600Y-58126600D01*
X21030800Y-64132400D02*
X20980000Y-64183200D01*
X25196400Y-25413600D02*
X23460000Y-27150000D01*
X25196400Y-25180200D02*
X25196400Y-25413600D01*
X26500800Y-25180200D02*
X26720400Y-25399800D01*
X25196400Y-25180200D02*
X26500800Y-25180200D01*
X18897200Y-54965400D02*
X17243800Y-54965400D01*
X17243800Y-54965400D02*
X17232200Y-54977000D01*
X17232200Y-58082120D02*
X17232200Y-54977000D01*
X16283200Y-54028000D02*
X17232200Y-54977000D01*
X16255600Y-54028000D02*
X16283200Y-54028000D01*
D22*
X34882660Y-59908380D02*
X33056400Y-58082120D01*
D21*
X4025500Y-35422500D02*
X4622400Y-34825600D01*
X8319090Y-33667500D02*
X8470500Y-33667500D01*
X7160990Y-34825600D02*
X8319090Y-33667500D01*
X4622400Y-34825600D02*
X7160990Y-34825600D01*
X8940400Y-26896000D02*
X4927200Y-22882800D01*
X-1118000Y-16482000D02*
X-356000Y-15720000D01*
X-1118000Y-21054000D02*
X-1118000Y-16482000D01*
X4025500Y-34050900D02*
X4114400Y-33962000D01*
X4025500Y-36562500D02*
X4025500Y-34050900D01*
X6756000Y-50264000D02*
X6228500Y-50791500D01*
X11429600Y-47927200D02*
X11588800Y-47768000D01*
X33697780Y-64780100D02*
X32925220Y-64780100D01*
D22*
X17232200Y-58082120D02*
X17458260Y-58308180D01*
D21*
X25963480Y-58082120D02*
X26009200Y-58036400D01*
X17232200Y-58082120D02*
X25963480Y-58082120D01*
X33010680Y-58036400D02*
X33056400Y-58082120D01*
D22*
X26009200Y-58036400D02*
X33010680Y-58036400D01*
X31411780Y-56437500D02*
X33010680Y-58036400D01*
X31411780Y-53243420D02*
X31411780Y-56437500D01*
D21*
X5430000Y-44800000D02*
X5430000Y-44680000D01*
X5430000Y-44800000D02*
X5430000Y-44930000D01*
X20944440Y-64218760D02*
X20980000Y-64183200D01*
X22453200Y-68755200D02*
X20944440Y-67246440D01*
X37100000Y-67473002D02*
X35817802Y-68755200D01*
X20944440Y-67246440D02*
X20944440Y-64218760D01*
X37100000Y-66100000D02*
X37100000Y-67473002D01*
X32925220Y-64780100D02*
X35780100Y-64780100D01*
X35780100Y-64780100D02*
X37100000Y-66100000D01*
X35817802Y-68755200D02*
X22453200Y-68755200D01*
X7225001Y-47951999D02*
X7225001Y-49794999D01*
X7225001Y-49794999D02*
X6756000Y-50264000D01*
X6848001Y-47574999D02*
X7225001Y-47951999D01*
X6574999Y-47574999D02*
X6848001Y-47574999D01*
X6228500Y-46355500D02*
X6228500Y-46528500D01*
X185089Y-22357089D02*
X4357089Y-22357089D01*
X-1118000Y-21054000D02*
X185089Y-22357089D01*
X4882800Y-22882800D02*
X4927200Y-22882800D01*
X4357089Y-22357089D02*
X4882800Y-22882800D01*
X14700000Y-47100000D02*
X14600000Y-47100000D01*
X13950000Y-47750000D02*
X13162500Y-47750000D01*
X14600000Y-47100000D02*
X13950000Y-47750000D01*
X11606800Y-47750000D02*
X11429600Y-47927200D01*
X13162500Y-47750000D02*
X11606800Y-47750000D01*
X6250000Y-47250000D02*
X6250000Y-46337500D01*
X6574999Y-47574999D02*
X6250000Y-47250000D01*
X5430000Y-45517500D02*
X6250000Y-46337500D01*
X5430000Y-44800000D02*
X5430000Y-45517500D01*
X4237500Y-46337500D02*
X4200000Y-46375000D01*
X6250000Y-46337500D02*
X4237500Y-46337500D01*
X1825000Y-46375000D02*
X1700000Y-46500000D01*
X4200000Y-46375000D02*
X1825000Y-46375000D01*
X5640702Y-53250000D02*
X4837500Y-53250000D01*
X6228500Y-52662202D02*
X5640702Y-53250000D01*
X6228500Y-50791500D02*
X6228500Y-52662202D01*
X6250000Y-52683702D02*
X6228500Y-52662202D01*
X6250000Y-54662500D02*
X6250000Y-52683702D01*
X17147000Y-988000D02*
X17932000Y-1773000D01*
X6756000Y-988000D02*
X17147000Y-988000D01*
X-356000Y-15720000D02*
X-356000Y-9878000D01*
X5486000Y-2258000D02*
X6756000Y-988000D01*
X5486000Y-4036000D02*
X5486000Y-2258000D01*
X-356000Y-9878000D02*
X5486000Y-4036000D01*
X30528000Y-630000D02*
X20472000Y-630000D01*
X36855000Y-6957000D02*
X30528000Y-630000D01*
%TO.N,5V*%
X8070500Y-31677500D02*
X8135500Y-31612500D01*
X6565500Y-31677500D02*
X8070500Y-31677500D01*
D22*
X29895000Y-67056200D02*
X30505000Y-66446200D01*
X26441000Y-67056200D02*
X29895000Y-67056200D01*
D21*
X8432400Y-31315600D02*
X8135500Y-31612500D01*
X8432400Y-29971600D02*
X8432400Y-31315600D01*
X6552800Y-31625200D02*
X6565500Y-31612500D01*
X6552800Y-33454000D02*
X6552800Y-31625200D01*
D22*
X30505000Y-66446200D02*
X30936660Y-66446200D01*
X31570560Y-67080100D02*
X32925220Y-67080100D01*
X30936660Y-66446200D02*
X31570560Y-67080100D01*
D21*
X33045120Y-67200000D02*
X32925220Y-67080100D01*
X6565500Y-29319500D02*
X6600000Y-29285000D01*
X6565500Y-31612500D02*
X6565500Y-29319500D01*
X-1150000Y-40820000D02*
X-1170000Y-40800000D01*
X-1150000Y-42200000D02*
X-1150000Y-40820000D01*
X200000Y-35800000D02*
X300000Y-35800000D01*
X-300000Y-35800000D02*
X700000Y-35800000D01*
X-1170000Y-36670000D02*
X-300000Y-35800000D01*
X-1170000Y-40800000D02*
X-1170000Y-36670000D01*
X-1200000Y-29000000D02*
X-200000Y-28000000D01*
X-1200000Y-34900000D02*
X-1200000Y-29000000D01*
X-300000Y-35800000D02*
X-1200000Y-34900000D01*
%TO.N,Net-(C10-Pad2)*%
X17946000Y-25435500D02*
X17614500Y-25104000D01*
X19265500Y-25435500D02*
X17946000Y-25435500D01*
X19265500Y-26515500D02*
X19900000Y-27150000D01*
X19265500Y-25435500D02*
X19265500Y-26515500D01*
%TO.N,PB13*%
X16150857Y-24983444D02*
X16150857Y-22199600D01*
X12950055Y-28184246D02*
X16150857Y-24983444D01*
X16150857Y-22199600D02*
X30733600Y-22199600D01*
X12950055Y-43431999D02*
X12950055Y-28184246D01*
X11250000Y-45132054D02*
X11250000Y-46337500D01*
X12950055Y-43431999D02*
X11250000Y-45132054D01*
%TO.N,PB14*%
X35594000Y-10880000D02*
X35966000Y-11252000D01*
X33934000Y-10880000D02*
X35594000Y-10880000D01*
X38252000Y-9286000D02*
X38252000Y-8839000D01*
X36286000Y-11252000D02*
X38252000Y-9286000D01*
X35966000Y-11252000D02*
X36286000Y-11252000D01*
X36728000Y-16482000D02*
X36728000Y-12014000D01*
X36728000Y-12014000D02*
X35966000Y-11252000D01*
X16933200Y-20480820D02*
X32729180Y-20480820D01*
X12500044Y-24913976D02*
X16933200Y-20480820D01*
X12500044Y-43245599D02*
X12500044Y-24913976D01*
X32729180Y-20480820D02*
X36728000Y-16482000D01*
X10750000Y-44995643D02*
X10750000Y-46337500D01*
X12500044Y-43245599D02*
X10750000Y-44995643D01*
%TO.N,ADC_IN8*%
X13137000Y-50772000D02*
X13141000Y-50768000D01*
X4315000Y-38400000D02*
X4315000Y-38715000D01*
X9332500Y-39367500D02*
X9400000Y-39300000D01*
X8472500Y-39300000D02*
X7570000Y-38397500D01*
X9400000Y-39300000D02*
X8472500Y-39300000D01*
X7570000Y-38717500D02*
X7570000Y-38397500D01*
X4640010Y-39045010D02*
X7242490Y-39045010D01*
X7242490Y-39045010D02*
X7570000Y-38717500D01*
X4315000Y-38720000D02*
X4640010Y-39045010D01*
X4315000Y-38400000D02*
X4315000Y-38720000D01*
X11286500Y-50750000D02*
X11264500Y-50772000D01*
X13162500Y-50750000D02*
X11286500Y-50750000D01*
%TO.N,Net-(D1-Pad2)*%
X9550000Y-6599000D02*
X9550000Y-6480000D01*
X17932000Y-4544000D02*
X17932000Y-2743000D01*
X13287000Y-2743000D02*
X13180000Y-2850000D01*
X11700001Y-3849999D02*
X11700001Y-4448999D01*
X11700001Y-4448999D02*
X9550000Y-6599000D01*
X12700000Y-2850000D02*
X11700001Y-3849999D01*
X12807000Y-2743000D02*
X12700000Y-2850000D01*
X17932000Y-2743000D02*
X12807000Y-2743000D01*
%TO.N,Net-(D2-Pad2)*%
X33908000Y-9156000D02*
X33934000Y-9130000D01*
X35086000Y-10282000D02*
X33934000Y-9130000D01*
X35966000Y-10282000D02*
X35086000Y-10282000D01*
X35966000Y-10282000D02*
X36197000Y-10282000D01*
X36855000Y-9624000D02*
X36855000Y-7927000D01*
X36197000Y-10282000D02*
X36855000Y-9624000D01*
X31408000Y-11656000D02*
X27997000Y-11656000D01*
X33934000Y-9130000D02*
X31408000Y-11656000D01*
%TO.N,Net-(D3-Pad2)*%
X20246000Y-3119000D02*
X20472000Y-2893000D01*
X20246000Y-4544000D02*
X20246000Y-3119000D01*
X20472000Y-2893000D02*
X20472000Y-1600000D01*
X24733000Y-2743000D02*
X24840000Y-2850000D01*
X20576000Y-1496000D02*
X20472000Y-1600000D01*
X23846000Y-1496000D02*
X20576000Y-1496000D01*
X25200000Y-2850000D02*
X23846000Y-1496000D01*
%TO.N,Net-(D4-Pad2)*%
X33472000Y-14305000D02*
X33581000Y-14196000D01*
X33472000Y-15847000D02*
X33472000Y-14305000D01*
X35458000Y-7003000D02*
X34234000Y-7003000D01*
X26871999Y-13030999D02*
X27997000Y-14156000D01*
X26871999Y-11115999D02*
X26871999Y-13030999D01*
X27456999Y-10530999D02*
X26871999Y-11115999D01*
X30706001Y-10530999D02*
X27456999Y-10530999D01*
X34234000Y-7003000D02*
X30706001Y-10530999D01*
X28037000Y-14196000D02*
X27997000Y-14156000D01*
X33581000Y-14196000D02*
X28037000Y-14196000D01*
%TO.N,Net-(D5-Pad2)*%
X614000Y-12456000D02*
X1520000Y-11550000D01*
X614000Y-15720000D02*
X614000Y-12456000D01*
X688000Y-15794000D02*
X614000Y-15720000D01*
X688000Y-17498000D02*
X688000Y-15794000D01*
X2230000Y-19040000D02*
X688000Y-17498000D01*
X2230000Y-19276000D02*
X2230000Y-19040000D01*
%TO.N,Net-(D6-Pad2)*%
X5040200Y-60170000D02*
X5079600Y-60130600D01*
X3200000Y-60170000D02*
X5040200Y-60170000D01*
%TO.N,Net-(D7-Pad2)*%
X-772500Y-52945000D02*
X-786500Y-52931000D01*
X-772500Y-54709000D02*
X-772500Y-52945000D01*
%TO.N,DP*%
X26266500Y-63230700D02*
X26441000Y-63056200D01*
X25745800Y-63056200D02*
X26441000Y-63056200D01*
X7728500Y-52354740D02*
X7131920Y-52951320D01*
X7728500Y-46355500D02*
X7728500Y-52354740D01*
%TO.N,DM*%
X26425500Y-61071700D02*
X26441000Y-61056200D01*
X8228500Y-49096300D02*
X8229200Y-49097000D01*
X8228500Y-46355500D02*
X8228500Y-49096300D01*
X8228500Y-52427380D02*
X8686400Y-52885280D01*
X8228500Y-49096300D02*
X8228500Y-52427380D01*
%TO.N,Net-(J3-Pad2)*%
X2100000Y-33800000D02*
X700000Y-33800000D01*
X2755500Y-34455500D02*
X2100000Y-33800000D01*
X2755500Y-36562500D02*
X2755500Y-34455500D01*
%TO.N,Net-(Q1-Pad1)*%
X96080Y-23379760D02*
X55480Y-23339160D01*
X2128880Y-23379760D02*
X96080Y-23379760D01*
%TO.N,Net-(Q1-Pad3)*%
X4175500Y-31462500D02*
X4025500Y-31612500D01*
X4729760Y-24329760D02*
X4128880Y-24329760D01*
X6600000Y-26200000D02*
X4729760Y-24329760D01*
X4463000Y-30132000D02*
X6280000Y-28315000D01*
X4025500Y-30637500D02*
X4463000Y-30200000D01*
X4463000Y-30200000D02*
X4463000Y-30132000D01*
X4025500Y-31612500D02*
X4025500Y-30637500D01*
X6600000Y-28315000D02*
X6600000Y-26200000D01*
%TO.N,Net-(R5-Pad2)*%
X27020000Y-27150000D02*
X27020000Y-26596400D01*
X30759000Y-23975000D02*
X30733600Y-23949600D01*
X30759000Y-25499000D02*
X30759000Y-23975000D01*
%TO.N,Net-(R10-Pad2)*%
X33724500Y-51625440D02*
X33266020Y-51166960D01*
X35170980Y-51625440D02*
X33724500Y-51625440D01*
%TO.N,PB15*%
X35331000Y-14958000D02*
X34442000Y-15847000D01*
X35331000Y-14196000D02*
X35331000Y-14958000D01*
X34523000Y-15928000D02*
X34442000Y-15847000D01*
X34523000Y-17244000D02*
X34523000Y-15928000D01*
X12050033Y-43059199D02*
X12050033Y-24727576D01*
X12050033Y-24727576D02*
X16746800Y-20030809D01*
X34523000Y-17564000D02*
X34523000Y-17244000D01*
X16746800Y-20030809D02*
X32056191Y-20030809D01*
X32056191Y-20030809D02*
X34523000Y-17564000D01*
X10250000Y-44859232D02*
X10250000Y-46337500D01*
X12050033Y-43059199D02*
X10250000Y-44859232D01*
%TO.N,Net-(R11-Pad2)*%
X19075000Y-37875000D02*
X19050000Y-37850000D01*
X19062300Y-37862300D02*
X19050000Y-37850000D01*
X19062300Y-39761100D02*
X19062300Y-37862300D01*
%TO.N,PA2*%
X29717600Y-41741000D02*
X29717600Y-44218800D01*
X22453200Y-51483200D02*
X29717600Y-44218800D01*
X22453200Y-55191600D02*
X22453200Y-51483200D01*
X12177500Y-55090000D02*
X11750000Y-54662500D01*
X16154000Y-55090000D02*
X12177500Y-55090000D01*
%TO.N,Net-(R12-Pad1)*%
X29757000Y-37917000D02*
X29690000Y-37850000D01*
X29717600Y-37877600D02*
X29690000Y-37850000D01*
X29717600Y-39991000D02*
X29717600Y-37877600D01*
%TO.N,Net-(R13-Pad1)*%
X33316780Y-48416200D02*
X33266020Y-48466960D01*
X32397300Y-46233020D02*
X33634280Y-46233020D01*
X33634280Y-48098700D02*
X33266020Y-48466960D01*
X33634280Y-46233020D02*
X33634280Y-48098700D01*
%TO.N,PB8*%
X1391500Y-53820000D02*
X1612500Y-53820000D01*
X977500Y-54234000D02*
X1391500Y-53820000D01*
X977500Y-54709000D02*
X977500Y-54234000D01*
X3682500Y-51750000D02*
X1612500Y-53820000D01*
X4837500Y-51750000D02*
X3682500Y-51750000D01*
%TO.N,PB9*%
X-947680Y-23372320D02*
X-914520Y-23339160D01*
X-947680Y-25170500D02*
X-947680Y-23372320D01*
X-2261000Y-55344000D02*
X-2261000Y-26483820D01*
X-1499000Y-56106000D02*
X-2261000Y-55344000D01*
X1358500Y-56106000D02*
X-1499000Y-56106000D01*
X2120500Y-54023888D02*
X2120500Y-55344000D01*
X-2261000Y-26483820D02*
X-947680Y-25170500D01*
X2120500Y-55344000D02*
X1358500Y-56106000D01*
X3894388Y-52250000D02*
X4837500Y-52250000D01*
X2120500Y-54023888D02*
X3894388Y-52250000D01*
%TO.N,Net-(R23-Pad2)*%
X5285000Y-36573000D02*
X5295500Y-36562500D01*
X5285000Y-38400000D02*
X5285000Y-36573000D01*
%TO.N,NSS*%
X16255600Y-53058000D02*
X17525600Y-53058000D01*
X15947600Y-52750000D02*
X13162500Y-52750000D01*
X16255600Y-53058000D02*
X15947600Y-52750000D01*
%TO.N,MOSI*%
X19471240Y-53421360D02*
X18897200Y-53995400D01*
X19471240Y-53032600D02*
X19471240Y-53421360D01*
X18810360Y-51250000D02*
X13162500Y-51250000D01*
X19222320Y-50838040D02*
X18810360Y-51250000D01*
%TO.N,MISO*%
X24350000Y-47171990D02*
X24350000Y-37850000D01*
X19778991Y-51742999D02*
X13169501Y-51742999D01*
X13169501Y-51742999D02*
X13162500Y-51750000D01*
X24350000Y-47171990D02*
X19778991Y-51742999D01*
%TO.N,SCLK*%
X27939600Y-37879600D02*
X27910000Y-37850000D01*
X27939600Y-44218800D02*
X27939600Y-37879600D01*
X19908400Y-52250000D02*
X13162500Y-52250000D01*
X27939600Y-44218800D02*
X19908400Y-52250000D01*
%TO.N,GND*%
X8470500Y-34637500D02*
X7985500Y-34637500D01*
X6565500Y-36057500D02*
X6565500Y-36627500D01*
X7985500Y-34637500D02*
X6565500Y-36057500D01*
X131580Y-25279760D02*
X22320Y-25170500D01*
X2128880Y-25279760D02*
X131580Y-25279760D01*
X10154800Y-57627680D02*
X10154800Y-56522560D01*
X10726080Y-58198960D02*
X10154800Y-57627680D01*
X3563500Y-54963000D02*
X3563500Y-54328000D01*
X4198500Y-55598000D02*
X3563500Y-54963000D01*
X3563500Y-54328000D02*
X3563500Y-53217298D01*
X3685000Y-14465000D02*
X6600000Y-11550000D01*
X3685000Y-15720000D02*
X3685000Y-14465000D01*
X26861000Y-65476200D02*
X26441000Y-65056200D01*
D22*
X30505000Y-65476200D02*
X26861000Y-65476200D01*
X30505000Y-65476200D02*
X30505000Y-64900320D01*
D21*
X33132660Y-62272660D02*
X32925220Y-62480100D01*
D22*
X33132660Y-59908380D02*
X33132660Y-62272660D01*
D21*
X32381780Y-51232720D02*
X32316020Y-51166960D01*
D22*
X32381780Y-53243420D02*
X32381780Y-51232720D01*
D21*
X29651560Y-49245460D02*
X30210360Y-49245460D01*
X30210360Y-49245460D02*
X30733600Y-49768700D01*
X32316020Y-50136960D02*
X32316020Y-51166960D01*
X31947760Y-49768700D02*
X32316020Y-50136960D01*
X30733600Y-49768700D02*
X31947760Y-49768700D01*
X18154000Y-23354000D02*
X19265500Y-24465500D01*
X17614500Y-23354000D02*
X18154000Y-23354000D01*
X19819000Y-24465500D02*
X20916500Y-23368000D01*
X19265500Y-24465500D02*
X19819000Y-24465500D01*
X21429500Y-23368000D02*
X22504000Y-24442500D01*
X20916500Y-23368000D02*
X21429500Y-23368000D01*
X15633300Y-43416100D02*
X15633300Y-43317100D01*
X16250800Y-42699600D02*
X17347800Y-42699600D01*
X15633300Y-43317100D02*
X16250800Y-42699600D01*
X32316020Y-50426958D02*
X32316020Y-51166960D01*
X33654600Y-49768700D02*
X32974278Y-49768700D01*
X32974278Y-49768700D02*
X32316020Y-50426958D01*
X34604280Y-48819020D02*
X33654600Y-49768700D01*
X34604280Y-46233020D02*
X34604280Y-48819020D01*
X12806620Y-60279500D02*
X12037960Y-59510840D01*
X18503500Y-60279500D02*
X12806620Y-60279500D01*
X18650600Y-60132400D02*
X18503500Y-60279500D01*
X31287320Y-59908380D02*
X31267000Y-59928700D01*
D22*
X33132660Y-59908380D02*
X31287320Y-59908380D01*
D21*
X20944440Y-60132400D02*
X21351340Y-59725500D01*
X6759000Y-36756000D02*
X6565500Y-36562500D01*
X3200000Y-58420000D02*
X3200000Y-58392000D01*
X4198500Y-57393500D02*
X4198500Y-55598000D01*
X3200000Y-58392000D02*
X4198500Y-57393500D01*
X20883700Y-60279500D02*
X20980000Y-60183200D01*
X18503500Y-60279500D02*
X20883700Y-60279500D01*
X24184100Y-24442500D02*
X25196400Y-23430200D01*
X25720800Y-23430200D02*
X26720400Y-24429800D01*
X25196400Y-23430200D02*
X25720800Y-23430200D01*
X28800000Y-26189400D02*
X28800000Y-27150000D01*
X27040400Y-24429800D02*
X28800000Y-26189400D01*
X26720400Y-24429800D02*
X27040400Y-24429800D01*
X12037960Y-59510840D02*
X10726080Y-58198960D01*
X32410000Y-53271640D02*
X32381780Y-53243420D01*
D22*
X32410000Y-55547200D02*
X32410000Y-53271640D01*
D21*
X9753200Y-29542400D02*
X9753200Y-29999600D01*
X8432400Y-28221600D02*
X9753200Y-29542400D01*
X9105500Y-31612500D02*
X9105500Y-31104500D01*
X9753200Y-30456800D02*
X9753200Y-29999600D01*
X9105500Y-31104500D02*
X9753200Y-30456800D01*
X9115510Y-31622510D02*
X9105500Y-31612500D01*
X8790500Y-34637500D02*
X9115510Y-34312490D01*
X9115510Y-34312490D02*
X9115510Y-31622510D01*
X8470500Y-34637500D02*
X8790500Y-34637500D01*
X4046100Y-55750400D02*
X4198500Y-55598000D01*
X3098400Y-55750400D02*
X4046100Y-55750400D01*
X23824800Y-23492400D02*
X23824800Y-24356000D01*
X23911300Y-24442500D02*
X24184100Y-24442500D01*
X23824800Y-24356000D02*
X23911300Y-24442500D01*
X22504000Y-24442500D02*
X23911300Y-24442500D01*
X15950800Y-47978000D02*
X16154000Y-47774800D01*
X14884000Y-47978000D02*
X15950800Y-47978000D01*
X16154000Y-43936800D02*
X15633300Y-43416100D01*
X16154000Y-47774800D02*
X16154000Y-43936800D01*
D22*
X30505000Y-64900320D02*
X30505000Y-63563440D01*
X31588340Y-62480100D02*
X32925220Y-62480100D01*
X30505000Y-63563440D02*
X31588340Y-62480100D01*
D21*
X1700000Y-52194500D02*
X963500Y-52931000D01*
X1700000Y-50500000D02*
X1700000Y-52194500D01*
X4670010Y-44154990D02*
X4200000Y-44625000D01*
X6074990Y-44154990D02*
X4670010Y-44154990D01*
X6400000Y-44480000D02*
X6074990Y-44154990D01*
X6600000Y-36597000D02*
X6565500Y-36562500D01*
X6600000Y-38397500D02*
X6600000Y-36597000D01*
X6603000Y-36600000D02*
X6565500Y-36562500D01*
X7700000Y-36600000D02*
X6603000Y-36600000D01*
X6600000Y-44600000D02*
X6400000Y-44800000D01*
X3600000Y-41700000D02*
X3600000Y-42000000D01*
X6400000Y-44480000D02*
X6400000Y-44800000D01*
X3600000Y-42000000D02*
X3920000Y-42000000D01*
X3800000Y-26950880D02*
X2128880Y-25279760D01*
X600000Y-41600000D02*
X-200000Y-40800000D01*
X600000Y-42200000D02*
X600000Y-41600000D01*
X4200000Y-42500000D02*
X3600000Y-41900000D01*
X4200000Y-44625000D02*
X4200000Y-42500000D01*
X-200000Y-38000000D02*
X0Y-37800000D01*
X-200000Y-40800000D02*
X-200000Y-38000000D01*
X3800000Y-28000000D02*
X3800000Y-26950880D01*
X32664000Y-18133000D02*
X26695000Y-18133000D01*
X33553000Y-17244000D02*
X32664000Y-18133000D01*
X27944000Y-9156000D02*
X27997000Y-9156000D01*
X27528000Y-17300000D02*
X26695000Y-18133000D01*
X27600000Y-17300000D02*
X27528000Y-17300000D01*
X0Y-37800000D02*
X700000Y-37800000D01*
X9750000Y-56020000D02*
X9750000Y-54662500D01*
X10130000Y-56400000D02*
X9750000Y-56020000D01*
X14520000Y-48250000D02*
X13162500Y-48250000D01*
X14700000Y-48070000D02*
X14520000Y-48250000D01*
X6750000Y-45150000D02*
X6400000Y-44800000D01*
X6750000Y-46337500D02*
X6750000Y-45150000D01*
X4034298Y-52750000D02*
X3567000Y-53217298D01*
X3567000Y-53217298D02*
X3563500Y-53217298D01*
X4837500Y-52750000D02*
X4034298Y-52750000D01*
X8280000Y-3030000D02*
X8100000Y-2850000D01*
X38252000Y-5742000D02*
X35360000Y-2850000D01*
X38252000Y-7869000D02*
X38252000Y-5742000D01*
X7620000Y-5962000D02*
X8280000Y-6622000D01*
X7620000Y-2850000D02*
X7620000Y-5962000D01*
%TO.N,Net-(C24-Pad1)*%
X18503500Y-61249500D02*
X12456110Y-61249500D01*
X19386400Y-62132400D02*
X18503500Y-61249500D01*
X19488000Y-62183200D02*
X20980000Y-62183200D01*
X19437200Y-62132400D02*
X19488000Y-62183200D01*
X19386400Y-62132400D02*
X19437200Y-62132400D01*
X9250000Y-58043390D02*
X9250000Y-54662500D01*
X12456110Y-61249500D02*
X9250000Y-58043390D01*
%TO.N,Net-(J3-Pad1)*%
X2558400Y-31809600D02*
X2755500Y-31612500D01*
X2568000Y-31800000D02*
X2755500Y-31612500D01*
X887500Y-31612500D02*
X700000Y-31800000D01*
X2755500Y-31612500D02*
X887500Y-31612500D01*
%TO.N,PA9*%
X9527000Y-7592000D02*
X9550000Y-7569000D01*
X8280000Y-7592000D02*
X9527000Y-7592000D01*
X9550000Y-7569000D02*
X9827000Y-7569000D01*
X12852000Y-4544000D02*
X16182000Y-4544000D01*
X9827000Y-7569000D02*
X12852000Y-4544000D01*
X9250000Y-44586410D02*
X9250000Y-46337500D01*
X11150011Y-42686399D02*
X9250000Y-44586410D01*
X11150011Y-26589600D02*
X11150011Y-42686399D01*
X9550000Y-24989589D02*
X11150011Y-26589600D01*
X9550000Y-7569000D02*
X9550000Y-24989589D01*
%TO.N,PA8*%
X21996000Y-3447000D02*
X21442000Y-2893000D01*
X21996000Y-4544000D02*
X21996000Y-3447000D01*
X21996000Y-4544000D02*
X23139000Y-4544000D01*
X23139000Y-4544000D02*
X23901000Y-5306000D01*
X23901000Y-5306000D02*
X25100988Y-5306000D01*
X25725000Y-5930012D02*
X25725000Y-18133000D01*
X25100988Y-5306000D02*
X25725000Y-5930012D01*
X24914190Y-19580798D02*
X25725000Y-18769988D01*
X11600022Y-24541176D02*
X16560400Y-19580798D01*
X16560400Y-19580798D02*
X24914190Y-19580798D01*
X11600022Y-42872799D02*
X11600022Y-24541176D01*
X25725000Y-18769988D02*
X25725000Y-18133000D01*
X9750000Y-44722821D02*
X9750000Y-46337500D01*
X11600022Y-42872799D02*
X9750000Y-44722821D01*
%TO.N,PA10*%
X2715000Y-17221000D02*
X2438000Y-17498000D01*
X2715000Y-15720000D02*
X2715000Y-17221000D01*
X3200000Y-18260000D02*
X2438000Y-17498000D01*
X3200000Y-19276000D02*
X3200000Y-18260000D01*
X10700000Y-26776000D02*
X3200000Y-19276000D01*
X10700000Y-42499999D02*
X10700000Y-26776000D01*
X8750000Y-44450000D02*
X8750000Y-46337500D01*
X10700000Y-42499999D02*
X8750000Y-44450000D01*
%TO.N,PB1*%
X35204000Y-53408460D02*
X35170980Y-53375440D01*
X35204000Y-54886800D02*
X35204000Y-53408460D01*
X15142000Y-50268000D02*
X13141000Y-50268000D01*
X15290400Y-50416400D02*
X15142000Y-50268000D01*
%TO.N,Net-(J6-Pad3)*%
X7228500Y-42071500D02*
X7600000Y-41700000D01*
X7600000Y-41900000D02*
X7228500Y-42271500D01*
X7250000Y-42250000D02*
X7250000Y-46337500D01*
X7600000Y-41900000D02*
X7250000Y-42250000D01*
%TO.N,Net-(J6-Pad2)*%
X5968000Y-47768000D02*
X4816000Y-47768000D01*
X6500000Y-48300000D02*
X5968000Y-47768000D01*
%TO.N,Net-(J2-Pad2)*%
X1700000Y-48500000D02*
X3000000Y-49800000D01*
X3000000Y-49800000D02*
X3000000Y-50500000D01*
X3750000Y-51250000D02*
X4837500Y-51250000D01*
X3000000Y-50500000D02*
X3750000Y-51250000D01*
%TO.N,Net-(C29-Pad1)*%
X13800080Y-56400000D02*
X15482200Y-58082120D01*
X11100000Y-56400000D02*
X13800080Y-56400000D01*
X12476080Y-57776080D02*
X11100000Y-56400000D01*
X12476080Y-58198960D02*
X12476080Y-57776080D01*
X10250000Y-55531768D02*
X10250000Y-54662500D01*
X11100000Y-56381768D02*
X10250000Y-55531768D01*
X11100000Y-56400000D02*
X11100000Y-56381768D01*
%TD*%
M02*
